<svg width="25" height="25" viewBox="0 0 25 25" fill="none" xmlns="http://www.w3.org/2000/svg">
<g id="ic:outline-laptop-mac" clip-path="url(#clip0_1600_928)">
<path id="Vector" d="M20.5759 18.9058C21.6759 18.9058 22.5659 18.0058 22.5659 16.9058L22.5759 5.90576C22.5759 4.80576 21.6759 3.90576 20.5759 3.90576H4.57593C3.47593 3.90576 2.57593 4.80576 2.57593 5.90576V16.9058C2.57593 18.0058 3.47593 18.9058 4.57593 18.9058H0.575928C0.575928 20.0058 1.47593 20.9058 2.57593 20.9058H22.5759C23.6759 20.9058 24.5759 20.0058 24.5759 18.9058H20.5759ZM4.57593 5.90576H20.5759V16.9058H4.57593V5.90576ZM12.5759 19.9058C12.0259 19.9058 11.5759 19.4558 11.5759 18.9058C11.5759 18.3558 12.0259 17.9058 12.5759 17.9058C13.1259 17.9058 13.5759 18.3558 13.5759 18.9058C13.5759 19.4558 13.1259 19.9058 12.5759 19.9058Z" fill="#2C939E"/>
</g>
<defs>
<clipPath id="clip0_1600_928">
<rect width="24" height="24" fill="white" transform="translate(0.575928 0.905762)"/>
</clipPath>
</defs>
</svg>
