<svg width="25" height="25" viewBox="0 0 25 25" fill="none" xmlns="http://www.w3.org/2000/svg">
<g id="material-symbols:view-module-rounded">
<path id="Vector" d="M16.7508 12.4058C16.4675 12.4058 16.2298 12.3098 16.0378 12.1178C15.8458 11.9258 15.7502 11.6884 15.7508 11.4058V7.40577C15.7508 7.12243 15.8468 6.88477 16.0388 6.69277C16.2308 6.50077 16.4682 6.4051 16.7508 6.40577H20.0758C20.3592 6.40577 20.5968 6.50177 20.7888 6.69377C20.9808 6.88577 21.0765 7.1231 21.0758 7.40577V11.4058C21.0758 11.6891 20.9798 11.9268 20.7878 12.1188C20.5958 12.3108 20.3585 12.4064 20.0758 12.4058H16.7508ZM10.4258 12.4058C10.1425 12.4058 9.90516 12.3098 9.71383 12.1178C9.5225 11.9258 9.4265 11.6884 9.42583 11.4058V7.40577C9.42583 7.12243 9.52183 6.88477 9.71383 6.69277C9.90583 6.50077 10.1432 6.4051 10.4258 6.40577H13.7508C14.0342 6.40577 14.2718 6.50177 14.4638 6.69377C14.6558 6.88577 14.7515 7.1231 14.7508 7.40577V11.4058C14.7508 11.6891 14.6548 11.9268 14.4628 12.1188C14.2708 12.3108 14.0335 12.4064 13.7508 12.4058H10.4258ZM4.10083 12.4058C3.8175 12.4058 3.58016 12.3098 3.38883 12.1178C3.1975 11.9258 3.1015 11.6884 3.10083 11.4058V7.40577C3.10083 7.12243 3.19683 6.88477 3.38883 6.69277C3.58083 6.50077 3.81816 6.4051 4.10083 6.40577H7.42583C7.70916 6.40577 7.94683 6.50177 8.13883 6.69377C8.33083 6.88577 8.4265 7.1231 8.42583 7.40577V11.4058C8.42583 11.6891 8.32983 11.9268 8.13783 12.1188C7.94583 12.3108 7.7085 12.4064 7.42583 12.4058H4.10083ZM4.10083 19.4058C3.8175 19.4058 3.58016 19.3098 3.38883 19.1178C3.1975 18.9258 3.1015 18.6884 3.10083 18.4058V14.4058C3.10083 14.1224 3.19683 13.8848 3.38883 13.6928C3.58083 13.5008 3.81816 13.4051 4.10083 13.4058H7.42583C7.70916 13.4058 7.94683 13.5018 8.13883 13.6938C8.33083 13.8858 8.4265 14.1231 8.42583 14.4058V18.4058C8.42583 18.6891 8.32983 18.9268 8.13783 19.1188C7.94583 19.3108 7.7085 19.4064 7.42583 19.4058H4.10083ZM10.4258 19.4058C10.1425 19.4058 9.90516 19.3098 9.71383 19.1178C9.5225 18.9258 9.4265 18.6884 9.42583 18.4058V14.4058C9.42583 14.1224 9.52183 13.8848 9.71383 13.6928C9.90583 13.5008 10.1432 13.4051 10.4258 13.4058H13.7508C14.0342 13.4058 14.2718 13.5018 14.4638 13.6938C14.6558 13.8858 14.7515 14.1231 14.7508 14.4058V18.4058C14.7508 18.6891 14.6548 18.9268 14.4628 19.1188C14.2708 19.3108 14.0335 19.4064 13.7508 19.4058H10.4258ZM16.7508 19.4058C16.4675 19.4058 16.2298 19.3098 16.0378 19.1178C15.8458 18.9258 15.7502 18.6884 15.7508 18.4058V14.4058C15.7508 14.1224 15.8468 13.8848 16.0388 13.6928C16.2308 13.5008 16.4682 13.4051 16.7508 13.4058H20.0758C20.3592 13.4058 20.5968 13.5018 20.7888 13.6938C20.9808 13.8858 21.0765 14.1231 21.0758 14.4058V18.4058C21.0758 18.6891 20.9798 18.9268 20.7878 19.1188C20.5958 19.3108 20.3585 19.4064 20.0758 19.4058H16.7508Z" fill="#2C939E"/>
</g>
</svg>
