<svg width="22" height="22" viewBox="0 0 22 22" fill="none" xmlns="http://www.w3.org/2000/svg">
<path d="M10.3246 1.64979L12.3231 0.000266344C13.3593 1.67094 14.3639 3.13014 15.3367 4.37785C16.3094 5.62557 17.314 6.73583 18.3502 7.70863C19.3864 8.66028 20.4967 9.56963 21.681 10.4367V10.627C20.4967 11.4729 19.3864 12.3823 18.3502 13.3551C17.314 14.3279 16.3094 15.4381 15.3367 16.6859C14.3639 17.9124 13.3593 19.3716 12.3231 21.0634L10.3246 19.4139C11.1917 18.0816 12.0587 16.8868 12.9258 15.8294C13.814 14.7508 14.6916 13.8098 15.5587 13.0061C16.4258 12.2025 17.2717 11.5469 18.0964 11.0394C18.9212 10.5319 19.7142 10.1829 20.4756 9.99259V11.0711C19.7142 10.8808 18.9212 10.5319 18.0964 10.0243C17.2717 9.51676 16.4258 8.86118 15.5587 8.05757C14.6916 7.25395 13.814 6.32345 12.9258 5.26606C12.0587 4.18752 11.1917 2.9821 10.3246 1.64979ZM0.554361 9.26299H11.8155C13.1479 9.26299 14.311 9.29471 15.3049 9.35815C16.32 9.4216 17.2188 9.49561 18.0013 9.58021L19.9046 10.5319L18.0013 11.4835C17.2188 11.5681 16.32 11.6421 15.3049 11.7056C14.311 11.769 13.1479 11.8007 11.8155 11.8007H0.554361V9.26299Z" fill="#969696"/>
</svg>
