<svg width="22" height="22" viewBox="0 0 22 22" fill="none" xmlns="http://www.w3.org/2000/svg">
<path d="M11.6754 1.64979L9.67691 0.000266344C8.64067 1.67094 7.63615 3.13014 6.66335 4.37785C5.69055 5.62557 4.68603 6.73583 3.64979 7.70863C2.61355 8.66028 1.50329 9.56963 0.31902 10.4367V10.627C1.50329 11.4729 2.61355 12.3823 3.64979 13.3551C4.68603 14.3279 5.69055 15.4381 6.66335 16.6859C7.63615 17.9124 8.64067 19.3716 9.67691 21.0634L11.6754 19.4139C10.8083 18.0816 9.94125 16.8868 9.0742 15.8294C8.18599 14.7508 7.30836 13.8098 6.4413 13.0061C5.57424 12.2025 4.72833 11.5469 3.90357 11.0394C3.0788 10.5319 2.28576 10.1829 1.52444 9.99259V11.0711C2.28576 10.8808 3.0788 10.5319 3.90357 10.0243C4.72833 9.51676 5.57424 8.86118 6.4413 8.05757C7.30836 7.25395 8.18599 6.32345 9.0742 5.26606C9.94125 4.18752 10.8083 2.9821 11.6754 1.64979ZM21.4456 9.26299H10.1845C8.85214 9.26299 7.68902 9.29471 6.69507 9.35815C5.67998 9.4216 4.7812 9.49561 3.99873 9.58021L2.09543 10.5319L3.99873 11.4835C4.7812 11.5681 5.67998 11.6421 6.69507 11.7056C7.68902 11.769 8.85214 11.8007 10.1845 11.8007H21.4456V9.26299Z" fill="#969696"/>
</svg>
