<svg width="176" height="176" viewBox="0 0 176 176" fill="none" xmlns="http://www.w3.org/2000/svg">
<rect opacity="0.5" x="25.7744" y="25.7746" width="124.451" height="124.451" rx="15" fill="#FFA629"/>
<rect y="88" width="124.451" height="124.451" rx="15" transform="rotate(-45 0 88)" fill="#FFA629"/>
<path d="M36.4177 74.372V101.88H29.3977V74.372H36.4177ZM45.9337 84.928V91.272H19.8297V84.928H45.9337ZM64.8365 70.264C67.4365 70.264 69.6899 70.6453 71.5965 71.408C73.5032 72.1707 74.9765 73.2627 76.0165 74.684C77.0912 76.0707 77.6285 77.7347 77.6285 79.676C77.6285 81.5133 77.1779 83.0907 76.2765 84.408C75.3752 85.7253 74.0405 86.7307 72.2725 87.424V87.476C74.3525 88.1693 75.9645 89.192 77.1085 90.544C78.2525 91.8613 78.8245 93.56 78.8245 95.64C78.8245 97.6507 78.2525 99.4013 77.1085 100.892C75.9992 102.348 74.4045 103.492 72.3245 104.324C70.2445 105.121 67.7485 105.52 64.8365 105.52C61.9592 105.52 59.4805 105.121 57.4005 104.324C55.3205 103.492 53.7085 102.348 52.5645 100.892C51.4552 99.4013 50.9005 97.6507 50.9005 95.64C50.9005 93.56 51.4725 91.8613 52.6165 90.544C53.7605 89.192 55.3725 88.1693 57.4525 87.476V87.424C55.7192 86.7653 54.3845 85.7773 53.4485 84.46C52.5125 83.108 52.0445 81.5133 52.0445 79.676C52.0445 77.7347 52.5645 76.0707 53.6045 74.684C54.6792 73.2627 56.1872 72.1707 58.1285 71.408C60.0699 70.6453 62.3059 70.264 64.8365 70.264ZM64.8885 76.764C63.5019 76.764 62.3925 77.1107 61.5605 77.804C60.7285 78.4973 60.3125 79.468 60.3125 80.716C60.3125 81.9293 60.7285 82.9 61.5605 83.628C62.3925 84.3213 63.5019 84.668 64.8885 84.668C66.2752 84.668 67.3672 84.3213 68.1645 83.628C68.9965 82.9 69.4125 81.9293 69.4125 80.716C69.4125 79.468 68.9965 78.4973 68.1645 77.804C67.3672 77.1107 66.2752 76.764 64.8885 76.764ZM64.8885 99.02C65.9979 99.02 66.9339 98.864 67.6965 98.552C68.4939 98.2053 69.1005 97.7027 69.5165 97.044C69.9325 96.3853 70.1405 95.6227 70.1405 94.756C70.1405 93.8547 69.9325 93.092 69.5165 92.468C69.1005 91.8093 68.4939 91.324 67.6965 91.012C66.8992 90.6653 65.9632 90.492 64.8885 90.492C63.8139 90.492 62.8605 90.6653 62.0285 91.012C61.2312 91.324 60.6245 91.8093 60.2085 92.468C59.7925 93.092 59.5845 93.8547 59.5845 94.756C59.5845 95.6227 59.7925 96.3853 60.2085 97.044C60.6245 97.7027 61.2312 98.2053 62.0285 98.552C62.8259 98.864 63.7792 99.02 64.8885 99.02ZM81.1008 70.68H109.337V77.024C106.494 79.832 104.241 82.7267 102.577 85.708C100.947 88.6547 99.7861 91.7227 99.0928 94.912C98.4341 98.1013 98.1048 101.464 98.1048 105H89.2648C89.2648 101.221 89.7328 97.6333 90.6688 94.236C91.6394 90.804 93.1301 87.528 95.1408 84.408C97.1861 81.288 99.8208 78.272 103.045 75.36L104.917 77.7H81.1008V70.68ZM120.121 105L143.989 70.628H150.749L126.881 105H120.121ZM122.253 70.16C124.229 70.16 125.928 70.576 127.349 71.408C128.805 72.2053 129.932 73.332 130.729 74.788C131.527 76.244 131.925 77.96 131.925 79.936C131.925 81.912 131.527 83.628 130.729 85.084C129.932 86.54 128.805 87.684 127.349 88.516C125.928 89.3133 124.229 89.712 122.253 89.712C120.312 89.712 118.613 89.3133 117.157 88.516C115.736 87.684 114.609 86.54 113.777 85.084C112.98 83.628 112.581 81.912 112.581 79.936C112.581 77.96 112.98 76.244 113.777 74.788C114.609 73.332 115.736 72.2053 117.157 71.408C118.613 70.576 120.312 70.16 122.253 70.16ZM122.253 76.088C121.595 76.088 121.04 76.244 120.589 76.556C120.139 76.8333 119.792 77.2667 119.549 77.856C119.307 78.4107 119.185 79.104 119.185 79.936C119.185 80.7333 119.307 81.4267 119.549 82.016C119.792 82.6053 120.139 83.056 120.589 83.368C121.04 83.6453 121.595 83.784 122.253 83.784C122.947 83.784 123.519 83.6453 123.969 83.368C124.42 83.056 124.767 82.6053 125.009 82.016C125.252 81.4267 125.373 80.7333 125.373 79.936C125.373 79.104 125.252 78.4107 125.009 77.856C124.767 77.2667 124.42 76.8333 123.969 76.556C123.519 76.244 122.947 76.088 122.253 76.088ZM148.513 85.968C150.455 85.968 152.153 86.384 153.609 87.216C155.065 88.0133 156.192 89.14 156.989 90.596C157.787 92.052 158.185 93.768 158.185 95.744C158.185 97.72 157.787 99.436 156.989 100.892C156.192 102.348 155.065 103.492 153.609 104.324C152.153 105.121 150.455 105.52 148.513 105.52C146.572 105.52 144.873 105.121 143.417 104.324C141.961 103.492 140.835 102.348 140.037 100.892C139.24 99.436 138.841 97.72 138.841 95.744C138.841 93.768 139.24 92.052 140.037 90.596C140.835 89.14 141.961 88.0133 143.417 87.216C144.873 86.384 146.572 85.968 148.513 85.968ZM148.513 91.896C147.855 91.896 147.283 92.052 146.797 92.364C146.347 92.6413 146 93.0747 145.757 93.664C145.515 94.2187 145.393 94.912 145.393 95.744C145.393 96.5413 145.515 97.2347 145.757 97.824C146 98.4133 146.347 98.864 146.797 99.176C147.283 99.4533 147.855 99.592 148.513 99.592C149.207 99.592 149.779 99.4533 150.229 99.176C150.68 98.864 151.027 98.4133 151.269 97.824C151.512 97.2347 151.633 96.5413 151.633 95.744C151.633 94.912 151.512 94.2187 151.269 93.664C151.027 93.0747 150.68 92.6413 150.229 92.364C149.779 92.052 149.207 91.896 148.513 91.896Z" fill="white"/>
</svg>
