<svg width="177" height="176" viewBox="0 0 177 176" fill="none" xmlns="http://www.w3.org/2000/svg">
<rect opacity="0.5" x="26.2744" y="25.7746" width="124.451" height="124.451" rx="15" fill="#FFA629"/>
<rect x="0.5" y="88" width="124.451" height="124.451" rx="15" transform="rotate(-45 0.5 88)" fill="#FFA629"/>
<path d="M36.8494 74.372V101.88H29.8294V74.372H36.8494ZM46.3654 84.928V91.272H20.2614V84.928H46.3654ZM51.7567 105V99.28C54.7034 97.4427 57.2167 95.7267 59.2967 94.132C61.3767 92.5373 63.0581 91.0293 64.3407 89.608C65.6581 88.1867 66.6287 86.8347 67.2527 85.552C67.8767 84.2693 68.1887 83.0213 68.1887 81.808C68.1887 80.4907 67.7901 79.3987 66.9927 78.532C66.2301 77.6307 65.0861 77.18 63.5607 77.18C61.9314 77.18 60.6661 77.7867 59.7647 79C58.8634 80.1787 58.3781 81.912 58.3087 84.2L50.6647 81.86C50.7341 79.2947 51.3407 77.1453 52.4847 75.412C53.6634 73.6787 55.2581 72.3787 57.2687 71.512C59.2794 70.6107 61.5674 70.16 64.1327 70.16C66.3861 70.16 68.3274 70.4893 69.9567 71.148C71.6207 71.772 72.9727 72.6213 74.0127 73.696C75.0527 74.736 75.8154 75.9147 76.3007 77.232C76.8207 78.5147 77.0807 79.832 77.0807 81.184C77.0807 83.4027 76.5087 85.4827 75.3647 87.424C74.2207 89.3307 72.5567 91.1853 70.3727 92.988C68.2234 94.756 65.6061 96.5413 62.5207 98.344V98.396C63.1101 98.3613 63.8034 98.3267 64.6007 98.292C65.3981 98.2573 66.2301 98.24 67.0967 98.24C67.9634 98.2053 68.7434 98.188 69.4367 98.188H77.4967V105H51.7567ZM82.7333 105V99.28C85.6799 97.4427 88.1933 95.7267 90.2733 94.132C92.3533 92.5373 94.0346 91.0293 95.3173 89.608C96.6346 88.1867 97.6053 86.8347 98.2293 85.552C98.8533 84.2693 99.1653 83.0213 99.1653 81.808C99.1653 80.4907 98.7666 79.3987 97.9693 78.532C97.2066 77.6307 96.0626 77.18 94.5373 77.18C92.9079 77.18 91.6426 77.7867 90.7413 79C89.8399 80.1787 89.3546 81.912 89.2853 84.2L81.6413 81.86C81.7106 79.2947 82.3173 77.1453 83.4613 75.412C84.6399 73.6787 86.2346 72.3787 88.2453 71.512C90.2559 70.6107 92.5439 70.16 95.1093 70.16C97.3626 70.16 99.3039 70.4893 100.933 71.148C102.597 71.772 103.949 72.6213 104.989 73.696C106.029 74.736 106.792 75.9147 107.277 77.232C107.797 78.5147 108.057 79.832 108.057 81.184C108.057 83.4027 107.485 85.4827 106.341 87.424C105.197 89.3307 103.533 91.1853 101.349 92.988C99.1999 94.756 96.5826 96.5413 93.4973 98.344V98.396C94.0866 98.3613 94.7799 98.3267 95.5773 98.292C96.3746 98.2573 97.2066 98.24 98.0733 98.24C98.9399 98.2053 99.7199 98.188 100.413 98.188H108.473V105H82.7333ZM119.69 105L143.558 70.628H150.318L126.45 105H119.69ZM121.822 70.16C123.798 70.16 125.497 70.576 126.918 71.408C128.374 72.2053 129.501 73.332 130.298 74.788C131.095 76.244 131.494 77.96 131.494 79.936C131.494 81.912 131.095 83.628 130.298 85.084C129.501 86.54 128.374 87.684 126.918 88.516C125.497 89.3133 123.798 89.712 121.822 89.712C119.881 89.712 118.182 89.3133 116.726 88.516C115.305 87.684 114.178 86.54 113.346 85.084C112.549 83.628 112.15 81.912 112.15 79.936C112.15 77.96 112.549 76.244 113.346 74.788C114.178 73.332 115.305 72.2053 116.726 71.408C118.182 70.576 119.881 70.16 121.822 70.16ZM121.822 76.088C121.163 76.088 120.609 76.244 120.158 76.556C119.707 76.8333 119.361 77.2667 119.118 77.856C118.875 78.4107 118.754 79.104 118.754 79.936C118.754 80.7333 118.875 81.4267 119.118 82.016C119.361 82.6053 119.707 83.056 120.158 83.368C120.609 83.6453 121.163 83.784 121.822 83.784C122.515 83.784 123.087 83.6453 123.538 83.368C123.989 83.056 124.335 82.6053 124.578 82.016C124.821 81.4267 124.942 80.7333 124.942 79.936C124.942 79.104 124.821 78.4107 124.578 77.856C124.335 77.2667 123.989 76.8333 123.538 76.556C123.087 76.244 122.515 76.088 121.822 76.088ZM148.082 85.968C150.023 85.968 151.722 86.384 153.178 87.216C154.634 88.0133 155.761 89.14 156.558 90.596C157.355 92.052 157.754 93.768 157.754 95.744C157.754 97.72 157.355 99.436 156.558 100.892C155.761 102.348 154.634 103.492 153.178 104.324C151.722 105.121 150.023 105.52 148.082 105.52C146.141 105.52 144.442 105.121 142.986 104.324C141.53 103.492 140.403 102.348 139.606 100.892C138.809 99.436 138.41 97.72 138.41 95.744C138.41 93.768 138.809 92.052 139.606 90.596C140.403 89.14 141.53 88.0133 142.986 87.216C144.442 86.384 146.141 85.968 148.082 85.968ZM148.082 91.896C147.423 91.896 146.851 92.052 146.366 92.364C145.915 92.6413 145.569 93.0747 145.326 93.664C145.083 94.2187 144.962 94.912 144.962 95.744C144.962 96.5413 145.083 97.2347 145.326 97.824C145.569 98.4133 145.915 98.864 146.366 99.176C146.851 99.4533 147.423 99.592 148.082 99.592C148.775 99.592 149.347 99.4533 149.798 99.176C150.249 98.864 150.595 98.4133 150.838 97.824C151.081 97.2347 151.202 96.5413 151.202 95.744C151.202 94.912 151.081 94.2187 150.838 93.664C150.595 93.0747 150.249 92.6413 149.798 92.364C149.347 92.052 148.775 91.896 148.082 91.896Z" fill="white"/>
</svg>
