<svg width="122" height="122" viewBox="0 0 122 122" fill="none" xmlns="http://www.w3.org/2000/svg">
<g clip-path="url(#clip0_347_711)">
<path d="M61 122C94.6894 122 122 94.6894 122 61C122 27.3106 94.6894 0 61 0C27.3106 0 0 27.3106 0 61C0 94.6894 27.3106 122 61 122Z" fill="#2C939E"/>
<mask id="mask0_347_711" style="mask-type:luminance" maskUnits="userSpaceOnUse" x="31" y="31" width="61" height="60">
<path d="M91.5 31H31.5V91H91.5V31Z" fill="white"/>
</mask>
<g mask="url(#mask0_347_711)">
<mask id="mask1_347_711" style="mask-type:luminance" maskUnits="userSpaceOnUse" x="31" y="34" width="61" height="60">
<path d="M91.5 34H31.5V94H91.5V34Z" fill="white"/>
</mask>
<g mask="url(#mask1_347_711)">
<path d="M61.5 47.75C63.8206 47.75 66.0462 48.6719 67.6872 50.3128C69.3281 51.9538 70.25 54.1794 70.25 56.5C70.25 58.8206 69.3281 61.0462 67.6872 62.6872C66.0462 64.3281 63.8206 65.25 61.5 65.25C59.1794 65.25 56.9538 64.3281 55.3128 62.6872C53.6719 61.0462 52.75 58.8206 52.75 56.5C52.75 54.1794 53.6719 51.9538 55.3128 50.3128C56.9538 48.6719 59.1794 47.75 61.5 47.75ZM44 54C45.4 54 46.7 54.375 47.825 55.05C47.45 58.625 48.5 62.175 50.65 64.95C49.4 67.35 46.9 69 44 69C42.0109 69 40.1032 68.2098 38.6967 66.8033C37.2902 65.3968 36.5 63.4891 36.5 61.5C36.5 59.5109 37.2902 57.6032 38.6967 56.1967C40.1032 54.7902 42.0109 54 44 54ZM79 54C80.9891 54 82.8968 54.7902 84.3033 56.1967C85.7098 57.6032 86.5 59.5109 86.5 61.5C86.5 63.4891 85.7098 65.3968 84.3033 66.8033C82.8968 68.2098 80.9891 69 79 69C76.1 69 73.6 67.35 72.35 64.95C74.5297 62.136 75.5414 58.5905 75.175 55.05C76.3 54.375 77.6 54 79 54ZM45.25 79.625C45.25 74.45 52.525 70.25 61.5 70.25C70.475 70.25 77.75 74.45 77.75 79.625V84H45.25V79.625ZM31.5 84V80.25C31.5 76.775 36.225 73.85 42.625 73C41.15 74.7 40.25 77.05 40.25 79.625V84H31.5ZM91.5 84H82.75V79.625C82.75 77.05 81.85 74.7 80.375 73C86.775 73.85 91.5 76.775 91.5 80.25V84Z" fill="white"/>
</g>
</g>
</g>
<defs>
<clipPath id="clip0_347_711">
<rect width="122" height="122" fill="white"/>
</clipPath>
</defs>
</svg>
