<svg width="123" height="122" viewBox="0 0 123 122" fill="none" xmlns="http://www.w3.org/2000/svg">
<g clip-path="url(#clip0_347_673)">
<path d="M61.5 122C95.1894 122 122.5 94.6894 122.5 61C122.5 27.3106 95.1894 0 61.5 0C27.8106 0 0.5 27.3106 0.5 61C0.5 94.6894 27.8106 122 61.5 122Z" fill="#2C939E"/>
<mask id="mask0_347_673" style="mask-type:luminance" maskUnits="userSpaceOnUse" x="32" y="31" width="60" height="60">
<path d="M92 31H32V91H92V31Z" fill="white"/>
</mask>
<g mask="url(#mask0_347_673)">
<path d="M71.7188 36.0024C72.2181 36.0024 72.6502 36.1838 73.0151 36.5466L91.4526 54.8792C91.8175 55.242 92 55.6717 92 56.1682C92 56.6647 91.8175 57.0944 91.4526 57.4572L84.4521 64.4178C84.9323 64.8952 85.4028 65.3535 85.8638 65.7928C86.3247 66.232 86.728 66.6807 87.0737 67.1391C87.4194 67.5974 87.7075 68.113 87.938 68.6859C88.1685 69.2588 88.2837 69.8985 88.2837 70.6051C88.2837 71.3689 88.1396 72.0946 87.8516 72.782C87.5635 73.4695 87.1698 74.071 86.6704 74.5867C86.1711 75.1023 85.5853 75.5128 84.9131 75.8184C84.2409 76.1239 83.5207 76.2862 82.7524 76.3053C82.714 77.0883 82.5508 77.8044 82.2627 78.4537C81.9746 79.1029 81.5905 79.6758 81.1104 80.1723C80.6302 80.6688 80.054 81.0603 79.3818 81.3468C78.7096 81.6332 77.9894 81.786 77.2212 81.8051C77.202 82.5689 77.0387 83.2851 76.7314 83.9534C76.4242 84.6218 76.0112 85.2042 75.4927 85.7008C74.9741 86.1973 74.3691 86.5983 73.6777 86.9038C72.9863 87.2094 72.2565 87.3526 71.4883 87.3335C70.8737 87.3335 70.2495 87.2285 69.6157 87.0184C69.4045 87.6104 69.126 88.1451 68.7803 88.6225C68.4346 89.0999 68.012 89.52 67.5127 89.8829C67.0133 90.2457 66.4852 90.5226 65.9282 90.7136C65.3713 90.9045 64.7663 91 64.1133 91C63.6139 91 63.1722 90.9618 62.7881 90.8854C62.404 90.809 62.0487 90.6754 61.7222 90.4844C61.3957 90.2934 61.0692 90.0834 60.7427 89.8542C60.4162 89.6251 60.0801 89.3482 59.7344 89.0235C59.0622 89.6346 58.4092 90.112 57.7754 90.4558C57.1416 90.7995 56.335 90.9809 55.3555 91C54.5872 91 53.8574 90.8568 53.166 90.5703C52.4746 90.2839 51.8696 89.8924 51.3511 89.3959C50.8325 88.8994 50.4196 88.317 50.1123 87.6486C49.805 86.9802 49.6418 86.2545 49.6226 85.4716C48.8735 85.4525 48.1629 85.2997 47.4907 85.0133C46.8185 84.7268 46.2327 84.3354 45.7334 83.8389C45.234 83.3423 44.8403 82.7599 44.5522 82.0915C44.2642 81.4232 44.1105 80.7166 44.0913 79.9718C43.3231 79.9527 42.6125 79.8 41.9595 79.5135C41.3065 79.2271 40.7303 78.8356 40.231 78.3391C39.7316 77.8426 39.3379 77.2601 39.0498 76.5918C38.7617 75.9234 38.5985 75.2168 38.5601 74.4721C37.7726 74.453 37.0428 74.2907 36.3706 73.9851C35.6984 73.6796 35.1126 73.269 34.6133 72.7534C34.1139 72.2378 33.7202 71.6458 33.4321 70.9774C33.144 70.3091 33 69.5834 33 68.8004C33 68.0175 33.144 67.2823 33.4321 66.5948C33.7202 65.9073 34.1427 65.2867 34.6997 64.7329L37.7534 61.6679L33.5474 57.4572C33.1825 57.0944 33 56.6647 33 56.1682C33 55.6717 33.1825 55.242 33.5474 54.8792L51.9849 36.5466C52.3498 36.1838 52.7819 36.0024 53.2812 36.0024C53.7806 36.0024 54.2127 36.1838 54.5776 36.5466L58.3804 40.3277C58.63 40.2513 59.1102 40.089 59.8208 39.8408C60.5314 39.5925 61.3669 39.3156 62.3271 39.0101C63.2874 38.7045 64.2765 38.3703 65.2944 38.0075C66.3123 37.6447 67.2918 37.32 68.2329 37.0336C69.174 36.7471 69.9518 36.4989 70.5664 36.2888C71.181 36.0788 71.5651 35.9833 71.7188 36.0024ZM41.9883 63.5012C41.4313 63.5012 40.9512 63.7017 40.5479 64.1027L37.2925 67.3109C36.8892 67.7119 36.6875 68.1989 36.6875 68.7718C36.6875 69.3447 36.8796 69.8221 37.2637 70.204C37.6478 70.586 38.1375 70.7865 38.7329 70.8056C39.3283 70.8056 39.818 70.6146 40.2021 70.2327L43.4575 67.0245C43.8608 66.6235 44.0625 66.1365 44.0625 65.5636C44.0625 64.9907 43.8608 64.5038 43.4575 64.1027C43.0542 63.7017 42.5645 63.5012 41.9883 63.5012ZM47.5195 69.001C47.2507 69.001 46.9914 69.0487 46.7417 69.1442C46.492 69.2397 46.2616 69.3924 46.0503 69.6025L42.8237 72.8393C42.4204 73.2404 42.2188 73.7273 42.2188 74.3002C42.2188 74.854 42.4204 75.3219 42.8237 75.7038C43.2271 76.0857 43.7168 76.2862 44.293 76.3053C44.5618 76.3053 44.8211 76.2576 45.0708 76.1621C45.3205 76.0666 45.5509 75.9234 45.7622 75.7324L48.9888 72.4956C49.3921 72.0946 49.5938 71.6172 49.5938 71.0634C49.5938 70.4905 49.3921 70.0035 48.9888 69.6025C48.5854 69.2015 48.0957 69.001 47.5195 69.001ZM53.0508 74.5007C52.4938 74.5007 52.0137 74.7012 51.6104 75.1023L48.355 78.3104C47.9517 78.7115 47.75 79.1984 47.75 79.7713C47.75 80.3442 47.9421 80.8216 48.3262 81.2035C48.7103 81.5855 49.2 81.786 49.7954 81.8051C50.3908 81.8051 50.8805 81.6141 51.2646 81.2322L54.52 78.024C54.9233 77.623 55.125 77.136 55.125 76.5631C55.125 75.9902 54.9233 75.5033 54.52 75.1023C54.1167 74.7012 53.627 74.5007 53.0508 74.5007ZM53.2812 85.2997C53.2812 85.8535 53.4829 86.3214 53.8862 86.7033C54.2896 87.0852 54.7793 87.2858 55.3555 87.3048C55.6243 87.3048 55.8836 87.2571 56.1333 87.1616C56.383 87.0661 56.6134 86.9229 56.8247 86.732L60.0513 83.4951C60.4546 83.0941 60.6562 82.6167 60.6562 82.0629C60.6562 81.49 60.4546 81.003 60.0513 80.602C59.6479 80.201 59.1582 80.0005 58.582 80.0005C58.3132 80.0005 58.0539 80.0482 57.8042 80.1437C57.5545 80.2392 57.3241 80.392 57.1128 80.602L53.8862 83.8389C53.4829 84.2399 53.2812 84.7268 53.2812 85.2997ZM82.5508 72.6675C83.1077 72.6675 83.5879 72.4669 83.9912 72.0659C84.3945 71.6649 84.6058 71.1875 84.625 70.6337C84.625 70.0608 84.4233 69.5738 84.02 69.1728L65.813 51.0408C65.7554 50.9835 65.6593 50.9358 65.5249 50.8976C65.3905 50.8594 65.256 50.8212 65.1216 50.783C64.9871 50.7448 64.8431 50.7162 64.6895 50.6971C64.5358 50.678 64.4206 50.6684 64.3438 50.6684C63.8444 50.6684 63.3739 50.7639 62.9321 50.9549C62.4904 51.1458 62.0967 51.4036 61.751 51.7283C61.4053 52.0529 61.1364 52.4444 60.9443 52.9027C60.7523 53.361 60.6562 53.8384 60.6562 54.3349C60.6562 55.347 60.4642 56.2923 60.0801 57.1707C59.696 58.0492 59.1678 58.8321 58.4956 59.5196C57.8234 60.2071 57.0456 60.7322 56.1621 61.095C55.2786 61.4579 54.3184 61.6488 53.2812 61.6679C52.513 61.6679 51.7928 61.5247 51.1206 61.2383C50.4484 60.9518 49.8626 60.5603 49.3633 60.0638C48.8639 59.5673 48.4702 58.9849 48.1821 58.3165C47.894 57.6481 47.75 56.932 47.75 56.1682C47.75 55.7099 47.798 55.2038 47.894 54.65C47.9901 54.0962 48.1437 53.5997 48.355 53.1605L53.7422 42.4188C53.915 42.1132 54.1743 41.865 54.52 41.674L53.2812 40.4423L37.4365 56.1682L41.3257 60.0066C42.1899 59.9111 43.0062 59.9684 43.7744 60.1784C44.5426 60.3885 45.2148 60.7418 45.791 61.2383C46.3672 61.7348 46.8281 62.3363 47.1738 63.0429C47.5195 63.7494 47.702 64.5419 47.7212 65.4204C48.4894 65.4586 49.2096 65.6113 49.8818 65.8787C50.554 66.146 51.1302 66.528 51.6104 67.0245C52.0905 67.521 52.4842 68.0939 52.7915 68.7432C53.0988 69.3924 53.2524 70.1181 53.2524 70.9201C54.0207 70.9583 54.7409 71.1111 55.4131 71.3785C56.0853 71.6458 56.6615 72.0277 57.1416 72.5242C57.6217 73.0207 58.0155 73.5936 58.3228 74.2429C58.63 74.8922 58.7837 75.6179 58.7837 76.4199C59.5711 76.4581 60.3009 76.6204 60.9731 76.9069C61.6453 77.1933 62.2311 77.5848 62.7305 78.0813C63.2298 78.5778 63.6235 79.1698 63.9116 79.8573C64.1997 80.5447 64.3438 81.2799 64.3438 82.0629C64.3438 82.9222 64.1709 83.7243 63.8252 84.469C63.4795 85.2138 62.9801 85.8631 62.3271 86.4169C62.6152 86.6842 62.8745 86.9038 63.105 87.0757C63.3354 87.2476 63.6716 87.3335 64.1133 87.3335C64.6702 87.3335 65.1504 87.133 65.5537 86.732C65.957 86.3309 66.1683 85.8535 66.1875 85.2997C66.1875 84.7268 65.9858 84.2399 65.5825 83.8389L68.1753 81.2322L70.0479 83.0654C70.4896 83.4665 70.9697 83.667 71.4883 83.667C72.0452 83.667 72.5254 83.4665 72.9287 83.0654C73.332 82.6644 73.5433 82.187 73.5625 81.6332C73.5625 81.0603 73.3608 80.5734 72.9575 80.1723L69.7021 76.9355L72.3237 74.3575L75.5503 77.5657C75.9536 77.9667 76.4434 78.1672 77.0195 78.1672C77.5957 78.1672 78.0854 77.9667 78.4888 77.5657C78.8921 77.1647 79.0938 76.6777 79.0938 76.1048C79.0938 75.5319 78.8921 75.045 78.4888 74.6439L75.2334 71.4357L77.855 68.8291L81.1104 72.0659C81.5137 72.4669 81.9938 72.6675 82.5508 72.6675ZM87.5347 56.1682L71.229 39.9267L56.7095 44.739L51.6968 54.7073C51.6007 54.8792 51.5335 55.1179 51.4951 55.4234C51.4567 55.729 51.4375 55.9772 51.4375 56.1682C51.4375 56.6647 51.62 57.0944 51.9849 57.4572C52.3498 57.82 52.7819 58.0014 53.2812 58.0014C53.7998 58.0014 54.2799 57.906 54.7217 57.715C55.1634 57.524 55.5475 57.2662 55.874 56.9416C56.2005 56.6169 56.4694 56.2255 56.6807 55.7672C56.8919 55.3088 56.988 54.8314 56.9688 54.3349C56.9688 53.3228 57.1608 52.3775 57.5449 51.4991C57.929 50.6207 58.4572 49.8377 59.1294 49.1503C59.8016 48.4628 60.5794 47.9376 61.4629 47.5748C62.3464 47.212 63.3066 47.021 64.3438 47.0019C64.651 47.0019 64.9775 47.0306 65.3232 47.0878C65.6689 47.1451 66.0339 47.2215 66.418 47.317C66.8021 47.4125 67.1382 47.5462 67.4263 47.718C67.7144 47.8899 67.9928 48.0904 68.2617 48.3196L81.8594 61.8398L87.5347 56.1682Z" fill="white"/>
</g>
</g>
<defs>
<clipPath id="clip0_347_673">
<rect width="123" height="122" fill="white"/>
</clipPath>
</defs>
</svg>
