<svg width="40" height="41" viewBox="0 0 40 41" fill="none" xmlns="http://www.w3.org/2000/svg">
<g clip-path="url(#clip0_588_27765)">
<path d="M19.1425 16.5305C19.4175 15.7055 20.5825 15.7055 20.8575 16.5305L22.47 21.373C22.8249 22.4375 23.4229 23.4047 24.2166 24.1979C25.0103 24.9912 25.9778 25.5887 27.0425 25.943L31.8825 27.5555C32.7075 27.8305 32.7075 28.9955 31.8825 29.2705L27.04 30.883C25.9755 31.2379 25.0083 31.8359 24.2151 32.6296C23.4218 33.4233 22.8244 34.3908 22.47 35.4555L20.8575 40.2955C20.7982 40.4762 20.6834 40.6335 20.5294 40.745C20.3754 40.8565 20.1901 40.9166 20 40.9166C19.8099 40.9166 19.6246 40.8565 19.4706 40.745C19.3166 40.6335 19.2018 40.4762 19.1425 40.2955L17.53 35.453C17.1753 34.3888 16.5777 33.4217 15.7845 32.6285C14.9913 31.8353 14.0243 31.2377 12.96 30.883L8.11751 29.2705C7.93686 29.2112 7.77955 29.0964 7.66802 28.9424C7.55649 28.7884 7.49644 28.6031 7.49644 28.413C7.49644 28.2229 7.55649 28.0376 7.66802 27.8836C7.77955 27.7296 7.93686 27.6148 8.11751 27.5555L12.96 25.943C14.0243 25.5883 14.9913 24.9907 15.7845 24.1975C16.5777 23.4043 17.1753 22.4372 17.53 21.373L19.1425 16.5305ZM9.48501 3.783C9.52086 3.67474 9.58992 3.58053 9.68237 3.51375C9.77483 3.44698 9.88597 3.41104 10 3.41104C10.1141 3.41104 10.2252 3.44698 10.3177 3.51375C10.4101 3.58053 10.4792 3.67474 10.515 3.783L11.4825 6.688C11.915 7.983 12.93 8.998 14.225 9.4305L17.13 10.398C17.2383 10.4339 17.3325 10.5029 17.3993 10.5954C17.466 10.6878 17.502 10.799 17.502 10.913C17.502 11.0271 17.466 11.1382 17.3993 11.2306C17.3325 11.3231 17.2383 11.3922 17.13 11.428L14.225 12.3955C13.5863 12.6083 13.006 12.9669 12.53 13.4429C12.0539 13.919 11.6953 14.4993 11.4825 15.138L10.515 18.043C10.4792 18.1513 10.4101 18.2455 10.3177 18.3123C10.2252 18.379 10.1141 18.415 10 18.415C9.88597 18.415 9.77483 18.379 9.68237 18.3123C9.58992 18.2455 9.52086 18.1513 9.48501 18.043L8.51751 15.138C8.30472 14.4993 7.94611 13.919 7.47008 13.4429C6.99405 12.9669 6.4137 12.6083 5.77501 12.3955L2.87001 11.428C2.76175 11.3922 2.66754 11.3231 2.60076 11.2306C2.53399 11.1382 2.49805 11.0271 2.49805 10.913C2.49805 10.799 2.53399 10.6878 2.60076 10.5954C2.66754 10.5029 2.76175 10.4339 2.87001 10.398L5.77501 9.4305C6.4137 9.21771 6.99405 8.8591 7.47008 8.38307C7.94611 7.90704 8.30472 7.32669 8.51751 6.688L9.48501 3.783ZM27.1575 1.1605C27.1822 1.08932 27.2284 1.02759 27.2898 0.983909C27.3512 0.940223 27.4247 0.916748 27.5 0.916748C27.5754 0.916748 27.6488 0.940223 27.7102 0.983909C27.7716 1.02759 27.8178 1.08932 27.8425 1.1605L28.4875 3.0955C28.775 3.9605 29.4525 4.638 30.3175 4.9255L32.2525 5.5705C32.3237 5.59518 32.3854 5.64143 32.4291 5.70281C32.4728 5.76419 32.4963 5.83766 32.4963 5.913C32.4963 5.98835 32.4728 6.06181 32.4291 6.1232C32.3854 6.18458 32.3237 6.23083 32.2525 6.25551L30.3175 6.90051C29.8912 7.04231 29.5039 7.28155 29.1862 7.59921C28.8686 7.91688 28.6293 8.30423 28.4875 8.7305L27.8425 10.6655C27.8178 10.7367 27.7716 10.7984 27.7102 10.8421C27.6488 10.8858 27.5754 10.9093 27.5 10.9093C27.4247 10.9093 27.3512 10.8858 27.2898 10.8421C27.2284 10.7984 27.1822 10.7367 27.1575 10.6655L26.5125 8.7305C26.3707 8.30423 26.1315 7.91688 25.8138 7.59921C25.4961 7.28155 25.1088 7.04231 24.6825 6.90051L22.75 6.25551C22.6788 6.23083 22.6171 6.18458 22.5734 6.1232C22.5297 6.06181 22.5063 5.98835 22.5063 5.913C22.5063 5.83766 22.5297 5.76419 22.5734 5.70281C22.6171 5.64143 22.6788 5.59518 22.75 5.5705L24.685 4.9255C25.55 4.638 26.2275 3.9605 26.515 3.0955L27.1575 1.163V1.1605Z" fill="black" fill-opacity="0.75"/>
</g>
<defs>
<clipPath id="clip0_588_27765">
<rect width="40" height="40" fill="white" transform="translate(0 0.913086)"/>
</clipPath>
</defs>
</svg>
