<svg width="96" height="96" viewBox="0 0 96 96" fill="none" xmlns="http://www.w3.org/2000/svg">
<g id="tabler:pig-money">
<g id="Group">
<path id="Vector" d="M59.9173 44.0271V44.0667M21.0187 33.6483C19.2826 32.314 17.9492 30.5256 17.1659 28.4808C16.3826 26.4361 16.18 24.2145 16.5803 22.0618C16.9806 19.909 17.9684 17.9089 19.4344 16.2824C20.9004 14.6559 22.7876 13.4665 24.8873 12.8455C26.9871 12.2245 29.2176 12.1961 31.3325 12.7636C33.4474 13.331 35.3641 14.4722 36.871 16.0609C38.3779 17.6496 39.4161 19.624 39.871 21.7658C40.3259 23.9077 40.1798 26.1337 39.4487 28.1977" stroke="#2C939E" stroke-width="4" stroke-linecap="round" stroke-linejoin="round"/>
<path id="Vector_2" d="M63.8756 16.3187V31.3723C68.7744 34.2069 72.5042 38.693 74.3968 44.0271H79.7049C80.7548 44.0271 81.7616 44.4441 82.5039 45.1864C83.2462 45.9288 83.6633 46.9356 83.6633 47.9854V55.9021C83.6633 56.9519 83.2462 57.9587 82.5039 58.701C81.7616 59.4434 80.7548 59.8604 79.7049 59.8604H74.3928C73.0628 63.6208 70.8026 66.9854 67.8299 69.6494V77.6729C67.8299 79.2476 67.2044 80.7578 66.0909 81.8713C64.9774 82.9848 63.4671 83.6104 61.8924 83.6104C60.3177 83.6104 58.8075 82.9848 57.694 81.8713C56.5805 80.7578 55.9549 79.2476 55.9549 77.6729V75.3652C54.6469 75.5843 53.3229 75.6942 51.9966 75.6937H36.1633C34.837 75.6942 33.513 75.5843 32.2049 75.3652V77.6729C32.2049 79.2476 31.5794 80.7578 30.4659 81.8713C29.3524 82.9848 27.8421 83.6104 26.2674 83.6104C24.6927 83.6104 23.1825 82.9848 22.069 81.8713C20.9555 80.7578 20.3299 79.2476 20.3299 77.6729V69.6494C16.7435 66.443 14.2154 62.2231 13.0802 57.5482C11.9449 52.8733 12.2562 47.9639 13.9726 43.4698C15.6891 38.9757 18.7298 35.1088 22.6924 32.381C26.655 29.6531 31.3525 28.193 36.1633 28.1937H46.0591L63.8716 16.3187H63.8756Z" stroke="#2C939E" stroke-width="4" stroke-linecap="round" stroke-linejoin="round"/>
</g>
</g>
</svg>
