<svg width="177" height="176" viewBox="0 0 177 176" fill="none" xmlns="http://www.w3.org/2000/svg">
<rect opacity="0.5" x="26.2744" y="25.7746" width="124.451" height="124.451" rx="15" fill="#FFA629"/>
<rect x="0.5" y="88" width="124.451" height="124.451" rx="15" transform="rotate(-45 0.5 88)" fill="#FFA629"/>
<path d="M44.8573 87.476V94.704H25.8253V87.476H44.8573ZM45.5207 70.68H73.7567V77.024C70.914 79.832 68.6607 82.7267 66.9967 85.708C65.3674 88.6547 64.206 91.7227 63.5127 94.912C62.854 98.1013 62.5247 101.464 62.5247 105H53.6847C53.6847 101.221 54.1527 97.6333 55.0887 94.236C56.0594 90.804 57.55 87.528 59.5607 84.408C61.606 81.288 64.2407 78.272 67.4647 75.36L69.3367 77.7H45.5207V70.68ZM90.8651 105.52C86.1851 105.52 82.6318 104.029 80.2051 101.048C77.8131 98.0667 76.6171 93.664 76.6171 87.84C76.6171 82.016 77.8131 77.6133 80.2051 74.632C82.6318 71.6507 86.1851 70.16 90.8651 70.16C95.5451 70.16 99.0811 71.6507 101.473 74.632C103.9 77.6133 105.113 82.016 105.113 87.84C105.113 93.664 103.9 98.0667 101.473 101.048C99.0811 104.029 95.5451 105.52 90.8651 105.52ZM90.8651 98.552C92.1478 98.552 93.1878 98.2053 93.9851 97.512C94.7824 96.784 95.3544 95.64 95.7011 94.08C96.0824 92.4853 96.2731 90.4053 96.2731 87.84C96.2731 85.2747 96.0824 83.212 95.7011 81.652C95.3544 80.0573 94.7824 78.9133 93.9851 78.22C93.1878 77.492 92.1478 77.128 90.8651 77.128C89.6171 77.128 88.5771 77.492 87.7451 78.22C86.9478 78.9133 86.3584 80.0573 85.9771 81.652C85.6304 83.212 85.4571 85.2747 85.4571 87.84C85.4571 90.4053 85.6304 92.4853 85.9771 94.08C86.3584 95.64 86.9478 96.784 87.7451 97.512C88.5771 98.2053 89.6171 98.552 90.8651 98.552ZM116.686 105L140.554 70.628H147.314L123.446 105H116.686ZM118.818 70.16C120.794 70.16 122.493 70.576 123.914 71.408C125.37 72.2053 126.497 73.332 127.294 74.788C128.091 76.244 128.49 77.96 128.49 79.936C128.49 81.912 128.091 83.628 127.294 85.084C126.497 86.54 125.37 87.684 123.914 88.516C122.493 89.3133 120.794 89.712 118.818 89.712C116.877 89.712 115.178 89.3133 113.722 88.516C112.301 87.684 111.174 86.54 110.342 85.084C109.545 83.628 109.146 81.912 109.146 79.936C109.146 77.96 109.545 76.244 110.342 74.788C111.174 73.332 112.301 72.2053 113.722 71.408C115.178 70.576 116.877 70.16 118.818 70.16ZM118.818 76.088C118.159 76.088 117.605 76.244 117.154 76.556C116.703 76.8333 116.357 77.2667 116.114 77.856C115.871 78.4107 115.75 79.104 115.75 79.936C115.75 80.7333 115.871 81.4267 116.114 82.016C116.357 82.6053 116.703 83.056 117.154 83.368C117.605 83.6453 118.159 83.784 118.818 83.784C119.511 83.784 120.083 83.6453 120.534 83.368C120.985 83.056 121.331 82.6053 121.574 82.016C121.817 81.4267 121.938 80.7333 121.938 79.936C121.938 79.104 121.817 78.4107 121.574 77.856C121.331 77.2667 120.985 76.8333 120.534 76.556C120.083 76.244 119.511 76.088 118.818 76.088ZM145.078 85.968C147.019 85.968 148.718 86.384 150.174 87.216C151.63 88.0133 152.757 89.14 153.554 90.596C154.351 92.052 154.75 93.768 154.75 95.744C154.75 97.72 154.351 99.436 153.554 100.892C152.757 102.348 151.63 103.492 150.174 104.324C148.718 105.121 147.019 105.52 145.078 105.52C143.137 105.52 141.438 105.121 139.982 104.324C138.526 103.492 137.399 102.348 136.602 100.892C135.805 99.436 135.406 97.72 135.406 95.744C135.406 93.768 135.805 92.052 136.602 90.596C137.399 89.14 138.526 88.0133 139.982 87.216C141.438 86.384 143.137 85.968 145.078 85.968ZM145.078 91.896C144.419 91.896 143.847 92.052 143.362 92.364C142.911 92.6413 142.565 93.0747 142.322 93.664C142.079 94.2187 141.958 94.912 141.958 95.744C141.958 96.5413 142.079 97.2347 142.322 97.824C142.565 98.4133 142.911 98.864 143.362 99.176C143.847 99.4533 144.419 99.592 145.078 99.592C145.771 99.592 146.343 99.4533 146.794 99.176C147.245 98.864 147.591 98.4133 147.834 97.824C148.077 97.2347 148.198 96.5413 148.198 95.744C148.198 94.912 148.077 94.2187 147.834 93.664C147.591 93.0747 147.245 92.6413 146.794 92.364C146.343 92.052 145.771 91.896 145.078 91.896Z" fill="white"/>
</svg>
