<svg width="177" height="176" viewBox="0 0 177 176" fill="none" xmlns="http://www.w3.org/2000/svg">
<rect opacity="0.5" x="26.2744" y="25.7746" width="124.451" height="124.451" rx="15" fill="#FFA629"/>
<rect x="0.5" y="88" width="124.451" height="124.451" rx="15" transform="rotate(-45 0.5 88)" fill="#FFA629"/>
<path d="M34.8943 74.372V101.88H27.8743V74.372H34.8943ZM44.4103 84.928V91.272H18.3063V84.928H44.4103ZM62.2731 70.16C65.4278 70.16 68.0624 70.836 70.1771 72.188C72.3264 73.5053 73.9384 75.464 75.0131 78.064C76.0878 80.664 76.6251 83.888 76.6251 87.736C76.6251 91.896 76.0011 95.2933 74.7531 97.928C73.5398 100.528 71.8584 102.452 69.7091 103.7C67.5598 104.913 65.0811 105.52 62.2731 105.52C59.2918 105.52 56.6918 104.931 54.4731 103.752C52.2891 102.539 50.6598 100.632 49.5851 98.032L57.5931 94.86C57.8704 96.0733 58.3904 97.0267 59.1531 97.72C59.9504 98.4133 61.0424 98.76 62.4291 98.76C63.5038 98.76 64.4398 98.552 65.2371 98.136C66.0344 97.6853 66.6758 97.044 67.1611 96.212C67.6811 95.38 68.0624 94.3747 68.3051 93.196C68.5478 91.9827 68.6691 90.596 68.6691 89.036C68.6691 88.8973 68.6691 88.776 68.6691 88.672C68.6691 88.5333 68.6691 88.3773 68.6691 88.204H68.5131C68.1318 89.244 67.5078 90.0933 66.6411 90.752C65.7744 91.4107 64.7864 91.9133 63.6771 92.26C62.5678 92.572 61.4238 92.728 60.2451 92.728C58.0958 92.728 56.1718 92.2947 54.4731 91.428C52.8091 90.5267 51.5091 89.2787 50.5731 87.684C49.6371 86.0547 49.1691 84.1653 49.1691 82.016C49.1691 79.5547 49.7064 77.4573 50.7811 75.724C51.8904 73.956 53.4158 72.5867 55.3571 71.616C57.3331 70.6453 59.6384 70.16 62.2731 70.16ZM62.2731 77.024C60.7824 77.024 59.5864 77.44 58.6851 78.272C57.8184 79.104 57.3851 80.2827 57.3851 81.808C57.3851 83.1947 57.8358 84.2867 58.7371 85.084C59.6384 85.8467 60.8171 86.228 62.2731 86.228C63.2091 86.228 64.0411 86.0373 64.7691 85.656C65.5318 85.2747 66.1211 84.7547 66.5371 84.096C66.9531 83.4027 67.1611 82.588 67.1611 81.652C67.1611 80.6813 66.9531 79.8667 66.5371 79.208C66.1211 78.5147 65.5318 77.9773 64.7691 77.596C64.0411 77.2147 63.2091 77.024 62.2731 77.024ZM95.8241 105.52C91.1441 105.52 87.5907 104.029 85.1641 101.048C82.7721 98.0667 81.5761 93.664 81.5761 87.84C81.5761 82.016 82.7721 77.6133 85.1641 74.632C87.5907 71.6507 91.1441 70.16 95.8241 70.16C100.504 70.16 104.04 71.6507 106.432 74.632C108.859 77.6133 110.072 82.016 110.072 87.84C110.072 93.664 108.859 98.0667 106.432 101.048C104.04 104.029 100.504 105.52 95.8241 105.52ZM95.8241 98.552C97.1067 98.552 98.1467 98.2053 98.9441 97.512C99.7414 96.784 100.313 95.64 100.66 94.08C101.041 92.4853 101.232 90.4053 101.232 87.84C101.232 85.2747 101.041 83.212 100.66 81.652C100.313 80.0573 99.7414 78.9133 98.9441 78.22C98.1467 77.492 97.1067 77.128 95.8241 77.128C94.5761 77.128 93.5361 77.492 92.7041 78.22C91.9067 78.9133 91.3174 80.0573 90.9361 81.652C90.5894 83.212 90.4161 85.2747 90.4161 87.84C90.4161 90.4053 90.5894 92.4853 90.9361 94.08C91.3174 95.64 91.9067 96.784 92.7041 97.512C93.5361 98.2053 94.5761 98.552 95.8241 98.552ZM121.645 105L145.513 70.628H152.273L128.405 105H121.645ZM123.777 70.16C125.753 70.16 127.452 70.576 128.873 71.408C130.329 72.2053 131.456 73.332 132.253 74.788C133.05 76.244 133.449 77.96 133.449 79.936C133.449 81.912 133.05 83.628 132.253 85.084C131.456 86.54 130.329 87.684 128.873 88.516C127.452 89.3133 125.753 89.712 123.777 89.712C121.836 89.712 120.137 89.3133 118.681 88.516C117.26 87.684 116.133 86.54 115.301 85.084C114.504 83.628 114.105 81.912 114.105 79.936C114.105 77.96 114.504 76.244 115.301 74.788C116.133 73.332 117.26 72.2053 118.681 71.408C120.137 70.576 121.836 70.16 123.777 70.16ZM123.777 76.088C123.118 76.088 122.564 76.244 122.113 76.556C121.662 76.8333 121.316 77.2667 121.073 77.856C120.83 78.4107 120.709 79.104 120.709 79.936C120.709 80.7333 120.83 81.4267 121.073 82.016C121.316 82.6053 121.662 83.056 122.113 83.368C122.564 83.6453 123.118 83.784 123.777 83.784C124.47 83.784 125.042 83.6453 125.493 83.368C125.944 83.056 126.29 82.6053 126.533 82.016C126.776 81.4267 126.897 80.7333 126.897 79.936C126.897 79.104 126.776 78.4107 126.533 77.856C126.29 77.2667 125.944 76.8333 125.493 76.556C125.042 76.244 124.47 76.088 123.777 76.088ZM150.037 85.968C151.978 85.968 153.677 86.384 155.133 87.216C156.589 88.0133 157.716 89.14 158.513 90.596C159.31 92.052 159.709 93.768 159.709 95.744C159.709 97.72 159.31 99.436 158.513 100.892C157.716 102.348 156.589 103.492 155.133 104.324C153.677 105.121 151.978 105.52 150.037 105.52C148.096 105.52 146.397 105.121 144.941 104.324C143.485 103.492 142.358 102.348 141.561 100.892C140.764 99.436 140.365 97.72 140.365 95.744C140.365 93.768 140.764 92.052 141.561 90.596C142.358 89.14 143.485 88.0133 144.941 87.216C146.397 86.384 148.096 85.968 150.037 85.968ZM150.037 91.896C149.378 91.896 148.806 92.052 148.321 92.364C147.87 92.6413 147.524 93.0747 147.281 93.664C147.038 94.2187 146.917 94.912 146.917 95.744C146.917 96.5413 147.038 97.2347 147.281 97.824C147.524 98.4133 147.87 98.864 148.321 99.176C148.806 99.4533 149.378 99.592 150.037 99.592C150.73 99.592 151.302 99.4533 151.753 99.176C152.204 98.864 152.55 98.4133 152.793 97.824C153.036 97.2347 153.157 96.5413 153.157 95.744C153.157 94.912 153.036 94.2187 152.793 93.664C152.55 93.0747 152.204 92.6413 151.753 92.364C151.302 92.052 150.73 91.896 150.037 91.896Z" fill="white"/>
</svg>
