<svg width="122" height="122" viewBox="0 0 122 122" fill="none" xmlns="http://www.w3.org/2000/svg">
<g clip-path="url(#clip0_347_730)">
<path d="M61 122C94.6894 122 122 94.6894 122 61C122 27.3106 94.6894 0 61 0C27.3106 0 0 27.3106 0 61C0 94.6894 27.3106 122 61 122Z" fill="#2C939E"/>
<mask id="mask0_347_730" style="mask-type:luminance" maskUnits="userSpaceOnUse" x="31" y="31" width="61" height="60">
<path d="M91.5 31H31.5V91H91.5V31Z" fill="white"/>
</mask>
<g mask="url(#mask0_347_730)">
<mask id="mask1_347_730" style="mask-type:luminance" maskUnits="userSpaceOnUse" x="31" y="31" width="61" height="60">
<path d="M91.5 31H31.5V91H91.5V31Z" fill="white"/>
</mask>
<g mask="url(#mask1_347_730)">
<path fill-rule="evenodd" clip-rule="evenodd" d="M61.5 36C64.2275 36 66.7925 36.73 69 38.01C69.2988 38.1663 69.5628 38.3814 69.7763 38.6424C69.9898 38.9034 70.1482 39.2048 70.2422 39.5287C70.3361 39.8525 70.3636 40.192 70.3229 40.5267C70.2823 40.8614 70.1743 41.1844 70.0056 41.4763C69.8369 41.7682 69.6108 42.023 69.3411 42.2253C69.0713 42.4276 68.7635 42.5732 68.436 42.6534C68.1085 42.7336 67.7681 42.7468 67.4354 42.6921C67.1027 42.6373 66.7845 42.5159 66.5 42.335C64.9795 41.4571 63.2546 40.995 61.4988 40.9953C59.743 40.9955 58.0183 41.4579 56.4979 42.3362C54.9776 43.2144 53.7153 44.4775 52.838 45.9983C51.9606 47.5192 51.4992 49.2442 51.5 51L79 51.0025C80.3261 51.0025 81.5979 51.5293 82.5355 52.467C83.4732 53.4046 84 54.6764 84 56.0025V81.0025C84 82.3286 83.4732 83.6003 82.5355 84.538C81.5979 85.4757 80.3261 86.0025 79 86.0025H44C42.6739 86.0025 41.4021 85.4757 40.4645 84.538C39.5268 83.6003 39 82.3286 39 81.0025V56C39 54.6739 39.5268 53.4021 40.4645 52.4645C41.4021 51.5268 42.6739 51 44 51H46.5C46.5 47.0218 48.0804 43.2064 50.8934 40.3934C53.7064 37.5804 57.5218 36 61.5 36ZM61.5 61C60.3994 61 59.3295 61.3633 58.4563 62.0333C57.5832 62.7033 56.9555 63.6428 56.6706 64.7059C56.3857 65.769 56.4596 66.8964 56.8808 67.9133C57.3019 68.9302 58.0469 69.7796 59 70.33V73.5C59 74.163 59.2634 74.7989 59.7322 75.2678C60.2011 75.7366 60.837 76 61.5 76C62.163 76 62.7989 75.7366 63.2678 75.2678C63.7366 74.7989 64 74.163 64 73.5V70.33C64.9531 69.7796 65.6981 68.9302 66.1192 67.9133C66.5404 66.8964 66.6143 65.769 66.3294 64.7059C66.0445 63.6428 65.4168 62.7033 64.5437 62.0333C63.6705 61.3633 62.6006 61 61.5 61ZM81.295 43.5525L83.71 44.2025C84.3258 44.3953 84.8431 44.8186 85.154 45.3841C85.4648 45.9495 85.5449 46.6132 85.3777 47.2364C85.2104 47.8595 84.8087 48.3939 84.2565 48.7277C83.7044 49.0616 83.0445 49.169 82.415 49.0275L80.0025 48.3825C79.3647 48.2086 78.8218 47.7893 78.4924 47.2162C78.1631 46.643 78.0741 45.9628 78.245 45.3243C78.4159 44.6857 78.8327 44.1408 79.4043 43.8088C79.9758 43.4768 80.6557 43.3846 81.295 43.5525ZM78.0825 36.225C78.3997 36.31 78.697 36.4566 78.9575 36.6566C79.2179 36.8565 79.4365 37.1057 79.6006 37.3901C79.7648 37.6745 79.8713 37.9885 79.914 38.314C79.9568 38.6396 79.9351 38.9704 79.85 39.2875L79.5275 40.4925C79.4439 40.811 79.2981 41.1098 79.0987 41.3718C78.8992 41.6338 78.65 41.8538 78.3652 42.0192C78.0805 42.1846 77.7659 42.2922 77.4395 42.3356C77.1131 42.3791 76.7813 42.3577 76.4632 42.2725C76.1451 42.1874 75.847 42.0403 75.5859 41.8396C75.3248 41.6389 75.106 41.3887 74.9419 41.1032C74.7778 40.8177 74.6718 40.5026 74.6298 40.176C74.5879 39.8494 74.6109 39.5177 74.6975 39.2L75.0225 37.9925C75.1942 37.3525 75.6129 36.8069 76.1867 36.4754C76.7605 36.144 77.4423 36.0539 78.0825 36.225Z" fill="white"/>
</g>
</g>
</g>
<defs>
<clipPath id="clip0_347_730">
<rect width="122" height="122" fill="white"/>
</clipPath>
</defs>
</svg>
