<svg width="123" height="122" viewBox="0 0 123 122" fill="none" xmlns="http://www.w3.org/2000/svg">
<g clip-path="url(#clip0_347_666)">
<path d="M61.5 122C95.1894 122 122.5 94.6894 122.5 61C122.5 27.3106 95.1894 0 61.5 0C27.8106 0 0.5 27.3106 0.5 61C0.5 94.6894 27.8106 122 61.5 122Z" fill="#2C939E"/>
<mask id="mask0_347_666" style="mask-type:luminance" maskUnits="userSpaceOnUse" x="32" y="31" width="60" height="60">
<path d="M92 31H32V91H92V31Z" fill="white"/>
</mask>
<g mask="url(#mask0_347_666)">
<path fill-rule="evenodd" clip-rule="evenodd" d="M60.245 36.4875C61.2316 36.1183 62.3095 36.0702 63.325 36.35L63.755 36.4875L81.255 43.05C82.1423 43.3827 82.9168 43.9607 83.4882 44.7167C84.0597 45.4727 84.4045 46.3755 84.4825 47.32L84.5 47.7325V61.14C84.4999 65.191 83.4061 69.1669 81.334 72.6479C79.2619 76.129 76.2885 78.986 72.7275 80.9175L72.0625 81.265L63.6775 85.4575C63.2158 85.688 62.7115 85.8207 62.1962 85.8474C61.6808 85.8741 61.1655 85.7941 60.6825 85.6125L60.3225 85.4575L51.9375 81.265C48.314 79.4532 45.2469 76.6967 43.06 73.2865C40.8731 69.8763 39.6475 65.9389 39.5125 61.89L39.5 61.14V47.7325C39.5 46.7853 39.7691 45.8576 40.2758 45.0574C40.7826 44.2572 41.5062 43.6174 42.3625 43.2125L42.745 43.05L60.245 36.4875ZM70.5825 52.5725L59.0875 64.0675L54.6675 59.6475C54.1984 59.1787 53.5623 58.9155 52.8991 58.9157C52.2359 58.9159 51.6 59.1796 51.1313 59.6487C50.6625 60.1178 50.3993 60.7539 50.3995 61.4171C50.3997 62.0803 50.6634 62.7162 51.1325 63.185L57.1425 69.195C57.3979 69.4505 57.7011 69.6531 58.0348 69.7914C58.3686 69.9297 58.7263 70.0009 59.0875 70.0009C59.4487 70.0009 59.8064 69.9297 60.1402 69.7914C60.4739 69.6531 60.7771 69.4505 61.0325 69.195L74.1175 56.1075C74.3563 55.8768 74.5467 55.601 74.6778 55.296C74.8088 54.991 74.8777 54.6629 74.8806 54.331C74.8835 53.999 74.8203 53.6698 74.6946 53.3626C74.5689 53.0553 74.3832 52.7762 74.1485 52.5415C73.9138 52.3067 73.6346 52.1211 73.3274 51.9954C73.0201 51.8697 72.6909 51.8064 72.359 51.8093C72.027 51.8122 71.699 51.8812 71.394 52.0122C71.089 52.1432 70.8131 52.3337 70.5825 52.5725Z" fill="white"/>
</g>
</g>
<defs>
<clipPath id="clip0_347_666">
<rect width="123" height="122" fill="white"/>
</clipPath>
</defs>
</svg>
