<svg width="25" height="25" viewBox="0 0 25 25" fill="none" xmlns="http://www.w3.org/2000/svg">
<g id="material-symbols:nest-clock-farsight-analog-outline-rounded">
<path id="Vector" d="M13.2324 13.0808L15.4824 15.3308C15.6658 15.5141 15.7574 15.7434 15.7574 16.0188C15.7574 16.2941 15.6658 16.5314 15.4824 16.7308C15.2824 16.9308 15.0448 17.0308 14.7694 17.0308C14.4941 17.0308 14.2568 16.9308 14.0574 16.7308L11.5324 14.2058C11.4324 14.1058 11.3574 13.9931 11.3074 13.8678C11.2574 13.7424 11.2324 13.6134 11.2324 13.4808V9.90576C11.2324 9.62243 11.3284 9.38476 11.5204 9.19276C11.7124 9.00076 11.9498 8.9051 12.2324 8.90576C12.5158 8.90576 12.7534 9.00176 12.9454 9.19376C13.1374 9.38576 13.2331 9.6231 13.2324 9.90576V13.0808ZM12.2324 6.90576C11.9491 6.90576 11.7114 6.80976 11.5194 6.61776C11.3274 6.42576 11.2318 6.18843 11.2324 5.90576V4.90576H13.2324V5.90576C13.2324 6.1891 13.1364 6.42676 12.9444 6.61876C12.7524 6.81076 12.5151 6.90643 12.2324 6.90576ZM18.2324 12.9058C18.2324 12.6224 18.3284 12.3848 18.5204 12.1928C18.7124 12.0008 18.9498 11.9051 19.2324 11.9058H20.2324V13.9058H19.2324C18.9491 13.9058 18.7114 13.8098 18.5194 13.6178C18.3274 13.4258 18.2318 13.1884 18.2324 12.9058ZM12.2324 18.9058C12.5158 18.9058 12.7534 19.0018 12.9454 19.1938C13.1374 19.3858 13.2331 19.6231 13.2324 19.9058V20.9058H11.2324V19.9058C11.2324 19.6224 11.3284 19.3848 11.5204 19.1928C11.7124 19.0008 11.9498 18.9051 12.2324 18.9058ZM6.23242 12.9058C6.23242 13.1891 6.13642 13.4268 5.94442 13.6188C5.75242 13.8108 5.51509 13.9064 5.23242 13.9058H4.23242V11.9058H5.23242C5.51576 11.9058 5.75342 12.0018 5.94542 12.1938C6.13742 12.3858 6.23309 12.6231 6.23242 12.9058ZM12.2324 22.9058C10.8491 22.9058 9.54909 22.6431 8.33242 22.1178C7.11576 21.5924 6.05742 20.8801 5.15742 19.9808C4.25742 19.0808 3.54509 18.0224 3.02042 16.8058C2.49576 15.5891 2.23309 14.2891 2.23242 12.9058C2.23242 11.5224 2.49509 10.2224 3.02042 9.00576C3.54576 7.7891 4.25809 6.73076 5.15742 5.83076C6.05742 4.93076 7.11576 4.21843 8.33242 3.69376C9.54909 3.1691 10.8491 2.90643 12.2324 2.90576C13.6158 2.90576 14.9158 3.16843 16.1324 3.69376C17.3491 4.2191 18.4074 4.93143 19.3074 5.83076C20.2074 6.73076 20.9201 7.7891 21.4454 9.00576C21.9708 10.2224 22.2331 11.5224 22.2324 12.9058C22.2324 14.2891 21.9698 15.5891 21.4444 16.8058C20.9191 18.0224 20.2068 19.0808 19.3074 19.9808C18.4074 20.8808 17.3491 21.5934 16.1324 22.1188C14.9158 22.6441 13.6158 22.9064 12.2324 22.9058ZM20.2324 12.9058C20.2324 10.6724 19.4574 8.78076 17.9074 7.23076C16.3574 5.68076 14.4658 4.90576 12.2324 4.90576C9.99909 4.90576 8.10742 5.68076 6.55742 7.23076C5.00742 8.78076 4.23242 10.6724 4.23242 12.9058C4.23242 15.1391 5.00742 17.0308 6.55742 18.5808C8.10742 20.1308 9.99909 20.9058 12.2324 20.9058C14.4658 20.9058 16.3574 20.1308 17.9074 18.5808C19.4574 17.0308 20.2324 15.1391 20.2324 12.9058Z" fill="#2C939E"/>
</g>
</svg>
