<svg width="96" height="96" viewBox="0 0 96 96" fill="none" xmlns="http://www.w3.org/2000/svg">
<g id="streamline:interface-edit-color-palette-color-palette-company-office-supplies-work">
<g id="Group">
<path id="Vector" d="M30.5972 88.6997C45.5878 88.6997 57.7401 76.5474 57.7401 61.5568C57.7401 46.5662 45.5878 34.4139 30.5972 34.4139C15.6066 34.4139 3.45435 46.5662 3.45435 61.5568C3.45435 76.5474 15.6066 88.6997 30.5972 88.6997Z" stroke="#2C939E" stroke-width="3" stroke-linecap="round" stroke-linejoin="round"/>
<path id="Vector_2" d="M64.5257 88.6997C79.5163 88.6997 91.6685 76.5474 91.6685 61.5568C91.6685 46.5662 79.5163 34.4139 64.5257 34.4139C49.5351 34.4139 37.3828 46.5662 37.3828 61.5568C37.3828 76.5474 49.5351 88.6997 64.5257 88.6997Z" stroke="#2C939E" stroke-width="3" stroke-linecap="round" stroke-linejoin="round"/>
<path id="Vector_3" d="M47.5616 61.5568C62.5521 61.5568 74.7044 49.4046 74.7044 34.414C74.7044 19.4234 62.5521 7.27112 47.5616 7.27112C32.571 7.27112 20.4187 19.4234 20.4187 34.414C20.4187 49.4046 32.571 61.5568 47.5616 61.5568Z" stroke="#2C939E" stroke-width="3" stroke-linecap="round" stroke-linejoin="round"/>
</g>
</g>
</svg>
