<svg width="96" height="96" viewBox="0 0 96 96" fill="none" xmlns="http://www.w3.org/2000/svg">
<g id="tabler:clock-dollar">
<g id="Group">
<path id="Vector" d="M83.5271 41.85C82.3286 34.9929 79.1476 28.6372 74.3769 23.5681C69.6062 18.499 63.455 14.9386 56.6832 13.3267C49.9114 11.7149 42.8158 12.1223 36.2729 14.4985C29.7301 16.8747 24.0268 21.1157 19.8676 26.6975C15.7084 32.2793 13.2756 38.9573 12.8697 45.9064C12.4638 52.8556 14.1027 59.7714 17.5839 65.7994C21.065 71.8274 26.2359 76.7035 32.4576 79.8252C38.6794 82.947 45.6794 84.1775 52.5927 83.365" stroke="#2C939E" stroke-width="5" stroke-linecap="round" stroke-linejoin="round"/>
<path id="Vector_2" d="M48.4325 28.1937V47.9854L54.37 53.9229M84.0575 59.8604H74.1617C72.5869 59.8604 71.0767 60.4859 69.9632 61.5994C68.8497 62.7129 68.2242 64.2232 68.2242 65.7979C68.2242 67.3726 68.8497 68.8828 69.9632 69.9963C71.0767 71.1098 72.5869 71.7354 74.1617 71.7354H78.12C79.6947 71.7354 81.2049 72.361 82.3184 73.4744C83.4319 74.5879 84.0575 76.0982 84.0575 77.6729C84.0575 79.2476 83.4319 80.7578 82.3184 81.8713C81.2049 82.9848 79.6947 83.6104 78.12 83.6104H68.2242M76.1408 83.6104V87.5687M76.1408 55.9021V59.8604" stroke="#2C939E" stroke-width="5" stroke-linecap="round" stroke-linejoin="round"/>
</g>
</g>
</svg>
