<svg width="382" height="444" viewBox="0 0 382 444" fill="none" xmlns="http://www.w3.org/2000/svg">
<path d="M191.443 443.46C296.63 443.46 381.901 395.019 381.901 335.265C381.901 275.51 296.63 227.069 191.443 227.069C86.2554 227.069 0.984375 275.51 0.984375 335.265C0.984375 395.019 86.2554 443.46 191.443 443.46Z" fill="#F5F5F5"/>
<path d="M270.699 403.484L128.53 321.395C127.279 320.674 126.241 319.637 125.518 318.387C124.796 317.138 124.416 315.72 124.416 314.276C124.416 312.833 124.796 311.415 125.518 310.165C126.241 308.916 127.279 307.878 128.53 307.158L142.555 298.314C144.975 296.919 147.72 296.186 150.514 296.186C153.308 296.186 156.053 296.919 158.474 298.314L300.662 380.412C301.913 381.133 302.952 382.17 303.674 383.42C304.396 384.67 304.777 386.088 304.777 387.531C304.777 388.974 304.396 390.392 303.674 391.642C302.952 392.892 301.913 393.929 300.662 394.65L286.638 403.484C284.216 404.886 281.467 405.624 278.669 405.624C275.87 405.624 273.121 404.886 270.699 403.484Z" fill="#E0E0E0"/>
<path d="M54.5311 328.644C71.5703 328.644 85.3833 320.712 85.3833 310.927C85.3833 301.142 71.5703 293.21 54.5311 293.21C37.4919 293.21 23.679 301.142 23.679 310.927C23.679 320.712 37.4919 328.644 54.5311 328.644Z" fill="#E6E6E6"/>
<path d="M321.115 332.703L334.646 340.484C334.646 340.484 327.735 318.765 331.418 296.873C332.81 288.599 335.796 284.492 336.84 282.278C337.884 280.065 345.974 266.388 338.773 260.125C331.573 253.862 314.822 266.456 315.731 300.159C316.144 311.191 317.953 322.126 321.115 332.703Z" fill="#FFA629"/>
<path opacity="0.5" d="M321.115 332.703L334.646 340.484C334.646 340.484 327.735 318.765 331.418 296.873C332.81 288.599 335.796 284.492 336.84 282.278C337.884 280.065 345.974 266.388 338.773 260.125C331.573 253.862 314.822 266.456 315.731 300.159C316.144 311.191 317.953 322.126 321.115 332.703Z" fill="black"/>
<path d="M327.407 336.801C327.308 336.803 327.212 336.774 327.13 336.719C327.049 336.664 326.987 336.584 326.952 336.492C326.904 336.347 321.733 322.216 321.897 299.502C322.062 276.788 333.999 264.455 334.115 264.339C334.159 264.294 334.213 264.258 334.272 264.233C334.331 264.209 334.394 264.196 334.458 264.196C334.521 264.196 334.585 264.209 334.644 264.233C334.702 264.258 334.756 264.294 334.801 264.339C334.846 264.384 334.882 264.437 334.907 264.496C334.931 264.555 334.944 264.618 334.944 264.682C334.944 264.746 334.931 264.809 334.907 264.868C334.882 264.927 334.846 264.98 334.801 265.025C334.685 265.141 323.028 277.107 322.864 299.512C322.7 321.916 327.803 336.028 327.861 336.163C327.905 336.284 327.898 336.416 327.844 336.532C327.79 336.648 327.691 336.738 327.571 336.782C327.518 336.798 327.462 336.805 327.407 336.801Z" fill="white"/>
<path d="M326.759 336.028L345.259 346.66C347.186 347.799 349.473 348.17 351.662 347.699C353.851 347.228 355.782 345.949 357.07 344.118C358.295 342.212 358.811 339.937 358.529 337.69C357.64 328.083 353.465 325.869 358.578 321.587C363.691 317.306 365.025 317.006 364.735 312.889C364.445 308.771 361.632 306.973 360.298 305.349C358.964 303.726 355.272 300.323 357.785 295.297C360.298 290.271 363.73 285.41 358.529 283.187C355.427 281.853 350.256 283.631 346.854 287.323C343.451 291.016 340.648 293.674 337.391 294.563C334.134 295.452 327.349 295.597 327.639 301.213C327.929 306.828 329.417 308.752 328.083 311.255C325.57 315.933 314.639 318.591 326.759 336.028Z" fill="#FFA629"/>
<path d="M335.903 341.75C335.782 341.746 335.667 341.699 335.578 341.617C335.49 341.536 335.433 341.425 335.419 341.305C335.419 340.977 332.578 307.805 355.388 285.729C355.482 285.651 355.602 285.612 355.724 285.619C355.846 285.626 355.96 285.679 356.045 285.767C356.129 285.855 356.177 285.972 356.179 286.094C356.181 286.216 356.137 286.334 356.055 286.425C333.573 308.182 336.357 340.89 336.386 341.218C336.397 341.345 336.357 341.471 336.276 341.569C336.194 341.666 336.078 341.728 335.951 341.74L335.903 341.75Z" fill="white"/>
<path d="M339.566 313.198C339.444 313.198 339.327 313.153 339.237 313.07C339.147 312.988 339.092 312.875 339.083 312.753C338.88 310.183 338.156 307.68 336.955 305.398C335.753 303.117 334.099 301.104 332.094 299.482C332.042 299.446 331.998 299.399 331.963 299.345C331.929 299.291 331.906 299.231 331.895 299.168C331.885 299.105 331.886 299.041 331.901 298.979C331.915 298.917 331.941 298.858 331.978 298.806C332.014 298.754 332.06 298.71 332.113 298.676C332.166 298.642 332.225 298.619 332.287 298.608C332.35 298.597 332.413 298.599 332.475 298.613C332.536 298.627 332.594 298.653 332.645 298.69C334.782 300.384 336.543 302.504 337.818 304.915C339.092 307.326 339.852 309.975 340.049 312.695C340.06 312.825 340.019 312.953 339.936 313.052C339.853 313.152 339.734 313.215 339.604 313.227L339.566 313.198Z" fill="white"/>
<path d="M337.99 318.891C337.874 318.892 337.76 318.851 337.671 318.775C337.576 318.689 337.517 318.57 337.508 318.442C337.499 318.314 337.54 318.187 337.623 318.089C337.855 317.818 343.567 311.516 356.954 313.188C357.081 313.205 357.196 313.272 357.274 313.373C357.352 313.475 357.386 313.603 357.37 313.73C357.353 313.857 357.287 313.973 357.186 314.052C357.084 314.132 356.956 314.169 356.828 314.155C343.973 312.541 338.396 318.669 338.338 318.727C338.294 318.776 338.241 318.816 338.181 318.844C338.121 318.872 338.056 318.888 337.99 318.891Z" fill="white"/>
<path d="M266.369 393.673L141.337 321.481C132.512 316.388 125.36 302.721 125.36 290.958V23.2243C125.36 11.4614 132.512 6.05843 141.337 11.1521L266.369 83.3436C275.194 88.4373 282.346 102.104 282.346 113.867V381.601C282.346 393.354 275.194 398.767 266.369 393.673Z" fill="#455A64"/>
<path d="M280.771 74.925L155.729 2.73359C151.959 0.558854 148.499 0.307551 145.763 1.64139C145.429 1.80909 145.106 1.99963 144.797 2.21165L130.782 10.3596C133.604 8.66819 137.297 8.79384 141.346 11.1329L266.379 83.3243C275.203 88.418 282.356 102.085 282.356 113.848V381.581C282.356 387.806 280.355 392.213 277.166 394.301L290.997 386.25C294.525 384.375 296.796 379.784 296.796 373.202V105.468C296.796 93.6857 289.595 80.0187 280.771 74.925Z" fill="#37474F"/>
<path d="M282.346 113.848V381.581C282.346 387.806 280.346 392.213 277.156 394.301L290.997 386.25C294.525 384.375 296.796 379.784 296.796 373.202V105.468L282.395 113.829L282.346 113.848Z" fill="#263238"/>
<path d="M296.748 126.239L282.346 134.551V141.047L296.748 132.725V126.239Z" fill="#37474F"/>
<path d="M290.436 169.434C289.151 170.178 288.107 169.386 288.107 167.675V153.708C288.12 152.835 288.337 151.977 288.742 151.204C289.147 150.43 289.727 149.762 290.436 149.253C291.722 148.508 292.766 149.253 292.766 151.012V164.978C292.753 165.851 292.535 166.709 292.131 167.483C291.726 168.257 291.146 168.925 290.436 169.434Z" fill="#37474F"/>
<path d="M288.097 167.714V153.708C288.11 152.835 288.328 151.977 288.732 151.203C289.137 150.43 289.717 149.761 290.427 149.252C290.639 149.104 290.886 149.014 291.143 148.99C291.401 148.966 291.66 149.01 291.896 149.117L290.146 148.218C289.907 148.103 289.642 148.053 289.377 148.074C289.112 148.094 288.857 148.184 288.639 148.334C287.928 148.843 287.347 149.511 286.941 150.285C286.535 151.059 286.315 151.916 286.3 152.79V166.747C286.263 167.1 286.317 167.456 286.456 167.782C286.594 168.108 286.813 168.394 287.092 168.612L288.919 169.579C288.628 169.369 288.399 169.086 288.254 168.758C288.11 168.43 288.056 168.069 288.097 167.714Z" fill="#455A64"/>
<path d="M290.436 203.234C289.151 203.978 288.107 203.234 288.107 201.475V187.508C288.121 186.635 288.339 185.778 288.743 185.004C289.147 184.23 289.727 183.562 290.436 183.053C291.722 182.308 292.766 183.053 292.766 184.821V198.778C292.754 199.652 292.537 200.51 292.133 201.284C291.728 202.058 291.147 202.726 290.436 203.234Z" fill="#37474F"/>
<path d="M288.097 201.475V187.509C288.111 186.636 288.329 185.778 288.733 185.004C289.138 184.231 289.718 183.562 290.427 183.053C290.64 182.907 290.887 182.818 291.144 182.795C291.401 182.771 291.66 182.813 291.896 182.917L290.146 182.009C289.908 181.889 289.642 181.836 289.376 181.856C289.111 181.877 288.855 181.97 288.639 182.125C287.927 182.632 287.344 183.3 286.938 184.074C286.532 184.848 286.313 185.707 286.3 186.581V200.576C286.262 200.929 286.316 201.285 286.454 201.612C286.593 201.938 286.812 202.224 287.092 202.442L288.919 203.408C288.616 203.194 288.379 202.9 288.234 202.558C288.089 202.217 288.042 201.842 288.097 201.475Z" fill="#455A64"/>
<path d="M262 90.8536L139.133 19.8897C138.62 19.5947 138.039 19.439 137.447 19.4379C136.856 19.4368 136.274 19.5904 135.76 19.8835C135.247 20.1766 134.818 20.599 134.518 21.1087C134.218 21.6184 134.056 22.1978 134.049 22.7894V290.958C134.049 299.908 140.399 310.898 148.151 315.373L268.003 384.607C268.571 384.934 269.215 385.106 269.871 385.105C270.527 385.104 271.171 384.932 271.739 384.604C272.307 384.276 272.778 383.804 273.107 383.236C273.435 382.669 273.608 382.025 273.609 381.369V110.987C273.657 103.602 268.418 94.5459 262 90.8536Z" fill="#FFA629"/>
<path opacity="0.9" d="M262 90.8536L139.133 19.8897C138.62 19.5947 138.039 19.439 137.447 19.4379C136.856 19.4368 136.274 19.5904 135.76 19.8835C135.247 20.1766 134.818 20.599 134.518 21.1087C134.218 21.6184 134.056 22.1978 134.049 22.7894V290.958C134.049 299.908 140.399 310.898 148.151 315.373L268.003 384.607C268.571 384.934 269.215 385.106 269.871 385.105C270.527 385.104 271.171 384.932 271.739 384.604C272.307 384.276 272.778 383.804 273.107 383.236C273.435 382.669 273.608 382.025 273.609 381.369V110.987C273.657 103.602 268.418 94.5459 262 90.8536Z" fill="white"/>
<path d="M175.881 38.4186L177.785 46.4312L218.516 69.9184L225.552 66.1681L175.881 38.4186Z" fill="#455A64"/>
<path d="M187.857 46.1605C187.857 47.4944 186.89 48.026 185.769 47.3687C185.167 46.9691 184.667 46.4339 184.31 45.8061C183.952 45.1783 183.747 44.4754 183.71 43.7538C183.71 42.4296 184.677 41.8884 185.798 42.5553C186.4 42.9528 186.899 43.4862 187.257 44.1125C187.615 44.7387 187.82 45.4403 187.857 46.1605Z" fill="#263238"/>
<path d="M215.297 63.1234C215.074 63.1216 214.855 63.0652 214.659 62.9591L193.859 51.3605C193.565 51.1881 193.351 50.9076 193.261 50.579C193.171 50.2505 193.214 49.8999 193.379 49.6021C193.544 49.3043 193.819 49.083 194.146 48.9853C194.472 48.8877 194.823 48.9215 195.125 49.0795L215.935 60.678C216.188 60.8186 216.387 61.0393 216.501 61.3054C216.614 61.5715 216.637 61.8679 216.564 62.1479C216.49 62.428 216.326 62.6758 216.097 62.8524C215.868 63.029 215.586 63.1243 215.297 63.1234Z" fill="#263238"/>
<path d="M159.817 75.698C158.551 74.9634 157.633 75.6013 157.633 77.2155C157.633 78.0227 157.832 78.8174 158.213 79.5289C158.594 80.2405 159.145 80.8469 159.817 81.2943C160.177 81.5127 160.59 81.6282 161.011 81.6282C161.432 81.6282 161.845 81.5127 162.205 81.2943L164.225 84.9479C163.514 85.34 162.708 85.5269 161.898 85.4876C161.087 85.4483 160.303 85.1845 159.634 84.7255C157.992 83.7215 156.624 82.3284 155.65 80.6695C154.675 79.0106 154.125 77.1371 154.047 75.2147C154.047 71.6288 156.454 70.382 159.769 72.3151C161.641 73.5207 163.175 75.1841 164.225 77.1478L162.205 78.7523C161.706 77.5331 160.88 76.4758 159.817 75.698Z" fill="#FFA629"/>
<path d="M175.852 87.8091C175.852 91.424 173.407 92.6418 170.053 90.7087C168.365 89.7 166.952 88.2898 165.94 86.6036C164.929 84.9174 164.349 83.0073 164.253 81.0432C164.253 77.4283 166.699 76.2105 170.053 78.1436C171.745 79.1478 173.161 80.5568 174.173 82.244C175.185 83.9312 175.762 85.8435 175.852 87.8091ZM167.839 83.1986C167.856 84.0285 168.07 84.8425 168.463 85.5735C168.857 86.3045 169.418 86.9316 170.101 87.4031C171.3 88.099 172.266 87.4031 172.266 85.76C172.263 84.9488 172.064 84.1503 171.688 83.432C171.311 82.7137 170.767 82.0966 170.101 81.6328C168.883 80.9273 167.839 81.5265 167.839 83.1986Z" fill="#FFA629"/>
<path d="M179.747 83.9717L183.923 92.6706V86.4074L187.083 88.2342V100.422L184.184 98.7405L180.028 90.1189V96.3435L176.848 94.5071V82.2899L179.747 83.9717Z" fill="#FFA629"/>
<path d="M197.416 94.1689V97.3585L194.4 95.6187V104.627L190.911 102.607V93.5987L187.915 91.8685V88.6886L197.416 94.1689Z" fill="#FFA629"/>
<path d="M204.22 108.571L200.257 106.28L199.716 107.691L196.14 105.623L200.596 96.0055L204.182 98.0739L208.473 112.746L204.752 110.6L204.22 108.571ZM203.36 105.188L202.277 101.022L201.166 103.922L203.36 105.188Z" fill="#FFA629"/>
<path d="M214.011 106.985C212.745 106.26 211.827 106.889 211.827 108.512C211.829 109.319 212.029 110.113 212.41 110.825C212.791 111.536 213.341 112.143 214.011 112.591C214.374 112.807 214.788 112.922 215.21 112.922C215.632 112.922 216.046 112.807 216.409 112.591L218.429 116.245C217.715 116.632 216.908 116.817 216.097 116.777C215.286 116.738 214.501 116.477 213.828 116.022C212.185 115.017 210.816 113.623 209.842 111.962C208.867 110.301 208.317 108.426 208.241 106.502C208.241 102.916 210.658 101.669 213.963 103.602C215.833 104.814 217.368 106.476 218.429 108.435L216.409 110.03C215.899 108.817 215.071 107.765 214.011 106.985Z" fill="#FFA629"/>
<path d="M227.959 111.808V114.988L224.943 113.249V122.286L221.454 120.266V111.257L218.458 109.527V106.347L227.959 111.808Z" fill="#FFA629"/>
<path d="M238.272 126.771C239.132 127.263 239.789 126.877 239.789 125.669V118.642L243.288 120.652V127.679C243.288 130.917 241.355 131.884 238.262 130.115C236.772 129.287 235.519 128.091 234.624 126.641C233.729 125.19 233.221 123.534 233.149 121.831V114.805L236.648 116.825V123.852C236.661 124.433 236.816 125.003 237.099 125.512C237.382 126.02 237.784 126.452 238.272 126.771Z" fill="#FFA629"/>
<path d="M248.923 126.809C248.527 126.587 248.276 126.577 248.276 126.945C248.276 128.472 253.737 130.675 253.737 135.093C253.737 137.799 251.678 137.808 249.3 136.436C247.21 135.155 245.41 133.454 244.013 131.439L245.308 129.158C246.371 130.803 247.735 132.233 249.329 133.372C249.841 133.672 250.17 133.672 250.17 133.237C250.17 131.652 244.699 129.545 244.699 125.263C244.699 122.827 246.478 122.363 249.223 123.91C250.991 124.979 252.547 126.365 253.814 127.998L252.548 130.337C251.502 129.005 250.283 127.819 248.923 126.809Z" fill="#FFA629"/>
<path d="M142.236 135.759C146.157 130.943 148.131 124.831 147.768 118.63C147.405 112.43 144.732 106.59 140.275 102.264C135.818 97.938 129.901 95.4394 123.693 95.2612C117.484 95.083 111.434 97.2383 106.736 101.302C102.038 105.365 99.0341 111.042 98.3162 117.211C97.5982 123.381 99.2186 129.596 102.858 134.629C106.497 139.663 111.89 143.15 117.974 144.402C124.058 145.655 130.39 144.581 135.721 141.394L147.822 146.652L142.236 135.759Z" fill="#FFA629"/>
<path opacity="0.4" d="M142.236 135.759C146.157 130.943 148.131 124.831 147.768 118.63C147.405 112.43 144.732 106.59 140.275 102.264C135.818 97.938 129.901 95.4394 123.693 95.2612C117.484 95.083 111.434 97.2383 106.736 101.302C102.038 105.365 99.0341 111.042 98.3162 117.211C97.5982 123.381 99.2186 129.596 102.858 134.629C106.497 139.663 111.89 143.15 117.974 144.402C124.058 145.655 130.39 144.581 135.721 141.394L147.822 146.652L142.236 135.759Z" fill="black"/>
<path d="M113.78 118.748C113.78 118.371 113.51 118.159 113.017 118.159C111.874 118.308 110.806 118.812 109.963 119.599L108.59 116.931C110.035 115.844 111.78 115.23 113.587 115.172C115.907 115.172 117.666 116.39 117.666 118.207C117.666 119.502 116.699 120.749 115.462 121.996L113.732 123.706H117.821V126.548H109.035V124.219L112.949 120.169C113.371 119.796 113.662 119.298 113.78 118.748Z" fill="white"/>
<path d="M124.973 115.336L122.305 121.735H123.398V119.579H126.761V121.735H128.037V124.374H126.761V126.548H123.398V124.374H118.613V121.976L121.513 115.336H124.973Z" fill="white"/>
<path d="M138.418 120.971V126.548H134.822V122.005C134.843 121.857 134.832 121.707 134.789 121.564C134.747 121.42 134.674 121.288 134.576 121.175C134.478 121.063 134.357 120.972 134.221 120.91C134.085 120.848 133.937 120.816 133.788 120.816C133.082 120.816 132.638 121.367 132.638 122.218V126.548H129.042V114.698H132.638V119.057C132.919 118.613 133.311 118.249 133.775 118.002C134.24 117.754 134.76 117.632 135.286 117.646C135.717 117.635 136.146 117.715 136.543 117.881C136.941 118.047 137.3 118.295 137.595 118.608C137.891 118.922 138.117 119.295 138.259 119.702C138.4 120.109 138.455 120.542 138.418 120.971Z" fill="white"/>
<path d="M255.66 210.783V330.876C255.662 332.235 255.306 333.57 254.628 334.747C253.95 335.924 252.974 336.901 251.799 337.581C250.623 338.261 249.289 338.62 247.93 338.62C246.572 338.621 245.238 338.263 244.061 337.584L179.38 300.237L167.917 293.626C163.969 291.343 160.69 288.065 158.407 284.118C156.124 280.171 154.917 275.694 154.907 271.134V151.031C154.905 149.673 155.261 148.338 155.939 147.161C156.616 145.984 157.592 145.006 158.768 144.326C159.944 143.646 161.278 143.288 162.637 143.287C163.995 143.287 165.329 143.644 166.506 144.323L242.669 188.291C246.618 190.57 249.898 193.848 252.178 197.797C254.459 201.745 255.659 206.224 255.66 210.783Z" fill="#FFA629"/>
<path opacity="0.5" d="M255.66 210.783V330.876C255.662 332.235 255.306 333.57 254.628 334.747C253.95 335.924 252.974 336.901 251.799 337.581C250.623 338.261 249.289 338.62 247.93 338.62C246.572 338.621 245.238 338.263 244.061 337.584L179.38 300.237L167.917 293.626C163.969 291.343 160.69 288.065 158.407 284.118C156.124 280.171 154.917 275.694 154.907 271.134V151.031C154.905 149.673 155.261 148.338 155.939 147.161C156.616 145.984 157.592 145.006 158.768 144.326C159.944 143.646 161.278 143.288 162.637 143.287C163.995 143.287 165.329 143.644 166.506 144.323L242.669 188.291C246.618 190.57 249.898 193.848 252.178 197.797C254.459 201.745 255.659 206.224 255.66 210.783Z" fill="white"/>
<path d="M218.4 281.844C218.4 281.844 230.51 301.928 221.763 324.575L179.351 300.237L218.4 281.844Z" fill="#263238"/>
<path d="M237.714 191.604C238.63 184.16 233.339 177.383 225.895 176.466C218.451 175.55 211.674 180.841 210.757 188.285C209.841 195.728 215.132 202.506 222.576 203.423C230.02 204.339 236.797 199.048 237.714 191.604Z" fill="#263238"/>
<path d="M224.305 151.852C224.305 151.852 228.471 145.087 229.747 145.58C231.023 146.072 228.916 152.519 228.916 152.519C228.916 152.519 235.217 153.834 234.048 155.419C232.878 157.004 225.175 156.627 225.175 156.627L224.305 151.852Z" fill="#263238"/>
<path d="M227.205 169.289C224.305 191.075 205.941 191.075 205.941 191.075L167.472 174.141C167.472 174.141 164.573 171.599 163.683 165.761C163.342 163.37 163.342 160.942 163.683 158.551C163.683 158.551 163.683 158.502 163.683 158.483C164.911 149.32 171.764 139.471 186.687 136.446C189.958 135.785 193.287 135.462 196.623 135.479C198.237 135.474 199.851 135.554 201.456 135.721C213.055 136.861 221.183 142.274 225.059 150.693C225.931 152.593 226.58 154.587 226.992 156.637C227.779 160.812 227.851 165.09 227.205 169.289Z" fill="#263238"/>
<path d="M134.851 211.43C134.851 211.43 121.194 210.957 115.936 224.266C115.936 224.266 121.735 228.181 129.342 224.266C136.949 220.352 134.851 211.43 134.851 211.43Z" fill="#FFA629"/>
<path opacity="0.5" d="M134.851 211.43C134.851 211.43 121.194 210.957 115.936 224.266C115.936 224.266 121.735 228.181 129.342 224.266C136.949 220.352 134.851 211.43 134.851 211.43Z" fill="black"/>
<path d="M134.465 217.838C134.465 217.838 130.598 201.04 128.559 200.837C126.52 200.634 126.123 205.96 126.288 208.966L121.455 198.566C121.302 198.242 121.084 197.954 120.815 197.718C120.546 197.483 120.231 197.304 119.891 197.195C119.55 197.085 119.191 197.047 118.835 197.081C118.479 197.116 118.134 197.223 117.821 197.396C112.988 200.054 104.511 208.134 122.383 228.113L134.465 217.838Z" fill="#945959"/>
<path d="M183.952 206.221L181.052 205.844C178.13 205.456 175.157 205.854 172.44 206.995C169.722 208.137 167.357 209.981 165.588 212.339L148.335 235.304L134.803 211.43C134.803 211.43 133.179 227.668 115.888 224.266L134.455 255.515C135.63 257.493 137.266 259.158 139.222 260.368C141.179 261.579 143.4 262.298 145.694 262.466C147.989 262.634 150.291 262.246 152.403 261.333C154.515 260.421 156.376 259.011 157.826 257.225L173.716 237.691L183.952 206.221Z" fill="#FFA629"/>
<path d="M220.777 259.816C216.911 269.617 216.486 271.531 218.844 276.431C220.487 280.05 221.781 283.817 222.71 287.682C222.71 287.682 204.791 307.766 179.283 300.247L167.82 293.635C165.436 292.261 163.289 290.511 161.46 288.455L164.95 262.435C165.125 261.066 164.986 259.674 164.544 258.366L160.88 247.628C159.093 242.383 158.827 236.739 160.113 231.349C161.399 225.96 164.185 221.044 168.149 217.172L180.463 205.138L212.803 209.275L217.636 210.657C220.8 211.572 223.527 213.598 225.317 216.363C227.107 219.128 227.839 222.445 227.379 225.707C225.794 237.112 223.203 253.659 220.777 259.816Z" fill="#FFA629"/>
<path opacity="0.5" d="M220.777 259.816C216.911 269.617 216.486 271.531 218.844 276.431C220.487 280.05 221.781 283.817 222.71 287.682C222.71 287.682 204.791 307.766 179.283 300.247L167.82 293.635C165.436 292.261 163.289 290.511 161.46 288.455L164.95 262.435C165.125 261.066 164.986 259.674 164.544 258.366L160.88 247.628C159.093 242.383 158.827 236.739 160.113 231.349C161.399 225.96 164.185 221.044 168.149 217.172L180.463 205.138L212.803 209.275L217.636 210.657C220.8 211.572 223.527 213.598 225.317 216.363C227.107 219.128 227.839 222.445 227.379 225.707C225.794 237.112 223.203 253.659 220.777 259.816Z" fill="black"/>
<path d="M201.272 230.539L194.797 225.02C194.111 224.433 193.284 224.036 192.397 223.866C191.511 223.697 190.595 223.761 189.742 224.054L181.912 226.75L180.859 222.362C180.695 221.679 180.394 221.037 179.974 220.474C179.555 219.911 179.026 219.438 178.419 219.085C177.812 218.732 177.139 218.505 176.443 218.419C175.746 218.333 175.039 218.388 174.364 218.583L170.971 219.549L176.712 208.55C178.587 204.968 181.475 202.016 185.015 200.064L187.267 198.827L205.873 199.793C205.873 199.793 212.803 202.693 212.803 209.217L201.272 230.481" fill="#FFA629"/>
<path d="M205.951 208.038L187.296 222.575V176.287H205.951V208.038Z" fill="#945959"/>
<path d="M187.586 204.22L181.912 226.789L205.873 208.038L187.586 204.22Z" fill="#945959"/>
<path d="M187.296 200.866C191.444 199.326 195.236 196.959 198.441 193.908C201.646 190.857 204.198 187.187 205.941 183.12V176.287H187.286L187.296 200.866Z" fill="#703838"/>
<path d="M191.317 141.984C184.242 141.984 169.202 145.928 167.463 164.447C165.723 182.966 167.405 197.309 176.954 198.701C186.504 200.093 208.695 193.163 211.672 169.193C214.649 145.222 198.208 141.984 191.317 141.984Z" fill="#945959"/>
<path d="M180.182 172.285V183.198L173.784 181.236L180.182 172.285Z" fill="#703838"/>
<path d="M187.296 176.393C188.524 176.393 189.519 175.398 189.519 174.17C189.519 172.942 188.524 171.947 187.296 171.947C186.068 171.947 185.073 172.942 185.073 174.17C185.073 175.398 186.068 176.393 187.296 176.393Z" fill="#263238"/>
<path d="M174.886 172.624C174.884 173.063 174.752 173.492 174.506 173.856C174.261 174.22 173.913 174.504 173.507 174.671C173.1 174.837 172.653 174.88 172.223 174.793C171.792 174.706 171.397 174.494 171.087 174.183C170.777 173.871 170.566 173.475 170.481 173.044C170.396 172.613 170.441 172.167 170.61 171.761C170.778 171.355 171.063 171.009 171.428 170.765C171.794 170.521 172.223 170.391 172.662 170.391C172.955 170.391 173.245 170.449 173.515 170.561C173.786 170.673 174.031 170.838 174.238 171.046C174.444 171.253 174.608 171.499 174.719 171.77C174.83 172.041 174.887 172.331 174.886 172.624Z" fill="#263238"/>
<path d="M169.946 167.984L174.296 165.404C174.296 165.404 172.633 163.673 170.971 164.708C169.309 165.742 169.946 167.984 169.946 167.984Z" fill="#263238"/>
<path d="M177.176 187.624C179.294 187.779 181.403 187.214 183.159 186.02C183.159 186.02 183.575 189.181 180.926 189.78C178.278 190.379 177.176 187.624 177.176 187.624Z" fill="#703838"/>
<path d="M173.378 148.286C173.378 148.286 176.036 173.851 210.803 174.653C210.803 174.653 221.309 149.243 200.548 140.988C179.786 132.734 173.378 148.286 173.378 148.286Z" fill="#263238"/>
<path d="M221.038 170.826L216.766 168.351C215.142 167.385 212.9 167.52 210.416 168.951C205.487 171.792 201.485 178.722 201.485 184.415C201.485 187.267 202.452 189.248 204.114 190.215L208.309 192.631L208.551 192.766L208.696 192.853C210.281 193.626 212.397 193.443 214.727 192.099C219.656 189.2 223.658 182.328 223.658 176.635C223.629 173.754 222.633 171.763 221.038 170.826Z" fill="#FFA629"/>
<path d="M221.005 185.384C224.49 179.347 224.49 172.821 221.005 170.808C217.519 168.796 211.868 172.059 208.382 178.096C204.896 184.134 204.896 190.66 208.382 192.672C211.867 194.685 217.519 191.422 221.005 185.384Z" fill="#FFA629"/>
<path opacity="0.5" d="M221.005 185.384C224.49 179.347 224.49 172.821 221.005 170.808C217.519 168.796 211.868 172.059 208.382 178.096C204.896 184.134 204.896 190.66 208.382 192.672C211.867 194.685 217.519 191.422 221.005 185.384Z" fill="black"/>
<path d="M222.749 176.19L219.85 174.499C218.748 173.842 217.211 173.929 215.51 174.905C213.733 176.066 212.254 177.629 211.193 179.468C210.131 181.306 209.518 183.369 209.401 185.488C209.401 187.422 210.087 188.804 211.199 189.442L214.099 191.094C214.15 191.132 214.205 191.164 214.263 191.191L214.36 191.249C215.039 191.507 215.772 191.594 216.493 191.503C217.214 191.412 217.902 191.146 218.496 190.727C220.272 189.567 221.75 188.005 222.811 186.168C223.872 184.332 224.487 182.271 224.605 180.153C224.528 178.191 223.851 176.828 222.749 176.19Z" fill="#FFA629"/>
<path d="M224.527 180.133C224.409 182.251 223.795 184.312 222.734 186.149C221.673 187.986 220.195 189.547 218.419 190.708C215.036 192.641 212.301 191.075 212.301 187.18C212.415 185.06 213.029 182.997 214.092 181.159C215.156 179.322 216.638 177.761 218.419 176.606C221.792 174.653 224.527 176.229 224.527 180.133Z" fill="#FFA629"/>
<path opacity="0.3" d="M224.527 180.133C224.409 182.251 223.795 184.312 222.734 186.149C221.673 187.986 220.195 189.547 218.419 190.708C215.036 192.641 212.301 191.075 212.301 187.18C212.415 185.06 213.029 182.997 214.092 181.159C215.156 179.322 216.638 177.761 218.419 176.606C221.792 174.653 224.527 176.229 224.527 180.133Z" fill="black"/>
<path d="M207.768 136.997C204.997 134.856 201.603 133.679 198.102 133.643H197.242C193.697 133.604 190.157 133.928 186.677 134.609C187.315 134.609 187.953 134.609 188.611 134.609H186.677V136.407H188.475C194.671 136.618 200.542 139.229 204.848 143.69C209.153 148.15 211.555 154.11 211.547 160.31V167.916C211.546 168.217 211.609 168.515 211.731 168.789C211.854 169.064 212.032 169.31 212.255 169.512C212.479 169.713 212.742 169.865 213.028 169.958C213.313 170.052 213.616 170.084 213.915 170.053H214.137L216.07 169.453C215.941 169.494 215.808 169.52 215.674 169.531C216.25 169.452 216.778 169.165 217.155 168.723C217.533 168.281 217.735 167.715 217.723 167.134V160.078C217.704 147.31 212.185 140.447 207.768 136.997Z" fill="#FFA629"/>
<path d="M195.599 198.169C194.802 198.169 194.014 197.998 193.289 197.667L187.248 194.873C187.153 194.84 187.067 194.787 186.994 194.718C186.921 194.649 186.863 194.565 186.824 194.473C186.785 194.381 186.766 194.281 186.767 194.181C186.768 194.08 186.791 193.981 186.832 193.89C186.874 193.799 186.934 193.717 187.009 193.65C187.084 193.583 187.171 193.533 187.267 193.502C187.362 193.471 187.463 193.46 187.563 193.469C187.663 193.479 187.76 193.51 187.847 193.559L193.888 196.352C194.658 196.71 195.521 196.819 196.357 196.663C197.192 196.507 197.957 196.094 198.547 195.482L204.346 189.49C204.482 189.354 204.666 189.278 204.858 189.278C205.05 189.278 205.235 189.354 205.371 189.49C205.504 189.627 205.579 189.811 205.579 190.002C205.579 190.193 205.504 190.377 205.371 190.514L199.571 196.507C199.055 197.037 198.437 197.457 197.754 197.743C197.072 198.029 196.339 198.174 195.599 198.169Z" fill="#FFA629"/>
<path opacity="0.5" d="M195.599 198.169C194.802 198.169 194.014 197.998 193.289 197.667L187.248 194.873C187.153 194.84 187.067 194.787 186.994 194.718C186.921 194.649 186.863 194.565 186.824 194.473C186.785 194.381 186.766 194.281 186.767 194.181C186.768 194.08 186.791 193.981 186.832 193.89C186.874 193.799 186.934 193.717 187.009 193.65C187.084 193.583 187.171 193.533 187.267 193.502C187.362 193.471 187.463 193.46 187.563 193.469C187.663 193.479 187.76 193.51 187.847 193.559L193.888 196.352C194.658 196.71 195.521 196.819 196.357 196.663C197.192 196.507 197.957 196.094 198.547 195.482L204.346 189.49C204.482 189.354 204.666 189.278 204.858 189.278C205.05 189.278 205.235 189.354 205.371 189.49C205.504 189.627 205.579 189.811 205.579 190.002C205.579 190.193 205.504 190.377 205.371 190.514L199.571 196.507C199.055 197.037 198.437 197.457 197.754 197.743C197.072 198.029 196.339 198.174 195.599 198.169Z" fill="black"/>
<path d="M188.833 192.844C188.833 193.402 188.667 193.948 188.357 194.412C188.047 194.876 187.606 195.238 187.091 195.451C186.575 195.665 186.007 195.721 185.46 195.612C184.912 195.503 184.41 195.234 184.015 194.839C183.62 194.445 183.351 193.942 183.242 193.394C183.134 192.847 183.189 192.279 183.403 191.764C183.617 191.248 183.978 190.807 184.443 190.497C184.907 190.187 185.452 190.021 186.011 190.021C186.759 190.021 187.477 190.319 188.006 190.848C188.536 191.377 188.833 192.095 188.833 192.844Z" fill="#FFA629"/>
<path opacity="0.5" d="M188.833 192.844C188.833 193.402 188.667 193.948 188.357 194.412C188.047 194.876 187.606 195.238 187.091 195.451C186.575 195.665 186.007 195.721 185.46 195.612C184.912 195.503 184.41 195.234 184.015 194.839C183.62 194.445 183.351 193.942 183.242 193.394C183.134 192.847 183.189 192.279 183.403 191.764C183.617 191.248 183.978 190.807 184.443 190.497C184.907 190.187 185.452 190.021 186.011 190.021C186.759 190.021 187.477 190.319 188.006 190.848C188.536 191.377 188.833 192.095 188.833 192.844Z" fill="black"/>
<path d="M217.704 160.078V167.134C217.716 167.715 217.514 168.281 217.136 168.723C216.758 169.165 216.231 169.452 215.655 169.531C215.336 169.565 215.014 169.531 214.71 169.432C214.405 169.334 214.125 169.172 213.887 168.958C213.649 168.743 213.459 168.481 213.329 168.189C213.199 167.896 213.132 167.579 213.132 167.259V160.078C213.137 156.65 212.449 153.257 211.109 150.103C209.769 146.948 207.805 144.097 205.335 141.721C202.864 139.346 199.938 137.494 196.734 136.279C193.529 135.063 190.112 134.508 186.687 134.648C190.167 133.967 193.706 133.643 197.252 133.681H198.093C201.594 133.718 204.987 134.895 207.758 137.035C212.185 140.447 217.704 147.31 217.704 160.078Z" fill="#FFA629"/>
<path opacity="0.5" d="M217.704 160.078V167.134C217.716 167.715 217.514 168.281 217.136 168.723C216.758 169.165 216.231 169.452 215.655 169.531C215.336 169.565 215.014 169.531 214.71 169.432C214.405 169.334 214.125 169.172 213.887 168.958C213.649 168.743 213.459 168.481 213.329 168.189C213.199 167.896 213.132 167.579 213.132 167.259V160.078C213.137 156.65 212.449 153.257 211.109 150.103C209.769 146.948 207.805 144.097 205.335 141.721C202.864 139.346 199.938 137.494 196.734 136.279C193.529 135.063 190.112 134.508 186.687 134.648C190.167 133.967 193.706 133.643 197.252 133.681H198.093C201.594 133.718 204.987 134.895 207.758 137.035C212.185 140.447 217.704 147.31 217.704 160.078Z" fill="black"/>
<path d="M206.84 293.046C206.84 293.046 202.162 305.93 218.883 311.729C218.883 311.729 224.344 303.707 218.883 297.144C213.422 290.581 206.84 293.046 206.84 293.046Z" fill="#FFA629"/>
<path opacity="0.7" d="M206.84 293.046C206.84 293.046 202.162 305.93 218.883 311.729C218.883 311.729 224.344 303.707 218.883 297.144C213.422 290.581 206.84 293.046 206.84 293.046Z" fill="black"/>
<path d="M212.707 293.635C212.707 293.635 196.372 299.618 196.459 301.938C196.546 304.258 203.399 302.672 203.399 302.672L200.895 304.316C198.259 306.036 196.217 308.526 195.048 311.449C194.793 312.093 194.784 312.809 195.023 313.46C195.262 314.11 195.732 314.65 196.343 314.977L202.548 318.263C202.899 318.449 203.283 318.563 203.678 318.597C204.073 318.632 204.471 318.588 204.849 318.466C205.226 318.344 205.576 318.148 205.876 317.889C206.177 317.63 206.422 317.314 206.598 316.958C206.944 316.275 207.422 315.666 208.004 315.169C208.586 314.671 209.262 314.294 209.991 314.058C213.364 312.937 219.656 309.709 222.179 300.875L212.707 293.635Z" fill="#945959"/>
<path d="M217.607 210.638C217.607 210.638 208.908 215.471 213.528 230.143C218.148 244.815 226.818 267.577 226.818 267.577L206.84 293.046C208.974 293.303 211.03 294.008 212.874 295.114C214.718 296.22 216.307 297.702 217.54 299.464C218.72 301.255 219.457 303.302 219.691 305.434C219.924 307.567 219.647 309.725 218.883 311.729L243.685 279.833C245.978 276.885 247.501 273.413 248.115 269.729C248.73 266.045 248.416 262.266 247.203 258.733L236.571 227.688C235.271 223.895 233.112 220.455 230.261 217.637C227.41 214.818 223.946 212.697 220.14 211.44L217.607 210.638Z" fill="#FFA629"/>
<path d="M70.7691 123.968L32.3295 101.737C31.8872 101.431 31.3754 101.239 30.8404 101.18C30.3054 101.121 29.7642 101.196 29.2656 101.399C29.1605 101.447 29.0602 101.506 28.966 101.573L20.6053 106.473H20.6633C19.6098 107.073 18.9429 108.464 18.9429 110.455V153.216C18.9429 156.83 21.1369 161.035 23.8529 162.601L62.2925 184.831C62.7802 185.184 63.3608 185.386 63.9622 185.412C64.5636 185.437 65.1593 185.286 65.6754 184.976C65.6493 184.987 65.6261 185.003 65.6078 185.025L73.9104 180.192C74.9929 179.612 75.6792 178.201 75.6792 176.181V133.353C75.6792 129.738 73.5238 125.534 70.7691 123.968Z" fill="#FFA629"/>
<path d="M74.3068 128.018C73.5292 126.364 72.3037 124.961 70.7693 123.968L32.3297 101.737C31.8873 101.431 31.3755 101.239 30.8406 101.18C30.3056 101.121 29.7643 101.196 29.2657 101.399C29.1606 101.447 29.0603 101.506 28.9661 101.573L20.6055 106.473C21.1169 106.212 21.6904 106.096 22.2631 106.139C22.8359 106.181 23.386 106.381 23.8531 106.715L62.2927 128.946C63.8792 129.983 65.1367 131.452 65.9172 133.179L74.3068 128.018Z" fill="#FFA629"/>
<path d="M67.2027 181.071C67.2027 183.004 66.5841 184.348 65.6079 184.937L73.9105 180.105C74.9931 179.525 75.6793 178.114 75.6793 176.094V133.353C75.6385 131.492 75.1688 129.667 74.3068 128.017L65.9172 133.179C66.7227 134.779 67.1618 136.539 67.2027 138.331V181.071Z" fill="#FFA629"/>
<path opacity="0.3" d="M74.3068 128.018C73.5292 126.364 72.3037 124.961 70.7693 123.968L32.3297 101.737C31.8873 101.431 31.3755 101.239 30.8406 101.18C30.3056 101.121 29.7643 101.196 29.2657 101.399C29.1606 101.447 29.0603 101.506 28.9661 101.573L20.6055 106.473C21.1169 106.212 21.6904 106.096 22.2631 106.139C22.8359 106.181 23.386 106.381 23.8531 106.715L62.2927 128.946C63.8792 129.983 65.1367 131.452 65.9172 133.179L74.3068 128.018Z" fill="black"/>
<path opacity="0.6" d="M67.2027 181.071C67.2027 183.004 66.5841 184.348 65.6079 184.937L73.9105 180.105C74.9931 179.525 75.6793 178.114 75.6793 176.094V133.353C75.6385 131.492 75.1688 129.667 74.3068 128.017L65.9172 133.179C66.7227 134.779 67.1618 136.539 67.2027 138.331V181.071Z" fill="black"/>
<path d="M55.9326 150.577C55.9326 156.115 53.7385 158 50.4523 156.096C49.5457 155.58 48.753 154.885 48.1218 154.055C47.4906 153.224 47.034 152.275 46.7794 151.263C45.8128 152.452 44.3147 152.529 42.2076 151.311C38.7474 149.311 36.0217 144.545 36.0217 139.916C36.0217 135.286 38.7184 133.691 42.2076 135.702C43.9782 136.745 45.4084 138.279 46.3251 140.119V138.292L49.969 140.399V150.412C49.9147 150.939 50.0059 151.471 50.2325 151.95C50.4591 152.429 50.8126 152.836 51.2545 153.128C52.482 153.844 53.2359 152.635 53.2359 149.05C53.2359 142.777 49.2151 136.127 43.2708 132.696C37.3266 129.264 33.3154 131.652 33.3154 138.108C33.3933 141.534 34.3373 144.885 36.0595 147.847C37.7817 150.81 40.226 153.289 43.1645 155.052C44.76 156.035 46.5719 156.612 48.4419 156.734L49.3021 160.068C47.1247 159.892 45.0206 159.2 43.1645 158.048C35.4321 153.573 30.3191 144.565 30.3191 136.407C30.3191 128.249 35.4804 125.292 43.2708 129.796C50.8002 134.136 55.9326 142.825 55.9326 150.577ZM46.3831 145.928C46.4019 144.702 46.1028 143.492 45.5151 142.417C44.9273 141.341 44.0708 140.436 43.0292 139.79C41.0961 138.659 39.7139 139.452 39.7139 142.081C39.6891 143.308 39.9811 144.522 40.5618 145.604C41.1425 146.685 41.9923 147.599 43.0292 148.257C44.9623 149.349 46.3831 148.644 46.3831 145.928Z" fill="#FFA629"/>
<g opacity="0.9">
<path d="M55.9326 150.577C55.9326 156.115 53.7385 158 50.4523 156.096C49.5457 155.58 48.753 154.885 48.1218 154.055C47.4906 153.224 47.034 152.275 46.7794 151.263C45.8128 152.452 44.3147 152.529 42.2076 151.311C38.7474 149.311 36.0217 144.545 36.0217 139.916C36.0217 135.286 38.7184 133.691 42.2076 135.702C43.9782 136.745 45.4084 138.279 46.3251 140.119V138.292L49.969 140.399V150.412C49.9147 150.939 50.0059 151.471 50.2325 151.95C50.4591 152.429 50.8126 152.836 51.2545 153.128C52.482 153.844 53.2359 152.635 53.2359 149.05C53.2359 142.777 49.2151 136.127 43.2708 132.696C37.3266 129.264 33.3154 131.652 33.3154 138.108C33.3933 141.534 34.3373 144.885 36.0595 147.847C37.7817 150.81 40.226 153.289 43.1645 155.052C44.76 156.035 46.5719 156.612 48.4419 156.734L49.3021 160.068C47.1247 159.892 45.0206 159.2 43.1645 158.048C35.4321 153.573 30.3191 144.565 30.3191 136.407C30.3191 128.249 35.4804 125.292 43.2708 129.796C50.8002 134.136 55.9326 142.825 55.9326 150.577ZM46.3831 145.928C46.4019 144.702 46.1028 143.492 45.5151 142.417C44.9273 141.341 44.0708 140.436 43.0292 139.79C41.0961 138.659 39.7139 139.452 39.7139 142.081C39.6891 143.308 39.9811 144.522 40.5618 145.604C41.1425 146.685 41.9923 147.599 43.0292 148.257C44.9623 149.349 46.3831 148.644 46.3831 145.928Z" fill="white"/>
</g>
<path d="M70.7691 200.112L32.3295 177.882C31.8878 177.573 31.3754 177.382 30.8397 177.324C30.3041 177.267 29.7627 177.346 29.2656 177.553C29.1605 177.602 29.0602 177.66 28.966 177.727L20.6053 182.628H20.6633C19.6098 183.227 18.9429 184.619 18.9429 186.6V229.341C18.9429 232.965 21.1369 237.16 23.8529 238.726L62.2925 260.957C62.7792 261.312 63.3601 261.515 63.962 261.541C64.564 261.567 65.1601 261.414 65.6754 261.102L65.6078 261.159L73.9104 256.278C74.9929 255.708 75.6792 254.345 75.6792 252.267V209.488C75.6792 205.873 73.5238 201.678 70.7691 200.112Z" fill="#FFA629"/>
<path d="M74.3068 204.162C73.5318 202.507 72.3057 201.103 70.7693 200.112L32.3297 177.882C31.8879 177.573 31.3755 177.382 30.8399 177.324C30.3043 177.267 29.7628 177.346 29.2657 177.553C29.1606 177.602 29.0603 177.66 28.9661 177.727L20.6055 182.628C21.1157 182.364 21.6889 182.246 22.2619 182.287C22.8349 182.328 23.3855 182.526 23.8531 182.86L62.2927 205.09C63.8817 206.129 65.1396 207.601 65.9172 209.333L74.3068 204.162Z" fill="#FFA629"/>
<path d="M67.2027 257.206C67.2027 259.14 66.5841 260.483 65.6079 261.121L73.9105 256.24C74.9931 255.67 75.6793 254.307 75.6793 252.229V209.488C75.6384 207.631 75.1686 205.808 74.3068 204.162L65.9172 209.324C66.7226 210.921 67.1617 212.677 67.2027 214.466V257.206Z" fill="#FFA629"/>
<path opacity="0.3" d="M74.3068 204.162C73.5318 202.507 72.3057 201.103 70.7693 200.112L32.3297 177.882C31.8879 177.573 31.3755 177.382 30.8399 177.324C30.3043 177.267 29.7628 177.346 29.2657 177.553C29.1606 177.602 29.0603 177.66 28.9661 177.727L20.6055 182.628C21.1157 182.364 21.6889 182.246 22.2619 182.287C22.8349 182.328 23.3855 182.526 23.8531 182.86L62.2927 205.09C63.8817 206.129 65.1396 207.601 65.9172 209.333L74.3068 204.162Z" fill="black"/>
<path opacity="0.6" d="M67.2027 257.206C67.2027 259.14 66.5841 260.483 65.6079 261.121L73.9105 256.24C74.9931 255.67 75.6793 254.307 75.6793 252.229V209.488C75.6384 207.631 75.1686 205.808 74.3068 204.162L65.9172 209.324C66.7226 210.921 67.1617 212.677 67.2027 214.466V257.206Z" fill="black"/>
<path d="M38.7765 219.221L29.5073 204.162V224.566L38.7765 219.221Z" fill="#FFA629"/>
<path d="M47.3884 223.561L56.6383 239.577V219.202L47.3884 223.561Z" fill="#FFA629"/>
<path d="M30.9087 203.476L40.4292 218.941C40.4695 218.974 40.5052 219.013 40.5355 219.057C40.5439 219.095 40.5439 219.134 40.5355 219.173L43.3675 223.773L45.7645 222.642C45.8019 222.602 45.8441 222.566 45.8902 222.536C45.9847 222.481 46.0904 222.448 46.1995 222.439L55.8649 217.906L30.9087 203.476Z" fill="#FFA629"/>
<path d="M45.9869 224.218L43.3966 225.436C43.2968 225.482 43.1877 225.505 43.0776 225.503C42.9442 225.505 42.8127 225.472 42.6958 225.408C42.5789 225.343 42.4807 225.25 42.4107 225.136L39.5787 220.535L30.2805 225.909L55.3044 240.35L45.9869 224.218Z" fill="#FFA629"/>
<g opacity="0.9">
<path d="M38.7765 219.221L29.5073 204.162V224.566L38.7765 219.221Z" fill="white"/>
<path d="M47.3884 223.561L56.6383 239.576V219.202L47.3884 223.561Z" fill="white"/>
<path d="M30.9087 203.476L40.4292 218.941C40.4695 218.975 40.5052 219.014 40.5355 219.057C40.5439 219.095 40.5439 219.134 40.5355 219.173L43.3675 223.773L45.7645 222.643C45.8019 222.602 45.8441 222.566 45.8902 222.536C45.9847 222.481 46.0904 222.448 46.1995 222.44L55.8649 217.906L30.9087 203.476Z" fill="white"/>
<path d="M45.9869 224.218L43.3966 225.436C43.2968 225.482 43.1877 225.506 43.0776 225.504C42.9442 225.505 42.8127 225.472 42.6958 225.408C42.5789 225.343 42.4807 225.25 42.4107 225.136L39.5787 220.536L30.2805 225.91L55.3044 240.35L45.9869 224.218Z" fill="white"/>
</g>
<path d="M70.7691 47.8616L32.3295 25.6311C31.8878 25.3228 31.3754 25.131 30.8397 25.0735C30.3041 25.0161 29.7627 25.0948 29.2656 25.3024C29.1605 25.351 29.0602 25.4092 28.966 25.4764L20.6053 30.3768H20.6633C19.6098 30.9664 18.9429 32.3679 18.9429 34.3493V77.09C18.9429 80.7049 21.1369 84.9094 23.8529 86.4752L62.2925 108.706C62.7792 109.061 63.3601 109.264 63.962 109.29C64.564 109.316 65.1601 109.163 65.6754 108.851L65.6078 108.899L73.9104 104.066C74.9929 103.496 75.6792 102.133 75.6792 100.055V57.2082C75.6792 53.5933 73.5238 49.3888 70.7691 47.8616Z" fill="#FFA629"/>
<path d="M74.3068 51.8826C73.532 50.2243 72.3061 48.8175 70.7693 47.8231L32.3297 25.6312C31.8879 25.3229 31.3755 25.1311 30.8399 25.0737C30.3043 25.0162 29.7628 25.0949 29.2657 25.3026C29.1606 25.3511 29.0603 25.4093 28.9661 25.4765L20.6055 30.3769C21.1157 30.1131 21.6889 29.9951 22.2619 30.036C22.8349 30.077 23.3855 30.2752 23.8531 30.6089L62.2927 52.8395C63.8817 53.8782 65.1396 55.3507 65.9172 57.0826L74.3068 51.8826Z" fill="#FFA629"/>
<path d="M67.2027 104.888C67.2027 106.821 66.5841 108.165 65.6079 108.754L73.9105 103.922C74.9931 103.351 75.6793 101.989 75.6793 99.9104V57.2084C75.6384 55.3511 75.1686 53.5284 74.3068 51.8827L65.9172 57.044C66.7226 58.6412 67.1617 60.3978 67.2027 62.1861V104.888Z" fill="#FFA629"/>
<path opacity="0.3" d="M74.3068 51.8826C73.532 50.2243 72.3061 48.8175 70.7693 47.8231L32.3297 25.6312C31.8879 25.3229 31.3755 25.1311 30.8399 25.0737C30.3043 25.0162 29.7628 25.0949 29.2657 25.3026C29.1606 25.3511 29.0603 25.4093 28.9661 25.4765L20.6055 30.3769C21.1157 30.1131 21.6889 29.9951 22.2619 30.036C22.8349 30.077 23.3855 30.2752 23.8531 30.6089L62.2927 52.8395C63.8817 53.8782 65.1396 55.3507 65.9172 57.0826L74.3068 51.8826Z" fill="black"/>
<path opacity="0.6" d="M67.2027 104.888C67.2027 106.821 66.5841 108.165 65.6079 108.754L73.9105 103.922C74.9931 103.351 75.6793 101.989 75.6793 99.9104V57.2084C75.6384 55.3511 75.1686 53.5284 74.3068 51.8827L65.9172 57.044C66.7226 58.6412 67.1617 60.3978 67.2027 62.1861V104.888Z" fill="black"/>
<path d="M54.6278 86.5236C53.149 84.0879 51.6605 81.6909 50.1817 79.2358C49.9471 78.7708 49.6192 78.3592 49.2184 78.0266C48.8176 77.694 48.3526 77.4476 47.8523 77.3028C47.1371 77.1578 46.4218 76.9935 45.6872 76.7808C45.4256 76.6717 45.2056 76.4821 45.059 76.2396C42.6391 72.098 40.7153 67.686 39.3274 63.0945C39.2978 62.9964 39.2895 62.8931 39.3028 62.7914C39.3161 62.6898 39.3508 62.5921 39.4047 62.5049C39.859 62.0506 40.3712 61.635 40.8352 61.2291C41.2991 60.8231 41.5407 59.8856 41.2025 58.6677C40.4872 56.087 39.801 53.5064 39.0857 50.9353C38.9473 50.2048 38.619 49.5236 38.1337 48.9603C37.6484 48.397 37.0234 47.9714 36.3214 47.7264C34.7627 47.2931 33.108 47.3539 31.5853 47.9004C30.9957 48.1227 30.6864 48.6543 30.6768 49.5725C30.9281 51.3413 31.0924 53.0907 31.4307 54.8885C33.8148 67.8531 39.5497 79.7739 48.6352 90.6508C48.8724 91.0115 49.1911 91.3113 49.5655 91.5262C49.9399 91.7411 50.3595 91.8651 50.7906 91.888C52.2948 91.8522 53.7399 91.2953 54.8791 90.3125C55.7393 89.5392 55.6523 88.1667 54.6278 86.5236Z" fill="#FFA629"/>
<path d="M54.512 73.3495C54.3098 70.5693 53.5435 67.8595 52.2599 65.3851C51.3015 63.4522 50.0819 61.6602 48.6354 60.0595C48.2584 59.6342 47.9394 59.4989 47.7461 59.8178C47.5528 60.1368 47.7461 60.5911 48.1134 61.0067L48.4904 61.4416C51.1619 64.5254 52.8456 68.3406 53.3231 72.3926C53.3184 72.6881 53.3476 72.9833 53.4101 73.2722C53.5315 73.6046 53.7264 73.9052 53.9804 74.1517C54.1833 74.2967 54.4153 74.1517 54.5796 74.1517C54.5216 73.7554 54.5313 73.5525 54.512 73.3495Z" fill="#FFA629"/>
<path d="M45.7549 65.4142C46.9686 66.7492 47.7062 68.4485 47.8523 70.2469C47.9159 70.5203 48.0168 70.7837 48.1519 71.0298C48.7415 71.5131 49.0315 71.3488 49.0315 70.7398C48.8248 68.434 47.8712 66.2587 46.3155 64.5443C45.9482 64.1673 45.6486 64.0513 45.4746 64.3703C45.412 64.5524 45.4052 64.7491 45.4552 64.9351C45.5051 65.1211 45.6095 65.2879 45.7549 65.4142Z" fill="#FFA629"/>
<g opacity="0.9">
<path d="M54.6278 86.5236C53.149 84.0879 51.6605 81.6909 50.1817 79.2358C49.9471 78.7708 49.6192 78.3592 49.2184 78.0266C48.8176 77.694 48.3526 77.4476 47.8523 77.3028C47.1371 77.1578 46.4218 76.9935 45.6872 76.7808C45.4256 76.6717 45.2056 76.4821 45.059 76.2396C42.6391 72.098 40.7153 67.686 39.3274 63.0945C39.2978 62.9964 39.2895 62.8931 39.3028 62.7914C39.3161 62.6898 39.3508 62.5921 39.4047 62.5049C39.859 62.0506 40.3712 61.635 40.8352 61.2291C41.2991 60.8231 41.5407 59.8856 41.2025 58.6677C40.4872 56.087 39.801 53.5064 39.0857 50.9353C38.9473 50.2048 38.619 49.5236 38.1337 48.9603C37.6484 48.397 37.0234 47.9714 36.3214 47.7264C34.7627 47.2931 33.108 47.3539 31.5853 47.9004C30.9957 48.1227 30.6864 48.6543 30.6768 49.5725C30.9281 51.3413 31.0924 53.0907 31.4307 54.8885C33.8148 67.8531 39.5497 79.7739 48.6352 90.6508C48.8724 91.0115 49.1911 91.3113 49.5655 91.5262C49.9399 91.7411 50.3595 91.8651 50.7906 91.888C52.2948 91.8522 53.7399 91.2953 54.8791 90.3125C55.7393 89.5392 55.6523 88.1667 54.6278 86.5236Z" fill="white"/>
<path d="M54.5117 73.35C54.3095 70.5698 53.5433 67.86 52.2597 65.3856C51.3013 63.4526 50.0817 61.6606 48.6351 60.0599C48.2582 59.6347 47.9392 59.4993 47.7459 59.8183C47.5526 60.1373 47.7459 60.5915 48.1132 61.0072L48.4901 61.4421C51.1617 64.5259 52.8453 68.3411 53.3229 72.3931C53.3181 72.6886 53.3473 72.9837 53.4099 73.2726C53.5313 73.605 53.7262 73.9057 53.9801 74.1522C54.1831 74.2972 54.4151 74.1522 54.5794 74.1522C54.5214 73.7559 54.5311 73.5529 54.5117 73.35Z" fill="white"/>
<path d="M45.7549 65.4143C46.9686 66.7493 47.7062 68.4487 47.8523 70.247C47.9159 70.5205 48.0168 70.7839 48.1519 71.0299C48.7415 71.5132 49.0315 71.3489 49.0315 70.74C48.8248 68.4342 47.8712 66.2588 46.3155 64.5444C45.9482 64.1674 45.6486 64.0515 45.4746 64.3704C45.412 64.5525 45.4052 64.7492 45.4552 64.9352C45.5051 65.1212 45.6095 65.288 45.7549 65.4143Z" fill="white"/>
</g>
<path d="M267.993 22.229L277.05 27.3807V24.1717C277.05 23.9494 277.05 23.7175 277.05 23.4951C277.05 23.2728 277.05 23.0602 277.05 22.8476V22.7316C277.378 18.4884 280.597 16.855 284.521 19.1264C286.298 20.2191 287.82 21.679 288.987 23.4082C289.866 17.6089 294.573 15.5598 300.266 18.8364C306.587 22.4899 311.71 31.4015 311.71 38.6699V45.5324C311.701 46.0814 311.837 46.623 312.103 47.1031C312.369 47.5832 312.757 47.9848 313.228 48.2678L318.563 51.3897C319.714 52.0724 320.669 53.0423 321.333 54.2046C321.997 55.3668 322.348 56.6816 322.352 58.0202C322.352 58.5756 322.206 59.1212 321.928 59.6021C321.65 60.083 321.251 60.4822 320.769 60.7595C320.288 61.0368 319.743 61.1825 319.187 61.1818C318.632 61.1811 318.087 61.0341 317.606 60.7555L268.128 32.1554C266.816 31.3931 265.726 30.3007 264.966 28.9866C264.206 27.6725 263.804 26.1825 263.798 24.6647C263.798 24.1734 263.927 23.6906 264.171 23.2647C264.416 22.8387 264.769 22.4847 265.194 22.238C265.619 21.9913 266.101 21.8606 266.592 21.859C267.084 21.8574 267.567 21.985 267.993 22.229Z" fill="#E6E6E6"/>
<path d="M337.034 20.8856L343.616 24.6648V22.3064C343.616 22.1421 343.616 21.9778 343.616 21.8134C343.616 21.6491 343.616 21.4945 343.616 21.3398V21.2818C343.857 18.1986 346.196 17.0097 349.048 18.6625C350.339 19.4536 351.446 20.5114 352.295 21.7651C352.943 17.5703 356.365 16.0528 360.501 18.4402C365.102 21.0982 368.823 27.5547 368.823 32.8611V37.8581C368.827 38.2498 368.932 38.634 369.129 38.9728C369.325 39.3117 369.606 39.5937 369.945 39.7912L373.811 42.0626C374.652 42.5573 375.349 43.2638 375.832 44.1117C376.316 44.9596 376.568 45.9194 376.565 46.8953C376.565 47.2951 376.46 47.6877 376.261 48.0346C376.063 48.3816 375.777 48.6707 375.433 48.8737C375.088 49.0766 374.697 49.1863 374.297 49.1919C373.898 49.1975 373.503 49.0989 373.154 48.9058L337.13 28.1057C336.176 27.5534 335.383 26.76 334.832 25.805C334.28 24.8499 333.99 23.7668 333.989 22.664C333.988 22.3071 334.081 21.9562 334.259 21.6465C334.436 21.3368 334.692 21.0791 335 20.899C335.308 20.719 335.658 20.623 336.015 20.6207C336.372 20.6183 336.723 20.7096 337.034 20.8856Z" fill="#E6E6E6"/>
</svg>
