<svg width="181" height="162" viewBox="0 0 181 162" fill="none" xmlns="http://www.w3.org/2000/svg">
<path d="M90.75 161.816C140.456 161.816 180.75 139.492 180.75 111.955C180.75 84.4179 140.456 62.0945 90.75 62.0945C41.0444 62.0945 0.75 84.4179 0.75 111.955C0.75 139.492 41.0444 161.816 90.75 161.816Z" fill="#F5F5F5"/>
<path d="M150.24 134.532C162.667 134.532 172.74 128.949 172.74 122.063C172.74 115.177 162.667 109.594 150.24 109.594C137.814 109.594 127.74 115.177 127.74 122.063C127.74 128.949 137.814 134.532 150.24 134.532Z" fill="#E0E0E0"/>
<path d="M69.6854 149.001L13.8636 118.073C12.9485 117.567 12.9485 116.745 13.8636 116.234L94.5633 71.5232C95.0767 71.2715 95.645 71.1403 96.2215 71.1403C96.7981 71.1403 97.3664 71.2715 97.8798 71.5232L153.686 102.444C154.601 102.951 154.601 103.773 153.686 104.279L73.0019 149.001C72.4879 149.251 71.9198 149.382 71.3436 149.382C70.7674 149.382 70.1993 149.251 69.6854 149.001Z" fill="#E0E0E0"/>
<path d="M161.598 114.913C161.117 111.745 162.349 99.6776 165.145 95.0834C167.941 90.4893 172.576 85.6699 176.612 86.3905C180.351 87.0586 180.648 91.6003 176.776 95.1773C172.905 98.7543 166.975 103.397 165.857 108.802L162.806 118.002L161.598 114.913Z" fill="#FFA629"/>
<path opacity="0.1" d="M161.598 114.913C161.117 111.745 162.349 99.6776 165.145 95.0834C167.941 90.4893 172.576 85.6699 176.612 86.3905C180.351 87.0586 180.648 91.6003 176.776 95.1773C172.905 98.7543 166.975 103.397 165.857 108.802L162.806 118.002L161.598 114.913Z" fill="black"/>
<path d="M162.494 113.918C162.545 113.905 162.59 113.876 162.622 113.836C162.655 113.796 162.673 113.747 162.673 113.697C162.846 102.564 170.265 92.2497 175.326 89.3783C175.381 89.3469 175.421 89.2957 175.437 89.2359C175.454 89.176 175.444 89.1125 175.412 89.0593C175.379 89.006 175.326 88.9674 175.263 88.9519C175.201 88.9364 175.135 88.9453 175.079 88.9767C169.921 91.9044 162.361 102.388 162.173 113.689C162.172 113.72 162.178 113.75 162.19 113.779C162.202 113.807 162.219 113.833 162.241 113.855C162.263 113.877 162.29 113.894 162.319 113.907C162.348 113.919 162.38 113.925 162.411 113.926C162.439 113.929 162.467 113.927 162.494 113.918Z" fill="white"/>
<path d="M164.308 119.728C164.566 117.874 165.92 114.676 168.978 111.508C172.725 107.627 178.943 105.503 179.811 103.251C180.848 100.541 178.478 98.6905 174.434 99.9253C169.001 101.584 162.939 108.093 163.018 116.467L164.308 119.728Z" fill="#FFA629"/>
<path d="M163.217 117.976C163.262 117.965 163.304 117.941 163.336 117.909C163.369 117.876 163.391 117.836 163.401 117.792C165.45 108.033 173.648 102.797 176.995 101.896C177.058 101.882 177.112 101.846 177.147 101.795C177.182 101.744 177.195 101.682 177.183 101.622C177.175 101.592 177.161 101.564 177.141 101.539C177.121 101.515 177.097 101.495 177.068 101.479C177.04 101.464 177.009 101.455 176.977 101.452C176.945 101.448 176.913 101.451 176.882 101.461C173.182 102.455 165.032 107.766 162.943 117.717C162.937 117.747 162.937 117.778 162.943 117.808C162.949 117.838 162.962 117.866 162.98 117.892C162.997 117.917 163.02 117.939 163.047 117.956C163.074 117.973 163.103 117.985 163.135 117.991C163.163 117.991 163.191 117.986 163.217 117.976Z" fill="white"/>
<path d="M50.1966 9.82059L47.2203 11.4721C47.2356 11.3475 47.2435 11.2222 47.2437 11.0968V10.271C47.2437 8.79591 46.1643 8.19911 44.8346 8.93478C44.264 9.27418 43.7748 9.72575 43.3992 10.2597C43.1841 8.40555 41.6667 7.71492 39.8285 8.73585C37.8378 9.83936 36.2225 12.5193 36.2225 14.7413V15.98C36.2111 16.4738 36.3154 16.9638 36.5276 17.4138L34.0402 18.765C33.6508 19.0083 33.3267 19.3363 33.0943 19.7224C32.8619 20.1085 32.7277 20.5418 32.7026 20.987C32.7026 21.8053 33.301 22.1356 34.0402 21.7377L50.1809 12.7933C50.5698 12.5504 50.8935 12.223 51.1259 11.8376C51.3583 11.4522 51.4928 11.0196 51.5185 10.575C51.5341 9.74552 50.9357 9.41147 50.1966 9.82059Z" fill="#E6E6E6"/>
<path d="M12.5846 13.5102L14.2272 12.2904V8.82219C14.2272 6.06718 16.5152 2.86926 18.9987 1.49175C21.4861 0.11424 23.5002 1.23276 23.5002 3.98778V4.49074C24.0233 3.67493 24.7387 2.9884 25.5887 2.48641C27.376 1.4955 28.827 2.29873 28.827 4.28054V4.5095L31.1189 3.24084C32.2922 2.58775 33.2504 3.11698 33.2504 4.42317C33.2099 5.13291 32.9958 5.82352 32.6255 6.43909C32.2552 7.05466 31.7391 7.57789 31.1189 7.96641L12.5846 18.2358C11.4113 18.8889 10.4492 18.3596 10.4492 17.0535C10.4883 16.343 10.7021 15.6515 11.0733 15.0356C11.4445 14.4197 11.9624 13.897 12.5846 13.5102Z" fill="#E6E6E6"/>
<path d="M17.3093 113.817C17.354 114.399 17.5407 114.964 17.8546 115.465C18.1685 115.965 18.6007 116.388 19.1162 116.699L69.7598 144.76C70.3206 145.032 70.9402 145.174 71.5686 145.174C72.197 145.174 72.8167 145.032 73.3775 144.76L148.434 103.176C148.978 102.898 149.434 102.483 149.752 101.976C150.07 101.468 150.238 100.887 150.238 100.295C150.238 99.7028 150.07 99.1218 149.752 98.6143C149.434 98.1068 148.978 97.6919 148.434 97.4142L97.7899 69.3423C97.2297 69.0684 96.6099 68.9257 95.9811 68.9257C95.3524 68.9257 94.7325 69.0684 94.1723 69.3423L19.1162 110.938C18.6007 111.248 18.1686 111.67 17.8547 112.17C17.5408 112.67 17.3539 113.234 17.3093 113.817Z" fill="#37474F"/>
<path d="M71.5862 141.408V145.161C70.957 145.175 70.3347 145.033 69.7793 144.749L19.1162 116.699C18.587 116.431 18.1413 116.033 17.8244 115.546C17.5074 115.059 17.3306 114.5 17.312 113.926C17.2933 113.352 17.4334 112.784 17.718 112.278C18.0027 111.773 18.4217 111.35 18.9324 111.05C18.1228 111.606 18.1854 112.424 19.1162 112.927L69.7637 140.991C70.3233 141.28 70.9514 141.423 71.5862 141.408Z" fill="#263238"/>
<path d="M15.6119 111.005C15.1088 110.677 14.6932 110.239 14.399 109.728C14.1048 109.217 13.9402 108.646 13.9185 108.063V50.0536C13.9528 49.452 14.1343 48.8667 14.4482 48.3451C14.7621 47.8234 15.1996 47.38 15.7253 47.0508L90.7814 5.4666C91.3215 5.19093 91.9218 5.04148 92.5334 5.03039C93.145 5.0193 93.7507 5.14689 94.3013 5.40279C94.8038 5.73191 95.2188 6.16962 95.5129 6.68072C95.8071 7.19181 95.9721 7.76202 95.9948 8.34548V66.3397C95.9607 66.9413 95.7794 67.5267 95.4654 68.0484C95.1515 68.5701 94.7138 69.0134 94.1879 69.3424L19.1162 110.938C18.5785 111.212 17.9812 111.361 17.3724 111.373C16.7637 111.384 16.1607 111.259 15.6119 111.005Z" fill="#455A64"/>
<path d="M18.905 111.043C18.3857 111.266 17.822 111.377 17.2533 111.369C16.6845 111.362 16.1244 111.235 15.6119 110.998C15.1088 110.669 14.6932 110.232 14.399 109.721C14.1048 109.209 13.9402 108.639 13.9185 108.055V50.0536C13.9384 49.4497 14.1217 48.8611 14.4504 48.3458L17.8373 50.2225C17.5137 50.7384 17.332 51.3248 17.3093 51.9265V109.936C17.3093 110.96 18.0055 111.422 18.905 111.043Z" fill="#263238"/>
<path d="M17.3093 51.9339V109.936C17.3093 111.062 18.1189 111.49 19.1162 110.938L94.1723 69.3423C94.6982 69.0133 95.1359 68.57 95.4498 68.0483C95.7638 67.5265 95.9451 66.9411 95.9791 66.3395V8.34534C95.9791 7.24183 95.1735 6.79142 94.1723 7.34693L19.1162 48.9274C18.5904 49.2574 18.1529 49.7015 17.839 50.2238C17.5251 50.746 17.3437 51.3319 17.3093 51.9339Z" fill="#37474F"/>
<path d="M19.1161 112.938L69.7597 141.003C70.3205 141.275 70.9402 141.417 71.5686 141.417C72.197 141.417 72.8166 141.275 73.3774 141.003L148.433 99.4185C149.431 98.863 149.431 97.9659 148.433 97.4142L97.7899 69.3423C97.2296 69.0684 96.6098 68.9257 95.981 68.9257C95.3523 68.9257 94.7325 69.0684 94.1722 69.3423L19.1161 110.938C18.1188 111.49 18.1188 112.387 19.1161 112.938Z" fill="#455A64"/>
<path d="M20.0899 51.1569L92.6586 10.9577C93.257 10.6274 93.7459 10.8977 93.7459 11.562V65.0746C93.725 65.4358 93.6156 65.7872 93.4267 66.1002C93.2378 66.4132 92.9746 66.6791 92.6586 66.8763L20.0899 107.075C19.4916 107.406 19.0027 107.136 19.0027 106.471V52.9586C19.0236 52.5974 19.1329 52.246 19.3218 51.933C19.5107 51.6199 19.7739 51.354 20.0899 51.1569Z" fill="#FFA629"/>
<path opacity="0.4" d="M20.0899 51.1569L92.6586 10.9577C93.257 10.6274 93.7459 10.8977 93.7459 11.562V65.0746C93.725 65.4358 93.6156 65.7872 93.4267 66.1002C93.2378 66.4132 92.9746 66.6791 92.6586 66.8763L20.0899 107.075C19.4916 107.406 19.0027 107.136 19.0027 106.471V52.9586C19.0236 52.5974 19.1329 52.246 19.3218 51.933C19.5107 51.6199 19.7739 51.354 20.0899 51.1569Z" fill="black"/>
<path d="M24.9943 111.437L95.0795 72.6116C95.3593 72.4745 95.6689 72.403 95.983 72.403C96.2971 72.403 96.6067 72.4745 96.8864 72.6116L100.176 74.432C100.672 74.7097 100.672 75.1564 100.176 75.4341L30.0826 114.256C29.8028 114.393 29.4932 114.464 29.1791 114.464C28.865 114.464 28.5554 114.393 28.2757 114.256L24.9943 112.439C24.4977 112.161 24.4977 111.715 24.9943 111.437Z" fill="#37474F"/>
<path d="M33.4736 116.136L103.555 77.307C103.835 77.1699 104.144 77.0984 104.458 77.0984C104.772 77.0984 105.082 77.1699 105.362 77.307L125.597 88.5185C126.098 88.7962 126.098 89.2466 125.597 89.5206L55.5903 128.301C55.3095 128.437 54.9994 128.508 54.6849 128.508C54.3704 128.508 54.0603 128.437 53.7795 128.301L33.4775 117.135C32.9769 116.861 32.973 116.41 33.4736 116.136Z" fill="#263238"/>
<path d="M95.0521 93.8184L97.2579 92.5947C97.3517 92.5422 97.3556 92.4596 97.2579 92.4071L94.9425 91.1121C94.89 91.0881 94.8326 91.0757 94.7744 91.0757C94.7162 91.0757 94.6587 91.0881 94.6062 91.1121L92.3965 92.3358C92.3065 92.3883 92.3026 92.4709 92.3965 92.5197L94.7431 93.8108C94.7914 93.8322 94.8436 93.8438 94.8968 93.8451C94.9499 93.8464 95.0027 93.8373 95.0521 93.8184ZM91.2701 89.2767L89.0643 90.5003C89.0445 90.5071 89.0274 90.5195 89.0153 90.536C89.0032 90.5525 88.9967 90.5721 88.9967 90.5923C88.9967 90.6124 89.0032 90.6321 89.0153 90.6486C89.0274 90.665 89.0445 90.6775 89.0643 90.6842L91.4109 91.9754C91.4634 91.9994 91.5209 92.0119 91.5791 92.0119C91.6373 92.0119 91.6947 91.9994 91.7473 91.9754L93.957 90.7518C93.9782 90.746 93.9969 90.7337 94.0102 90.7167C94.0235 90.6998 94.0307 90.6792 94.0307 90.658C94.0307 90.6368 94.0235 90.6161 94.0102 90.5992C93.9969 90.5823 93.9782 90.57 93.957 90.5641L91.6104 89.273C91.5581 89.2501 91.5012 89.2386 91.4437 89.2392C91.3863 89.2399 91.3297 89.2527 91.2779 89.2767H91.2701ZM84.1404 93.2253L80.4093 95.2935C80.3154 95.346 80.3115 95.4323 80.4093 95.4811L82.7559 96.7723C82.8084 96.7963 82.8659 96.8088 82.924 96.8088C82.9822 96.8088 83.0397 96.7963 83.0922 96.7723L86.8272 94.7042C86.9211 94.6516 86.9211 94.569 86.8272 94.5165L84.4806 93.2291C84.4295 93.2031 84.3727 93.1893 84.3149 93.1886C84.2571 93.188 84.1999 93.2005 84.1482 93.2253H84.1404ZM88.0514 91.0633L85.8416 92.287C85.7478 92.3395 85.7478 92.4221 85.8416 92.4709L88.1882 93.7621C88.2408 93.7861 88.2982 93.7985 88.3564 93.7985C88.4146 93.7985 88.4721 93.7861 88.5246 93.7621L90.7304 92.5384C90.8243 92.4859 90.8243 92.4033 90.7304 92.3508L88.3838 91.0596C88.3325 91.0357 88.2761 91.0236 88.2191 91.0243C88.1621 91.0249 88.106 91.0383 88.0553 91.0633H88.0514ZM79.408 95.8602L77.2022 97.0801C77.1084 97.1326 77.1084 97.219 77.2022 97.2678L79.5488 98.5589C79.6014 98.5829 79.6588 98.5954 79.717 98.5954C79.7752 98.5954 79.8327 98.5829 79.8852 98.5589L82.091 97.3391C82.1849 97.2865 82.1849 97.2039 82.091 97.1514L79.7444 95.8602C79.6919 95.8362 79.6344 95.8237 79.5762 95.8237C79.518 95.8237 79.4606 95.8362 79.408 95.8602ZM76.1854 97.6469L73.9757 98.8705C73.9559 98.8772 73.9387 98.8897 73.9266 98.9061C73.9145 98.9226 73.908 98.9423 73.908 98.9624C73.908 98.9826 73.9145 99.0022 73.9266 99.0187C73.9387 99.0352 73.9559 99.0476 73.9757 99.0544L76.2792 100.346C76.3312 100.372 76.3889 100.385 76.4474 100.385C76.506 100.385 76.5637 100.372 76.6156 100.346L78.8214 99.1257C78.9153 99.0732 78.9153 98.9906 78.8214 98.938L76.4943 97.6469C76.4439 97.6251 76.3893 97.6139 76.334 97.6139C76.2787 97.6139 76.2241 97.6251 76.1736 97.6469H76.1854ZM85.3293 102.902L87.5351 101.678C87.629 101.625 87.629 101.543 87.5351 101.494L85.2081 100.203C85.1555 100.179 85.0981 100.166 85.0399 100.166C84.9817 100.166 84.9242 100.179 84.8717 100.203L82.662 101.427C82.6408 101.432 82.6221 101.445 82.6087 101.462C82.5954 101.479 82.5882 101.499 82.5882 101.52C82.5882 101.542 82.5954 101.562 82.6087 101.579C82.6221 101.596 82.6408 101.608 82.662 101.614L84.989 102.905C85.0408 102.928 85.097 102.939 85.1537 102.938C85.2105 102.938 85.2664 102.925 85.3176 102.902H85.3293ZM82.1027 104.688L84.3124 103.465C84.4063 103.412 84.4063 103.33 84.3124 103.281L81.9737 101.997C81.9211 101.973 81.8637 101.961 81.8055 101.961C81.7473 101.961 81.6898 101.973 81.6373 101.997L79.4315 103.221C79.3376 103.273 79.3376 103.356 79.4315 103.408L81.7586 104.7C81.8114 104.721 81.8686 104.731 81.9261 104.73C81.9835 104.728 82.0398 104.713 82.091 104.688H82.1027ZM78.8801 106.475L81.0859 105.251C81.1057 105.245 81.1228 105.232 81.1349 105.216C81.147 105.199 81.1535 105.179 81.1535 105.159C81.1535 105.139 81.147 105.12 81.1349 105.103C81.1228 105.087 81.1057 105.074 81.0859 105.067L78.7393 103.776C78.6873 103.75 78.6296 103.737 78.5711 103.737C78.5125 103.737 78.4548 103.75 78.4029 103.776L76.2049 105C76.1111 105.052 76.1111 105.135 76.2049 105.187L78.5515 106.479C78.6017 106.499 78.6558 106.51 78.7103 106.509C78.7649 106.508 78.8187 106.497 78.8683 106.475H78.8801ZM75.6535 108.262L77.8593 107.038C77.9531 106.989 77.9571 106.903 77.8593 106.854L75.5127 105.563C75.4601 105.539 75.4027 105.526 75.3445 105.526C75.2863 105.526 75.2289 105.539 75.1763 105.563L72.9705 106.783C72.8767 106.835 72.8728 106.918 72.9705 106.97L75.2976 108.262C75.3512 108.287 75.41 108.3 75.4697 108.3C75.5293 108.3 75.5882 108.287 75.6417 108.262H75.6535ZM91.8333 95.6162L94.043 94.3926C94.0643 94.3868 94.083 94.3745 94.0963 94.3576C94.1096 94.3406 94.1168 94.32 94.1168 94.2988C94.1168 94.2776 94.1096 94.257 94.0963 94.24C94.083 94.2231 94.0643 94.2108 94.043 94.205L91.6964 92.9175C91.6445 92.8915 91.5868 92.878 91.5282 92.878C91.4697 92.878 91.412 92.8915 91.3601 92.9175L89.1856 94.1149C89.0917 94.1674 89.0917 94.25 89.1856 94.2988L91.5126 95.59C91.5611 95.6159 91.6147 95.6317 91.67 95.6362C91.7253 95.6408 91.781 95.634 91.8333 95.6162ZM88.5441 101.126L93.4642 98.3975C93.5581 98.345 93.5581 98.2624 93.4642 98.2136L87.8089 95.0795C87.7563 95.0555 87.6989 95.043 87.6407 95.043C87.5825 95.043 87.5251 95.0555 87.4725 95.0795L84.9265 96.4908C84.8326 96.5433 84.8326 96.6259 84.9265 96.6785L87.9223 98.3375C87.9421 98.3442 87.9592 98.3567 87.9713 98.3732C87.9834 98.3896 87.9899 98.4093 87.9899 98.4294C87.9899 98.4496 87.9834 98.4693 87.9713 98.4857C87.9592 98.5022 87.9421 98.5146 87.9223 98.5214L85.8847 99.6474C85.7908 99.7 85.7908 99.7825 85.8847 99.8351L88.2313 101.123C88.2807 101.144 88.3345 101.154 88.3886 101.153C88.4427 101.151 88.4959 101.139 88.5441 101.115V101.126ZM72.9471 99.4447L70.7413 100.668C70.7215 100.675 70.7043 100.688 70.6922 100.704C70.6801 100.721 70.6736 100.74 70.6736 100.76C70.6736 100.78 70.6801 100.8 70.6922 100.817C70.7043 100.833 70.7215 100.846 70.7413 100.852L73.0683 102.143C73.1208 102.167 73.1783 102.18 73.2365 102.18C73.2947 102.18 73.3521 102.167 73.4047 102.143L75.6144 100.92C75.6356 100.914 75.6543 100.902 75.6676 100.885C75.6809 100.868 75.6881 100.847 75.6881 100.826C75.6881 100.805 75.6809 100.784 75.6676 100.767C75.6543 100.75 75.6356 100.738 75.6144 100.732L73.2873 99.441C73.2349 99.4152 73.177 99.4012 73.1181 99.3999C73.0592 99.3986 73.0007 99.4101 72.9471 99.4335V99.4447ZM69.7244 101.231L67.5147 102.455C67.4208 102.508 67.4208 102.59 67.5147 102.639L69.8613 103.93C69.9138 103.954 69.9713 103.967 70.0295 103.967C70.0876 103.967 70.1451 103.954 70.1976 103.93L72.4034 102.706C72.4973 102.654 72.4973 102.571 72.4034 102.519L70.0568 101.228C70.0059 101.201 69.9493 101.187 69.8916 101.186C69.8338 101.184 69.7765 101.196 69.7244 101.22V101.231ZM52.7311 120.764C52.7836 120.788 52.8411 120.801 52.8993 120.801C52.9575 120.801 53.0149 120.788 53.0674 120.764L55.2732 119.541C55.3671 119.488 55.371 119.405 55.2732 119.353L52.9266 118.065C52.8747 118.04 52.817 118.026 52.7585 118.026C52.6999 118.026 52.6422 118.04 52.5903 118.065L50.3845 119.289C50.2906 119.342 50.2867 119.424 50.3845 119.473L52.7311 120.764ZM43.9235 115.509L41.7177 116.729C41.6238 116.782 41.6199 116.864 41.7177 116.917L44.0448 118.208C44.0973 118.232 44.1547 118.245 44.2129 118.245C44.2711 118.245 44.3286 118.232 44.3811 118.208L46.5869 116.985C46.6808 116.936 46.6847 116.849 46.5869 116.801L44.2403 115.509C44.1909 115.486 44.1368 115.475 44.0819 115.475C44.0271 115.475 43.9729 115.486 43.9235 115.509ZM48.5581 119.39C48.61 119.416 48.6677 119.43 48.7262 119.43C48.7848 119.43 48.8425 119.416 48.8944 119.39L51.1002 118.167C51.1941 118.114 51.1941 118.032 51.1002 117.983L48.7536 116.692C48.7017 116.666 48.644 116.652 48.5854 116.652C48.5269 116.652 48.4692 116.666 48.4173 116.692L46.2114 117.915C46.1176 117.968 46.1176 118.05 46.2114 118.103L48.5581 119.39ZM58.0931 121.665L60.2989 120.441C60.3187 120.435 60.3358 120.422 60.3479 120.406C60.36 120.389 60.3665 120.37 60.3665 120.349C60.3665 120.329 60.36 120.31 60.3479 120.293C60.3358 120.277 60.3187 120.264 60.2989 120.257L57.9523 118.966C57.8997 118.942 57.8423 118.93 57.7841 118.93C57.7259 118.93 57.6685 118.942 57.6159 118.966L55.4101 120.186C55.3163 120.239 55.3163 120.321 55.4101 120.374L57.7567 121.665C57.8087 121.69 57.8658 121.704 57.924 121.705C57.9822 121.707 58.04 121.695 58.0931 121.673V121.665ZM54.5302 123.455C54.5827 123.479 54.6401 123.492 54.6983 123.492C54.7565 123.492 54.814 123.479 54.8665 123.455L57.0723 122.232C57.1662 122.183 57.1701 122.097 57.0723 122.048L54.7687 120.764C54.7162 120.74 54.6587 120.728 54.6006 120.728C54.5424 120.728 54.4849 120.74 54.4324 120.764L52.2266 121.984C52.1327 122.037 52.1288 122.119 52.2266 122.172L54.5302 123.455ZM47.1501 113.719L44.9404 114.943C44.9191 114.948 44.9004 114.961 44.8871 114.978C44.8738 114.995 44.8666 115.015 44.8666 115.036C44.8666 115.058 44.8738 115.078 44.8871 115.095C44.9004 115.112 44.9191 115.124 44.9404 115.13L47.2674 116.421C47.32 116.445 47.3774 116.458 47.4356 116.458C47.4938 116.458 47.5512 116.445 47.6038 116.421L49.8096 115.198C49.9034 115.145 49.9034 115.063 49.8096 115.014L47.463 113.723C47.4137 113.701 47.3602 113.69 47.3061 113.691C47.252 113.692 47.1987 113.704 47.1501 113.727V113.719ZM63.2712 104.786L61.0654 106.009C60.9716 106.062 60.9716 106.145 61.0654 106.193L63.412 107.485C63.464 107.511 63.5217 107.524 63.5802 107.524C63.6388 107.524 63.6965 107.511 63.7484 107.485L65.9542 106.261C66.0481 106.208 66.0481 106.126 65.9542 106.073L63.6076 104.786C63.555 104.761 63.497 104.749 63.4385 104.75C63.3799 104.751 63.3225 104.766 63.2712 104.793V104.786ZM50.3649 111.917L48.1591 113.141C48.0653 113.194 48.0653 113.276 48.1591 113.329L50.4862 114.616C50.5381 114.642 50.5958 114.656 50.6543 114.656C50.7129 114.656 50.7706 114.642 50.8225 114.616L53.0322 113.392C53.1261 113.34 53.1261 113.257 53.0322 113.209L50.7052 111.917C50.6515 111.897 50.5938 111.889 50.5363 111.893C50.4789 111.897 50.423 111.913 50.3728 111.94L50.3649 111.917ZM66.5017 103.007L64.292 104.249C64.1982 104.302 64.1942 104.384 64.292 104.433L66.6191 105.724C66.671 105.75 66.7287 105.764 66.7872 105.764C66.8458 105.764 66.9035 105.75 66.9554 105.724L69.1612 104.501C69.2551 104.448 69.259 104.365 69.1612 104.313L66.8146 103.026C66.7672 103 66.7145 102.985 66.6604 102.982C66.6063 102.979 66.552 102.987 66.5017 103.007ZM60.0525 106.58L57.8467 107.804C57.7528 107.856 57.7489 107.939 57.8467 107.991L60.1933 109.279C60.2452 109.305 60.3029 109.318 60.3615 109.318C60.42 109.318 60.4777 109.305 60.5296 109.279L62.7354 108.055C62.8293 108.003 62.8332 107.92 62.7354 107.867L60.4084 106.58C60.3536 106.55 60.2916 106.534 60.2285 106.534C60.1654 106.534 60.1034 106.55 60.0486 106.58H60.0525ZM56.822 108.378L54.6162 109.602C54.5223 109.654 54.5223 109.737 54.6162 109.789L56.9628 111.077C57.0147 111.103 57.0724 111.116 57.131 111.116C57.1895 111.116 57.2472 111.103 57.2991 111.077L59.5049 109.853C59.5988 109.8 59.5988 109.718 59.5049 109.669L57.1583 108.378C57.1064 108.352 57.0487 108.338 56.9902 108.338C56.9316 108.338 56.8739 108.352 56.822 108.378ZM53.5954 110.153L51.3935 111.381C51.2997 111.433 51.2958 111.516 51.3935 111.568L53.7206 112.856C53.7725 112.882 53.8302 112.895 53.8888 112.895C53.9473 112.895 54.005 112.882 54.0569 112.856L56.2627 111.632C56.3566 111.58 56.3605 111.497 56.2627 111.448L53.9357 110.157C53.8829 110.132 53.8249 110.118 53.766 110.118C53.7071 110.117 53.6488 110.129 53.5954 110.153ZM69.1886 111.835L71.3944 110.615C71.4883 110.562 71.4922 110.48 71.3944 110.427L69.0752 109.129C69.0226 109.105 68.9652 109.092 68.907 109.092C68.8488 109.092 68.7914 109.105 68.7388 109.129L66.533 110.348C66.4392 110.401 66.4352 110.484 66.533 110.536L68.8796 111.827C68.9284 111.849 68.9814 111.861 69.0352 111.862C69.0891 111.864 69.1426 111.854 69.1925 111.835H69.1886ZM98.4038 85.3281L96.198 86.548C96.1041 86.6005 96.1002 86.6831 96.198 86.7356L98.525 88.0268C98.5776 88.0508 98.635 88.0633 98.6932 88.0633C98.7514 88.0633 98.8088 88.0508 98.8614 88.0268L101.067 86.8032C101.161 86.7544 101.165 86.6681 101.067 86.6193L98.7401 85.3281C98.6887 85.3027 98.6317 85.2895 98.5739 85.2895C98.5161 85.2895 98.4591 85.3027 98.4077 85.3281H98.4038ZM94.4928 87.4901L92.3144 88.7137C92.2946 88.7204 92.2774 88.7329 92.2653 88.7494C92.2532 88.7658 92.2467 88.7855 92.2467 88.8057C92.2467 88.8258 92.2532 88.8455 92.2653 88.8619C92.2774 88.8784 92.2946 88.8909 92.3144 88.8976L94.6414 90.1888C94.6939 90.2128 94.7514 90.2253 94.8096 90.2253C94.8678 90.2253 94.9252 90.2128 94.9777 90.1888L97.1836 88.9689C97.2774 88.9164 97.2774 88.8338 97.1836 88.7813L94.837 87.4901C94.7849 87.4666 94.7282 87.4545 94.6707 87.4545C94.6133 87.4545 94.5565 87.4666 94.5045 87.4901H94.4928ZM101.619 83.5377L99.4128 84.7613C99.319 84.8139 99.319 84.8965 99.4128 84.949L101.759 86.2402C101.812 86.2642 101.869 86.2767 101.928 86.2767C101.986 86.2767 102.043 86.2642 102.096 86.2402L104.302 85.0166C104.395 84.964 104.395 84.8814 104.302 84.8326L101.955 83.5415C101.904 83.5186 101.849 83.5064 101.793 83.5057C101.737 83.5051 101.682 83.516 101.63 83.5377H101.619ZM84.3672 99.745L86.573 98.5214C86.5928 98.5146 86.6099 98.5022 86.622 98.4857C86.6341 98.4693 86.6406 98.4496 86.6406 98.4294C86.6406 98.4093 86.6341 98.3896 86.622 98.3732C86.6099 98.3567 86.5928 98.3442 86.573 98.3375L84.2264 97.0463C84.1739 97.0223 84.1164 97.0098 84.0582 97.0098C84 97.0098 83.9426 97.0223 83.8901 97.0463L81.6803 98.2699C81.6591 98.2757 81.6404 98.2881 81.6271 98.305C81.6138 98.3219 81.6066 98.3426 81.6066 98.3638C81.6066 98.385 81.6138 98.4056 81.6271 98.4225C81.6404 98.4395 81.6591 98.4518 81.6803 98.4576L84.0074 99.7488C84.0633 99.7758 84.1252 99.7896 84.1878 99.789C84.2504 99.7883 84.3119 99.7732 84.3672 99.745ZM105.193 81.7548C105.141 81.7308 105.083 81.7184 105.025 81.7184C104.967 81.7184 104.909 81.7308 104.857 81.7548L102.651 82.9785C102.557 83.031 102.553 83.1136 102.651 83.1661L104.978 84.4573C105.031 84.4813 105.088 84.4938 105.146 84.4938C105.205 84.4938 105.262 84.4813 105.315 84.4573L107.52 83.2337C107.614 83.1811 107.618 83.0986 107.52 83.0498L105.193 81.7548ZM72.4191 110.052L74.6249 108.832C74.7188 108.78 74.7188 108.693 74.6249 108.644L72.2783 107.353C72.2258 107.329 72.1683 107.317 72.1101 107.317C72.0519 107.317 71.9945 107.329 71.9419 107.353L69.7361 108.573C69.6423 108.626 69.6423 108.708 69.7361 108.761L72.0827 110.052C72.1356 110.075 72.1932 110.087 72.2514 110.087C72.3095 110.086 72.3668 110.073 72.4191 110.048V110.052ZM111.963 88.1394L114.173 86.9158C114.193 86.9091 114.21 86.8966 114.222 86.8801C114.234 86.8637 114.241 86.844 114.241 86.8238C114.241 86.8037 114.234 86.784 114.222 86.7676C114.21 86.7511 114.193 86.7386 114.173 86.7319L111.826 85.4407C111.774 85.4167 111.716 85.4042 111.658 85.4042C111.6 85.4042 111.543 85.4167 111.49 85.4407L109.284 86.6606C109.19 86.7131 109.19 86.7957 109.284 86.8482L111.631 88.1394C111.683 88.1639 111.74 88.1763 111.797 88.1757C111.855 88.175 111.912 88.1613 111.963 88.1357V88.1394ZM105.412 88.0831L107.622 86.8595C107.642 86.8528 107.659 86.8403 107.671 86.8238C107.683 86.8074 107.69 86.7877 107.69 86.7675C107.69 86.7474 107.683 86.7277 107.671 86.7113C107.659 86.6948 107.642 86.6823 107.622 86.6756L105.295 85.3844C105.242 85.3604 105.185 85.3479 105.127 85.3479C105.069 85.3479 105.011 85.3604 104.959 85.3844L102.753 86.608C102.659 86.6606 102.655 86.7431 102.753 86.7957L105.08 88.0869C105.132 88.1091 105.189 88.12 105.247 88.1187C105.304 88.1174 105.361 88.104 105.412 88.0794V88.0831ZM108.518 83.6053C108.466 83.5802 108.409 83.5672 108.351 83.5672C108.294 83.5672 108.237 83.5802 108.185 83.6053L105.975 84.8289C105.954 84.8347 105.936 84.847 105.922 84.864C105.909 84.8809 105.902 84.9015 105.902 84.9227C105.902 84.9439 105.909 84.9646 105.922 84.9815C105.936 84.9984 105.954 85.0107 105.975 85.0166L108.303 86.3078C108.355 86.3318 108.413 86.3442 108.471 86.3442C108.529 86.3442 108.586 86.3318 108.639 86.3078L110.845 85.0841C110.864 85.0774 110.882 85.0649 110.894 85.0485C110.906 85.032 110.912 85.0123 110.912 84.9922C110.912 84.972 110.906 84.9524 110.894 84.9359C110.882 84.9194 110.864 84.907 110.845 84.9002L108.518 83.6053ZM109.198 83.2299L114.853 86.3641C114.906 86.3881 114.963 86.4005 115.022 86.4005C115.08 86.4005 115.137 86.3881 115.19 86.3641L117.396 85.1404C117.489 85.0916 117.493 85.0053 117.396 84.9565L111.74 81.8224C111.688 81.7984 111.63 81.7859 111.572 81.7859C111.514 81.7859 111.456 81.7984 111.404 81.8224L109.198 83.046C109.108 83.0836 109.108 83.1661 109.198 83.2299ZM101.732 87.171L99.5262 88.3909C99.4324 88.4434 99.4324 88.526 99.5262 88.5786L101.873 89.8698C101.925 89.8938 101.983 89.9062 102.041 89.9062C102.099 89.9062 102.157 89.8938 102.209 89.8698L104.415 88.6499C104.509 88.5973 104.509 88.511 104.415 88.4622L102.068 87.171C102.016 87.147 101.958 87.1346 101.9 87.1346C101.842 87.1346 101.785 87.147 101.732 87.171ZM77.4525 100.62L75.2467 101.839C75.1529 101.892 75.1529 101.975 75.2467 102.027L77.5933 103.318C77.6459 103.342 77.7033 103.355 77.7615 103.355C77.8197 103.355 77.8772 103.342 77.9297 103.318L80.1355 102.098C80.2294 102.046 80.2294 101.96 80.1355 101.911L77.7889 100.62C77.7364 100.596 77.6789 100.583 77.6207 100.583C77.5625 100.583 77.5051 100.596 77.4525 100.62ZM108.396 89.9261C108.449 89.9501 108.506 89.9625 108.565 89.9625C108.623 89.9625 108.68 89.9501 108.733 89.9261L110.939 88.7062C111.032 88.6536 111.032 88.5673 110.939 88.5185L108.612 87.2273C108.559 87.2033 108.502 87.1909 108.443 87.1909C108.385 87.1909 108.328 87.2033 108.275 87.2273L106.065 88.4472C106.044 88.453 106.025 88.4653 106.012 88.4823C105.999 88.4992 105.992 88.5198 105.992 88.541C105.992 88.5622 105.999 88.5829 106.012 88.5998C106.025 88.6167 106.044 88.629 106.065 88.6349L108.396 89.9261ZM80.6791 98.8329L78.4733 100.053C78.3795 100.105 78.3795 100.188 78.4733 100.24L80.8004 101.532C80.8529 101.556 80.9104 101.568 80.9685 101.568C81.0267 101.568 81.0842 101.556 81.1367 101.532L83.3464 100.308C83.3662 100.301 83.3833 100.289 83.3955 100.272C83.4076 100.256 83.4141 100.236 83.4141 100.216C83.4141 100.196 83.4076 100.176 83.3955 100.16C83.3833 100.143 83.3662 100.131 83.3464 100.124L80.9998 98.8329C80.951 98.8106 80.8975 98.799 80.8434 98.799C80.7893 98.799 80.7358 98.8106 80.6869 98.8329H80.6791ZM55.942 118.985C55.9946 119.009 56.052 119.022 56.1102 119.022C56.1684 119.022 56.2258 119.009 56.2784 118.985L58.4842 117.761C58.578 117.709 58.578 117.626 58.4842 117.574L56.1376 116.283C56.0861 116.258 56.0291 116.244 55.9714 116.244C55.9136 116.244 55.8567 116.258 55.8051 116.283L53.5954 117.506C53.5016 117.559 53.5016 117.641 53.5954 117.69L55.942 118.985ZM51.6399 114.913L49.4341 116.136C49.3403 116.189 49.3363 116.271 49.4341 116.32L51.7807 117.611C51.8326 117.637 51.8903 117.651 51.9489 117.651C52.0074 117.651 52.0651 117.637 52.1171 117.611L54.3229 116.388C54.4167 116.335 54.4206 116.253 54.3229 116.2L51.9763 114.913C51.9274 114.89 51.874 114.879 51.8198 114.879C51.7657 114.879 51.7123 114.89 51.6634 114.913H51.6399ZM59.4932 117.195L61.7029 115.975C61.7242 115.969 61.7429 115.957 61.7562 115.94C61.7695 115.923 61.7767 115.902 61.7767 115.881C61.7767 115.86 61.7695 115.839 61.7562 115.822C61.7429 115.805 61.7242 115.793 61.7029 115.787L59.3759 114.496C59.3234 114.472 59.2659 114.46 59.2077 114.46C59.1495 114.46 59.0921 114.472 59.0395 114.496L56.8337 115.72C56.8139 115.726 56.7968 115.739 56.7847 115.755C56.7726 115.772 56.7661 115.791 56.7661 115.812C56.7661 115.832 56.7726 115.851 56.7847 115.868C56.7968 115.884 56.8139 115.897 56.8337 115.904L59.1608 117.195C59.2151 117.224 59.2764 117.239 59.3387 117.239C59.4011 117.239 59.4623 117.224 59.5167 117.195H59.4932ZM62.7198 115.408L64.9256 114.188C65.0195 114.136 65.0234 114.053 64.9256 114.001L62.5986 112.709C62.546 112.685 62.4886 112.673 62.4304 112.673C62.3722 112.673 62.3147 112.685 62.2622 112.709L60.0525 113.933C60.0327 113.94 60.0156 113.952 60.0035 113.969C59.9913 113.985 59.9848 114.005 59.9848 114.025C59.9848 114.045 59.9913 114.065 60.0035 114.081C60.0156 114.098 60.0327 114.11 60.0525 114.117L62.3795 115.408C62.4348 115.439 62.4976 115.455 62.5614 115.455C62.6252 115.455 62.688 115.439 62.7433 115.408H62.7198ZM65.9464 113.621L68.1522 112.402C68.246 112.349 68.246 112.266 68.1522 112.214L65.8056 110.923C65.753 110.899 65.6956 110.886 65.6374 110.886C65.5792 110.886 65.5218 110.899 65.4692 110.923L63.3064 112.131C63.2126 112.184 63.2126 112.27 63.3064 112.319L65.653 113.61C65.7013 113.635 65.7544 113.65 65.809 113.654C65.8635 113.658 65.9183 113.65 65.9698 113.633L65.9464 113.621ZM54.8626 113.126L52.6568 114.35C52.5629 114.402 52.5629 114.485 52.6568 114.534L55.0034 115.825C55.0553 115.851 55.113 115.864 55.1716 115.864C55.2301 115.864 55.2878 115.851 55.3397 115.825L57.5455 114.601C57.6394 114.549 57.6394 114.466 57.5455 114.413L55.1989 113.126C55.1501 113.104 55.0966 113.092 55.0425 113.092C54.9884 113.092 54.9349 113.104 54.8861 113.126H54.8626ZM58.0892 111.339L55.8834 112.563C55.7895 112.616 55.7856 112.698 55.8834 112.747L58.2104 114.038C58.2629 114.062 58.3204 114.075 58.3786 114.075C58.4368 114.075 58.4942 114.062 58.5468 114.038L60.7565 112.814C60.8464 112.762 60.8503 112.679 60.7565 112.627L58.4099 111.339C58.3631 111.319 58.3125 111.309 58.2612 111.309C58.21 111.309 58.1594 111.319 58.1126 111.339H58.0892ZM70.9955 104.208L68.7897 105.428C68.6958 105.48 68.6958 105.567 68.7897 105.615L71.1363 106.907C71.1888 106.931 71.2463 106.943 71.3044 106.943C71.3626 106.943 71.4201 106.931 71.4726 106.907L73.6784 105.687C73.7723 105.634 73.7723 105.552 73.6784 105.499L71.3318 104.208C71.2825 104.184 71.2284 104.17 71.1731 104.167C71.1179 104.165 71.0626 104.173 71.0111 104.193L70.9955 104.208ZM67.7728 105.994L65.567 107.218C65.4731 107.267 65.4692 107.353 65.567 107.402L67.9136 108.693C67.9655 108.719 68.0232 108.733 68.0818 108.733C68.1403 108.733 68.198 108.719 68.25 108.693L70.4558 107.473C70.5496 107.421 70.5535 107.338 70.4558 107.286L68.1287 105.994C68.0768 105.968 68.0193 105.952 67.9604 105.95C67.9015 105.947 67.8427 105.957 67.7885 105.979L67.7728 105.994ZM74.2221 102.421L72.0163 103.641C71.9224 103.694 71.9185 103.776 72.0163 103.829L74.3629 105.12C74.4154 105.144 74.4728 105.156 74.531 105.156C74.5892 105.156 74.6467 105.144 74.6992 105.12L76.905 103.9C76.9989 103.848 77.0028 103.765 76.905 103.712L74.5584 102.421C74.5091 102.397 74.455 102.383 74.3997 102.381C74.3444 102.378 74.2892 102.387 74.2377 102.406L74.2221 102.421ZM61.3157 109.553L59.106 110.776C59.0122 110.829 59.0122 110.911 59.106 110.96L61.4331 112.251C61.4856 112.275 61.5431 112.288 61.6012 112.288C61.6594 112.288 61.7169 112.275 61.7694 112.251L63.9752 111.028C64.0691 110.975 64.0691 110.893 63.9752 110.84L61.6286 109.549C61.5352 109.515 61.4316 109.516 61.3392 109.553H61.3157ZM64.5384 107.766L62.3326 108.99C62.3128 108.996 62.2957 109.009 62.2836 109.025C62.2715 109.042 62.265 109.062 62.265 109.082C62.265 109.102 62.2715 109.121 62.2836 109.138C62.2957 109.154 62.3128 109.167 62.3326 109.174L64.6792 110.465C64.7307 110.49 64.7877 110.503 64.8454 110.503C64.9032 110.503 64.9601 110.49 65.0116 110.465L67.2214 109.241C67.3152 109.189 67.3152 109.106 67.2214 109.054L64.8748 107.762C64.823 107.74 64.7668 107.729 64.7101 107.729C64.6533 107.73 64.5974 107.743 64.5462 107.766H64.5384ZM61.2923 119.886L63.502 118.662C63.5218 118.656 63.5389 118.643 63.551 118.627C63.5631 118.61 63.5696 118.59 63.5696 118.57C63.5696 118.55 63.5631 118.531 63.551 118.514C63.5389 118.498 63.5218 118.485 63.502 118.478L61.1749 117.187C61.123 117.161 61.0653 117.148 61.0068 117.148C60.9482 117.148 60.8905 117.161 60.8386 117.187L58.6328 118.407C58.5389 118.46 58.5389 118.542 58.6328 118.595L60.9598 119.886C61.0149 119.913 61.0759 119.927 61.1378 119.927C61.1997 119.927 61.2607 119.913 61.3157 119.886H61.2923ZM43.3408 118.591L40.9942 117.3C40.9416 117.276 40.8842 117.263 40.826 117.263C40.7678 117.263 40.7104 117.276 40.6578 117.3L38.4911 118.512C38.3973 118.565 38.3973 118.647 38.4911 118.7L40.8377 119.991C40.8903 120.015 40.9477 120.027 41.0059 120.027C41.0641 120.027 41.1215 120.015 41.1741 119.991L43.3799 118.767C43.3967 118.758 43.4104 118.744 43.4195 118.728C43.4285 118.712 43.4324 118.693 43.4307 118.674C43.4291 118.656 43.422 118.638 43.4102 118.623C43.3984 118.609 43.3825 118.597 43.3642 118.591H43.3408ZM47.8541 119.777L45.527 118.486C45.4751 118.46 45.4174 118.446 45.3589 118.446C45.3003 118.446 45.2426 118.46 45.1907 118.486L41.7959 120.363C41.7021 120.415 41.6982 120.498 41.7959 120.55L44.1425 121.841C44.1951 121.865 44.2525 121.878 44.3107 121.878C44.3689 121.878 44.4263 121.865 44.4789 121.841L47.8736 119.965C47.9675 119.908 47.9714 119.826 47.8775 119.777H47.8541ZM39.8131 116.072L37.4664 114.781C37.4139 114.757 37.3565 114.745 37.2983 114.745C37.2401 114.745 37.1826 114.757 37.1301 114.781L34.4159 116.283C34.322 116.335 34.3181 116.418 34.4159 116.47L36.7625 117.761C36.815 117.785 36.8725 117.798 36.9306 117.798C36.9888 117.798 37.0463 117.785 37.0988 117.761L39.8365 116.26C39.9265 116.204 39.9265 116.121 39.8365 116.072H39.8131ZM41.8937 114.916C41.9456 114.942 42.0033 114.956 42.0619 114.956C42.1204 114.956 42.1781 114.942 42.2301 114.916L44.4359 113.693C44.5297 113.64 44.5297 113.558 44.4359 113.505L42.0893 112.218C42.038 112.192 41.981 112.178 41.923 112.178C41.8651 112.178 41.808 112.192 41.7568 112.218L39.5471 113.441C39.4532 113.494 39.4532 113.576 39.5471 113.625L41.8937 114.916ZM52.0545 121.14L49.7079 119.852C49.656 119.826 49.5983 119.813 49.5397 119.813C49.4812 119.813 49.4235 119.826 49.3715 119.852L45.1281 122.202C45.0342 122.254 45.0342 122.341 45.1281 122.389L47.4747 123.681C47.5272 123.705 47.5847 123.717 47.6429 123.717C47.7011 123.717 47.7585 123.705 47.8111 123.681L52.0545 121.331C52.1444 121.282 52.1444 121.2 52.0545 121.14ZM53.8536 123.831L51.507 122.54C51.4544 122.516 51.397 122.503 51.3388 122.503C51.2806 122.503 51.2231 122.516 51.1706 122.54L48.4564 124.041C48.4366 124.048 48.4194 124.06 48.4073 124.077C48.3952 124.093 48.3887 124.113 48.3887 124.133C48.3887 124.153 48.3952 124.173 48.4073 124.189C48.4194 124.206 48.4366 124.218 48.4564 124.225L50.803 125.516C50.8549 125.542 50.9126 125.556 50.9711 125.556C51.0297 125.556 51.0874 125.542 51.1393 125.516L53.8536 124.015C53.9435 123.973 53.9435 123.891 53.8536 123.838V123.831ZM65.8955 101.622C65.9481 101.646 66.0055 101.658 66.0637 101.658C66.1219 101.658 66.1793 101.646 66.2319 101.622L68.4377 100.398C68.4575 100.391 68.4746 100.379 68.4867 100.362C68.4988 100.346 68.5053 100.326 68.5053 100.306C68.5053 100.286 68.4988 100.266 68.4867 100.25C68.4746 100.233 68.4575 100.221 68.4377 100.214L66.0911 98.923C66.0385 98.899 65.9811 98.8865 65.9229 98.8865C65.8647 98.8865 65.8073 98.899 65.7547 98.923L63.5489 100.143C63.4551 100.195 63.4551 100.278 63.5489 100.331L65.8955 101.622ZM59.4619 105.206C59.5134 105.231 59.5704 105.244 59.6281 105.244C59.6859 105.244 59.7429 105.231 59.7944 105.206L62.0041 103.986C62.0253 103.981 62.044 103.968 62.0573 103.951C62.0706 103.934 62.0778 103.914 62.0778 103.893C62.0778 103.871 62.0706 103.851 62.0573 103.834C62.044 103.817 62.0253 103.805 62.0041 103.799L59.6575 102.508C59.6049 102.484 59.5475 102.471 59.4893 102.471C59.4311 102.471 59.3737 102.484 59.3211 102.508L57.1153 103.727C57.0215 103.78 57.0215 103.863 57.1153 103.915L59.4619 105.206ZM45.1555 113.13C45.2074 113.156 45.2651 113.169 45.3237 113.169C45.3822 113.169 45.4399 113.156 45.4918 113.13L47.7015 111.906C47.7228 111.9 47.7415 111.888 47.7548 111.871C47.7681 111.854 47.7753 111.833 47.7753 111.812C47.7753 111.791 47.7681 111.77 47.7548 111.754C47.7415 111.737 47.7228 111.724 47.7015 111.718L45.3745 110.431C45.3226 110.405 45.2649 110.391 45.2063 110.391C45.1478 110.391 45.0901 110.405 45.0381 110.431L42.8323 111.655C42.7385 111.707 42.7385 111.79 42.8323 111.839L45.1555 113.13ZM62.6846 103.42C62.7371 103.444 62.7946 103.456 62.8528 103.456C62.911 103.456 62.9684 103.444 63.0209 103.42L65.2267 102.2C65.3206 102.147 65.3245 102.061 65.2267 102.012L62.8801 100.721C62.8276 100.697 62.7702 100.684 62.712 100.684C62.6538 100.684 62.5963 100.697 62.5438 100.721L60.338 101.941C60.2441 101.993 60.2402 102.076 60.338 102.128L62.6846 103.42ZM56.2354 106.993C56.2879 107.017 56.3453 107.029 56.4035 107.029C56.4617 107.029 56.5192 107.017 56.5717 106.993L58.7775 105.773C58.8714 105.72 58.8714 105.638 58.7775 105.585L56.4505 104.294C56.3979 104.27 56.3405 104.258 56.2823 104.258C56.2241 104.258 56.1666 104.27 56.1141 104.294L53.9044 105.518C53.8846 105.525 53.8675 105.537 53.8554 105.553C53.8432 105.57 53.8367 105.59 53.8367 105.61C53.8367 105.63 53.8432 105.65 53.8554 105.666C53.8675 105.682 53.8846 105.695 53.9044 105.702L56.2354 106.993ZM55.5509 124.015C55.4984 123.991 55.4409 123.978 55.3828 123.978C55.3246 123.978 55.2671 123.991 55.2146 124.015L51.8198 125.891C51.726 125.944 51.7221 126.027 51.8198 126.075L54.1469 127.366C54.1994 127.39 54.2569 127.403 54.315 127.403C54.3732 127.403 54.4307 127.39 54.4832 127.366L57.878 125.49C57.8978 125.483 57.9149 125.471 57.927 125.454C57.9391 125.438 57.9456 125.418 57.9456 125.398C57.9456 125.378 57.9391 125.358 57.927 125.342C57.9149 125.325 57.8978 125.313 57.878 125.306L55.5509 124.015ZM51.6125 109.556C51.6651 109.58 51.7225 109.593 51.7807 109.593C51.8389 109.593 51.8964 109.58 51.9489 109.556L54.1547 108.333C54.2486 108.28 54.2486 108.198 54.1547 108.145L51.8081 106.854C51.7556 106.83 51.6981 106.818 51.6399 106.818C51.5817 106.818 51.5243 106.83 51.4718 106.854L49.2659 108.078C49.1721 108.13 49.1721 108.213 49.2659 108.262L51.6125 109.556ZM48.386 111.343C48.4379 111.369 48.4956 111.383 48.5541 111.383C48.6127 111.383 48.6704 111.369 48.7223 111.343L50.9281 110.119C51.022 110.067 51.0259 109.984 50.9281 109.932L48.6011 108.644C48.5491 108.618 48.4915 108.605 48.4329 108.605C48.3743 108.605 48.3166 108.618 48.2647 108.644L46.0394 109.879C45.9494 109.932 45.9455 110.014 46.0394 110.063L48.386 111.343ZM115.295 90.9094C115.243 90.8854 115.185 90.873 115.127 90.873C115.069 90.873 115.012 90.8854 114.959 90.9094L109.527 93.9122C109.507 93.9189 109.49 93.9314 109.478 93.9479C109.466 93.9643 109.459 93.984 109.459 94.0041C109.459 94.0243 109.466 94.044 109.478 94.0604C109.49 94.0769 109.507 94.0894 109.527 94.0961L111.873 95.3873C111.925 95.4133 111.983 95.4268 112.041 95.4268C112.1 95.4268 112.158 95.4133 112.21 95.3873L117.638 92.3846C117.732 92.332 117.736 92.2494 117.638 92.1969L115.295 90.9094ZM108.146 94.8656C108.094 94.8396 108.036 94.826 107.978 94.826C107.919 94.826 107.862 94.8396 107.81 94.8656L105.612 96.0854C105.518 96.138 105.518 96.2205 105.612 96.2731L107.939 97.5605C107.991 97.5865 108.048 97.6001 108.107 97.6001C108.166 97.6001 108.223 97.5865 108.275 97.5605L110.485 96.3369C110.506 96.3311 110.525 96.3188 110.538 96.3018C110.551 96.2849 110.559 96.2643 110.559 96.2431C110.559 96.2219 110.551 96.2012 110.538 96.1843C110.525 96.1674 110.506 96.1551 110.485 96.1492L108.146 94.8656ZM64.5462 118.099L66.752 116.876C66.8459 116.823 66.8498 116.741 66.752 116.692L64.425 115.401C64.3725 115.377 64.315 115.364 64.2568 115.364C64.1986 115.364 64.1412 115.377 64.0886 115.401L61.8789 116.635C61.789 116.688 61.7851 116.771 61.8789 116.823L64.206 118.114C64.2602 118.137 64.319 118.147 64.3779 118.144C64.4368 118.142 64.4944 118.126 64.5462 118.099ZM101.701 98.4351C101.648 98.4111 101.591 98.3986 101.533 98.3986C101.474 98.3986 101.417 98.4111 101.364 98.4351L99.1586 99.6587C99.0647 99.7112 99.0608 99.7938 99.1586 99.8464L101.486 101.134C101.538 101.16 101.595 101.173 101.654 101.173C101.712 101.173 101.77 101.16 101.822 101.134L104.028 99.9102C104.122 99.8576 104.126 99.775 104.028 99.7263L101.701 98.4351ZM118.518 89.1228C118.466 89.0988 118.408 89.0863 118.35 89.0863C118.292 89.0863 118.234 89.0988 118.182 89.1228L115.956 90.3615C115.937 90.3682 115.919 90.3807 115.907 90.3971C115.895 90.4136 115.889 90.4333 115.889 90.4534C115.889 90.4736 115.895 90.4932 115.907 90.5097C115.919 90.5262 115.937 90.5386 115.956 90.5454L118.303 91.8365C118.356 91.8606 118.413 91.873 118.471 91.873C118.529 91.873 118.587 91.8606 118.639 91.8365L120.845 90.6167C120.939 90.5641 120.939 90.4816 120.845 90.429L118.518 89.1228ZM124.072 88.6274L118.397 85.482C118.344 85.458 118.287 85.4455 118.229 85.4455C118.17 85.4455 118.113 85.458 118.06 85.482L115.855 86.7019C115.761 86.7544 115.761 86.837 115.855 86.8895L121.51 90.0236C121.563 90.0477 121.62 90.0601 121.678 90.0601C121.736 90.0601 121.794 90.0477 121.846 90.0236L124.052 88.8038C124.142 88.7625 124.146 88.6799 124.052 88.6274H124.072ZM89.6549 105.112C89.6029 105.086 89.5453 105.073 89.4867 105.073C89.4281 105.073 89.3704 105.086 89.3185 105.112L86.6004 106.614C86.5065 106.666 86.5065 106.749 86.6004 106.801L88.947 108.093C88.9995 108.117 89.057 108.129 89.1152 108.129C89.1733 108.129 89.2308 108.117 89.2833 108.093L91.9976 106.591C92.0914 106.539 92.0953 106.456 91.9976 106.407L89.6549 105.112ZM97.8015 100.608C97.749 100.584 97.6915 100.572 97.6333 100.572C97.5751 100.572 97.5177 100.584 97.4651 100.608L94.0704 102.485C93.9765 102.538 93.9726 102.62 94.0704 102.669L96.417 103.96C96.4695 103.984 96.527 103.997 96.5852 103.997C96.6434 103.997 96.7008 103.984 96.7533 103.96L100.148 102.083C100.242 102.035 100.246 101.948 100.148 101.899L97.8015 100.608ZM82.1849 109.26C82.1323 109.236 82.0749 109.223 82.0167 109.223C81.9585 109.223 81.901 109.236 81.8485 109.26L63.6897 119.323C63.5959 119.375 63.5919 119.458 63.6897 119.507L66.0168 120.798C66.0687 120.824 66.1264 120.838 66.1849 120.838C66.2435 120.838 66.3012 120.824 66.3531 120.798L84.4923 110.728C84.5136 110.722 84.5323 110.709 84.5456 110.692C84.5589 110.676 84.5661 110.655 84.5661 110.634C84.5661 110.613 84.5589 110.592 84.5456 110.575C84.5323 110.558 84.5136 110.546 84.4923 110.54L82.1849 109.26ZM63.0209 119.89C62.969 119.864 62.9113 119.85 62.8528 119.85C62.7942 119.85 62.7365 119.864 62.6846 119.89L59.9704 121.391C59.8765 121.444 59.8726 121.526 59.9704 121.579L62.317 122.866C62.3689 122.892 62.4266 122.906 62.4851 122.906C62.5437 122.906 62.6014 122.892 62.6533 122.866L65.391 121.365C65.4123 121.359 65.431 121.347 65.4443 121.33C65.4576 121.313 65.4648 121.292 65.4648 121.271C65.4648 121.25 65.4576 121.229 65.4443 121.212C65.431 121.195 65.4123 121.183 65.391 121.177L63.0209 119.89ZM85.9355 107.192C85.8836 107.166 85.8259 107.152 85.7673 107.152C85.7088 107.152 85.6511 107.166 85.5992 107.192L82.8849 108.693C82.7911 108.746 82.7872 108.828 82.8849 108.881L85.2315 110.172C85.2841 110.196 85.3415 110.209 85.3997 110.209C85.4579 110.209 85.5153 110.196 85.5679 110.172L88.2821 108.671C88.376 108.622 88.3799 108.536 88.2821 108.487L85.9355 107.192ZM59.2859 121.958C59.2334 121.934 59.1759 121.921 59.1178 121.921C59.0596 121.921 59.0021 121.934 58.9496 121.958L56.2354 123.459C56.1415 123.512 56.1415 123.594 56.2354 123.647L58.582 124.938C58.6335 124.963 58.6904 124.976 58.7482 124.976C58.8059 124.976 58.8629 124.963 58.9144 124.938L61.6325 123.437C61.7264 123.384 61.7264 123.302 61.6325 123.253L59.2859 121.958ZM93.4016 103.056C93.3497 103.03 93.292 103.016 93.2334 103.016C93.1749 103.016 93.1172 103.03 93.0653 103.056L90.351 104.557C90.2572 104.609 90.2572 104.692 90.351 104.745L92.6976 106.032C92.7496 106.058 92.8072 106.072 92.8658 106.072C92.9244 106.072 92.9821 106.058 93.034 106.032L95.7482 104.531C95.8421 104.478 95.8421 104.396 95.7482 104.343L93.4016 103.056ZM104.943 96.6747C104.891 96.6487 104.833 96.6352 104.775 96.6352C104.716 96.6352 104.659 96.6487 104.607 96.6747L102.377 97.8683C102.284 97.9209 102.284 98.0034 102.377 98.056L104.724 99.3434C104.776 99.3694 104.834 99.3829 104.892 99.3829C104.951 99.3829 105.008 99.3694 105.06 99.3434L107.266 98.1198C107.36 98.0672 107.36 97.9847 107.266 97.9359L104.943 96.6747ZM112.088 91.7953L114.298 90.5754C114.392 90.5229 114.392 90.4403 114.298 90.3877L111.951 89.0965C111.899 89.0725 111.842 89.0601 111.783 89.0601C111.725 89.0601 111.668 89.0725 111.615 89.0965L109.409 90.3164C109.315 90.369 109.315 90.4553 109.409 90.5041L111.756 91.7953C111.807 91.8122 111.861 91.8183 111.914 91.8131C111.967 91.8079 112.019 91.7916 112.065 91.7652L112.088 91.7953ZM98.3099 92.058L100.516 90.8381C100.61 90.7856 100.61 90.703 100.516 90.6505L98.1691 89.3593C98.1166 89.3353 98.0591 89.3228 98.001 89.3228C97.9428 89.3228 97.8853 89.3353 97.8328 89.3593L95.627 90.5829C95.5331 90.6354 95.5331 90.718 95.627 90.7668L97.9736 92.058C98.0247 92.0758 98.0794 92.0823 98.1336 92.0771C98.1877 92.0719 98.24 92.0551 98.2864 92.028L98.3099 92.058ZM90.3589 103.806L96.8081 100.229C96.8279 100.222 96.845 100.21 96.8571 100.194C96.8692 100.177 96.8757 100.157 96.8757 100.137C96.8757 100.117 96.8692 100.097 96.8571 100.081C96.845 100.065 96.8279 100.052 96.8081 100.045L94.4615 98.7541C94.4096 98.7281 94.3519 98.7146 94.2933 98.7146C94.2348 98.7146 94.1771 98.7281 94.1251 98.7541L87.6759 102.327C87.6561 102.334 87.639 102.347 87.6269 102.363C87.6148 102.38 87.6083 102.399 87.6083 102.419C87.6083 102.439 87.6148 102.459 87.6269 102.476C87.639 102.492 87.6561 102.505 87.6759 102.511L90.0225 103.802C90.0747 103.827 90.132 103.84 90.1902 103.841C90.2484 103.841 90.306 103.83 90.3589 103.806ZM108.522 93.5556C108.574 93.5796 108.632 93.5921 108.69 93.5921C108.748 93.5921 108.805 93.5796 108.858 93.5556L111.064 92.3358C111.158 92.2832 111.158 92.2006 111.064 92.1481L108.717 90.8569C108.665 90.8329 108.607 90.8204 108.549 90.8204C108.491 90.8204 108.433 90.8329 108.381 90.8569L106.171 92.0805C106.151 92.0873 106.134 92.0997 106.122 92.1162C106.11 92.1327 106.103 92.1523 106.103 92.1725C106.103 92.1926 106.11 92.2123 106.122 92.2288C106.134 92.2452 106.151 92.2577 106.171 92.2644L108.522 93.5556ZM105.53 91.7089L107.739 90.4891C107.829 90.4365 107.833 90.3539 107.739 90.3014L105.412 89.0102C105.36 88.9862 105.302 88.9737 105.244 88.9737C105.186 88.9737 105.128 88.9862 105.076 89.0102L102.874 90.2338C102.78 90.2864 102.776 90.369 102.874 90.4215L105.201 91.7127C105.251 91.7328 105.304 91.7428 105.358 91.7421C105.412 91.7415 105.465 91.7302 105.514 91.7089H105.53ZM87.1479 105.597L89.3537 104.373C89.4476 104.32 89.4476 104.238 89.3537 104.185L87.0071 102.894C86.9546 102.87 86.8971 102.858 86.839 102.858C86.7808 102.858 86.7233 102.87 86.6708 102.894L84.4611 104.118C84.3672 104.17 84.3672 104.253 84.4611 104.302L86.7881 105.593C86.8396 105.616 86.8956 105.628 86.9524 105.628C87.0091 105.628 87.0652 105.616 87.1166 105.593L87.1479 105.597ZM101.376 97.493C101.428 97.5189 101.486 97.5325 101.544 97.5325C101.603 97.5325 101.661 97.5189 101.712 97.493L103.918 96.2693C104.012 96.2168 104.016 96.1342 103.918 96.0817L101.591 94.7942C101.539 94.7683 101.482 94.7547 101.423 94.7547C101.365 94.7547 101.307 94.7683 101.255 94.7942L99.0491 96.0179C98.9552 96.0704 98.9513 96.153 99.0491 96.2055L101.376 97.493ZM70.9916 114.515L73.1974 113.291C73.2912 113.239 73.2951 113.156 73.1974 113.107L70.8703 111.816C70.8184 111.79 70.7607 111.776 70.7022 111.776C70.6436 111.776 70.5859 111.79 70.534 111.816L68.3282 113.04C68.2343 113.092 68.2304 113.175 68.3282 113.227L70.6748 114.515C70.7233 114.539 70.777 114.553 70.8318 114.555C70.8867 114.557 70.9413 114.547 70.9916 114.526V114.515ZM74.2181 112.728L76.4239 111.504C76.5178 111.452 76.5178 111.369 76.4239 111.321L74.0773 110.029C74.0254 110.003 73.9677 109.99 73.9092 109.99C73.8506 109.99 73.7929 110.003 73.741 110.029L71.5352 111.253C71.4413 111.306 71.4413 111.388 71.5352 111.441L73.8818 112.728C73.9328 112.756 73.99 112.771 74.0485 112.773C74.1071 112.775 74.1653 112.764 74.2181 112.739V112.728ZM67.7689 116.301L69.9747 115.078C70.0686 115.025 70.0686 114.943 69.9747 114.894L67.6281 113.603C67.5756 113.579 67.5181 113.566 67.4599 113.566C67.4017 113.566 67.3443 113.579 67.2918 113.603L65.086 114.826C64.9921 114.879 64.9921 114.961 65.086 115.014L67.4326 116.305C67.4845 116.33 67.5417 116.344 67.5998 116.345C67.658 116.347 67.7158 116.335 67.7689 116.313V116.301ZM80.6752 109.17L82.881 107.946C82.9749 107.894 82.9749 107.811 82.881 107.759L80.5344 106.471C80.4832 106.445 80.4261 106.432 80.3682 106.432C80.3103 106.432 80.2532 106.445 80.202 106.471L77.9923 107.695C77.8984 107.747 77.8984 107.83 77.9923 107.879L80.3389 109.17C80.3901 109.194 80.4465 109.206 80.5036 109.206C80.5607 109.205 80.6168 109.191 80.6674 109.166L80.6752 109.17ZM77.4525 110.953L79.6583 109.729C79.7522 109.677 79.7561 109.594 79.6583 109.541L77.3117 108.254C77.2598 108.228 77.2021 108.214 77.1436 108.214C77.085 108.214 77.0273 108.228 76.9754 108.254L74.7696 109.478C74.6757 109.53 74.6718 109.613 74.7696 109.665L77.1162 110.953C77.1681 110.979 77.2258 110.992 77.2844 110.992C77.3429 110.992 77.4006 110.979 77.4525 110.953ZM83.9018 107.379L86.1115 106.156C86.1328 106.15 86.1514 106.138 86.1648 106.121C86.1781 106.104 86.1853 106.083 86.1853 106.062C86.1853 106.041 86.1781 106.02 86.1648 106.003C86.1514 105.986 86.1328 105.974 86.1115 105.968L83.7649 104.681C83.713 104.655 83.6553 104.641 83.5967 104.641C83.5382 104.641 83.4805 104.655 83.4286 104.681L81.2227 105.904C81.1289 105.957 81.1289 106.04 81.2227 106.088L83.5498 107.379C83.6022 107.406 83.6606 107.42 83.7199 107.42C83.7792 107.42 83.8376 107.406 83.8901 107.379H83.9018ZM100.082 81.7286C100.134 81.7546 100.191 81.7681 100.25 81.7681C100.308 81.7681 100.366 81.7546 100.418 81.7286L102.628 80.5049C102.722 80.4524 102.722 80.3698 102.628 80.321L102.01 79.9757C101.957 79.9517 101.9 79.9392 101.842 79.9392C101.783 79.9392 101.726 79.9517 101.673 79.9757L99.4676 81.1993C99.3737 81.2519 99.3737 81.3345 99.4676 81.387L100.082 81.7286ZM84.1364 91.525C84.188 91.5501 84.2449 91.5631 84.3027 91.5631C84.3604 91.5631 84.4174 91.5501 84.4689 91.525L86.6786 90.3014C86.7725 90.2488 86.7725 90.1663 86.6786 90.1137L84.332 88.8225C84.2795 88.7985 84.222 88.7861 84.1638 88.7861C84.1056 88.7861 84.0482 88.7985 83.9956 88.8225L81.7898 90.0462C81.7701 90.0529 81.7529 90.0654 81.7408 90.0818C81.7287 90.0983 81.7222 90.118 81.7222 90.1381C81.7222 90.1583 81.7287 90.1779 81.7408 90.1944C81.7529 90.2109 81.7701 90.2233 81.7898 90.2301L84.1364 91.525ZM90.5857 87.9517C90.6382 87.9758 90.6957 87.9882 90.7539 87.9882C90.812 87.9882 90.8695 87.9758 90.922 87.9517L93.1278 86.7319C93.2217 86.6793 93.2217 86.5968 93.1278 86.5442L90.7812 85.253C90.7287 85.229 90.6713 85.2166 90.6131 85.2166C90.5549 85.2166 90.4974 85.229 90.4449 85.253L88.2391 86.4767C88.2193 86.4834 88.2022 86.4959 88.1901 86.5123C88.1779 86.5288 88.1714 86.5485 88.1714 86.5686C88.1714 86.5888 88.1779 86.6084 88.1901 86.6249C88.2022 86.6414 88.2193 86.6538 88.2391 86.6606L90.5857 87.9517ZM80.1902 93.7058C80.2422 93.7317 80.2999 93.7453 80.3584 93.7453C80.417 93.7453 80.4747 93.7317 80.5266 93.7058L82.7324 92.4821C82.8263 92.4296 82.8263 92.347 82.7324 92.2945L80.3858 91.007C80.3339 90.9811 80.2762 90.9675 80.2176 90.9675C80.1591 90.9675 80.1014 90.9811 80.0494 91.007L77.871 92.2382C77.7772 92.2907 77.7772 92.3733 77.871 92.4258L80.1902 93.7058ZM87.3513 89.7384C87.4032 89.7644 87.4609 89.7779 87.5195 89.7779C87.578 89.7779 87.6357 89.7644 87.6876 89.7384L89.8934 88.5185C89.9873 88.466 89.9912 88.3834 89.8934 88.3308L87.5468 87.0397C87.4943 87.0157 87.4369 87.0032 87.3787 87.0032C87.3205 87.0032 87.263 87.0157 87.2105 87.0397L85.0047 88.2633C84.9108 88.3121 84.9069 88.3984 85.0047 88.4472L87.3513 89.7384ZM73.741 97.279C73.7922 97.305 73.8493 97.3186 73.9072 97.3186C73.9651 97.3186 74.0222 97.305 74.0734 97.279L76.2831 96.0554C76.377 96.0029 76.377 95.9203 76.2831 95.8715L73.9366 94.5803C73.8846 94.5543 73.8269 94.5407 73.7684 94.5407C73.7098 94.5407 73.6521 94.5543 73.6002 94.5803L71.3944 95.8039C71.3005 95.8565 71.3005 95.939 71.3944 95.9916L73.741 97.279ZM76.9637 95.4924C77.0156 95.5184 77.0733 95.5319 77.1318 95.5319C77.1904 95.5319 77.2481 95.5184 77.3 95.4924L79.5058 94.2688C79.5997 94.2162 79.6036 94.1336 79.5058 94.0849L77.1788 92.7937C77.1269 92.7677 77.0692 92.7541 77.0106 92.7541C76.952 92.7541 76.8943 92.7677 76.8424 92.7937L74.6366 94.0173C74.5428 94.0698 74.5388 94.1524 74.6366 94.205L76.9637 95.4924ZM93.6245 85.3131C93.6765 85.3391 93.7342 85.3526 93.7927 85.3526C93.8513 85.3526 93.909 85.3391 93.9609 85.3131L96.1706 84.0895C96.2605 84.0369 96.2645 83.9543 96.1706 83.9056L95.5527 83.5602C95.5001 83.5362 95.4427 83.5238 95.3845 83.5238C95.3263 83.5238 95.2689 83.5362 95.2163 83.5602L93.0105 84.7801C92.9166 84.8327 92.9127 84.9152 93.0105 84.9678L93.6245 85.3131ZM103.3 79.9532C103.352 79.9792 103.41 79.9927 103.469 79.9927C103.527 79.9927 103.585 79.9792 103.637 79.9532L105.843 78.7296C105.936 78.677 105.94 78.5945 105.843 78.5419L105.221 78.2004C105.168 78.1763 105.111 78.1639 105.052 78.1639C104.994 78.1639 104.937 78.1763 104.884 78.2004L102.675 79.424C102.653 79.4298 102.635 79.4421 102.621 79.459C102.608 79.476 102.601 79.4966 102.601 79.5178C102.601 79.539 102.608 79.5596 102.621 79.5766C102.635 79.5935 102.653 79.6058 102.675 79.6116L103.3 79.9532ZM108.193 82.6632C108.245 82.6892 108.303 82.7027 108.361 82.7027C108.42 82.7027 108.477 82.6892 108.529 82.6632L110.735 81.4396C110.829 81.387 110.829 81.3044 110.735 81.2556L108.389 79.9645C108.337 79.9385 108.28 79.9249 108.222 79.9249C108.164 79.9249 108.107 79.9385 108.056 79.9645L105.846 81.1881C105.753 81.2406 105.753 81.3232 105.846 81.3757L108.193 82.6632ZM115.291 89.9861L117.497 88.7662C117.591 88.7137 117.595 88.6311 117.497 88.5786L115.17 87.2874C115.118 87.2634 115.06 87.2509 115.002 87.2509C114.944 87.2509 114.886 87.2634 114.834 87.2874L112.652 88.5035C112.558 88.556 112.554 88.6386 112.652 88.6912L114.979 89.9824C115.028 90.0036 115.081 90.0149 115.135 90.0156C115.188 90.0162 115.242 90.0062 115.291 89.9861ZM96.8589 83.534C96.9109 83.56 96.9685 83.5735 97.0271 83.5735C97.0857 83.5735 97.1434 83.56 97.1953 83.534L99.4011 82.3103C99.4949 82.2578 99.4949 82.1752 99.4011 82.1264L98.7792 81.7811C98.7273 81.7551 98.6696 81.7416 98.6111 81.7416C98.5525 81.7416 98.4948 81.7551 98.4429 81.7811L96.2254 82.9972C96.1315 83.0498 96.1315 83.1324 96.2254 83.1849L96.8589 83.534ZM70.5222 99.0731C70.5742 99.0991 70.6319 99.1127 70.6904 99.1127C70.749 99.1127 70.8067 99.0991 70.8586 99.0731L73.0644 97.8495C73.1583 97.797 73.1583 97.7144 73.0644 97.6656L70.7413 96.3669C70.6887 96.3429 70.6313 96.3305 70.5731 96.3305C70.5149 96.3305 70.4574 96.3429 70.4049 96.3669L68.1952 97.5906C68.1052 97.6431 68.1013 97.7257 68.1952 97.7782L70.5222 99.0731Z" fill="#455A64"/>
<path d="M82.3335 117.262L102.209 106.25C102.545 106.087 102.916 106.002 103.293 106.002C103.669 106.002 104.04 106.087 104.376 106.25L115.78 112.563C116.379 112.897 116.379 113.434 115.78 113.768L95.9086 124.777C95.5726 124.941 95.2007 125.027 94.8233 125.027C94.446 125.027 94.0741 124.941 93.738 124.777L82.3414 118.463C81.7547 118.137 81.7547 117.593 82.3335 117.262Z" fill="#263238"/>
<path d="M78.9701 33.7749C72.7594 39.131 67.3935 38.8495 64.0379 36.3685C60.6861 42.5692 55.3202 48.7924 49.1096 50.32L45.5623 59.5159C45.5623 59.5159 47.463 61.6178 47.463 66.6474C47.4443 68.7553 47.1486 70.8525 46.5831 72.8894C45.9377 75.3704 45.1047 77.9377 45.1047 82.2279C45.1047 85.133 45.4958 87.9594 47.0367 90.5305C47.9667 92.0862 49.3058 93.3805 50.9204 94.2839L45.5271 91.2811C43.8263 90.3783 42.4135 89.0484 41.4401 87.4339C39.907 84.859 39.5159 82.0365 39.5159 79.1275C39.5159 74.8411 40.3489 72.27 40.9942 69.7853C41.5567 67.7493 41.8484 65.6533 41.8625 63.5471C41.8625 58.5175 39.9617 56.4156 39.9617 56.4156L43.5051 47.2197C49.7158 45.692 55.0817 39.4688 58.4334 33.2682C61.789 35.7492 67.1549 36.0307 73.3656 30.6746L78.9701 33.7749Z" fill="#FFA629"/>
<path opacity="0.8" d="M60.4086 34.3608L58.4531 33.2682C59.052 33.7135 59.7095 34.0808 60.4086 34.3608Z" fill="white"/>
<path opacity="0.85" d="M73.3734 30.6821C68.2617 35.0886 63.725 35.6779 60.4084 34.3679L64.0379 36.376C67.3935 38.857 72.7594 39.1385 78.9701 33.7824L73.3734 30.6821Z" fill="white"/>
<path opacity="0.65" d="M58.4412 33.2682C55.0895 39.4689 49.7236 45.6921 43.5129 47.2197L49.1096 50.3201C55.3203 48.7924 60.6862 42.5692 64.0379 36.3686L58.4412 33.2682Z" fill="white"/>
<path opacity="0.55" d="M43.5129 47.2198L39.9695 56.4157L45.5622 59.516L49.1095 50.3201L43.5129 47.2198Z" fill="white"/>
<path opacity="0.4" d="M47.0367 90.5304C45.5036 87.9593 45.1047 85.1329 45.1047 82.2278C45.1047 77.9376 45.9377 75.3703 46.5831 72.8893C47.1486 70.8524 47.4443 68.7552 47.463 66.6473C47.463 61.6177 45.5623 59.5158 45.5623 59.5158L39.9696 56.4155C39.9696 56.4155 41.8703 58.5174 41.8703 63.547C41.8511 65.6538 41.5541 67.7499 40.9864 69.7852C40.3411 72.2699 39.5081 74.841 39.5081 79.1275C39.5081 82.0364 39.8992 84.8589 41.4401 87.43C42.4135 89.0445 43.8263 90.3745 45.5271 91.2773L50.9204 94.28C49.3063 93.3777 47.9672 92.0848 47.0367 90.5304Z" fill="white"/>
<path opacity="0.05" d="M47.0367 90.5304C45.5036 87.9593 45.1047 85.1329 45.1047 82.2278C45.1047 77.9376 45.9377 75.3703 46.5831 72.8893C47.1486 70.8524 47.4443 68.7552 47.463 66.6473C47.463 61.6177 45.5623 59.5158 45.5623 59.5158L39.9696 56.4155C39.9696 56.4155 41.8703 58.5174 41.8703 63.547C41.8511 65.6538 41.5541 67.7499 40.9864 69.7852C40.3411 72.2699 39.5081 74.841 39.5081 79.1275C39.5081 82.0364 39.8992 84.8589 41.4401 87.43C42.4135 89.0445 43.8263 90.3745 45.5271 91.2773L50.9204 94.28C49.3063 93.3777 47.9672 92.0848 47.0367 90.5304Z" fill="black"/>
<path d="M64.0379 96.8288C54.761 96.9302 49.446 94.5768 47.0329 90.5306C45.5037 87.9595 45.1047 85.1332 45.1047 82.2243C45.1047 77.9378 45.9339 75.3743 46.5831 72.8895C47.1487 70.8539 47.4443 68.7579 47.4631 66.6513C47.4631 61.6217 45.5623 59.5198 45.5623 59.5198L49.1096 50.3201C55.3203 48.7925 60.6862 42.5655 64.0379 36.3686C67.3935 38.8497 72.7594 39.1312 78.9701 33.775L82.5174 39.0298C81.2985 41.971 80.6529 45.102 80.6127 48.267C80.5799 50.0551 80.8792 51.8345 81.4966 53.5218C82.1419 55.2859 82.975 56.9337 82.975 61.2201C82.9648 64.783 82.3111 68.3173 81.0429 71.6659C78.6259 78.407 73.3187 86.6458 64.0379 96.8288Z" fill="#FFA629"/>
<path opacity="0.75" d="M64.0379 96.8288C54.761 96.9302 49.446 94.5768 47.0329 90.5306C45.5037 87.9595 45.1047 85.1332 45.1047 82.2243C45.1047 77.9378 45.9339 75.3743 46.5831 72.8895C47.1487 70.8539 47.4443 68.7579 47.4631 66.6513C47.4631 61.6217 45.5623 59.5198 45.5623 59.5198L49.1096 50.3201C55.3203 48.7925 60.6862 42.5655 64.0379 36.3686C67.3935 38.8497 72.7594 39.1312 78.9701 33.775L82.5174 39.0298C81.2985 41.971 80.6529 45.102 80.6127 48.267C80.5799 50.0551 80.8792 51.8345 81.4966 53.5218C82.1419 55.2859 82.975 56.9337 82.975 61.2201C82.9648 64.783 82.3111 68.3173 81.0429 71.6659C78.6259 78.407 73.3187 86.6458 64.0379 96.8288Z" fill="white"/>
<path d="M62.9389 94.5165C55.7544 94.434 51.1081 92.7074 49.1292 89.3856C48.0106 87.5089 47.5139 85.3019 47.5139 82.2241C47.5136 79.5406 47.9086 76.8705 48.6872 74.2931C48.7615 74.0078 48.8397 73.7301 48.9101 73.4486C49.5284 71.231 49.8491 68.9467 49.8644 66.6511C49.8644 62.984 48.9493 60.5856 48.2218 59.2569L50.9595 52.2004C57.6082 49.9821 62.4148 43.6801 64.9609 39.5476C66.3323 40.1072 67.808 40.3932 69.2982 40.3884C72.3019 40.3884 75.3563 39.3149 78.4069 37.1942L79.8344 39.3186C78.7948 42.2033 78.2455 45.2297 78.2075 48.2818C78.1727 50.3343 78.517 52.3764 79.2243 54.3136C79.2986 54.5163 79.3769 54.719 79.4551 54.9216C80.0261 56.423 80.5658 57.8381 80.5658 61.2424C80.5527 64.5482 79.944 67.827 78.7667 70.9338C76.3928 77.5473 71.0699 85.482 62.9389 94.5165Z" fill="#FFA629"/>
<path opacity="0.4" d="M62.9389 94.5165C55.7544 94.434 51.1081 92.7074 49.1292 89.3856C48.0106 87.5089 47.5139 85.3019 47.5139 82.2241C47.5136 79.5406 47.9086 76.8705 48.6872 74.2931C48.7615 74.0078 48.8397 73.7301 48.9101 73.4486C49.5284 71.231 49.8491 68.9467 49.8644 66.6511C49.8644 62.984 48.9493 60.5856 48.2218 59.2569L50.9595 52.2004C57.6082 49.9821 62.4148 43.6801 64.9609 39.5476C66.3323 40.1072 67.808 40.3932 69.2982 40.3884C72.3019 40.3884 75.3563 39.3149 78.4069 37.1942L79.8344 39.3186C78.7948 42.2033 78.2455 45.2297 78.2075 48.2818C78.1727 50.3343 78.517 52.3764 79.2243 54.3136C79.2986 54.5163 79.3769 54.719 79.4551 54.9216C80.0261 56.423 80.5658 57.8381 80.5658 61.2424C80.5527 64.5482 79.944 67.827 78.7667 70.9338C76.3928 77.5473 71.0699 85.482 62.9389 94.5165Z" fill="white"/>
<path opacity="0.15" d="M62.9389 94.5165C55.7544 94.434 51.1081 92.7074 49.1292 89.3856C48.0106 87.5089 47.5139 85.3019 47.5139 82.2241C47.5136 79.5406 47.9086 76.8705 48.6872 74.2931C48.7615 74.0078 48.8397 73.7301 48.9101 73.4486C49.5284 71.231 49.8491 68.9467 49.8644 66.6511C49.8644 62.984 48.9493 60.5856 48.2218 59.2569L50.9595 52.2004C57.6082 49.9821 62.4148 43.6801 64.9609 39.5476C66.3323 40.1072 67.808 40.3932 69.2982 40.3884C72.3019 40.3884 75.3563 39.3149 78.4069 37.1942L79.8344 39.3186C78.7948 42.2033 78.2455 45.2297 78.2075 48.2818C78.1727 50.3343 78.517 52.3764 79.2243 54.3136C79.2986 54.5163 79.3769 54.719 79.4551 54.9216C80.0261 56.423 80.5658 57.8381 80.5658 61.2424C80.5527 64.5482 79.944 67.827 78.7667 70.9338C76.3928 77.5473 71.0699 85.482 62.9389 94.5165Z" fill="black"/>
<path opacity="0.8" d="M50.7756 91.2961C53.2239 93.3685 57.2914 94.4536 62.9389 94.5174L59.3368 92.5463C56.4309 92.5842 53.5384 92.1618 50.7756 91.2961Z" fill="white"/>
<path opacity="0.15" d="M77.9533 38.2792L79.8306 39.3192L78.4031 37.1942L77.5857 37.7348L77.9533 38.2792Z" fill="black"/>
<path d="M77.3431 53.2739C76.6358 51.3367 76.2916 49.2946 76.3263 47.2422C76.3643 44.19 76.9137 41.1637 77.9533 38.279L77.5856 37.7347C74.8088 39.4951 72.032 40.3884 69.2943 40.3884C67.8041 40.3933 66.3284 40.1072 64.957 39.5476C62.4109 43.6764 57.6043 49.9822 50.9556 52.2004L48.2179 59.2569C48.9453 60.5856 49.8605 62.984 49.8605 66.6511C49.8452 68.9467 49.5245 71.231 48.9062 73.4486C48.8358 73.7301 48.7576 74.0079 48.6833 74.2931C47.9047 76.8705 47.5097 79.5406 47.51 82.2241C47.51 85.3019 48.0067 87.5089 49.1253 89.3856C49.7142 90.3523 50.5149 91.1847 51.4719 91.8254C53.8732 92.8763 57.0724 93.4268 61.0695 93.4769C69.1965 84.4386 74.5194 76.5076 76.8934 69.8941C78.071 66.7874 78.6797 63.5086 78.6924 60.2028C78.6924 56.7984 78.1488 55.3834 77.5778 53.882C77.4957 53.6793 77.4175 53.4766 77.3431 53.2739Z" fill="#455A64"/>
<path d="M50.9556 52.2005L48.2179 59.2569C48.9453 60.5856 49.8605 62.9841 49.8605 66.6512C49.8452 68.9467 49.5245 71.231 48.9062 73.4486C48.8358 73.7301 48.7576 74.0079 48.6833 74.2931C47.9047 76.8705 47.5097 79.5406 47.51 82.2241C47.51 85.3019 48.0067 87.509 49.1253 89.3857C49.7142 90.3523 50.5149 91.1847 51.4719 91.8254C53.8732 92.8764 57.0724 93.4269 61.0695 93.4769V67.4657L64.9805 66.3396V39.5477C63.8259 41.4256 62.5181 43.2128 61.0695 44.8925C58.4608 47.9066 55.0582 50.8305 50.9556 52.2005Z" fill="#37474F"/>
<path d="M70.4598 57.8644C70.4179 57.7908 70.3681 57.7216 70.3112 57.658L70.2916 57.6355C70.1775 57.5163 70.0457 57.4138 69.9005 57.3314L68.5982 56.6108C68.3629 56.4843 68.1101 56.3908 67.8472 56.333C67.6899 56.2998 67.5305 56.276 67.3701 56.2617V52.5608C67.3701 50.7029 66.6387 49.2353 65.3638 48.5297C64.0888 47.824 62.626 47.9441 61.1281 48.7849C58.3435 50.3275 56.1651 54.0922 56.1651 57.354V61.7229L53.5682 63.1605C53.4909 63.2032 53.4177 63.2522 53.3491 63.3069L53.2788 63.3594C53.1725 63.441 53.0857 63.5436 53.0243 63.6601C52.9629 63.7767 52.9283 63.9046 52.9229 64.0351V79.0225C52.9243 79.0871 52.9335 79.1513 52.9502 79.2139C53.0321 79.4662 53.2055 79.682 53.4391 79.822L53.5838 79.9121L54.2213 80.2649L54.8901 80.6402C55.1512 80.7788 55.4338 80.8764 55.727 80.9292C56.5272 81.099 57.364 80.9954 58.0932 80.6365L69.9162 74.0867C70.0989 74.009 70.2568 73.886 70.3737 73.7303C70.4905 73.5746 70.5621 73.3919 70.581 73.2009V58.221C70.5717 58.0944 70.5301 57.9719 70.4598 57.8644ZM58.7072 57.354C58.7072 54.9668 60.3968 52.0166 62.3953 50.9093C63.0758 50.534 63.6859 50.4364 64.0731 50.6541C64.5307 50.9056 64.8006 51.6187 64.8006 52.5608V56.9298L61.441 58.8065L58.7033 60.3079L58.7072 57.354Z" fill="#263238"/>
<path d="M71.9304 58.8818C71.9118 58.6907 71.8404 58.5078 71.7235 58.352C71.6067 58.1963 71.4485 58.0734 71.2655 57.996L69.9632 57.2715C69.4673 57.0284 68.9184 56.9016 68.3616 56.9016C67.8048 56.9016 67.2559 57.0284 66.7601 57.2715L54.9371 63.8213C54.754 63.8996 54.596 64.0233 54.4791 64.1797C54.3623 64.336 54.2909 64.5193 54.2722 64.7108V79.6983C54.2897 79.8901 54.3606 80.074 54.4776 80.2305C54.5946 80.387 54.7533 80.5104 54.9371 80.5878L56.2395 81.3122C56.7361 81.5528 57.2847 81.6781 57.841 81.6781C58.3973 81.6781 58.9459 81.5528 59.4426 81.3122L71.2655 74.7588C71.4483 74.681 71.6062 74.558 71.723 74.4023C71.8399 74.2466 71.9115 74.0639 71.9304 73.873V58.8818Z" fill="#FFA629"/>
<path opacity="0.4" d="M56.2395 66.3398L54.9371 65.5891C54.0493 65.1012 54.0493 64.3055 54.9371 63.8138L66.7601 57.264C67.2559 57.0209 67.8048 56.8941 68.3616 56.8941C68.9184 56.8941 69.4673 57.0209 69.9632 57.264L71.2655 57.9884C72.1494 58.4764 72.1494 59.2721 71.2655 59.7601L59.4621 66.3398C58.9629 66.5834 58.4108 66.7104 57.8508 66.7104C57.2908 66.7104 56.7387 66.5834 56.2395 66.3398Z" fill="white"/>
<path opacity="0.1" d="M57.843 66.6889V81.6763C57.2839 81.6843 56.7319 81.5551 56.2395 81.301L54.9332 80.6028C54.7493 80.5249 54.5908 80.4008 54.4745 80.2435C54.3581 80.0863 54.2882 79.9018 54.2722 79.7095V64.7108C54.29 64.9016 54.3607 65.0844 54.4769 65.2402C54.5931 65.3959 54.7507 65.519 54.9332 65.5966L56.2395 66.321C56.732 66.5742 57.2844 66.7009 57.843 66.6889Z" fill="black"/>
<path d="M66.4472 74.1019L63.6234 75.6671L64.0615 70.7651C63.7251 70.5925 63.51 70.1721 63.51 69.5678C63.51 68.4868 64.1905 67.2331 65.0353 66.7677C65.8801 66.3023 66.5606 66.794 66.5606 67.8937C66.5433 68.5325 66.3532 69.1559 66.0091 69.7029L66.4472 74.1019Z" fill="#455A64"/>
<path d="M66.4473 74.1022L63.8895 72.6868L63.6235 75.6677L66.4473 74.1022Z" fill="#37474F"/>
<path d="M65.0353 66.7677C64.4205 67.1658 63.962 67.75 63.7329 68.4271L66.0091 69.6885C66.3532 69.1414 66.5432 68.5178 66.5606 67.8789C66.5606 66.7939 65.8801 66.2984 65.0353 66.7677Z" fill="#37474F"/>
<path d="M68.7351 59.2083V53.2028C68.7351 51.3261 68.0037 49.8773 66.7287 49.1716C65.4537 48.466 63.991 48.5898 62.4931 49.4269C59.7085 50.9695 57.53 54.7342 57.53 57.9959V64.0202C57.5414 64.1302 57.5838 64.2352 57.6527 64.3238C57.7217 64.4124 57.8144 64.4814 57.9211 64.5231C58.2008 64.6581 58.5095 64.7285 58.8226 64.7285C59.1357 64.7285 59.4444 64.6581 59.7241 64.5231C59.8308 64.4814 59.9236 64.4124 59.9925 64.3238C60.0614 64.2352 60.1038 64.1302 60.1152 64.0202V58.0147C60.1152 55.6275 61.8048 52.6773 63.8033 51.5701C64.4838 51.1947 65.0978 51.1009 65.485 51.3148C65.9387 51.5663 66.2125 52.2795 66.2125 53.2216V59.2271C66.2248 59.3359 66.2677 59.4395 66.3365 59.5267C66.4054 59.614 66.4977 59.6817 66.6036 59.7225C66.8832 59.8575 67.192 59.9278 67.505 59.9278C67.8181 59.9278 68.1268 59.8575 68.4065 59.7225C68.5114 59.6803 68.6029 59.6123 68.6715 59.5253C68.7402 59.4383 68.7837 59.3354 68.7976 59.2271L68.7351 59.2083Z" fill="#E0E0E0"/>
<path d="M83.9333 85.5614L85.6542 84.6078L86.3347 83.8118L84.6139 84.7654L83.9333 85.5614Z" fill="#FFA629"/>
<path opacity="0.4" d="M83.9333 85.5614L85.6542 84.6078L86.3347 83.8118L84.6139 84.7654L83.9333 85.5614Z" fill="black"/>
<path d="M88.6147 88.1551L90.3356 87.2015L91.7748 85.9776L90.054 86.9312L88.6147 88.1551Z" fill="#FFA629"/>
<path opacity="0.4" d="M88.6147 88.1551L90.3356 87.2015L91.7748 85.9776L90.054 86.9312L88.6147 88.1551Z" fill="black"/>
<path d="M103.265 91.4501C103.673 91.974 103.919 92.5968 103.977 93.248C103.573 92.7224 103.327 92.1006 103.265 91.4501ZM107.266 91.4989C106.687 87.7155 104.572 83.9921 102.045 82.5733C100.833 81.9014 99.6985 81.8789 98.8146 82.3819L97.1955 83.2789L97.1016 83.3315C97.0294 83.3691 96.9601 83.4118 96.8943 83.4591C96.7558 83.5462 96.625 83.6441 96.5032 83.7519L96.4485 83.8007C96.3976 83.8495 96.3468 83.9058 96.2998 83.9583C96.2529 84.0109 96.1786 84.0934 96.1278 84.161C96.011 84.3088 95.9051 84.4644 95.811 84.6264C95.764 84.709 95.7132 84.7953 95.6702 84.8854L81.5162 77.0445L79.7954 77.9941V79.0488L79.944 79.1276L80.0809 79.2065V79.4279L79.7954 79.5856V80.1974L81.8761 84.42L83.9333 85.546L84.6138 84.7503L86.4285 85.7937L87.4688 87.5053L88.6186 88.1396L90.054 86.916L91.8178 87.8956L92.4123 90.2415L95.369 91.8818C95.5193 92.4798 95.706 93.0689 95.9283 93.6459L95.9948 93.8298C96.9804 96.3071 98.5448 98.4315 100.297 99.4112C100.51 99.5285 100.732 99.6302 100.962 99.7152C101.083 99.7614 101.207 99.8015 101.333 99.8353C101.441 99.8644 101.551 99.8882 101.662 99.9066C102.008 99.9686 102.364 99.9686 102.71 99.9066L102.855 99.8728C102.923 99.8616 102.99 99.8427 103.054 99.8165L103.207 99.7602C103.262 99.7404 103.316 99.7165 103.367 99.6889L103.512 99.6176L103.586 99.5763L103.621 99.5575L105.244 98.6605C106.551 97.9323 107.399 96.0931 107.399 93.492C107.401 92.8212 107.35 92.1512 107.247 91.4877L107.266 91.4989Z" fill="#FFA629"/>
<path d="M102.741 94.6407C102.065 94.2654 101.513 93.1393 101.513 92.1447C101.513 91.15 102.065 90.6433 102.741 91.0187C103.418 91.394 103.973 92.52 103.973 93.5184C103.973 94.5168 103.422 95.0161 102.741 94.6407ZM105.53 92.4525C104.951 88.669 102.831 84.9268 100.305 83.5268C99.1314 82.8812 98.0559 82.8324 97.1759 83.2791L97.082 83.3316C97.0098 83.3693 96.9405 83.4119 96.8748 83.4592C96.7362 83.5464 96.6054 83.6443 96.4837 83.752L96.4289 83.8008C96.3781 83.8496 96.3272 83.9059 96.2803 83.9585C96.2334 84.011 96.159 84.0936 96.1082 84.1612C95.9914 84.309 95.8856 84.4645 95.7914 84.6266C95.7445 84.7091 95.6936 84.7955 95.6506 84.8856C95.3967 85.3962 95.2127 85.9361 95.1031 86.492L79.7993 77.9943V79.049L79.9479 79.1278L80.0848 79.2066V79.4281L79.7993 79.5857V80.1975L81.88 84.4201L83.9372 85.5462L84.6177 84.7504L86.4324 85.7939L87.4727 87.5055L88.6225 88.1398L90.0579 86.9162L91.8217 87.8958L92.4162 90.2417L95.3729 91.8819C95.5232 92.48 95.7099 93.069 95.9322 93.6461L95.9987 93.83C96.9843 96.3072 98.5487 98.4317 100.301 99.4113C100.514 99.5287 100.736 99.6303 100.966 99.7153C101.087 99.7615 101.211 99.8016 101.337 99.8354C101.445 99.8646 101.555 99.8884 101.666 99.9068C102.012 99.9688 102.367 99.9688 102.714 99.9068L102.859 99.873C102.927 99.8617 102.994 99.8428 103.058 99.8167L103.211 99.7604C103.266 99.7405 103.319 99.7167 103.371 99.6891L103.516 99.6178L103.59 99.5765L103.625 99.5577C104.877 98.807 105.682 96.9866 105.682 94.4455C105.681 93.7785 105.63 93.1125 105.53 92.4525Z" fill="#FFA629"/>
<path opacity="0.4" d="M103.973 93.5037C103.973 94.5099 103.422 95.0055 102.745 94.63C102.069 94.2546 101.513 93.1283 101.513 92.1334C101.513 91.1385 102.065 90.6317 102.745 91.0071C102.947 91.1206 103.124 91.2711 103.265 91.4501C103.325 92.1011 103.571 92.7236 103.977 93.2484C103.982 93.3335 103.98 93.4188 103.973 93.5037Z" fill="black"/>
<path opacity="0.4" d="M107.407 93.5032C107.407 96.1044 106.559 97.9435 105.252 98.6717L103.629 99.5688C104.881 98.8181 105.686 96.9977 105.686 94.4566C105.684 93.7858 105.632 93.1159 105.53 92.4523C104.951 88.6688 102.831 84.9267 100.305 83.5266C99.1315 82.881 98.056 82.8323 97.176 83.2789L98.7952 82.3818C99.6947 81.8789 100.813 81.9014 102.026 82.5733C104.552 83.9808 106.668 87.7342 107.247 91.4876C107.353 92.1547 107.407 92.8285 107.407 93.5032Z" fill="white"/>
<path d="M105.686 94.4565C105.686 96.9976 104.881 98.8105 103.629 99.5687L105.252 98.6716C106.558 97.9434 107.407 96.1042 107.407 93.5031C107.407 93.4055 107.407 93.3079 107.407 93.2141L105.69 94.1675C105.682 94.2613 105.686 94.3589 105.686 94.4565Z" fill="#FFA629"/>
<path opacity="0.1" d="M105.686 94.4565C105.686 96.9976 104.881 98.8105 103.629 99.5687L105.252 98.6716C106.558 97.9434 107.407 96.1042 107.407 93.5031C107.407 93.4055 107.407 93.3079 107.407 93.2141L105.69 94.1675C105.682 94.2613 105.686 94.3589 105.686 94.4565Z" fill="black"/>
<path opacity="0.15" d="M95.1852 87.5728V88.1095L79.7954 79.5855L80.0809 79.4278V79.2026L95.1852 87.5728Z" fill="black"/>
<path opacity="0.15" d="M95.1852 87.7981V88.1096L79.7954 79.5856L80.0809 79.428V79.4242L95.1852 87.7981Z" fill="black"/>
<path opacity="0.15" d="M101.881 98.6867C101.298 98.6714 100.73 98.5082 100.234 98.2138C97.7234 96.8213 95.6819 92.685 95.6819 88.9916C95.6819 86.8372 96.3624 85.2382 97.5474 84.5701C98.3766 84.1122 99.3543 84.1685 100.379 84.7352C102.886 86.1278 104.928 90.264 104.928 93.9574C104.928 96.1119 104.247 97.7108 103.062 98.3789C102.704 98.5815 102.296 98.6878 101.881 98.6867ZM98.752 84.54C98.3868 84.5394 98.028 84.6313 97.7117 84.8066C96.6323 85.4033 95.9909 86.9685 95.9909 88.9916C95.9909 92.5987 97.9464 96.6261 100.399 97.9736C101.329 98.4915 102.205 98.5478 102.941 98.1425C104.02 97.5457 104.662 95.9805 104.662 93.9574C104.662 90.3504 102.706 86.3192 100.254 84.9754C99.7961 84.703 99.2709 84.5527 98.7325 84.54H98.752Z" fill="black"/>
<path opacity="0.5" d="M95.6702 84.8853C95.4162 85.3959 95.2322 85.9359 95.1226 86.4918L79.7993 77.994L81.5202 77.0444L95.6702 84.8853Z" fill="white"/>
<path d="M154.108 126.395C154.167 126.909 154.241 128.35 156.963 128.71C159.685 129.071 161.398 128.204 162.126 126.946C162.853 125.689 162.685 124.664 162.798 123.501C162.912 122.337 163.917 121.718 164.206 121.117C164.629 120.235 164.011 118.865 164.011 118.865L154.108 126.395Z" fill="#263238"/>
<path d="M134.229 122.319C134.165 122.529 134.148 122.75 134.178 122.967C134.208 123.185 134.285 123.393 134.405 123.58C135.014 124.043 135.716 124.382 136.466 124.575C137.217 124.769 138 124.814 138.769 124.707C140.43 124.489 142.013 123.893 143.384 122.968C144.436 122.292 145.682 121.947 146.947 121.981C148.257 121.94 149.216 121.662 149.317 121.331C149.489 120.75 149.489 120.385 149.204 120.4L134.229 122.319Z" fill="#263238"/>
<path d="M163.362 116.853C163.022 119.237 158.207 119.045 158.598 117.142L157.742 111.358L163.19 111.52L163.362 116.853Z" fill="#FFA8A7"/>
<path d="M154.288 125.224C154.531 124.792 155.231 124.176 155.54 123.79C157.172 121.796 158.157 119.385 158.371 116.857C158.371 116.718 158.399 116.448 158.547 116.362C158.696 116.275 158.841 116.395 158.997 116.463C159.266 116.573 159.551 116.643 159.842 116.673C160.804 116.778 161.872 116.557 162.11 116.587C162.349 116.617 162.357 117.169 162.341 117.769C162.685 117.563 162.798 117.15 163.104 116.91C163.272 116.778 163.346 116.775 163.342 116.561C163.342 116.422 163.342 116.294 163.342 116.155C163.592 116.088 163.8 116.996 164.003 117.69C164.238 118.497 164.531 119.406 164.203 120.224C163.989 120.67 163.727 121.093 163.42 121.485C162.9 122.167 162.562 122.961 162.435 123.797C162.396 124.173 162.435 124.548 162.372 124.901C162.282 125.515 162.011 126.091 161.59 126.561C161.169 127.031 160.617 127.376 159.998 127.554C158.336 128.05 155.845 127.971 154.382 126.86C153.874 126.473 154.046 125.644 154.288 125.224Z" fill="#37474F"/>
<path d="M148.093 116.456C146.771 117.439 145.183 118.017 143.56 117.308L143.169 107.575L148.645 108.517L148.093 116.456Z" fill="#FFA8A7"/>
<path d="M135.335 120.637C135.699 120.524 136.055 120.4 136.407 120.261C137.39 119.877 138.34 119.418 139.246 118.888C139.637 118.655 140.029 118.411 140.42 118.137C140.811 117.863 141.202 117.567 141.593 117.266C141.797 117.095 141.981 116.903 142.144 116.696C142.474 116.308 142.75 115.882 142.966 115.427C142.998 115.32 143.071 115.228 143.169 115.168C143.235 115.146 143.307 115.141 143.375 115.154C143.444 115.167 143.508 115.198 143.56 115.243C143.654 115.317 143.755 115.382 143.861 115.438L144.182 115.566C144.524 115.7 144.885 115.785 145.254 115.817C146.638 115.934 146.681 115.667 146.74 116.095C146.753 116.255 146.753 116.416 146.74 116.576C147.471 116.459 148.046 116.234 148.077 115.968L148.163 115.119C148.891 115.055 148.946 116.305 149.18 117.709C149.372 118.835 149.657 119.665 149.329 120.502C148.23 121.421 146.29 121.2 145.187 121.372C143.623 121.62 142.891 122.731 140.721 123.452C137.201 124.615 135.007 123.275 134.35 122.701C133.924 121.977 133.837 121.095 135.335 120.637Z" fill="#37474F"/>
<path d="M161.825 58.9005C162.102 63.0292 162.607 69.076 162.783 73.8466C163.111 82.8098 162.982 93.0304 162.982 93.0304C163.505 94.91 163.841 96.8328 163.987 98.7731C164.21 104.501 164.171 117.36 164.171 117.36C164.171 117.36 161.696 119.751 157.996 117.874C157.996 117.874 154.714 99.8579 153.799 94.1977C152.923 88.8115 151.214 78.058 151.214 78.058L150.432 93.3419C151.025 95.7435 151.222 98.2197 151.015 100.68C150.815 103.307 149.255 116.26 149.255 116.26C147.831 117.54 143.685 116.842 142.778 115.825C142.778 115.825 141.327 96.6825 141.163 93.9124C140.815 87.9332 139.888 65.6341 140.353 62.1735C140.819 58.7128 161.825 58.9005 161.825 58.9005Z" fill="#263238"/>
<path d="M151.214 78.043L150.127 71.1442C150.127 71.1442 147.143 70.6037 144.96 69.0498C144.96 69.0498 145.809 70.8927 149.11 72.2064L150.197 78.6323L150.455 93.327L151.214 78.043Z" fill="black"/>
<path d="M157.311 31.2189C157.511 31.9958 158.876 31.8757 159.486 31.7293C159.848 31.6564 160.169 31.4588 160.39 31.1739C160.61 30.889 160.714 30.5365 160.683 30.1829C160.991 30.1037 161.27 29.9408 161.484 29.7138C161.629 29.5307 161.711 29.3096 161.721 29.0801C161.731 28.8507 161.667 28.6239 161.539 28.4301C161.787 28.2609 161.981 28.0296 162.101 27.7616C162.221 27.4935 162.262 27.1988 162.22 26.9099C162.136 26.4917 161.897 26.1169 161.547 25.8552C161.208 25.592 160.786 25.4476 160.35 25.4461C160.209 25.4461 160.069 25.7164 160.272 25.7389C160.589 25.7979 160.887 25.9263 161.144 26.1142C161.411 26.2936 161.618 26.5441 161.739 26.8349C161.814 27.0657 161.814 27.3132 161.738 27.5439C161.663 27.7747 161.515 27.9778 161.316 28.1261C161.245 28.0401 161.165 27.9609 161.078 27.8896C160.806 27.6561 160.449 27.5347 160.084 27.5518C159.949 27.5486 159.817 27.5822 159.701 27.6486C159.585 27.7151 159.492 27.8116 159.431 27.9271C159.337 28.2199 159.654 28.4676 159.889 28.5952C160.059 28.6877 160.248 28.7442 160.443 28.761C160.638 28.7778 160.834 28.7546 161.019 28.6928C161.05 28.6832 161.08 28.6719 161.109 28.659C161.129 28.6981 161.148 28.7382 161.164 28.7791C161.375 29.3159 161.035 29.6499 160.577 29.8001C160.299 29.2483 159.548 28.8467 158.946 29.1357C158.87 29.1677 158.803 29.2174 158.751 29.2803C158.7 29.3432 158.665 29.4174 158.651 29.4963C158.637 29.5751 158.643 29.6561 158.669 29.732C158.695 29.808 158.741 29.8765 158.801 29.9314C159.052 30.1587 159.384 30.2849 159.728 30.2843C159.886 30.2954 160.044 30.2954 160.201 30.2843C160.236 30.5248 160.178 30.7692 160.037 30.9712C159.896 31.1251 159.72 31.2467 159.523 31.3272C159.326 31.4077 159.113 31.4451 158.899 31.4366C158.413 31.4739 157.932 31.3271 157.558 31.0274C157.444 30.9336 157.28 31.1025 157.311 31.2189ZM160.882 28.3362C160.755 28.371 160.621 28.3782 160.491 28.3574C160.36 28.3367 160.236 28.2884 160.127 28.2161C159.963 28.111 159.779 27.9571 160.072 27.9384C160.23 27.9401 160.385 27.977 160.526 28.046C160.666 28.115 160.788 28.2144 160.882 28.3362ZM160.065 29.8939C159.899 29.9005 159.733 29.8854 159.572 29.8489C159.454 29.8226 158.942 29.5711 159.204 29.4735C159.404 29.3872 159.756 29.5786 159.896 29.6987C159.961 29.7564 160.018 29.822 160.065 29.8939Z" fill="#263238"/>
<path d="M158.262 16.7007C158.347 16.7123 158.432 16.7286 158.516 16.7495C158.456 16.5018 158.485 16.242 158.599 16.0123C158.713 15.7826 158.904 15.5966 159.142 15.4846C159.446 15.3675 159.785 15.3687 160.088 15.4878C160.391 15.607 160.634 15.8347 160.765 16.1226L158.993 16.8996C159.569 17.0962 160.049 17.4889 160.342 18.0031C160.827 18.964 160.186 21.0058 159.541 23.5206C159.177 25.1066 158.7 26.6667 158.113 28.1899C157.816 28.9406 157.28 28.9406 157.28 28.9406V26.4296L157.394 24.3464C157.394 24.3464 156.001 22.5185 155.849 21.0209C155.649 19.0954 156.072 18.3071 156.072 18.3071L158.262 16.7007Z" fill="#263238"/>
<path d="M148.633 14.5424C149.507 14.5439 150.362 14.7943 151.088 15.2619C151.814 15.7296 152.379 16.3934 152.712 17.1694C153.045 17.9454 153.13 18.7987 152.957 19.6214C152.785 20.444 152.362 21.199 151.742 21.7909C151.122 22.3827 150.333 22.7847 149.475 22.946C148.617 23.1074 147.728 23.0208 146.921 22.6973C146.114 22.3737 145.426 21.8278 144.942 21.1285C144.459 20.4292 144.203 19.608 144.206 18.7688C144.207 18.2123 144.323 17.6615 144.546 17.148C144.77 16.6344 145.096 16.1681 145.507 15.7756C145.918 15.3832 146.406 15.0723 146.942 14.8607C147.479 14.6491 148.053 14.541 148.633 14.5424Z" fill="#263238"/>
<path d="M157.311 24.0161C157.835 24.4515 158.262 23.3255 158.704 22.8901C159.146 22.4547 160.577 21.8504 161.289 23.2992C162.001 24.748 160.632 26.7786 159.556 27.2553C157.992 27.9572 157.28 26.4371 157.28 26.4371V32.7241C155.626 35.5842 152.047 34.9161 150.354 35.3177C150.101 34.5866 150.101 33.7967 150.354 33.0656V31.02C149.641 31.1513 148.914 31.1879 148.191 31.1289C146.759 30.9112 145.993 29.7814 145.567 28.295C144.878 25.9078 144.734 21.8954 145.692 17.2599C147.295 16.0739 152.712 16.269 156.064 18.2959C155.829 22.4247 156.787 23.5807 157.311 24.0161Z" fill="#FFA8A7"/>
<path d="M150.358 31.0206C150.358 31.0206 153.549 30.4162 154.66 29.8493C155.324 29.5273 155.87 29.0176 156.224 28.3889C156.054 29.0158 155.753 29.6032 155.34 30.1159C154.523 31.1145 150.362 31.8391 150.362 31.8391L150.358 31.0206Z" fill="#F28F8F"/>
<path d="M143.506 21.5353C143.533 21.7775 143.635 22.0064 143.799 22.1923C143.853 22.2633 143.893 22.3435 143.916 22.4288C143.999 23.0283 144.129 23.6208 144.307 24.2009C144.451 24.586 144.717 24.918 145.068 25.1504C145.419 25.3827 145.837 25.5036 146.263 25.4961C146.488 25.5066 146.714 25.4927 146.935 25.4548C146.952 25.4573 146.969 25.4573 146.986 25.4548C147.181 25.4179 147.368 25.352 147.542 25.2596H147.573L147.624 25.2296L147.679 25.1883C147.699 25.1792 147.718 25.1665 147.733 25.1507C147.757 25.1391 147.778 25.1239 147.796 25.1057L147.851 25.0531L147.96 24.9517C148.146 24.7543 148.297 24.5301 148.41 24.2872C148.711 23.6753 148.652 22.808 149.122 22.7217C149.141 22.7234 149.161 22.7234 149.18 22.7217H149.243C149.884 22.7442 149.791 23.6828 150.135 24.3623C150.325 24.7925 150.649 25.1563 151.061 25.4047C151.474 25.6531 151.956 25.7741 152.442 25.7514H152.618H152.763C152.874 25.7456 152.985 25.733 153.095 25.7139L153.201 25.6913L153.303 25.6651H153.365C153.5 25.623 153.631 25.5689 153.756 25.5036C153.799 25.4736 153.842 25.4511 153.885 25.4248C153.962 25.3688 154.035 25.3086 154.104 25.2446C154.288 25.0664 154.434 24.8561 154.535 24.6251C154.725 24.0568 154.865 23.4741 154.953 22.8831C154.973 22.7935 155.01 22.7083 155.063 22.6316C155.233 22.4597 155.346 22.2426 155.387 22.0083C155.398 21.8859 155.365 21.7636 155.294 21.6613C155.223 21.5591 155.118 21.4829 154.996 21.4452L154.66 21.3926C153.569 21.2462 152.145 21.1636 151.288 21.3701C150.209 21.6291 149.83 21.952 149.235 21.9332C148.641 21.9145 148.328 21.5578 147.315 21.2237C146.533 20.9534 145.179 20.9421 144.163 21.0097C144.049 21.0097 143.951 21.0097 143.846 21.0322C143.678 21.0022 143.49 21.2537 143.506 21.5353ZM150.526 22.3087C150.61 22.2115 150.716 22.1334 150.835 22.0797C150.853 22.0682 150.873 22.0582 150.893 22.0496H150.921C150.973 22.0308 151.024 22.0095 151.073 21.9858C151.116 21.9858 151.167 21.9558 151.214 21.937C151.365 21.8838 151.519 21.8399 151.676 21.8056L151.859 21.7681C152.012 21.7418 152.172 21.7192 152.329 21.7042H152.442C153.471 21.6442 154.108 21.8882 154.335 22.0797C154.562 22.2711 154.445 23.206 154.335 23.664C154.335 23.664 154.335 23.6903 154.335 23.6978C154.339 23.7101 154.339 23.723 154.335 23.7353C154.324 23.7977 154.308 23.8591 154.288 23.9193C154.28 23.959 154.268 23.998 154.253 24.0357C154.23 24.0995 154.206 24.1633 154.179 24.2309C154.172 24.2538 154.162 24.2754 154.147 24.2947C154.144 24.3097 154.138 24.3238 154.128 24.336C154.128 24.336 154.128 24.3623 154.128 24.3773L154.097 24.4336C154.097 24.4562 154.073 24.4749 154.057 24.4937C154.047 24.5171 154.032 24.5387 154.014 24.5575C154.002 24.5801 153.988 24.6015 153.971 24.6214C153.807 24.8375 153.586 25.0089 153.332 25.1188C153.078 25.2287 152.798 25.2733 152.52 25.2483C152.236 25.2654 151.951 25.2232 151.685 25.1247C151.419 25.0262 151.178 24.8737 150.979 24.6777C150.735 24.4083 150.57 24.082 150.498 23.7316C150.381 23.1947 150.319 22.5865 150.526 22.3087ZM144.483 21.7155C144.556 21.6483 144.642 21.597 144.738 21.5653L144.847 21.524H144.914H144.972H145.011H145.07C145.149 21.5085 145.228 21.4973 145.309 21.4902H145.438H145.512C145.533 21.4939 145.554 21.4939 145.574 21.4902C145.629 21.4865 145.684 21.4865 145.739 21.4902H145.856C146.015 21.4982 146.173 21.5145 146.329 21.539C147.061 21.6554 147.823 21.9971 148.015 22.2899C148.207 22.5827 148.152 23.1797 148.046 23.6978C148.022 23.8136 147.989 23.9278 147.948 24.0394C147.945 24.048 147.945 24.0572 147.948 24.0657C147.95 24.0782 147.95 24.0908 147.948 24.1033C147.948 24.1033 147.948 24.1033 147.948 24.1258C147.943 24.1399 147.936 24.1536 147.929 24.1671C147.929 24.1971 147.902 24.2234 147.886 24.2497C147.874 24.2754 147.861 24.3005 147.847 24.3248V24.3473L147.815 24.3998L147.784 24.4411C147.614 24.6738 147.38 24.8569 147.108 24.9701C146.836 25.0834 146.537 25.1225 146.243 25.0831C145.97 25.0768 145.703 25.01 145.461 24.8879C144.741 24.5125 144.573 23.7316 144.491 23.3862C144.382 22.8305 144.26 21.907 144.483 21.7155Z" fill="#263238"/>
<path d="M154.929 21.4113L159.623 22.4212C159.199 22.5259 158.822 22.7589 158.547 23.0857L154.926 22.4249L154.929 21.4113Z" fill="#263238"/>
<path d="M144.483 23.3036C144.565 23.679 144.734 24.4561 145.453 24.8053C145.695 24.9273 145.962 24.9942 146.235 25.0005C146.529 25.0399 146.828 25.0008 147.1 24.8875C147.372 24.7743 147.606 24.5912 147.776 24.3585L147.808 24.3172L147.839 24.2647V24.2421C147.854 24.2179 147.867 24.1928 147.878 24.167C147.878 24.1408 147.905 24.1145 147.921 24.0845C147.928 24.071 147.935 24.0572 147.941 24.0432C147.941 24.0432 147.941 24.0432 147.941 24.0206C147.942 24.0082 147.942 23.9956 147.941 23.9831C147.938 23.9746 147.938 23.9653 147.941 23.9568C147.981 23.8451 148.014 23.731 148.038 23.6152C148.144 23.0971 148.203 22.4889 148.007 22.2073C147.812 21.9257 147.053 21.569 146.321 21.4564C146.165 21.4319 146.007 21.4156 145.848 21.4076H145.731C145.676 21.4039 145.621 21.4039 145.567 21.4076C145.546 21.4113 145.525 21.4113 145.504 21.4076H145.43H145.301C145.221 21.4146 145.141 21.4259 145.062 21.4414H145.003H144.964H144.906H144.839L144.73 21.4827C144.635 21.5144 144.548 21.5657 144.475 21.6329C144.26 21.9069 144.382 22.8305 144.483 23.3036Z" fill="#37474F"/>
<path d="M150.498 23.7163C150.567 24.072 150.733 24.4038 150.979 24.6774C151.173 24.8722 151.408 25.0252 151.669 25.1262C151.929 25.2271 152.209 25.2738 152.489 25.2631C152.767 25.288 153.046 25.2434 153.301 25.1335C153.555 25.0236 153.775 24.8522 153.94 24.6361C153.957 24.6163 153.971 24.5949 153.983 24.5723C154.001 24.5534 154.015 24.5318 154.026 24.5084C154.026 24.4897 154.05 24.4709 154.065 24.4484L154.096 24.3921C154.096 24.3921 154.096 24.3658 154.096 24.3508C154.106 24.3386 154.113 24.3245 154.116 24.3095C154.13 24.2901 154.141 24.2685 154.147 24.2456C154.175 24.1781 154.198 24.1142 154.222 24.0504C154.237 24.0127 154.249 23.9737 154.257 23.934C154.277 23.8739 154.293 23.8124 154.304 23.7501C154.307 23.7378 154.307 23.7248 154.304 23.7125C154.304 23.7125 154.304 23.69 154.304 23.6787C154.409 23.2207 154.538 22.3046 154.304 22.0944C154.069 21.8842 153.439 21.6401 152.411 21.719H152.297C152.141 21.719 151.981 21.7565 151.828 21.7828L151.644 21.8203C151.488 21.8546 151.334 21.8985 151.183 21.9517C151.136 21.9517 151.085 21.9818 151.042 22.0005C150.992 22.0243 150.941 22.0456 150.889 22.0644H150.862C150.842 22.0729 150.822 22.0829 150.803 22.0944C150.684 22.1481 150.579 22.2263 150.494 22.3234C150.318 22.5862 150.381 23.1944 150.498 23.7163Z" fill="#37474F"/>
<path d="M144.609 13.9831C144.609 13.9343 144.609 13.8817 144.628 13.8292C144.635 13.7322 144.671 13.6393 144.734 13.5627C144.949 13.3488 145.379 13.8892 145.516 14.0131C145.662 14.1355 145.815 14.2508 145.973 14.3584C146.123 14.4297 146.267 14.5113 146.404 14.6024C146.308 14.0923 146.308 13.5698 146.404 13.0597C146.47 12.7219 146.568 11.9337 147.006 11.8549C147.264 11.8023 147.491 12.0125 147.683 12.1852C149.431 13.7541 151.715 13.0297 153.819 13.0935C155.583 13.1461 157.706 13.8442 158.512 15.4807C158.876 16.2314 158.938 17.0234 158.219 17.5413C157.757 17.8791 157.304 17.8641 157.046 18.4009C156.983 18.5322 156.58 20.1312 156.819 20.1162C156.387 20.1585 155.953 20.0523 155.595 19.8165C155.237 19.5808 154.978 19.2308 154.863 18.8288C154.82 18.6523 154.722 18.3333 154.683 18.1531C154.674 18.1003 154.652 18.0501 154.621 18.0059C154.589 17.9616 154.548 17.9244 154.5 17.8966C154.453 17.8689 154.399 17.8513 154.344 17.8451C154.288 17.8388 154.232 17.844 154.179 17.8604C153.643 17.973 153.295 18.1832 152.79 18.3145C151.35 18.7122 149.835 18.7981 148.355 18.566C147.296 18.373 146.324 17.8726 145.571 17.1322C145.188 16.7019 144.905 16.1989 144.739 15.6563C144.573 15.1136 144.529 14.5434 144.609 13.9831Z" fill="#263238"/>
<path d="M151.48 20.5818L153.045 20.8109C153.072 20.6099 153.017 20.4066 152.892 20.2435C152.766 20.0804 152.58 19.9703 152.372 19.9361C152.269 19.9213 152.164 19.9263 152.063 19.9509C151.963 19.9755 151.868 20.0191 151.785 20.0792C151.702 20.1394 151.632 20.2148 151.58 20.3011C151.527 20.3874 151.494 20.4828 151.48 20.5818Z" fill="#263238"/>
<path d="M151.12 27.4805L149.818 27.8072C149.836 27.8905 149.872 27.9694 149.923 28.0391C149.974 28.1089 150.039 28.1682 150.114 28.2134C150.189 28.2586 150.273 28.2888 150.36 28.3022C150.448 28.3156 150.537 28.312 150.624 28.2915C150.799 28.2439 150.949 28.133 151.042 27.9818C151.134 27.8307 151.162 27.6511 151.12 27.4805Z" fill="#F28F8F"/>
<path d="M145.621 20.6684L147.186 20.5032C147.18 20.4047 147.152 20.3084 147.106 20.2203C147.06 20.1321 146.996 20.0539 146.917 19.9904C146.838 19.9268 146.747 19.8793 146.649 19.8506C146.55 19.822 146.447 19.8128 146.345 19.8236C146.135 19.8491 145.943 19.9507 145.808 20.1078C145.674 20.2649 145.607 20.4655 145.621 20.6684Z" fill="#263238"/>
<path d="M149.415 22.7325L149.204 26.2353L147.17 25.7247L149.2 22.6912C149.274 22.6888 149.348 22.703 149.415 22.7325Z" fill="#F28F8F"/>
<path d="M158.152 25.1649C158.151 25.3462 158.207 25.5237 158.311 25.6748C158.415 25.826 158.564 25.944 158.738 26.0139C158.913 26.0838 159.105 26.1025 159.29 26.0675C159.476 26.0326 159.646 25.9457 159.78 25.8177C159.914 25.6897 160.005 25.5265 160.042 25.3487C160.079 25.1709 160.061 24.9865 159.988 24.8189C159.916 24.6513 159.794 24.508 159.637 24.4072C159.48 24.3064 159.295 24.2526 159.106 24.2526C158.981 24.2521 158.857 24.2753 158.742 24.3209C158.626 24.3666 158.521 24.4337 158.432 24.5184C158.343 24.6032 158.273 24.704 158.225 24.8149C158.177 24.9258 158.152 25.0448 158.152 25.1649Z" fill="#263238"/>
<path d="M158.051 23.4946C158.132 23.2177 158.277 22.9614 158.473 22.7438C158.573 22.6524 158.692 22.583 158.822 22.5402C158.952 22.4974 159.091 22.4823 159.228 22.496C159.228 22.496 159.255 22.526 159.228 22.5335C159.122 22.5936 159.048 22.6274 158.942 22.6987C158.837 22.7671 158.74 22.8464 158.653 22.9352C158.576 23.0204 158.514 23.1167 158.469 23.2206C158.413 23.3397 158.376 23.4662 158.36 23.596C158.334 23.8003 158.365 24.0076 158.45 24.1967C158.493 24.3015 158.554 24.3991 158.629 24.4858C158.711 24.5493 158.782 24.624 158.841 24.7073C158.899 24.8237 158.731 25.0227 158.602 24.9551C158.358 24.8075 158.174 24.5834 158.082 24.3206C157.967 24.0581 157.956 23.7645 158.051 23.4946Z" fill="#263238"/>
<path d="M144.495 35.9631C143.173 36.7964 141.347 37.8774 140.901 39.0522C140.455 40.227 139.168 47.0395 139.027 49.2352C140.199 49.7651 141.455 50.105 142.743 50.2412L144.495 35.9631Z" fill="#455A64"/>
<path d="M160.112 32.7166C163.459 34.4807 166.76 37.1156 167.472 38.129C167.472 38.129 165.517 44.386 163.792 47.3549C162.067 50.3239 161.144 59.1031 161.144 59.1031C161.144 59.1031 149.349 62.8566 145.653 63.1531C141.957 63.4496 141.487 61.9407 141.487 61.9407C141.487 61.9407 141.409 52.1255 142.27 45.5758C143.13 39.0261 142.942 37.078 144.507 35.9633C145.52 35.2464 149.884 33.4297 149.884 33.4297V35.3064C152.27 35.3515 160.112 32.7166 160.112 32.7166Z" fill="#37474F"/>
<path d="M148.965 36.3128C148.749 35.8892 148.662 35.4153 148.715 34.9462L149.7 34.2592V35.4493L148.965 36.3128Z" fill="#FFA629"/>
<path opacity="0.25" d="M148.965 36.3128C148.749 35.8892 148.662 35.4153 148.715 34.9462L149.7 34.2592V35.4493L148.965 36.3128Z" fill="black"/>
<path d="M150.882 35.5883L153.432 34.1917L155.348 35.6484L151.476 37.1914L150.882 35.5883Z" fill="#FFA629"/>
<path opacity="0.25" d="M150.882 35.5883L153.432 34.1917L155.348 35.6484L151.476 37.1914L150.882 35.5883Z" fill="black"/>
<path d="M157.28 30.0591V30.5546C157.182 31.0238 156.22 32.1123 153.792 33.1557C151.363 34.1992 150.354 35.3139 150.354 35.3139C151.01 35.3308 151.659 35.4461 152.278 35.6555C153.385 36.0308 155.223 37.3821 155.747 37.3671C156.271 37.3521 156.995 35.9633 158.367 34.5783C159.541 33.4147 160.112 32.7016 160.112 32.7016C160.112 32.7016 158.227 30.0704 157.28 30.0591Z" fill="#455A64"/>
<path d="M150.354 35.3148C149.474 35.4087 148.649 35.9944 148.434 35.6903C148.218 35.3862 148.965 32.5591 150.346 31.6994L150.354 35.3148Z" fill="#455A64"/>
<path d="M141.828 50.1249C141.828 50.1249 141.722 51.8778 141.695 52.4783C141.667 53.0789 142.712 63.3633 142.712 63.3633L139.027 64.8647C139.027 64.8647 138.582 60.901 138.437 58.694C138.317 56.4212 138.424 54.1426 138.754 51.8891C139.043 50.0123 139.145 49.2917 139.145 49.2917C140.007 49.6571 140.906 49.9363 141.828 50.1249Z" fill="#F28F8F"/>
<path d="M139.325 69.8905C139.325 69.8905 139.325 70.0481 139.325 70.6412C139.417 71.6336 139.624 72.613 139.942 73.5613C140.173 74.1168 140.725 75.3367 141.014 75.4793C141.288 75.6257 141.604 75.6799 141.914 75.6332C142.496 75.5807 143.106 75.8697 143.658 75.6145C143.872 75.5027 144.097 75.4133 144.331 75.348C144.671 75.2691 145.062 75.3667 145.367 75.1941C145.563 75.0852 145.684 74.8825 145.875 74.7699C146.157 74.6048 146.529 74.6648 146.83 74.5335C146.948 74.4753 147.053 74.3948 147.139 74.2968C147.224 74.1988 147.288 74.0852 147.326 73.9629C147.499 73.4675 147.326 72.9082 147.225 72.4128C147.406 72.169 147.498 71.8748 147.487 71.5758C147.498 70.9344 147.421 70.2945 147.256 69.6728C147.127 69.2974 144.452 67.8374 144.452 67.8374L143.924 67.5033C142.802 67.2633 141.626 67.4446 140.639 68.01C139.07 68.9671 139.325 69.8905 139.325 69.8905Z" fill="#FFA8A7"/>
<path d="M140.048 69.8193C139.34 70.9453 139.755 72.9759 139.759 72.9984C139.537 72.2301 139.392 71.4434 139.325 70.6488C139.325 70.0482 139.325 69.8981 139.325 69.8981C139.325 69.8981 139.07 68.9597 140.619 68.0214C141.607 67.456 142.782 67.2747 143.904 67.5146C143.904 67.5146 140.756 68.682 140.048 69.8193Z" fill="#F28F8F"/>
<path d="M147.205 72.4021C146.956 71.6697 146.57 70.9866 146.067 70.3861C145.77 70.1232 145.52 69.7891 145.817 69.9017C146.114 70.0144 146.529 70.0782 146.693 69.8792C146.857 69.6802 146.892 70.0256 146.693 70.2959C146.494 70.5663 146.662 70.7728 146.877 71.2158C147.042 71.5951 147.152 71.9942 147.205 72.4021Z" fill="#F28F8F"/>
<path d="M166.451 38.2529C167.566 38.6282 167.714 41.5559 167.472 44.1833C167.229 46.8107 165.094 53.0226 164.12 55.1846C163.029 57.613 162.368 59.0131 161.641 59.775C160.913 60.537 159.392 61.1638 157.444 62.1322C155.684 63.0067 154.48 63.4496 151.476 64.3429C148.089 65.3526 146.783 65.4127 146.063 65.8969C145.343 66.3811 145.14 67.432 144.432 67.8261L143.904 67.4921C142.714 67.7665 141.577 68.2227 140.537 68.8433C140.071 69.1204 139.661 69.4751 139.324 69.8905V70.6412C139.324 70.6412 138.468 70.9865 137.741 69.5152C137.013 68.0438 136.681 65.8368 137.518 64.8722C138.355 63.9075 141.006 62.5863 143.157 61.9407C145.308 61.2952 146.376 60.6195 148.887 59.1632C151.562 57.613 153.42 56.5809 154.753 55.8827C155.258 55.6012 155.598 55.2596 155.825 54.3813C156.005 53.6757 156.541 51.5888 156.869 50.0199C157.393 47.3962 158.571 39.4615 166.451 38.2529Z" fill="#FFA8A7"/>
<path d="M167.472 38.129C167.472 38.129 167.992 38.2153 168.063 40.2947C168.155 42.2622 168.057 44.2337 167.77 46.1838C167.484 47.779 165.814 52.4896 165.814 52.4896C165.814 52.4896 161.015 53.9909 156.103 52.2005C156.103 52.2005 157.257 45.4068 157.691 43.6052C158.125 41.8036 164.207 36.2447 167.472 38.129Z" fill="#455A64"/>
<path d="M150.491 38.2641C150.217 39.9532 149.841 43.9656 149.841 49.6295C149.841 51.0183 147.73 53.8371 147.233 53.7771C146.736 53.717 145.825 51.0671 145.696 49.5282C145.895 45.8048 148.242 40.0283 149.267 38.054L150.491 38.2641Z" fill="#FFA629"/>
<path opacity="0.15" d="M149.188 38.2154C149.211 38.1602 149.237 38.1063 149.266 38.054L150.491 38.2642L150.416 38.7598C149.956 38.7127 149.524 38.5214 149.188 38.2154Z" fill="black"/>
<path d="M150.882 35.588C150.497 35.5011 150.104 35.4558 149.708 35.4528C149.397 35.6859 149.141 35.9803 148.957 36.3163C148.923 36.91 149.026 37.5036 149.259 38.0546C149.434 38.1731 149.635 38.2533 149.846 38.2896C150.058 38.326 150.275 38.3175 150.483 38.2648C150.914 38.0074 151.257 37.634 151.468 37.1911C151.498 36.6037 151.288 36.0283 150.882 35.588Z" fill="#FFA629"/>
</svg>
