<svg width="96" height="88" viewBox="0 0 96 88" fill="none" xmlns="http://www.w3.org/2000/svg">
<g id="fluent-mdl2:commitments" clip-path="url(#clip0_651_26941)">
<path id="Vector" d="M62.375 0.00377588C63.1536 0.00377588 63.8275 0.290743 64.3965 0.864676L93.1465 29.8634C93.7155 30.4373 94 31.117 94 31.9024C94 32.6878 93.7155 33.3674 93.1465 33.9414L82.2305 44.9518C82.9792 45.707 83.7129 46.432 84.4316 47.1267C85.1504 47.8215 85.7793 48.5314 86.3184 49.2563C86.8574 49.9813 87.3066 50.7969 87.666 51.7031C88.0254 52.6093 88.2051 53.6212 88.2051 54.7389C88.2051 55.9472 87.9805 57.095 87.5312 58.1825C87.082 59.27 86.4681 60.2215 85.6895 61.0371C84.9108 61.8527 83.9974 62.5021 82.9492 62.9854C81.901 63.4687 80.778 63.7255 79.5801 63.7557C79.5202 64.9942 79.2656 66.1269 78.8164 67.154C78.3672 68.181 77.7682 69.0872 77.0195 69.8726C76.2708 70.658 75.3724 71.2772 74.3242 71.7303C73.276 72.1835 72.153 72.4251 70.9551 72.4553C70.9251 73.6636 70.6706 74.7964 70.1914 75.8536C69.7122 76.9109 69.0684 77.8322 68.2598 78.6176C67.4512 79.4029 66.5078 80.0373 65.4297 80.5206C64.3516 81.0039 63.2135 81.2305 62.0156 81.2002C61.0573 81.2002 60.084 81.0341 59.0957 80.7018C58.7663 81.6383 58.332 82.484 57.793 83.2392C57.2539 83.9944 56.5951 84.659 55.8164 85.2329C55.0378 85.8068 54.2142 86.2448 53.3457 86.5469C52.4772 86.849 51.5339 87 50.5156 87C49.737 87 49.0482 86.9396 48.4492 86.8188C47.8503 86.6979 47.2962 86.4865 46.7871 86.1844C46.278 85.8823 45.7689 85.5501 45.2598 85.1876C44.7507 84.8251 44.2266 84.3871 43.6875 83.8736C42.6393 84.8402 41.6211 85.5954 40.6328 86.1391C39.6445 86.6828 38.3867 86.9698 36.8594 87C35.6615 87 34.5234 86.7734 33.4453 86.3203C32.3672 85.8672 31.4238 85.248 30.6152 84.4626C29.8066 83.6772 29.1628 82.7559 28.6836 81.6987C28.2044 80.6414 27.9499 79.4936 27.9199 78.2551C26.752 78.2249 25.6439 77.9832 24.5957 77.5301C23.5475 77.077 22.6341 76.4577 21.8555 75.6724C21.0768 74.887 20.4629 73.9657 20.0137 72.9084C19.5645 71.8512 19.3249 70.7335 19.2949 69.5554C18.097 69.5252 16.9889 69.2836 15.9707 68.8305C14.9525 68.3774 14.054 67.7581 13.2754 66.9727C12.4967 66.1874 11.8828 65.266 11.4336 64.2088C10.9844 63.1516 10.7298 62.0339 10.6699 60.8558C9.44206 60.8256 8.30404 60.5689 7.25586 60.0855C6.20768 59.6022 5.29427 58.9528 4.51562 58.1372C3.73698 57.3216 3.12305 56.3852 2.67383 55.3279C2.22461 54.2707 2 53.1228 2 51.8843C2 50.6458 2.22461 49.4829 2.67383 48.3954C3.12305 47.308 3.7819 46.3262 4.65039 45.4502L9.41211 40.602L2.85352 33.9414C2.28451 33.3674 2 32.6878 2 31.9024C2 31.117 2.28451 30.4373 2.85352 29.8634L31.6035 0.864676C32.1725 0.290743 32.8464 0.00377588 33.625 0.00377588C34.4036 0.00377588 35.0775 0.290743 35.6465 0.864676L41.5762 6.84567C41.9655 6.72484 42.7142 6.46808 43.8223 6.07539C44.9303 5.6827 46.2331 5.24469 47.7305 4.76138C49.2279 4.27807 50.7702 3.74945 52.3574 3.17551C53.9447 2.60158 55.472 2.08806 56.9395 1.63496C58.4069 1.18185 59.6198 0.789158 60.5781 0.456881C61.5365 0.124604 62.1354 -0.0264311 62.375 0.00377588ZM16.0156 43.5019C15.1471 43.5019 14.3984 43.8191 13.7695 44.4534L8.69336 49.5282C8.06445 50.1625 7.75 50.9328 7.75 51.839C7.75 52.7452 8.04948 53.5004 8.64844 54.1046C9.2474 54.7087 10.0111 55.0259 10.9395 55.0561C11.8678 55.0561 12.6315 54.754 13.2305 54.1499L18.3066 49.0751C18.9355 48.4407 19.25 47.6705 19.25 46.7642C19.25 45.858 18.9355 45.0878 18.3066 44.4534C17.6777 43.8191 16.9141 43.5019 16.0156 43.5019ZM24.6406 52.2015C24.2214 52.2015 23.8171 52.277 23.4277 52.4281C23.0384 52.5791 22.679 52.8208 22.3496 53.153L17.3184 58.2731C16.6895 58.9075 16.375 59.6777 16.375 60.584C16.375 61.46 16.6895 62.2 17.3184 62.8042C17.9473 63.4083 18.7109 63.7255 19.6094 63.7557C20.0286 63.7557 20.4329 63.6802 20.8223 63.5291C21.2116 63.3781 21.571 63.1516 21.9004 62.8495L26.9316 57.7294C27.5605 57.095 27.875 56.3399 27.875 55.4639C27.875 54.5577 27.5605 53.7874 26.9316 53.153C26.3027 52.5187 25.5391 52.2015 24.6406 52.2015ZM33.2656 60.9011C32.3971 60.9011 31.6484 61.2183 31.0195 61.8527L25.9434 66.9274C25.3145 67.5618 25 68.3321 25 69.2383C25 70.1445 25.2995 70.8997 25.8984 71.5038C26.4974 72.1079 27.2611 72.4251 28.1895 72.4553C29.1178 72.4553 29.8815 72.1533 30.4805 71.5491L35.5566 66.4743C36.1855 65.84 36.5 65.0697 36.5 64.1635C36.5 63.2573 36.1855 62.487 35.5566 61.8527C34.9277 61.2183 34.1641 60.9011 33.2656 60.9011ZM33.625 77.9832C33.625 78.8592 33.9395 79.5993 34.5684 80.2034C35.1973 80.8076 35.9609 81.1247 36.8594 81.1549C37.2786 81.1549 37.6829 81.0794 38.0723 80.9284C38.4616 80.7774 38.821 80.5508 39.1504 80.2487L44.1816 75.1286C44.8105 74.4943 45.125 73.7391 45.125 72.8631C45.125 71.9569 44.8105 71.1866 44.1816 70.5523C43.5527 69.9179 42.7891 69.6008 41.8906 69.6008C41.4714 69.6008 41.0671 69.6763 40.6777 69.8273C40.2884 69.9783 39.929 70.22 39.5996 70.5523L34.5684 75.6724C33.9395 76.3067 33.625 77.077 33.625 77.9832ZM79.2656 58.0013C80.1341 58.0013 80.8828 57.6841 81.5117 57.0497C82.1406 56.4154 82.4701 55.6602 82.5 54.7842C82.5 53.878 82.1855 53.1077 81.5566 52.4734L53.166 23.7918C53.0762 23.7012 52.9264 23.6257 52.7168 23.5653C52.5072 23.5048 52.2975 23.4444 52.0879 23.384C51.8783 23.3236 51.6536 23.2783 51.4141 23.2481C51.1745 23.2179 50.9948 23.2028 50.875 23.2028C50.0964 23.2028 49.3626 23.3538 48.6738 23.6559C47.985 23.9579 47.3711 24.3657 46.832 24.8793C46.293 25.3928 45.8737 26.012 45.5742 26.737C45.2747 27.462 45.125 28.2171 45.125 29.0025C45.125 30.6035 44.8255 32.0987 44.2266 33.4883C43.6276 34.8778 42.804 36.1163 41.7559 37.2037C40.7077 38.2912 39.4948 39.1219 38.1172 39.6958C36.7396 40.2697 35.2422 40.5718 33.625 40.602C32.4271 40.602 31.304 40.3755 30.2559 39.9224C29.2077 39.4692 28.2943 38.85 27.5156 38.0646C26.737 37.2792 26.123 36.3579 25.6738 35.3007C25.2246 34.2434 25 33.1107 25 31.9024C25 31.1774 25.0749 30.3769 25.2246 29.5009C25.3743 28.6249 25.6139 27.8395 25.9434 27.1448L34.3438 10.1533C34.6133 9.67002 35.0176 9.27733 35.5566 8.97526L33.625 7.02691L8.91797 31.9024L14.9824 37.974C16.3301 37.823 17.6029 37.9136 18.8008 38.2459C19.9987 38.5781 21.0469 39.137 21.9453 39.9224C22.8438 40.7077 23.5625 41.6593 24.1016 42.7769C24.6406 43.8946 24.9251 45.1482 24.9551 46.5377C26.153 46.5981 27.276 46.8398 28.3242 47.2627C29.3724 47.6856 30.2708 48.2897 31.0195 49.0751C31.7682 49.8605 32.3822 50.7667 32.8613 51.7937C33.3405 52.8208 33.5801 53.9686 33.5801 55.2373C34.778 55.2977 35.901 55.5394 36.9492 55.9623C37.9974 56.3852 38.8958 56.9893 39.6445 57.7747C40.3932 58.5601 41.0072 59.4663 41.4863 60.4933C41.9655 61.5204 42.2051 62.6682 42.2051 63.9369C43.4329 63.9974 44.571 64.2541 45.6191 64.7072C46.6673 65.1603 47.5807 65.7796 48.3594 66.5649C49.138 67.3503 49.752 68.2868 50.2012 69.3742C50.6504 70.4617 50.875 71.6246 50.875 72.8631C50.875 74.2224 50.6055 75.4911 50.0664 76.6692C49.5273 77.8473 48.7487 78.8743 47.7305 79.7503C48.1797 80.1732 48.584 80.5206 48.9434 80.7925C49.3027 81.0643 49.8268 81.2002 50.5156 81.2002C51.3841 81.2002 52.1328 80.8831 52.7617 80.2487C53.3906 79.6144 53.7201 78.8592 53.75 77.9832C53.75 77.077 53.4355 76.3067 52.8066 75.6724L56.8496 71.5491L59.7695 74.449C60.4583 75.0833 61.207 75.4005 62.0156 75.4005C62.8841 75.4005 63.6328 75.0833 64.2617 74.449C64.8906 73.8146 65.2201 73.0595 65.25 72.1835C65.25 71.2772 64.9355 70.507 64.3066 69.8726L59.2305 64.7525L63.3184 60.6746L68.3496 65.7494C68.9785 66.3837 69.7422 66.7009 70.6406 66.7009C71.5391 66.7009 72.3027 66.3837 72.9316 65.7494C73.5605 65.115 73.875 64.3447 73.875 63.4385C73.875 62.5323 73.5605 61.762 72.9316 61.1277L67.8555 56.0529L71.9434 51.9296L77.0195 57.0497C77.6484 57.6841 78.3971 58.0013 79.2656 58.0013ZM87.0371 31.9024L61.6113 6.21132L38.9707 13.8235L31.1543 29.5916C31.0046 29.8634 30.8997 30.241 30.8398 30.7243C30.7799 31.2076 30.75 31.6003 30.75 31.9024C30.75 32.6878 31.0345 33.3674 31.6035 33.9414C32.1725 34.5153 32.8464 34.8023 33.625 34.8023C34.4336 34.8023 35.1823 34.6512 35.8711 34.3492C36.5599 34.0471 37.1589 33.6393 37.668 33.1258C38.1771 32.6123 38.5964 31.993 38.9258 31.268C39.2552 30.5431 39.4049 29.7879 39.375 29.0025C39.375 27.4015 39.6745 25.9063 40.2734 24.5168C40.8724 23.1272 41.696 21.8888 42.7441 20.8013C43.7923 19.7139 45.0052 18.8832 46.3828 18.3092C47.7604 17.7353 49.2578 17.4332 50.875 17.403C51.3542 17.403 51.8633 17.4483 52.4023 17.539C52.9414 17.6296 53.5104 17.7504 54.1094 17.9014C54.7083 18.0525 55.2324 18.2639 55.6816 18.5358C56.1309 18.8076 56.5651 19.1248 56.9844 19.4873L78.1875 40.8739L87.0371 31.9024Z" fill="#2C939E"/>
</g>
<defs>
<clipPath id="clip0_651_26941">
<rect width="95" height="95" fill="white" transform="translate(0.800781 0.401978)"/>
</clipPath>
</defs>
</svg>
