<svg width="544" height="119" viewBox="0 0 544 119" fill="none" xmlns="http://www.w3.org/2000/svg">
<path d="M542.061 94.9393C542.646 95.5251 542.646 96.4749 542.061 97.0607L532.515 106.607C531.929 107.192 530.979 107.192 530.393 106.607C529.808 106.021 529.808 105.071 530.393 104.485L538.879 96L530.393 87.5147C529.808 86.9289 529.808 85.9792 530.393 85.3934C530.979 84.8076 531.929 84.8076 532.515 85.3934L542.061 94.9393ZM4.5 -1.78873e-08L4.5 5.25L1.5 5.25L1.5 1.78873e-08L4.5 -1.78873e-08ZM4.5 15.75L4.5 26.25L1.5 26.25L1.5 15.75L4.5 15.75ZM4.5 36.75L4.5 47.25L1.5 47.25L1.5 36.75L4.5 36.75ZM4.5 57.75L4.5 68.25L1.5 68.25L1.5 57.75L4.5 57.75ZM4.5 78.75L4.5 84L1.5 84L1.5 78.75L4.5 78.75ZM4.5 84C4.5 85.4265 4.78363 86.7829 5.29616 88.0189L2.52498 89.168C1.86404 87.5742 1.5 85.8277 1.5 84L4.5 84ZM10.9811 93.7038C12.2171 94.2164 13.5735 94.5 15 94.5L15 97.5C13.1723 97.5 11.4258 97.136 9.83197 96.475L10.9811 93.7038ZM15 94.5L20.0577 94.5L20.0577 97.5L15 97.5L15 94.5ZM30.1731 94.5L40.2885 94.5L40.2885 97.5L30.1731 97.5L30.1731 94.5ZM50.4038 94.5L60.5192 94.5L60.5192 97.5L50.4038 97.5L50.4038 94.5ZM70.6346 94.5L80.75 94.5L80.75 97.5L70.6346 97.5L70.6346 94.5ZM90.8654 94.5L100.981 94.5L100.981 97.5L90.8654 97.5L90.8654 94.5ZM111.096 94.5L121.212 94.5L121.212 97.5L111.096 97.5L111.096 94.5ZM131.327 94.5L141.442 94.5L141.442 97.5L131.327 97.5L131.327 94.5ZM151.558 94.5L161.673 94.5L161.673 97.5L151.558 97.5L151.558 94.5ZM171.788 94.5L181.904 94.5L181.904 97.5L171.788 97.5L171.788 94.5ZM192.019 94.5L202.135 94.5L202.135 97.5L192.019 97.5L192.019 94.5ZM212.25 94.5L222.365 94.5L222.365 97.5L212.25 97.5L212.25 94.5ZM232.481 94.5L242.596 94.5L242.596 97.5L232.481 97.5L232.481 94.5ZM252.712 94.5L262.827 94.5L262.827 97.5L252.712 97.5L252.712 94.5ZM272.942 94.5L283.058 94.5L283.058 97.5L272.942 97.5L272.942 94.5ZM293.173 94.5L303.289 94.5L303.289 97.5L293.173 97.5L293.173 94.5ZM313.404 94.5L323.519 94.5L323.519 97.5L313.404 97.5L313.404 94.5ZM333.635 94.5L343.75 94.5L343.75 97.5L333.635 97.5L333.635 94.5ZM353.865 94.5L363.981 94.5L363.981 97.5L353.865 97.5L353.865 94.5ZM374.096 94.5L384.212 94.5L384.212 97.5L374.096 97.5L374.096 94.5ZM394.327 94.5L404.442 94.5L404.442 97.5L394.327 97.5L394.327 94.5ZM414.558 94.5L424.673 94.5L424.673 97.5L414.558 97.5L414.558 94.5ZM434.789 94.5L444.904 94.5L444.904 97.5L434.789 97.5L434.789 94.5ZM455.019 94.5L465.135 94.5L465.135 97.5L455.019 97.5L455.019 94.5ZM475.25 94.5L485.365 94.5L485.365 97.5L475.25 97.5L475.25 94.5ZM495.481 94.5L505.596 94.5L505.596 97.5L495.481 97.5L495.481 94.5ZM515.712 94.5L525.827 94.5L525.827 97.5L515.712 97.5L515.712 94.5ZM535.942 94.5L541 94.5L541 97.5L535.942 97.5L535.942 94.5ZM543.121 93.8787C544.293 95.0503 544.293 96.9497 543.121 98.1213L524.029 117.213C522.858 118.385 520.958 118.385 519.787 117.213C518.615 116.042 518.615 114.142 519.787 112.971L536.757 96L519.787 79.0294C518.615 77.8579 518.615 75.9584 519.787 74.7868C520.958 73.6152 522.858 73.6152 524.029 74.7868L543.121 93.8787ZM6 -3.57746e-08L6 5.25L6.26056e-08 5.25L0 3.57746e-08L6 -3.57746e-08ZM6 15.75L6 26.25L3.13028e-07 26.25L1.87817e-07 15.75L6 15.75ZM6 36.75L6 47.25L5.63451e-07 47.25L4.38239e-07 36.75L6 36.75ZM6 57.75L6 68.25L8.13873e-07 68.25L6.88662e-07 57.75L6 57.75ZM6 78.75L6 84L1.00169e-06 84L9.39084e-07 78.75L6 78.75ZM6 84C6 85.2259 6.24342 86.3873 6.68175 87.4443L1.13939 89.7426C0.404249 87.9698 1.02588e-06 86.0284 1.00169e-06 84L6 84ZM11.5557 92.3183C12.6127 92.7566 13.7741 93 15 93L15 99C12.9717 99 11.0302 98.5958 9.25739 97.8606L11.5557 92.3183ZM15 93L20.0577 93L20.0577 99L15 99L15 93ZM30.1731 93L40.2885 93L40.2885 99L30.1731 99L30.1731 93ZM50.4038 93L60.5192 93L60.5192 99L50.4038 99L50.4038 93ZM70.6346 93L80.75 93L80.75 99L70.6346 99L70.6346 93ZM90.8654 93L100.981 93L100.981 99L90.8654 99L90.8654 93ZM111.096 93L121.212 93L121.212 99L111.096 99L111.096 93ZM131.327 93L141.442 93L141.442 99L131.327 99L131.327 93ZM151.558 93L161.673 93L161.673 99L151.558 99L151.558 93ZM171.788 93L181.904 93L181.904 99L171.788 99L171.788 93ZM192.019 93L202.135 93L202.135 99L192.019 99L192.019 93ZM212.25 93L222.365 93L222.365 99L212.25 99L212.25 93ZM232.481 93L242.596 93L242.596 99L232.481 99L232.481 93ZM252.712 93L262.827 93L262.827 99L252.712 99L252.712 93ZM272.942 93L283.058 93L283.058 99L272.942 99L272.942 93ZM293.173 93L303.289 93L303.289 99L293.173 99L293.173 93ZM313.404 93L323.519 93L323.519 99L313.404 99L313.404 93ZM333.635 93L343.75 93L343.75 99L333.635 99L333.635 93ZM353.865 93L363.981 93L363.981 99L353.865 99L353.865 93ZM374.096 93L384.212 93L384.212 99L374.096 99L374.096 93ZM394.327 93L404.442 93L404.442 99L394.327 99L394.327 93ZM414.558 93L424.673 93L424.673 99L414.558 99L414.558 93ZM434.789 93L444.904 93L444.904 99L434.789 99L434.789 93ZM455.019 93L465.135 93L465.135 99L455.019 99L455.019 93ZM475.25 93L485.365 93L485.365 99L475.25 99L475.25 93ZM495.481 93L505.596 93L505.596 99L495.481 99L495.481 93ZM515.712 93L525.827 93L525.827 99L515.712 99L515.712 93ZM535.942 93L541 93L541 99L535.942 99L535.942 93Z" fill="url(#paint0_linear_658_26419)"/>
<defs>
<linearGradient id="paint0_linear_658_26419" x1="541" y1="96" x2="540.112" y2="-4.73292" gradientUnits="userSpaceOnUse">
<stop stop-color="#329D71" stop-opacity="0.9"/>
<stop offset="0.214637" stop-color="#2C939E"/>
<stop offset="0.761395" stop-color="#2C939E"/>
<stop offset="1" stop-color="#2E5C9C"/>
<stop offset="1" stop-color="#2E5C9C" stop-opacity="0.8"/>
</linearGradient>
</defs>
</svg>
