<svg width="390" height="334" viewBox="0 0 390 334" fill="none" xmlns="http://www.w3.org/2000/svg">
<g clip-path="url(#clip0_354_96)">
<path d="M389.16 307.554H0V308.399H389.16V307.554Z" fill="#263238"/>
<path d="M121.907 188.554H23.126V55.8989H121.907V188.554ZM23.9709 187.709H121.062V56.7439H23.9709V187.709Z" fill="#263238"/>
<path d="M117.801 183.028H27.2324V61.357H117.801V183.028ZM28.0774 182.183H116.956V62.202H28.0774V182.183Z" fill="#263238"/>
<path d="M96.3481 154.148H48.6853V90.2621H96.3481V154.148ZM49.5302 153.303H95.5031V91.1071H49.5302V153.303Z" fill="#263238"/>
<path d="M79.5336 289.953C78.9906 287.97 78.3015 286.03 77.4719 284.149C76.5433 282.573 75.516 281.058 74.3964 279.611C73.5681 278.525 72.5523 277.595 71.3969 276.865C71.3969 276.865 77.3114 279.18 79.5843 283.033C79.3873 280.326 78.8187 277.66 77.8944 275.108C76.5003 271.661 73.1205 268.467 73.1205 268.467C73.1205 268.467 78.3507 270.486 79.804 272.835C81.2572 275.184 82.2543 280.566 82.2543 280.566C82.2543 280.566 81.2572 272.497 81.8402 268.805C82.4233 265.112 85.9044 257.728 85.9044 257.728C85.9044 257.728 85.4481 267.436 85.4481 272.134C85.4797 274.486 85.3838 276.838 85.1608 279.18C85.1608 279.18 85.5326 274.711 88.228 273.173C90.3487 271.965 93.7538 272.835 93.7538 272.835C93.7538 272.835 90.56 274.195 89.2588 276.696C87.6449 279.806 86.5127 284.259 87.0704 283.777C88.6158 282.818 90.341 282.185 92.14 281.918C93.3316 281.959 94.4938 282.299 95.5197 282.907C95.5197 282.907 88.2533 284.596 87.383 289.953H79.5336Z" fill="#FFA629"/>
<path d="M87.3746 290.376H79.5336C79.4385 290.377 79.346 290.346 79.2708 290.287C79.1957 290.229 79.1424 290.147 79.1196 290.055C78.587 288.094 77.9063 286.176 77.0833 284.318C76.1684 282.772 75.1582 281.285 74.0584 279.865C73.2627 278.825 72.2903 277.932 71.1857 277.229C71.0934 277.175 71.0248 277.089 70.9934 276.987C70.9621 276.886 70.9704 276.776 71.0167 276.68C71.0641 276.585 71.1445 276.512 71.2427 276.473C71.3408 276.434 71.4498 276.432 71.549 276.468C71.7687 276.553 76.3567 278.369 79.0098 281.496C78.7659 279.368 78.2667 277.277 77.5227 275.269C76.1792 271.948 72.884 268.813 72.8502 268.779C72.779 268.712 72.7334 268.623 72.721 268.525C72.7087 268.428 72.7305 268.33 72.7826 268.247C72.8347 268.165 72.9136 268.103 73.006 268.072C73.0983 268.042 73.1985 268.044 73.2895 268.078C73.5092 268.163 78.6718 270.174 80.1842 272.616C80.676 273.477 81.0726 274.389 81.3671 275.336C81.1828 273.139 81.2054 270.93 81.4347 268.737C82.0177 265.028 85.3975 257.854 85.5411 257.55C85.5817 257.462 85.6522 257.39 85.7403 257.348C85.8284 257.307 85.9284 257.297 86.0227 257.322C86.1172 257.344 86.2012 257.398 86.2598 257.475C86.3185 257.552 86.3482 257.648 86.3438 257.745C86.3438 257.846 85.8875 267.495 85.8875 272.109C85.8875 273.317 85.8875 274.364 85.8368 275.26C86.3083 274.231 87.0762 273.366 88.0421 272.776C90.2727 271.5 93.7285 272.362 93.8722 272.404C93.9574 272.424 94.0339 272.471 94.0903 272.538C94.1466 272.605 94.1798 272.689 94.1848 272.776C94.1948 272.864 94.1754 272.954 94.1296 273.03C94.0837 273.107 94.0141 273.166 93.9313 273.198C93.9313 273.198 90.8642 274.534 89.6475 276.866C88.6559 278.834 87.9096 280.917 87.4253 283.067C88.8645 282.237 90.4515 281.695 92.0978 281.47C93.376 281.503 94.6243 281.863 95.7226 282.518C95.7966 282.56 95.8558 282.624 95.8921 282.701C95.9284 282.779 95.94 282.865 95.9253 282.949C95.9124 283.032 95.875 283.11 95.8177 283.171C95.7605 283.233 95.6862 283.276 95.6043 283.295C95.5367 283.295 88.6082 284.985 87.7886 289.996C87.7783 290.099 87.7304 290.195 87.654 290.265C87.5777 290.335 87.4782 290.374 87.3746 290.376ZM79.8547 289.531H87.0282C87.8731 285.416 92.2837 283.498 94.3453 282.772C93.6628 282.454 92.9182 282.292 92.1654 282.298C90.444 282.576 88.7935 283.187 87.307 284.098C87.2251 284.166 87.122 284.203 87.0155 284.203C86.909 284.203 86.8059 284.166 86.724 284.098C85.9889 283.515 87.8731 278.437 88.8955 276.494C89.7518 275.04 90.9834 273.844 92.4611 273.03C91.1063 272.792 89.7115 272.966 88.4561 273.528C86.2762 274.77 85.7185 278.209 85.6171 279.029C85.6171 279.147 85.6171 279.214 85.6171 279.223C85.6044 279.334 85.5484 279.435 85.4614 279.504C85.3743 279.574 85.2633 279.607 85.1524 279.595C85.098 279.589 85.0451 279.573 84.9968 279.548C84.9486 279.522 84.9059 279.487 84.8714 279.444C84.8368 279.402 84.811 279.353 84.7954 279.3C84.7798 279.248 84.7748 279.193 84.7807 279.138C84.7807 279.138 84.7807 279.037 84.7807 278.902C84.8483 278.217 85.0426 275.945 85.0426 272.142C85.0426 268.856 85.2707 263.068 85.4059 259.916C84.3328 262.358 82.6514 266.464 82.2712 268.881C81.7051 272.472 82.6768 280.448 82.6852 280.524C82.6935 280.58 82.6909 280.636 82.6773 280.691C82.6638 280.745 82.6396 280.796 82.6063 280.841C82.573 280.886 82.531 280.925 82.483 280.954C82.4349 280.982 82.3816 281.002 82.3261 281.01C82.2706 281.018 82.2141 281.016 82.1596 281.002C82.1052 280.988 82.054 280.964 82.0088 280.931C81.9637 280.898 81.9256 280.856 81.8967 280.808C81.8678 280.76 81.8486 280.706 81.8403 280.651C81.8403 280.6 80.8433 275.319 79.4491 273.046C78.6042 271.728 76.475 270.512 74.878 269.667C76.2705 271.223 77.4109 272.988 78.2578 274.897C79.195 277.492 79.7639 280.205 79.9476 282.957C79.9533 283.053 79.9263 283.148 79.8711 283.226C79.8158 283.305 79.7355 283.362 79.6435 283.388C79.5531 283.416 79.456 283.411 79.3684 283.376C79.2808 283.341 79.2079 283.277 79.1618 283.194C77.8892 281.314 76.1784 279.771 74.1767 278.699C74.3373 278.885 74.5063 279.088 74.6668 279.299C75.8097 280.774 76.8567 282.32 77.8015 283.929C78.6133 285.747 79.2993 287.619 79.8547 289.531Z" fill="#263238"/>
<path d="M86.3438 287.808C86.3438 287.808 86.6142 282.273 84.8567 280.651C83.0992 279.029 81.2235 279.629 80.4039 281.327C79.5843 283.025 80.5391 286.996 80.5391 286.996C80.5391 286.996 81.7558 284.977 82.2965 284.977C82.8373 284.977 82.9725 287.808 82.9725 287.808" fill="#FFA629"/>
<path d="M82.9726 288.23C82.8634 288.23 82.7584 288.188 82.6797 288.112C82.6009 288.037 82.5545 287.933 82.5501 287.824C82.5266 287.025 82.4103 286.231 82.2037 285.458C81.7023 285.991 81.2656 286.581 80.9025 287.216C80.86 287.288 80.7971 287.345 80.722 287.381C80.6468 287.417 80.5626 287.43 80.48 287.419C80.3964 287.407 80.3185 287.37 80.2565 287.312C80.1946 287.255 80.1517 287.18 80.1336 287.098C80.1336 286.929 79.145 282.966 80.0238 281.183C80.2221 280.729 80.5241 280.327 80.9055 280.01C81.287 279.693 81.7374 279.47 82.2206 279.358C82.7541 279.283 83.2978 279.337 83.8063 279.515C84.3149 279.693 84.7735 279.989 85.1441 280.38C87.0283 282.07 86.7748 287.63 86.7663 287.867C86.7642 287.922 86.7511 287.976 86.7277 288.026C86.7043 288.076 86.6712 288.121 86.6303 288.158C86.5893 288.195 86.5414 288.223 86.4893 288.241C86.4372 288.259 86.382 288.267 86.327 288.264C86.2715 288.261 86.217 288.248 86.1665 288.225C86.1161 288.202 86.0708 288.169 86.0331 288.128C85.9954 288.087 85.9662 288.039 85.947 287.987C85.9278 287.935 85.9191 287.88 85.9214 287.824C85.9974 286.337 85.9214 282.214 84.5695 280.997C84.2998 280.69 83.96 280.453 83.5789 280.306C83.1979 280.159 82.787 280.106 82.3811 280.152C82.0275 280.239 81.699 280.407 81.4217 280.644C81.1445 280.88 80.9262 281.177 80.7842 281.513C80.311 282.501 80.5138 284.529 80.7842 285.898C81.2996 285.171 81.8657 284.554 82.3304 284.554C82.6093 284.554 83.2683 284.554 83.4288 287.791C83.4311 287.846 83.4224 287.901 83.4033 287.953C83.3841 288.006 83.3548 288.053 83.3172 288.094C83.2795 288.135 83.2341 288.168 83.1837 288.191C83.1333 288.215 83.0788 288.228 83.0233 288.23H82.9726Z" fill="#263238"/>
<path d="M85.3974 286.473H85.2368C85.1349 286.426 85.0545 286.343 85.0121 286.239C84.9697 286.135 84.9685 286.02 85.0087 285.915C85.1128 285.669 85.1202 285.394 85.0293 285.143C84.9384 284.892 84.7559 284.685 84.5186 284.563C83.6315 284.065 82.6344 285.256 82.6175 285.264C82.5831 285.308 82.5403 285.344 82.4916 285.37C82.443 285.397 82.3895 285.414 82.3343 285.419C82.2792 285.425 82.2235 285.419 82.1705 285.403C82.1176 285.386 82.0684 285.359 82.0261 285.324C81.9403 285.253 81.886 285.151 81.8749 285.04C81.8638 284.929 81.8969 284.819 81.9669 284.732C82.0261 284.656 83.4287 282.983 84.9327 283.82C85.3477 284.046 85.6639 284.419 85.82 284.865C85.9761 285.312 85.961 285.8 85.7776 286.236C85.7428 286.307 85.6886 286.367 85.6214 286.409C85.5542 286.451 85.4766 286.473 85.3974 286.473Z" fill="#263238"/>
<path d="M90.1206 315.665H76.8128L71.1011 311.753L76.8128 288.23H90.1206L95.5619 310.68L90.1206 315.665Z" fill="#C9C9C9"/>
<path d="M90.1207 316.087H76.8129C76.728 316.088 76.645 316.061 76.5763 316.011L70.8646 312.107C70.7944 312.059 70.7407 311.99 70.7106 311.91C70.6804 311.83 70.6752 311.743 70.6956 311.66L76.3989 288.128C76.423 288.037 76.4767 287.956 76.5515 287.898C76.6264 287.84 76.7182 287.808 76.8129 287.807H90.1207C90.2147 287.807 90.306 287.838 90.3797 287.897C90.4535 287.955 90.5051 288.037 90.5262 288.128L95.9761 310.578C95.9942 310.652 95.9921 310.73 95.9698 310.803C95.9474 310.875 95.9058 310.941 95.8493 310.992L90.4079 315.977C90.3274 316.045 90.2261 316.084 90.1207 316.087ZM76.9397 315.242H89.9517L95.0973 310.536L89.7911 288.652H77.1171L71.5828 311.575L76.9397 315.242Z" fill="#263238"/>
<path d="M86.9945 300.329L76.4919 288.509L77.1256 287.951L86.6143 298.631L89.7152 288.111L90.5263 288.348L86.9945 300.329Z" fill="#263238"/>
<path d="M71.1097 312.176L71.0928 311.331L87.8732 310.993L86.3861 299.535L87.2226 299.426L88.828 311.812L71.1097 312.176Z" fill="#263238"/>
<path d="M76.9565 316.062L76.6692 315.268L88.3039 310.984L95.5197 310.257L95.6042 311.102L88.4476 311.82L76.9565 316.062Z" fill="#263238"/>
<path d="M222.978 307.428L158.873 311.787L204.66 321.817L263.966 314.407L222.978 307.428Z" fill="white"/>
<path d="M204.66 322.239H204.584L158.797 312.21C158.742 312.206 158.687 312.191 158.638 312.166C158.588 312.141 158.543 312.107 158.507 312.065C158.47 312.023 158.443 311.974 158.425 311.922C158.407 311.869 158.4 311.813 158.404 311.758C158.408 311.702 158.423 311.648 158.448 311.598C158.472 311.548 158.507 311.504 158.549 311.468C158.591 311.431 158.639 311.403 158.692 311.386C158.745 311.368 158.801 311.361 158.856 311.365L222.961 307.005H223.063L264.059 313.976C264.158 313.995 264.247 314.049 264.31 314.128C264.374 314.207 264.407 314.305 264.405 314.407C264.404 314.507 264.367 314.603 264.3 314.677C264.233 314.752 264.141 314.8 264.042 314.812L204.728 322.231L204.66 322.239ZM161.847 312.007L204.677 321.394L261.076 314.339L222.953 307.85L161.847 312.007Z" fill="#263238"/>
<path d="M189.063 217.865C189.063 217.865 164.872 228.207 156.558 231.451C148.244 234.696 144.442 237.661 142.972 246.82C141.501 255.98 136.761 286.997 136.761 286.997C136.761 286.997 137.944 294.382 144.442 296.748C150.939 299.114 153.888 298.226 153.888 298.226L155.071 307.977H243.722L249.636 278.725L266.18 305.611L289.526 305.02C288.606 295.743 285.464 286.825 280.367 279.021C271.79 265.722 264.701 255.684 264.701 255.684C264.701 255.684 259.252 233.665 249.932 230.86C244.491 229.229 230.727 224.1 227.178 222.588C223.629 221.075 216.768 217.941 216.768 217.941L189.063 217.865Z" fill="white"/>
<path d="M243.722 308.399H155.079C154.977 308.398 154.879 308.36 154.803 308.291C154.726 308.223 154.678 308.129 154.665 308.028L153.533 298.733C152.435 298.894 149.461 299.029 144.298 297.153C137.648 294.728 136.398 287.386 136.347 287.073C136.339 287.031 136.339 286.988 136.347 286.946C136.347 286.634 141.087 255.811 142.549 246.761C144.062 237.399 148.05 234.349 156.406 231.071C164.577 227.86 188.649 217.552 188.894 217.484C188.948 217.465 189.008 217.465 189.063 217.484L216.76 217.56C216.821 217.562 216.881 217.577 216.937 217.603C217.005 217.603 223.84 220.788 227.338 222.241C230.836 223.695 244.583 228.857 250.042 230.496C259.336 233.285 264.667 253.876 265.09 255.54C265.707 256.427 272.585 266.237 280.704 278.835C285.824 286.706 288.987 295.686 289.931 305.028C289.934 305.084 289.926 305.139 289.907 305.191C289.888 305.244 289.859 305.291 289.821 305.332C289.784 305.374 289.738 305.407 289.687 305.431C289.637 305.454 289.581 305.466 289.525 305.467L266.18 306.059C266.106 306.058 266.034 306.039 265.969 306.003C265.904 305.968 265.849 305.917 265.808 305.856L249.83 279.883L244.136 308.087C244.11 308.177 244.056 308.256 243.981 308.312C243.906 308.369 243.815 308.399 243.722 308.399ZM155.46 307.554H243.375L249.214 278.624C249.232 278.542 249.274 278.468 249.334 278.41C249.394 278.352 249.471 278.314 249.553 278.299C249.635 278.285 249.72 278.295 249.796 278.329C249.873 278.362 249.938 278.418 249.983 278.489L266.408 305.163L289.061 304.589C288.037 295.554 284.937 286.878 280.003 279.241C271.554 266.11 264.422 256.013 264.346 255.912C264.318 255.871 264.298 255.825 264.287 255.777C264.228 255.557 258.787 233.961 249.797 231.274C244.321 229.626 230.465 224.43 226.983 222.985C223.68 221.616 217.436 218.76 216.641 218.372L189.122 218.295C187.576 218.955 164.619 228.73 156.685 231.857C148.481 235.076 144.813 237.881 143.36 246.897C141.932 255.735 137.446 285.35 137.167 286.997C137.302 287.707 138.688 294.221 144.568 296.359C150.813 298.632 153.728 297.838 153.753 297.829C153.812 297.812 153.875 297.808 153.936 297.817C153.997 297.825 154.056 297.847 154.108 297.88C154.159 297.914 154.202 297.959 154.234 298.012C154.266 298.064 154.286 298.123 154.294 298.184L155.46 307.554Z" fill="#263238"/>
<path d="M264.693 255.684C264.693 255.684 259.243 233.665 249.923 230.86C244.482 229.229 230.718 224.1 227.169 222.588C223.621 221.075 216.76 217.941 216.76 217.941L189.063 217.865C189.063 217.865 164.872 228.207 156.558 231.451C148.244 234.696 144.442 237.661 142.972 246.82C142.481 249.854 141.637 255.27 140.716 261.184C143.255 260.242 145.95 259.787 148.658 259.841C155.722 259.985 159.051 261.37 159.051 261.37L153.888 298.226L155.071 307.977H243.722L249.636 278.725L250.726 280.5C251.689 277.424 256.387 265.029 269.855 263.145C266.695 258.523 264.693 255.684 264.693 255.684Z" fill="#FFA629"/>
<path d="M243.722 308.399H155.079C154.977 308.398 154.879 308.36 154.803 308.291C154.726 308.223 154.678 308.129 154.665 308.028L153.483 298.277C153.474 298.241 153.474 298.203 153.483 298.167L158.552 261.666C155.327 260.714 151.978 260.247 148.616 260.28C145.962 260.223 143.321 260.671 140.834 261.598C140.764 261.624 140.689 261.63 140.616 261.617C140.544 261.604 140.476 261.571 140.42 261.522C140.362 261.477 140.317 261.418 140.29 261.349C140.263 261.281 140.256 261.206 140.268 261.134C141.18 255.219 142.025 249.786 142.515 246.77C144.028 237.408 148.016 234.358 156.372 231.079C164.543 227.869 188.615 217.56 188.86 217.493C188.915 217.474 188.974 217.474 189.029 217.493L216.726 217.569C216.787 217.571 216.848 217.585 216.903 217.611C216.971 217.611 223.806 220.797 227.305 222.25C230.803 223.703 244.55 228.866 250.008 230.505C259.302 233.293 264.634 253.884 265.056 255.549C265.369 256.005 267.304 258.759 270.126 262.959C270.161 263.022 270.179 263.093 270.179 263.166C270.179 263.238 270.161 263.309 270.126 263.373C270.097 263.437 270.053 263.493 269.996 263.536C269.94 263.579 269.874 263.607 269.805 263.618C256.759 265.434 252.129 277.137 251.022 280.677C250.997 280.754 250.952 280.822 250.891 280.874C250.83 280.927 250.755 280.961 250.675 280.973C250.594 280.984 250.511 280.97 250.438 280.934C250.364 280.898 250.303 280.841 250.261 280.77L249.729 279.925L244.034 308.129C244.009 308.197 243.967 308.257 243.912 308.304C243.858 308.351 243.792 308.384 243.722 308.399ZM155.46 307.554H243.375L249.214 278.624C249.232 278.542 249.274 278.468 249.334 278.41C249.394 278.352 249.471 278.314 249.553 278.299C249.635 278.285 249.72 278.295 249.796 278.329C249.873 278.363 249.938 278.418 249.983 278.489L250.608 279.494C251.968 275.709 256.886 264.877 269.12 262.815C266.222 258.59 264.372 255.937 264.346 255.904C264.318 255.863 264.298 255.817 264.287 255.768C264.228 255.549 258.787 233.952 249.797 231.265C244.321 229.618 230.465 224.421 226.983 222.976C223.68 221.608 217.436 218.752 216.641 218.363L189.122 218.287C187.576 218.946 164.619 228.722 156.685 231.848C148.481 235.067 144.814 237.873 143.36 246.888C142.887 249.795 142.093 254.932 141.223 260.568C143.612 259.768 146.122 259.385 148.641 259.435C155.705 259.579 159.051 260.939 159.186 260.99C159.273 261.027 159.346 261.092 159.391 261.174C159.437 261.257 159.454 261.353 159.439 261.446L154.302 298.226L155.46 307.554Z" fill="#263238"/>
<path d="M220.562 238.912L219.717 238.777C220.649 232.711 220.726 226.545 219.945 220.458L220.79 220.332C221.586 226.505 221.509 232.76 220.562 238.912Z" fill="#263238"/>
<path d="M213.245 246.778L212.467 246.44C215.382 239.681 216.988 234.687 217.005 234.611L217.807 234.865C217.799 234.941 216.177 240.002 213.245 246.778Z" fill="#263238"/>
<path d="M250.679 255.431L249.081 276.384L249.924 276.448L251.521 255.496L250.679 255.431Z" fill="#263238"/>
<path d="M248.58 252.752H247.735V265.51H248.58V252.752Z" fill="#263238"/>
<path d="M185.666 205.689L185.852 222.698C185.852 222.698 188.226 242.266 202.311 243.914C216.396 245.562 216.76 217.941 216.76 217.941L213.828 206.238C213.828 206.238 211.293 213.919 199.751 211.908C188.209 209.897 185.666 205.689 185.666 205.689Z" fill="white"/>
<path d="M203.494 244.404C203.082 244.402 202.67 244.38 202.261 244.337C188.015 242.647 185.455 222.951 185.429 222.748L185.227 204.16L186.029 205.47C186.072 205.546 188.742 209.559 199.819 211.494C210.896 213.429 213.338 206.424 213.431 206.103L213.887 204.743L217.182 217.89V217.949C217.182 218.667 216.861 235.693 209.578 242.064C207.911 243.572 205.742 244.407 203.494 244.404ZM186.097 206.805L186.274 222.664C186.274 222.808 188.767 241.869 202.328 243.458C203.528 243.624 204.749 243.526 205.907 243.169C207.064 242.813 208.13 242.208 209.029 241.396C215.788 235.482 216.286 219.031 216.303 217.958L213.676 207.421C212.425 209.534 208.691 213.868 199.65 212.288C191.26 210.852 187.542 208.233 186.097 206.805Z" fill="#263238"/>
<path d="M209.02 212.026L209.079 211.088C206.95 212.085 203.95 212.643 199.785 211.933C188.26 209.922 185.7 205.715 185.7 205.715L185.886 222.723C186.193 224.856 186.691 226.957 187.373 229.001C191.631 224.649 209.02 212.026 209.02 212.026Z" fill="#263238"/>
<path d="M187.339 229.398H187.246C187.176 229.382 187.111 229.347 187.058 229.298C187.004 229.25 186.965 229.188 186.942 229.119C186.251 227.047 185.745 224.918 185.43 222.757L185.244 205.706C185.243 205.614 185.273 205.523 185.327 205.449C185.382 205.374 185.459 205.319 185.548 205.292C185.637 205.267 185.733 205.272 185.82 205.305C185.906 205.339 185.98 205.399 186.029 205.478C186.029 205.52 188.691 209.559 199.819 211.502C203.401 212.128 206.452 211.857 208.902 210.708C208.969 210.677 209.042 210.664 209.116 210.67C209.189 210.676 209.26 210.702 209.32 210.743C209.381 210.785 209.43 210.842 209.461 210.909C209.493 210.975 209.507 211.049 209.502 211.122L209.434 212.06C209.431 212.123 209.414 212.184 209.385 212.239C209.356 212.295 209.315 212.343 209.265 212.381C209.088 212.508 191.859 225.055 187.643 229.28C187.603 229.319 187.556 229.35 187.503 229.37C187.451 229.391 187.395 229.4 187.339 229.398ZM186.274 222.698C186.547 224.562 186.968 226.401 187.533 228.198C192.257 223.729 206.806 213.108 208.606 211.807V211.748C205.737 212.765 202.642 212.964 199.667 212.322C191.217 210.852 187.533 208.233 186.089 206.838L186.266 222.698H186.274Z" fill="#263238"/>
<path d="M178.391 192.888C178.391 192.888 182.05 206.238 184.424 208.249C186.798 210.26 197.943 218.312 206.553 215.203C215.163 212.094 217.892 199.107 217.892 195.998C217.892 192.888 215.661 179.767 215.661 179.767C215.661 179.767 214.74 169.889 213.828 166.957C212.915 164.025 211.09 160.012 203.95 158.178C196.811 156.345 190.972 158.178 188.742 159.649C186.511 161.119 176.152 178.077 176.152 178.077L178.391 192.888Z" fill="white"/>
<path d="M202.235 216.335C193.406 216.335 184.221 208.663 184.111 208.57C181.661 206.5 178.095 193.547 177.943 192.998C177.939 192.981 177.939 192.964 177.943 192.947L175.747 178.136C175.732 178.039 175.753 177.939 175.806 177.857C176.228 177.155 186.3 160.747 188.547 159.268C190.609 157.891 196.507 155.804 204.069 157.747C211.141 159.564 213.219 163.544 214.208 166.813C215.129 169.745 216.016 179.293 216.058 179.699C216.101 180.104 218.247 192.905 218.247 196.014C218.247 199.394 215.467 212.415 206.629 215.617C205.217 216.108 203.73 216.351 202.235 216.335ZM178.763 192.804C179.777 196.496 182.793 206.323 184.677 207.928C188.057 210.801 198.577 217.628 206.384 214.806C214.681 211.806 217.444 199.132 217.444 195.998C217.444 192.863 215.281 179.944 215.256 179.792C215.23 179.64 214.335 169.897 213.447 167.042C212.425 163.797 210.499 160.282 203.866 158.55C197.233 156.818 191.293 158.44 189.029 159.953C187.339 161.102 179.557 173.362 176.617 178.161L178.763 192.804Z" fill="#263238"/>
<path d="M199.616 185.377L199.151 184.676L203.258 181.938L199.903 173.286L200.689 172.982L204.288 182.259L199.616 185.377Z" fill="#263238"/>
<path d="M190.094 193.37L189.249 193.142C189.316 192.913 190.846 187.709 194.96 187.709C199.075 187.709 199.582 192.254 199.582 192.305L198.737 192.381C198.737 192.221 198.349 188.554 194.952 188.554C191.555 188.554 190.11 193.285 190.094 193.37Z" fill="#263238"/>
<path d="M195.447 174.008L183.377 176.75L183.564 177.574L195.634 174.832L195.447 174.008Z" fill="#263238"/>
<path d="M201.618 171.055L200.773 170.827C200.773 170.768 202.59 164.617 208.378 165.589L208.243 166.434C203.232 165.589 201.678 170.836 201.618 171.055Z" fill="#263238"/>
<path d="M191.15 180.087C191.957 180.087 192.611 179.308 192.611 178.347C192.611 177.386 191.957 176.606 191.15 176.606C190.342 176.606 189.688 177.386 189.688 178.347C189.688 179.308 190.342 180.087 191.15 180.087Z" fill="#263238"/>
<path d="M205.97 175.702C206.777 175.702 207.432 174.923 207.432 173.962C207.432 173.001 206.777 172.221 205.97 172.221C205.163 172.221 204.508 173.001 204.508 173.962C204.508 174.923 205.163 175.702 205.97 175.702Z" fill="#263238"/>
<path d="M200.3 160.333L194.808 159.97C194.808 159.97 193.347 165.825 192.273 167.287C191.2 168.748 190.448 165.453 190.448 165.453C190.448 165.453 193.735 164.177 185.506 172.213C177.276 180.248 176.211 178.068 176.211 178.068C176.211 178.068 177.132 187.759 177.681 189.221C178.056 190.411 178.3 191.637 178.408 192.88C178.408 192.88 174.572 191.232 172.924 189.77C171.277 188.309 171.235 184.836 171.235 184.836C171.235 184.836 165.016 187.024 165.751 184.464C166.486 181.904 170.136 178.795 170.136 178.795C170.136 178.795 164.467 177.155 164.653 175.508C164.838 173.86 169.41 174.224 169.95 173.86C170.491 173.497 177.267 151.731 184.035 151.368C190.803 151.005 194.648 152.83 194.648 152.83C194.648 152.83 189.891 147.887 193 148.436C196.109 148.985 200.131 155.196 200.317 155.753C200.503 156.311 204.888 149.171 209.459 151.731C214.031 154.292 210.009 155.753 210.009 155.753C211.471 156.833 212.696 158.201 213.608 159.774C214.519 161.347 215.097 163.09 215.306 164.895C215.848 169.204 215.911 173.56 215.492 177.882C215.492 177.882 212.746 167.456 209.637 164.169C206.528 160.882 200.3 160.333 200.3 160.333Z" fill="#263238"/>
<path d="M178.391 193.285C178.336 193.297 178.278 193.297 178.222 193.285C178.07 193.218 174.302 191.596 172.629 190.1C171.269 188.892 170.939 186.526 170.863 185.428C169.536 185.85 166.638 186.636 165.641 185.715C165.47 185.541 165.354 185.322 165.306 185.083C165.258 184.845 165.28 184.597 165.371 184.371C165.954 182.318 168.244 180.003 169.325 178.998C167.492 178.406 164.078 177.08 164.256 175.474C164.433 173.869 166.79 173.784 168.539 173.666C168.93 173.644 169.319 173.602 169.705 173.539C169.849 173.252 170.212 172.306 170.601 171.309C172.916 165.31 178.341 151.267 184.035 150.963C187.119 150.752 190.215 151.063 193.195 151.884C192.206 150.701 191.201 149.214 191.606 148.453C191.826 148.048 192.307 147.904 193.051 148.039C195.974 148.555 199.481 153.523 200.444 155.162L200.791 154.799C202.311 153.109 205.86 149.273 209.645 151.377C211.335 152.323 212.121 153.252 212.045 154.207C211.981 154.559 211.836 154.89 211.62 155.175C211.404 155.46 211.124 155.69 210.803 155.846C213.525 158.116 215.28 161.336 215.712 164.853C216.252 169.199 216.314 173.591 215.898 177.95C215.886 178.047 215.841 178.138 215.77 178.206C215.7 178.273 215.607 178.314 215.509 178.322C215.411 178.331 215.312 178.304 215.232 178.247C215.151 178.189 215.094 178.105 215.07 178.009C215.07 177.908 212.315 167.65 209.316 164.49C206.316 161.33 200.453 160.798 200.267 160.781L195.129 160.443C194.8 161.736 193.575 166.247 192.595 167.566C192.49 167.752 192.332 167.902 192.14 167.995C191.948 168.089 191.733 168.122 191.522 168.089C191.336 168.025 191.166 167.924 191.02 167.792C190.875 167.659 190.758 167.499 190.677 167.321C189.172 169.172 187.543 170.92 185.801 172.551C181.458 176.775 178.315 178.947 176.668 178.786C176.972 181.853 177.639 188.081 178.036 189.111C178.433 190.334 178.688 191.599 178.797 192.88C178.802 192.953 178.789 193.026 178.758 193.093C178.727 193.16 178.679 193.217 178.619 193.26C178.547 193.289 178.468 193.298 178.391 193.285ZM171.26 184.397C171.347 184.397 171.433 184.424 171.505 184.473C171.561 184.512 171.606 184.563 171.637 184.624C171.668 184.684 171.684 184.751 171.683 184.819C171.683 184.819 171.683 188.123 173.187 189.441C174.639 190.537 176.22 191.454 177.893 192.17C177.779 191.214 177.57 190.271 177.268 189.356C176.701 187.852 175.814 178.491 175.78 178.085C175.767 177.987 175.791 177.888 175.848 177.807C175.904 177.725 175.988 177.668 176.085 177.646C176.178 177.617 176.279 177.623 176.368 177.662C176.458 177.7 176.531 177.77 176.575 177.857C176.575 177.857 176.642 177.857 176.837 177.857C177.496 177.857 179.625 177.333 185.227 171.849C187.069 170.159 188.764 168.316 190.296 166.34C190.198 166.064 190.116 165.782 190.051 165.496C190.031 165.397 190.046 165.295 190.094 165.206C190.142 165.118 190.22 165.05 190.313 165.014C190.493 164.913 190.701 164.877 190.904 164.911C191.106 164.945 191.292 165.047 191.429 165.2C191.555 165.394 191.707 165.639 191.234 166.442C191.42 166.873 191.615 167.168 191.733 167.185C191.851 167.202 191.809 167.185 191.953 166.983C192.797 165.833 194.04 161.423 194.445 159.818C194.468 159.722 194.524 159.638 194.603 159.58C194.682 159.521 194.778 159.492 194.876 159.496L200.368 159.86C200.63 159.86 206.781 160.468 209.967 163.831C212.231 166.239 214.267 172.17 215.264 175.457C215.475 171.939 215.356 168.409 214.909 164.913C214.69 163.174 214.121 161.498 213.236 159.985C212.352 158.472 211.171 157.153 209.764 156.108C209.697 156.067 209.644 156.008 209.609 155.938C209.575 155.868 209.561 155.789 209.569 155.711C209.579 155.632 209.609 155.557 209.659 155.494C209.708 155.432 209.774 155.384 209.848 155.356C210.203 155.221 211.149 154.739 211.2 154.114C211.251 153.489 210.55 152.838 209.231 152.103C206.046 150.32 202.911 153.717 201.407 155.348C200.757 156.058 200.562 156.269 200.233 156.193C200.156 156.173 200.085 156.135 200.026 156.082C199.968 156.029 199.922 155.963 199.895 155.889C199.692 155.348 195.772 149.357 192.907 148.85C192.459 148.774 192.341 148.85 192.341 148.85C192.214 149.222 193.44 150.988 194.935 152.534C194.997 152.611 195.031 152.706 195.031 152.805C195.031 152.903 194.997 152.998 194.935 153.075C194.877 153.155 194.793 153.213 194.698 153.237C194.602 153.262 194.501 153.252 194.411 153.21C194.411 153.21 190.567 151.436 184.01 151.791C178.856 152.069 173.372 166.256 171.336 171.596C170.491 173.86 170.364 174.08 170.162 174.215C169.65 174.414 169.105 174.509 168.556 174.494C167.356 174.587 165.134 174.756 165.041 175.55C164.948 176.344 167.661 177.646 170.229 178.389C170.303 178.411 170.37 178.452 170.422 178.509C170.474 178.565 170.51 178.635 170.525 178.71C170.54 178.785 170.535 178.862 170.51 178.933C170.485 179.005 170.44 179.068 170.381 179.116C170.381 179.116 166.816 182.175 166.157 184.583C166.047 184.946 166.157 185.047 166.199 185.081C166.765 185.613 169.452 185.014 171.091 184.431L171.26 184.397Z" fill="#263238"/>
<path d="M178.391 192.888C178.391 192.888 174.167 189.965 172.722 192.153C171.277 194.342 171.26 196.547 175.468 199.656C179.676 202.766 180.951 201.853 180.951 201.853L178.391 192.888Z" fill="white"/>
<path d="M180.301 202.402C179.456 202.402 177.859 201.98 175.172 199.994C171.311 197.139 170.457 194.73 172.333 191.925C172.495 191.674 172.708 191.459 172.959 191.294C173.209 191.13 173.491 191.019 173.786 190.97C175.763 190.59 178.476 192.466 178.594 192.542C178.671 192.599 178.727 192.679 178.754 192.77L181.289 201.735C181.314 201.818 181.311 201.907 181.283 201.989C181.254 202.071 181.2 202.142 181.129 202.191C180.88 202.343 180.592 202.417 180.301 202.402ZM174.386 191.765C174.246 191.752 174.104 191.752 173.964 191.765C173.78 191.794 173.604 191.862 173.449 191.964C173.293 192.066 173.16 192.2 173.06 192.356C171.725 194.359 171.665 196.302 175.704 199.285C178.459 201.321 179.853 201.549 180.411 201.515L178.011 193.117C176.921 192.379 175.669 191.915 174.361 191.765H174.386Z" fill="#263238"/>
<path d="M216.211 182.098C216.211 182.098 218.399 178.076 220.435 181.363C222.472 184.65 217.698 193.437 217.698 193.437L216.211 182.098Z" fill="white"/>
<path d="M217.419 194.789L215.771 182.014L215.839 181.896C215.957 181.668 217.089 179.69 218.627 179.648C219.472 179.648 220.156 180.13 220.773 181.144C222.885 184.608 218.238 193.269 218.044 193.64L217.419 194.789ZM216.641 182.183L217.917 192.026C219.328 189.078 221.381 183.763 220.055 181.583C219.607 180.865 219.142 180.493 218.669 180.493C217.816 180.51 216.979 181.634 216.641 182.183Z" fill="#263238"/>
<path d="M179.996 189.416C179.996 189.416 179.084 196.361 179.996 199.656C180.909 202.952 184.931 212.457 184.931 215.381C184.931 218.304 184.753 227.818 184.753 227.818C184.753 227.818 148.54 266.043 142.321 275.557C136.102 285.071 135.916 289.634 137.386 293.115C138.857 296.596 142.321 306.828 146.892 306.828C151.463 306.828 164.264 298.379 166.283 294.39C168.303 290.402 194.082 232.212 194.082 232.212C194.082 232.212 197.191 229.829 197.732 226.906C198.272 223.982 197.368 214.282 197.368 214.282L201.593 215.567C201.593 215.567 202.691 220.873 204.128 221.05C205.564 221.228 206.139 217.214 206.139 217.214C206.139 217.214 207.051 211.722 206.502 211.181C205.953 210.641 203.215 207.151 203.215 207.151C203.215 207.151 201.754 202.766 200.833 201.481C199.912 200.197 197.36 200.569 197.36 200.569C197.36 200.569 195.67 198.921 194.436 199.293C193.203 199.665 185.142 203.678 185.142 203.678C185.142 203.678 183.317 197.645 183.452 196.361C183.587 195.077 182.903 192.339 182.354 191.063C181.805 189.788 181.272 187.768 179.996 189.416Z" fill="white"/>
<path d="M146.892 307.25C142.566 307.25 139.288 299.105 137.598 294.728C137.378 294.171 137.184 293.672 137.015 293.275C135.637 290.005 135.325 285.569 141.983 275.32C147.982 266.153 182.109 230.015 184.348 227.649C184.348 226.373 184.525 218.059 184.525 215.38C184.525 213.53 182.768 208.705 181.357 204.836C180.588 202.723 179.921 200.907 179.608 199.766C178.678 196.386 179.557 189.627 179.608 189.356C179.618 189.283 179.647 189.213 179.692 189.154C180.149 188.571 180.588 188.309 181.044 188.385C181.83 188.486 182.219 189.475 182.607 190.43C182.667 190.59 182.734 190.742 182.793 190.894C183.309 192.094 184.128 194.975 183.926 196.42C183.807 197.265 184.72 200.746 185.413 203.078C187.102 202.233 193.22 199.208 194.36 198.854C195.636 198.482 197.073 199.656 197.554 200.096C198.23 200.036 200.326 199.952 201.221 201.202C202.117 202.453 203.435 206.323 203.629 206.914C204.593 208.131 206.435 210.429 206.849 210.843C207.423 211.426 207.034 214.645 206.595 217.248C206.502 217.974 205.902 221.658 204.119 221.472C202.573 221.278 201.585 217.434 201.247 215.896L197.867 214.873C198.061 217.087 198.644 224.438 198.171 226.981C197.639 229.787 194.969 232.051 194.436 232.473C193.254 235.16 168.632 290.673 166.672 294.576C164.526 298.843 151.412 307.25 146.892 307.25ZM180.402 189.585C180.284 190.506 179.557 196.598 180.402 199.546C180.706 200.653 181.365 202.453 182.134 204.54C183.647 208.689 185.353 213.378 185.353 215.38C185.353 218.279 185.176 227.733 185.176 227.826C185.171 227.933 185.13 228.035 185.058 228.114C184.694 228.494 148.802 266.415 142.676 275.785C136.17 285.73 136.55 290.039 137.775 292.945C137.944 293.351 138.138 293.85 138.367 294.416C139.913 298.302 143.14 306.405 146.892 306.405C151.117 306.405 163.909 298.193 165.903 294.204C167.897 290.216 193.431 232.617 193.693 232.034C193.723 231.972 193.766 231.917 193.82 231.874C193.82 231.874 196.811 229.558 197.318 226.804C197.825 224.049 196.98 214.409 196.98 214.324C196.975 214.255 196.988 214.186 197.016 214.123C197.044 214.06 197.086 214.004 197.14 213.961C197.193 213.916 197.257 213.886 197.325 213.872C197.393 213.859 197.463 213.863 197.529 213.885L201.754 215.161C201.825 215.185 201.889 215.227 201.939 215.284C201.99 215.34 202.025 215.408 202.041 215.482C202.539 217.898 203.545 220.551 204.238 220.636C204.931 220.72 205.573 218.667 205.784 217.155C206.181 214.738 206.468 211.882 206.24 211.443C205.708 210.919 203.055 207.556 202.945 207.413C202.91 207.377 202.884 207.334 202.869 207.286C202.869 207.244 201.416 202.943 200.554 201.726C199.92 200.881 198.12 200.881 197.478 200.991C197.413 201 197.347 200.994 197.285 200.972C197.223 200.949 197.168 200.913 197.123 200.864C196.709 200.459 195.434 199.453 194.589 199.698C193.6 199.977 188.099 202.673 185.294 204.058C185.239 204.084 185.178 204.097 185.117 204.097C185.056 204.097 184.995 204.084 184.939 204.058C184.884 204.034 184.834 203.998 184.793 203.953C184.752 203.908 184.722 203.854 184.703 203.796C184.517 203.163 182.852 197.628 183.013 196.293C182.986 194.55 182.621 192.829 181.94 191.224L181.771 190.751C181.543 190.193 181.171 189.264 180.884 189.23C180.816 189.204 180.639 189.297 180.402 189.585Z" fill="#263238"/>
<path d="M197.156 200.211L188.601 205.164L189.024 205.895L197.579 200.942L197.156 200.211Z" fill="#263238"/>
<path d="M192.983 209.44L192.502 208.739C192.696 208.612 197.216 205.486 198.864 204.937C200.647 204.345 203.215 206.584 203.503 206.838L202.937 207.472C202.261 206.863 200.25 205.359 199.126 205.74C197.597 206.255 193.034 209.407 192.983 209.44Z" fill="#263238"/>
<path d="M205.598 216.234C205.328 214.299 203.063 212.702 201.542 211.646L201.12 211.341C200.03 210.572 196.583 211.172 195.341 211.468L195.146 210.623C195.636 210.505 200.022 209.499 201.61 210.623L202.024 210.919C203.655 212.06 206.122 213.783 206.435 216.09L205.598 216.234Z" fill="#263238"/>
<path d="M204.255 296.131C204.255 296.131 194.918 295.692 194.191 297.153C193.465 298.615 191.564 306.194 191.276 307.8C190.989 309.405 193.313 309.836 194.656 308.383C196 306.929 199.726 302.105 199.726 302.105L204.255 296.131Z" fill="white"/>
<path d="M192.755 309.684C192.414 309.689 192.076 309.616 191.766 309.473C191.445 309.324 191.185 309.068 191.031 308.749C190.877 308.43 190.838 308.068 190.922 307.724C191.209 306.11 193.101 298.505 193.87 296.959C194.639 295.413 202.075 295.599 204.331 295.709C204.408 295.712 204.482 295.736 204.547 295.778C204.611 295.821 204.663 295.88 204.696 295.949C204.729 296.019 204.742 296.096 204.734 296.173C204.727 296.25 204.698 296.323 204.652 296.385L200.131 302.367C199.971 302.569 196.304 307.208 195.003 308.661C194.721 308.98 194.375 309.236 193.988 309.412C193.6 309.588 193.18 309.681 192.755 309.684ZM201.39 296.486C198.011 296.486 194.893 296.773 194.631 297.331C193.955 298.683 192.096 306.135 191.75 307.867C191.701 308.033 191.716 308.211 191.791 308.367C191.865 308.523 191.995 308.646 192.155 308.712C192.544 308.85 192.966 308.864 193.363 308.754C193.761 308.644 194.115 308.414 194.377 308.095C195.662 306.667 199.447 301.894 199.447 301.851L203.477 296.52C202.734 296.494 202.049 296.486 201.348 296.486H201.39Z" fill="#263238"/>
<path d="M210.296 279.722L194.631 308.382L197.25 308.813L212.459 280.93C212.543 280.775 212.592 280.603 212.604 280.427C212.617 280.251 212.591 280.074 212.529 279.909C212.468 279.743 212.372 279.593 212.247 279.467C212.123 279.342 211.973 279.244 211.808 279.181C211.533 279.076 211.229 279.073 210.952 279.172C210.675 279.271 210.442 279.466 210.296 279.722Z" fill="white"/>
<path d="M197.25 309.236H197.183L194.555 308.797C194.489 308.783 194.428 308.755 194.375 308.714C194.322 308.673 194.28 308.62 194.251 308.56C194.22 308.501 194.203 308.436 194.203 308.37C194.203 308.304 194.22 308.238 194.251 308.18L209.924 279.511C210.121 279.168 210.432 278.906 210.802 278.768C211.173 278.631 211.579 278.628 211.952 278.759C212.175 278.84 212.378 278.969 212.546 279.137C212.714 279.305 212.843 279.508 212.924 279.731C213.005 279.953 213.038 280.189 213.022 280.425C213.006 280.661 212.941 280.891 212.831 281.1L197.622 308.982C197.589 309.055 197.537 309.117 197.472 309.162C197.406 309.206 197.33 309.232 197.25 309.236ZM195.29 308.061L197.031 308.349L212.104 280.702C212.159 280.599 212.192 280.486 212.2 280.37C212.209 280.253 212.194 280.137 212.155 280.027C212.091 279.889 211.992 279.771 211.867 279.685C211.742 279.599 211.597 279.548 211.446 279.538C211.294 279.527 211.143 279.558 211.008 279.626C210.872 279.694 210.758 279.798 210.676 279.925L195.29 308.061Z" fill="#263238"/>
<path d="M285.056 290.106C286.895 291.438 288.51 293.055 289.838 294.897C291.435 297.432 294.164 306.963 294.164 311.069C294.164 315.176 264.33 315.852 256.362 315.852C248.394 315.852 227.397 312.658 227.397 312.658C227.397 312.658 218.517 314.939 215.095 314.939C211.673 314.939 205.074 314.939 203.03 314.255C201.084 313.692 199.11 313.235 197.115 312.886C197.115 312.886 193.465 314.483 192.333 313.114C191.2 311.745 194.606 306.963 195.974 304.234C197.343 301.505 205.269 293.757 207.803 292.844C210.338 291.931 230.574 300.136 230.574 300.136C230.574 300.136 249.94 297.601 258.136 294.669C266.332 291.737 272.035 291.019 273.852 291.019" fill="white"/>
<path d="M256.362 316.274C248.698 316.274 228.918 313.309 227.457 313.089C226.485 313.334 218.424 315.362 215.129 315.362C211.606 315.362 205.04 315.362 202.928 314.652C201.041 314.107 199.126 313.665 197.191 313.326C196.439 313.638 193.245 314.846 192.028 313.385C190.989 312.134 192.679 309.211 194.318 306.38C194.817 305.535 195.281 304.69 195.619 304.04C197.064 301.158 205.184 293.36 207.702 292.447C210.22 291.535 228.149 298.683 230.676 299.697C232.256 299.494 250.295 297.069 258.035 294.264C266.062 291.374 271.782 290.597 273.894 290.597V291.442C271.976 291.442 266.29 292.202 258.322 295.066C250.177 298.007 230.87 300.525 230.676 300.55C230.606 300.567 230.534 300.567 230.465 300.55C222.683 297.407 209.696 292.65 207.989 293.267C205.649 294.112 197.732 301.716 196.38 304.445C196.025 305.147 195.535 305.958 195.053 306.828C193.845 308.915 192.012 312.075 192.679 312.869C193.347 313.663 196.101 312.869 196.971 312.523C197.048 312.498 197.131 312.498 197.208 312.523C199.226 312.869 201.224 313.329 203.19 313.9C205.176 314.568 211.901 314.568 215.129 314.568C218.357 314.568 227.237 312.32 227.33 312.303C227.383 312.291 227.438 312.291 227.49 312.303C227.702 312.303 248.512 315.489 256.362 315.489C271.435 315.489 293.742 314.103 293.742 311.12C293.742 307.132 291.063 297.66 289.517 295.176C288.223 293.364 286.649 291.77 284.853 290.453L285.343 289.769C287.231 291.123 288.884 292.779 290.235 294.669C291.925 297.289 294.629 306.879 294.629 311.061C294.587 316.215 257.917 316.274 256.362 316.274Z" fill="#263238"/>
<path d="M197.537 313.021L196.735 312.751C196.904 312.261 198.425 307.943 199.76 306.878C201.095 305.814 210.887 299.13 211.301 298.843L211.783 299.544C211.682 299.612 201.568 306.54 200.283 307.546C199.286 308.315 197.968 311.762 197.537 313.021Z" fill="#263238"/>
<path d="M202.109 313.892L201.441 313.368C201.559 313.216 204.305 309.768 206.992 308.577C209.679 307.386 214.292 305.366 214.292 305.366L214.63 306.144C214.63 306.144 209.966 308.18 207.339 309.346C204.838 310.461 202.134 313.858 202.109 313.892Z" fill="#263238"/>
<path d="M208.69 315.311L208.276 314.568C208.522 314.432 214.335 311.188 216.988 310.588L217.174 311.433C214.639 311.982 208.75 315.277 208.69 315.311Z" fill="#263238"/>
<path d="M310.024 270.808L293.395 333.24L365.84 325.289L384.116 267.428L310.024 270.808Z" fill="#C9C9C9"/>
<path d="M293.387 333.663C293.327 333.663 293.268 333.65 293.214 333.626C293.16 333.601 293.113 333.564 293.074 333.519C293.029 333.468 292.997 333.407 292.981 333.34C292.965 333.274 292.965 333.205 292.981 333.139L309.609 270.698C309.634 270.612 309.684 270.536 309.754 270.48C309.824 270.424 309.909 270.391 309.998 270.385L384.099 267.006C384.167 267.001 384.235 267.014 384.296 267.042C384.358 267.07 384.412 267.112 384.454 267.166C384.494 267.222 384.521 267.285 384.533 267.353C384.544 267.42 384.541 267.489 384.521 267.555L366.245 325.408C366.222 325.487 366.176 325.557 366.113 325.61C366.05 325.662 365.972 325.695 365.891 325.703L293.437 333.654L293.387 333.663ZM310.345 271.214L293.961 332.759L365.519 324.901L383.533 267.884L310.345 271.214Z" fill="#263238"/>
<path d="M348.223 297.212C348.223 299.84 345.46 301.969 342.047 301.969C338.633 301.969 335.862 299.84 335.862 297.212C335.862 294.584 338.633 292.464 342.047 292.464C345.46 292.464 348.223 294.618 348.223 297.212Z" fill="#263238"/>
<path d="M342.08 302.425C338.439 302.425 335.473 300.102 335.473 297.246C335.473 294.39 338.439 292.075 342.08 292.075C345.722 292.075 348.679 294.39 348.679 297.246C348.679 300.102 345.688 302.425 342.08 302.425ZM342.08 292.92C338.903 292.92 336.318 294.855 336.318 297.246C336.318 299.637 338.903 301.58 342.08 301.58C345.257 301.58 347.834 299.637 347.834 297.246C347.834 294.855 345.249 292.92 342.08 292.92Z" fill="#263238"/>
<path d="M376.055 292.988C360.736 301.437 346.482 301.69 331.147 307.25C310.235 314.854 293.387 333.266 293.387 333.266L365.84 325.315L376.055 292.988Z" fill="#263238"/>
<path d="M293.387 333.662C293.31 333.663 293.234 333.642 293.168 333.601C293.103 333.561 293.05 333.503 293.015 333.434C292.973 333.359 292.957 333.272 292.97 333.186C292.982 333.101 293.022 333.022 293.083 332.961C293.252 332.775 310.226 314.372 331.003 306.827C336.755 304.848 342.621 303.217 348.57 301.943C357.813 299.78 366.541 297.719 375.852 292.59C375.926 292.551 376.01 292.535 376.093 292.544C376.176 292.553 376.254 292.586 376.319 292.639C376.383 292.693 376.43 292.764 376.454 292.844C376.477 292.924 376.477 293.009 376.452 293.089L366.246 325.416C366.222 325.495 366.176 325.565 366.113 325.618C366.05 325.67 365.973 325.703 365.891 325.711L293.438 333.662H293.387ZM375.346 293.832C366.254 298.674 357.374 300.752 348.772 302.763C342.865 304.034 337.039 305.657 331.324 307.621C313.277 314.187 298.102 329.032 294.527 332.699L365.553 324.9L375.346 293.832Z" fill="#263238"/>
<path d="M21.0052 303.287H49.4796C51.214 303.287 52.8775 303.976 54.104 305.203C55.3304 306.429 56.0193 308.093 56.0193 309.827V311.745H21.0052V303.296V303.287Z" fill="#263238"/>
<path d="M56.0193 312.168H21.0052C20.8932 312.168 20.7857 312.123 20.7065 312.044C20.6273 311.965 20.5828 311.857 20.5828 311.745V303.296C20.5828 303.184 20.6273 303.076 20.7065 302.997C20.7857 302.918 20.8932 302.873 21.0052 302.873H49.4795C51.3254 302.876 53.0949 303.61 54.4001 304.915C55.7053 306.22 56.4396 307.99 56.4418 309.836V311.754C56.4375 311.863 56.3914 311.968 56.3128 312.045C56.2343 312.121 56.1293 312.166 56.0193 312.168ZM21.4277 311.323H55.5969V309.827C55.5969 308.205 54.9524 306.649 53.8051 305.501C52.6579 304.354 51.102 303.71 49.4795 303.71H21.4277V311.323Z" fill="#263238"/>
<path d="M56.5662 217.396L33.2188 288.87L35.6283 289.657L58.9757 218.183L56.5662 217.396Z" fill="#263238"/>
<path d="M24.5117 303.287L34.4313 285.485L43.1763 303.287H24.5117Z" fill="#263238"/>
<path d="M43.2017 303.71H24.5033C24.4299 303.708 24.3582 303.687 24.2947 303.65C24.2313 303.613 24.1781 303.561 24.14 303.498C24.1029 303.434 24.0834 303.361 24.0834 303.287C24.0834 303.213 24.1029 303.14 24.14 303.076L34.0595 285.282C34.098 285.215 34.1535 285.16 34.2202 285.121C34.2869 285.082 34.3627 285.062 34.4397 285.062C34.516 285.065 34.5901 285.088 34.6541 285.13C34.718 285.172 34.7695 285.23 34.8031 285.299L43.5566 303.127C43.5921 303.19 43.6108 303.261 43.6108 303.334C43.6108 303.406 43.5921 303.478 43.5566 303.541C43.5155 303.596 43.4618 303.64 43.4 303.669C43.3382 303.698 43.2701 303.712 43.2017 303.71ZM25.2553 302.865H42.5004L34.4059 286.397L25.2553 302.865Z" fill="#263238"/>
<path d="M61.8494 218.675C61.8494 217.925 61.6269 217.192 61.21 216.568C60.7931 215.944 60.2006 215.458 59.5074 215.17C58.8142 214.883 58.0514 214.808 57.3155 214.954C56.5796 215.101 55.9036 215.462 55.373 215.993C54.8424 216.523 54.4811 217.199 54.3347 217.935C54.1884 218.671 54.2635 219.434 54.5506 220.127C54.8378 220.82 55.324 221.413 55.9479 221.83C56.5718 222.247 57.3053 222.469 58.0556 222.469C59.0618 222.469 60.0267 222.069 60.7382 221.358C61.4497 220.646 61.8494 219.682 61.8494 218.675Z" fill="#263238"/>
<path d="M58.0556 222.858C57.2201 222.858 56.4032 222.61 55.7085 222.146C55.0138 221.682 54.4723 221.022 54.1525 220.25C53.8328 219.478 53.7491 218.629 53.9121 217.809C54.0751 216.99 54.4775 216.237 55.0683 215.646C55.6591 215.055 56.4119 214.653 57.2314 214.49C58.0509 214.327 58.9004 214.411 59.6723 214.73C60.4443 215.05 61.1041 215.592 61.5683 216.286C62.0325 216.981 62.2803 217.798 62.2803 218.633C62.2803 219.754 61.8352 220.828 61.0429 221.621C60.2506 222.413 59.1761 222.858 58.0556 222.858ZM58.0556 215.254C57.3872 215.254 56.7337 215.452 56.1779 215.823C55.6221 216.195 55.1889 216.722 54.9331 217.34C54.6773 217.958 54.6104 218.637 54.7408 219.293C54.8712 219.948 55.1931 220.551 55.6658 221.023C56.1384 221.496 56.7406 221.818 57.3963 221.948C58.0519 222.079 58.7314 222.012 59.349 221.756C59.9665 221.5 60.4944 221.067 60.8658 220.511C61.2371 219.955 61.4354 219.302 61.4354 218.633C61.422 217.746 61.0601 216.899 60.4277 216.276C59.7953 215.653 58.9433 215.304 58.0556 215.304V215.254Z" fill="#263238"/>
<path d="M101.842 207.505L57.7932 217.432L58.3505 219.905L102.399 209.978L101.842 207.505Z" fill="#263238"/>
<path d="M133.973 221.633L110.83 237.179L102.339 212.034L113.906 204.261L133.973 221.633Z" fill="#FFA629"/>
<path d="M110.797 237.602H110.661C110.6 237.583 110.544 237.549 110.499 237.503C110.453 237.457 110.419 237.402 110.399 237.34L101.899 212.195C101.871 212.106 101.871 212.01 101.902 211.922C101.932 211.833 101.991 211.757 102.068 211.705L113.636 203.932C113.709 203.877 113.798 203.847 113.889 203.847C113.98 203.847 114.069 203.877 114.143 203.932L134.218 221.312C134.269 221.351 134.31 221.402 134.339 221.46C134.367 221.518 134.382 221.581 134.382 221.646C134.382 221.71 134.367 221.774 134.339 221.832C134.31 221.889 134.269 221.94 134.218 221.979L111.075 237.518C110.997 237.58 110.897 237.611 110.797 237.602ZM102.803 212.204L111.025 236.521L133.246 221.591L113.813 204.793L102.803 212.204Z" fill="#263238"/>
<path d="M108.639 196.343L96.989 204.168L102.289 212.059L113.939 204.234L108.639 196.343Z" fill="white"/>
<path d="M102.296 212.482H102.212C102.103 212.458 102.007 212.395 101.942 212.305L96.6438 204.413C96.5822 204.319 96.5601 204.204 96.5822 204.093C96.6043 203.983 96.6689 203.885 96.7621 203.822L108.405 195.997C108.5 195.936 108.616 195.915 108.726 195.938C108.781 195.948 108.833 195.969 108.88 196C108.926 196.03 108.966 196.07 108.997 196.116L114.295 204.007C114.354 204.1 114.378 204.211 114.362 204.32C114.337 204.431 114.271 204.528 114.176 204.59L102.533 212.415C102.463 212.461 102.38 212.484 102.296 212.482ZM97.5817 204.269L102.406 211.46L113.39 204.109L108.557 196.918L97.5817 204.269Z" fill="#263238"/>
<path d="M140.623 77.115C137.834 64.2805 146.943 51.3361 161.036 48.2689C161.999 48.0577 162.954 47.9056 163.909 47.7873C163.394 44.051 163.856 40.2451 165.248 36.74C166.641 33.2349 168.917 30.1498 171.855 27.7851C174.793 25.4203 178.293 23.8563 182.015 23.2452C185.737 22.6342 189.553 22.9969 193.093 24.2981C194.486 21.2625 196.524 18.567 199.065 16.3992C201.605 14.2315 204.588 12.6435 207.805 11.746C211.022 10.8484 214.396 10.6628 217.692 11.2021C220.988 11.7414 224.127 12.9926 226.89 14.8687C228.591 11.8054 230.929 9.14249 233.747 7.05963C236.564 4.97676 239.796 3.52236 243.223 2.79454C247.773 1.74522 252.53 2.03577 256.919 3.6311C261.307 5.22643 265.14 8.05829 267.954 11.7846C271.94 7.8787 276.954 5.18579 282.411 4.01969C296.657 0.884986 310.353 8.15988 313.015 20.2593C313.885 24.2622 313.492 28.4363 311.891 32.2067C327.057 32.1222 340.188 40.7406 343.061 53.8033C345.164 63.3679 341.269 73.0762 333.606 80.0554C334.849 81.895 335.732 83.9535 336.208 86.122C338.464 96.3795 331.223 106.688 320.045 109.146C316.67 109.9 313.165 109.851 309.812 109.003C309.745 121.009 300.712 132.002 287.624 134.875C283.262 135.883 278.724 135.848 274.378 134.772C270.032 133.696 266.002 131.609 262.614 128.681C260.985 131.318 258.832 133.591 256.289 135.361C253.746 137.132 250.866 138.361 247.828 138.973C238.018 141.127 228.563 137.165 224.837 129.907C223.9 130.219 222.947 130.481 221.981 130.692C210.938 133.126 200.452 128.538 197.875 120.384C194.622 122.977 190.818 124.792 186.756 125.69C172.392 128.85 158.206 120.114 155.139 106.181C154.238 102.068 154.383 97.7943 155.561 93.7518C148.126 90.9297 142.346 84.9476 140.623 77.115Z" fill="#263238"/>
<path d="M242.606 139.961C234.926 139.961 227.888 136.362 224.651 130.414C223.806 130.692 222.962 130.921 222.117 131.106C211.225 133.498 200.664 129.112 197.706 121.077C193.266 124.433 187.92 126.378 182.361 126.661C176.803 126.945 171.287 125.553 166.528 122.666C161.756 119.774 158.059 115.403 155.997 110.218C153.935 105.033 153.622 99.317 155.105 93.9378C147.5 90.9467 141.924 84.7111 140.268 77.1743C137.395 64.1285 146.698 50.9813 160.994 47.8212C161.839 47.6438 162.633 47.5002 163.529 47.3903C163.084 43.6403 163.6 39.8388 165.028 36.3431C166.457 32.8474 168.75 29.7722 171.694 27.4066C174.637 25.041 178.134 23.4627 181.855 22.8199C185.576 22.1771 189.4 22.491 192.966 23.7321C194.408 20.7415 196.47 18.0917 199.014 15.9586C201.558 13.8254 204.526 12.2578 207.723 11.3596C210.919 10.4615 214.27 10.2534 217.553 10.7491C220.835 11.2449 223.975 12.4331 226.764 14.2351C228.517 11.2212 230.881 8.60698 233.704 6.5598C236.527 4.51261 239.746 3.07765 243.155 2.34685C247.712 1.28803 252.475 1.55078 256.887 3.10426C261.299 4.65774 265.177 7.4375 268.064 11.1173C272.042 7.36728 276.972 4.78079 282.318 3.6396C296.767 0.462638 310.725 7.86427 313.429 20.2003C314.26 24.0694 313.937 28.0974 312.499 31.7844C327.962 31.9365 340.644 40.8843 343.466 53.7527C345.494 63.047 342.013 72.8482 334.172 80.1653C335.342 81.9732 336.178 83.9765 336.639 86.0799C337.184 88.6236 337.188 91.2532 336.653 93.7988C336.117 96.3444 335.053 98.7492 333.53 100.858C330.329 105.352 325.554 108.477 320.154 109.611C316.891 110.338 313.507 110.338 310.243 109.611C309.914 121.77 300.527 132.551 287.726 135.365C283.382 136.366 278.865 136.349 274.529 135.314C270.194 134.279 266.156 132.255 262.733 129.4C261.062 131.98 258.892 134.199 256.349 135.926C253.806 137.653 250.943 138.853 247.929 139.454C246.179 139.817 244.394 139.987 242.606 139.961ZM224.863 129.484C224.94 129.484 225.015 129.505 225.081 129.545C225.147 129.586 225.2 129.643 225.234 129.712C228.927 136.894 238.399 140.612 247.76 138.559C250.746 137.968 253.576 136.766 256.074 135.028C258.572 133.291 260.684 131.055 262.276 128.462C262.307 128.408 262.35 128.362 262.401 128.327C262.452 128.292 262.511 128.268 262.572 128.259C262.634 128.249 262.697 128.253 262.757 128.271C262.817 128.288 262.872 128.319 262.919 128.36C266.255 131.245 270.226 133.301 274.507 134.361C278.789 135.421 283.26 135.455 287.557 134.461C300.155 131.698 309.348 120.984 309.415 108.995C309.415 108.93 309.43 108.866 309.459 108.809C309.488 108.751 309.531 108.702 309.584 108.665C309.636 108.628 309.695 108.601 309.758 108.588C309.82 108.575 309.885 108.575 309.948 108.589C313.237 109.418 316.674 109.468 319.985 108.733C325.182 107.633 329.773 104.616 332.845 100.283C334.3 98.2715 335.316 95.9769 335.829 93.5478C336.341 91.1187 336.338 88.6091 335.82 86.1813C335.355 84.0674 334.495 82.0606 333.285 80.2667C333.226 80.183 333.201 80.0806 333.213 79.9792C333.226 79.8778 333.275 79.7846 333.352 79.7175C341.176 72.5863 344.658 62.9202 342.647 53.871C339.867 41.2814 327.227 32.5364 311.891 32.6293C311.82 32.6335 311.75 32.6184 311.688 32.5856C311.625 32.5529 311.573 32.5037 311.536 32.4434C311.498 32.3853 311.475 32.319 311.467 32.2499C311.46 32.1809 311.469 32.1111 311.494 32.0463C313.058 28.3643 313.447 24.2893 312.609 20.3777C310.007 8.54867 296.505 1.38362 282.513 4.45918C277.136 5.59077 272.192 8.22818 268.258 12.0636C268.166 12.1466 268.045 12.1918 267.921 12.1903C267.861 12.1824 267.803 12.1626 267.751 12.1321C267.698 12.1017 267.653 12.0611 267.616 12.0129C264.852 8.33876 261.08 5.54728 256.758 3.97817C252.436 2.40906 247.751 2.12998 243.274 3.17488C239.909 3.88822 236.736 5.31275 233.967 7.35294C231.199 9.39312 228.898 12.0018 227.22 15.004C227.157 15.1074 227.058 15.183 226.941 15.2152C226.885 15.2276 226.826 15.228 226.769 15.2164C226.712 15.2047 226.659 15.1813 226.612 15.1476C223.897 13.3155 220.817 12.0961 217.584 11.5739C214.352 11.0517 211.044 11.2393 207.891 12.1236C204.738 13.0079 201.815 14.5678 199.326 16.6949C196.836 18.8221 194.839 21.4656 193.473 24.4419C193.43 24.5384 193.352 24.6149 193.255 24.6557C193.158 24.6966 193.048 24.6987 192.949 24.6616C189.476 23.3831 185.731 23.0261 182.079 23.6252C178.427 24.2244 174.992 25.7593 172.109 28.0804C169.227 30.4015 166.994 33.4298 165.63 36.87C164.265 40.3103 163.815 44.0454 164.323 47.7114C164.333 47.7666 164.331 47.8232 164.317 47.8777C164.304 47.9321 164.279 47.9832 164.245 48.0276C164.211 48.0721 164.168 48.109 164.119 48.136C164.07 48.163 164.016 48.1795 163.96 48.1846C162.988 48.3028 162.033 48.4549 161.129 48.6577C147.289 51.6995 138.316 64.4158 141.037 76.9968C142.659 84.3731 148.143 90.4651 155.713 93.2872C155.813 93.3253 155.894 93.3996 155.941 93.4952C155.988 93.5907 155.997 93.7005 155.967 93.8026C154.446 99.0451 154.699 104.643 156.685 109.727C158.671 114.811 162.28 119.098 166.951 121.922C171.649 124.773 177.106 126.119 182.591 125.781C188.076 125.442 193.327 123.436 197.639 120.029C197.692 119.988 197.754 119.96 197.82 119.947C197.886 119.934 197.954 119.936 198.019 119.953C198.085 119.974 198.144 120.01 198.193 120.058C198.242 120.107 198.278 120.166 198.298 120.232C200.833 128.208 211.2 132.61 221.956 130.262C222.886 130.05 223.832 129.788 224.77 129.476L224.863 129.484Z" fill="#263238"/>
<path d="M241.237 160.172C247.35 160.172 252.306 157.123 252.306 153.362C252.306 149.601 247.35 146.552 241.237 146.552C235.124 146.552 230.169 149.601 230.169 153.362C230.169 157.123 235.124 160.172 241.237 160.172Z" fill="#263238"/>
<path d="M241.237 160.595C234.9 160.595 229.746 157.35 229.746 153.362C229.746 149.374 234.9 146.121 241.237 146.121C247.574 146.121 252.745 149.349 252.745 153.362C252.745 157.375 247.574 160.595 241.237 160.595ZM241.237 146.966C235.365 146.966 230.591 149.839 230.591 153.362C230.591 156.885 235.365 159.75 241.237 159.75C247.11 159.75 251.9 156.885 251.9 153.362C251.9 149.839 247.11 146.966 241.237 146.966Z" fill="#263238"/>
<path d="M233.574 173.801C237.335 173.801 240.384 172.023 240.384 169.83C240.384 167.637 237.335 165.859 233.574 165.859C229.813 165.859 226.764 167.637 226.764 169.83C226.764 172.023 229.813 173.801 233.574 173.801Z" fill="#263238"/>
<path d="M233.574 174.224C229.518 174.224 226.341 172.289 226.341 169.83C226.341 167.371 229.518 165.428 233.574 165.428C237.63 165.428 240.806 167.363 240.806 169.83C240.806 172.297 237.63 174.224 233.574 174.224ZM233.574 166.273C230.11 166.273 227.186 167.904 227.186 169.83C227.186 171.757 230.11 173.379 233.574 173.379C237.038 173.379 239.962 171.748 239.962 169.83C239.962 167.912 237.038 166.248 233.574 166.248V166.273Z" fill="#263238"/>
<path d="M138.316 75.3831C135.494 62.5486 144.636 49.6295 158.73 46.537C159.676 46.328 160.632 46.1672 161.594 46.0554C161.078 42.3185 161.538 38.5115 162.93 35.0052C164.321 31.4988 166.597 28.4125 169.535 26.0467C172.474 23.6808 175.975 22.116 179.697 21.5047C183.42 20.8933 187.237 21.2561 190.778 22.5578C192.171 19.5222 194.209 16.8267 196.749 14.6589C199.29 12.4911 202.273 10.9032 205.49 10.0056C208.707 9.10807 212.081 8.92248 215.377 9.46177C218.673 10.0011 221.812 11.2523 224.575 13.1283C226.28 10.0662 228.62 7.40434 231.438 5.32174C234.257 3.23914 237.489 1.78403 240.916 1.0542C245.472 -0.00321817 250.236 0.283277 254.631 1.87896C259.027 3.47465 262.865 6.31101 265.681 10.0443C269.666 6.16943 274.662 3.49583 280.096 2.33005C294.342 -0.79621 308.046 6.47868 310.7 18.5697C311.56 22.5654 311.165 26.7295 309.567 30.4917C324.776 30.4072 337.873 39.0256 340.737 52.0883C342.841 61.6529 338.946 71.3612 331.291 78.3404C332.535 80.1785 333.415 82.2378 333.885 84.407C336.141 94.6645 328.908 104.973 317.729 107.431C314.354 108.187 310.848 108.135 307.497 107.279C307.421 119.294 298.389 130.287 285.301 133.16C280.94 134.17 276.401 134.134 272.056 133.057C267.711 131.979 263.683 129.889 260.299 126.958C258.671 129.597 256.518 131.872 253.972 133.643C251.427 135.413 248.545 136.641 245.504 137.249C235.703 139.404 226.24 135.441 222.514 128.192C221.579 128.504 220.629 128.766 219.666 128.977C208.615 131.402 198.129 126.823 195.552 118.669C192.298 121.246 188.497 123.044 184.441 123.925C170.077 127.093 155.891 118.357 152.832 104.424C151.923 100.311 152.068 96.0356 153.254 91.9945C145.811 89.1978 140.031 83.2157 138.316 75.3831Z" fill="white"/>
<path d="M240.257 138.229C232.577 138.229 225.539 134.63 222.311 128.682C221.466 128.96 220.621 129.189 219.776 129.375C208.893 131.766 198.323 127.38 195.374 119.345C192.176 121.774 188.484 123.472 184.559 124.322C169.959 127.533 155.553 118.635 152.452 104.5C151.564 100.444 151.675 96.2344 152.773 92.2312C145.168 89.2485 139.592 83.0129 137.936 75.4761C137.259 72.3035 137.259 69.024 137.936 65.8515C138.613 62.679 139.952 59.685 141.865 57.065C145.899 51.4343 151.894 47.5162 158.67 46.0808C159.473 45.9034 160.31 45.7597 161.154 45.6499C160.71 41.8999 161.226 38.0984 162.654 34.6027C164.082 31.107 166.376 28.0318 169.32 25.6662C172.263 23.3006 175.76 21.7223 179.481 21.0795C183.202 20.4367 187.026 20.7506 190.592 21.9917C192.033 19.0004 194.094 16.3497 196.638 14.2158C199.181 12.0818 202.15 10.5132 205.346 9.61425C208.543 8.71528 211.894 8.50644 215.177 9.0016C218.46 9.49675 221.6 10.6846 224.389 12.4862C226.148 9.4809 228.514 6.87529 231.337 4.83564C234.159 2.796 237.376 1.36713 240.781 0.640225C245.337 -0.420689 250.101 -0.158947 254.514 1.39468C258.926 2.94831 262.804 5.72926 265.69 9.41065C269.682 5.63877 274.638 3.04236 280.011 1.90763C294.46 -1.26933 308.41 6.1323 311.114 18.4684C311.946 22.336 311.629 26.3627 310.201 30.0524C325.655 30.1961 338.337 39.1524 341.159 52.0207C343.196 61.2728 339.715 71.1162 331.865 78.4334C333.032 80.2417 333.865 82.245 334.324 84.3479C336.622 94.8167 329.254 105.378 317.839 107.879C314.578 108.606 311.197 108.606 307.937 107.879C307.599 120.038 298.211 130.819 285.419 133.633C281.075 134.633 276.559 134.615 272.223 133.58C267.887 132.545 263.85 130.522 260.426 127.668C258.754 130.246 256.583 132.464 254.04 134.191C251.498 135.918 248.636 137.118 245.623 137.722C243.858 138.087 242.059 138.257 240.257 138.229ZM222.725 127.659L222.894 127.98C226.578 135.162 236.05 138.88 245.411 136.827C248.399 136.229 251.231 135.02 253.729 133.275C256.228 131.53 258.338 129.287 259.927 126.688L260.189 126.24L260.578 126.586C263.914 129.469 267.883 131.523 272.163 132.583C276.443 133.643 280.912 133.679 285.208 132.687C297.806 129.924 306.999 119.168 307.075 107.22V106.68L307.599 106.815C310.888 107.644 314.325 107.693 317.636 106.958C328.57 104.559 335.676 94.4533 333.479 84.4324C333.01 82.3201 332.15 80.3141 330.944 78.5179L330.741 78.2137L331.012 77.9687C338.836 70.8374 342.325 61.1714 340.306 52.1221C337.552 39.5748 325.021 30.8551 309.787 30.8551H308.942L309.187 30.2636C310.748 26.5807 311.135 22.5058 310.294 18.5951C307.666 6.79135 294.147 -0.348349 280.189 2.72721C274.812 3.8588 269.869 6.49621 265.935 10.3316L265.588 10.6781L265.293 10.2809C262.525 6.61424 258.752 3.83081 254.432 2.26923C250.112 0.707655 245.431 0.435252 240.959 1.48516C237.594 2.1985 234.421 3.62303 231.652 5.66321C228.883 7.7034 226.583 10.3121 224.905 13.3142L224.685 13.7198L224.296 13.4579C221.583 11.6259 218.503 10.4065 215.271 9.88436C212.039 9.36222 208.732 9.54984 205.58 10.4342C202.427 11.3186 199.505 12.8785 197.016 15.0056C194.527 17.1327 192.531 19.7761 191.167 22.7522L190.998 23.107L190.634 22.9719C187.162 21.6932 183.418 21.3358 179.767 21.9345C176.116 22.5331 172.682 24.0674 169.8 26.3878C166.918 28.7081 164.686 31.7355 163.322 35.1749C161.958 38.6142 161.508 42.3483 162.016 46.0132L162.075 46.4441L161.645 46.4948C157.867 46.9261 154.219 48.1325 150.928 50.0386C147.638 51.9446 144.777 54.5092 142.524 57.5719C140.676 60.0949 139.383 62.9801 138.729 66.0381C138.076 69.096 138.076 72.2577 138.73 75.3156C140.344 82.6919 145.836 88.7838 153.398 91.6059L153.77 91.7411L153.66 92.1213C152.502 96.0952 152.36 100.296 153.246 104.339C156.254 118.027 170.204 126.628 184.348 123.528C188.344 122.649 192.087 120.869 195.29 118.323L195.771 117.943L195.957 118.526C198.492 126.502 208.86 130.904 219.616 128.546C220.563 128.336 221.5 128.077 222.421 127.769L222.725 127.659Z" fill="#263238"/>
<path d="M238.931 158.432C245.044 158.432 249.999 155.383 249.999 151.621C249.999 147.86 245.044 144.811 238.931 144.811C232.818 144.811 227.862 147.86 227.862 151.621C227.862 155.383 232.818 158.432 238.931 158.432Z" fill="white"/>
<path d="M238.931 158.863C232.585 158.863 227.431 155.618 227.431 151.622C227.431 147.625 232.585 144.389 238.931 144.389C245.276 144.389 250.422 147.634 250.422 151.622C250.422 155.61 245.268 158.863 238.931 158.863ZM238.931 145.234C233.058 145.234 228.276 148.098 228.276 151.622C228.276 155.145 233.058 158.018 238.931 158.018C244.803 158.018 249.577 155.154 249.577 151.622C249.577 148.09 244.803 145.234 238.931 145.234Z" fill="#263238"/>
<path d="M231.259 172.061C235.02 172.061 238.069 170.283 238.069 168.089C238.069 165.896 235.02 164.118 231.259 164.118C227.498 164.118 224.448 165.896 224.448 168.089C224.448 170.283 227.498 172.061 231.259 172.061Z" fill="white"/>
<path d="M231.259 172.491C227.203 172.491 224.026 170.557 224.026 168.089C224.026 165.622 227.203 163.696 231.259 163.696C235.314 163.696 238.5 165.631 238.5 168.089C238.5 170.548 235.323 172.491 231.259 172.491ZM231.259 164.541C227.795 164.541 224.871 166.163 224.871 168.089C224.871 170.016 227.795 171.647 231.259 171.647C234.723 171.647 237.655 170.016 237.655 168.089C237.655 166.163 234.723 164.558 231.259 164.558V164.541Z" fill="#263238"/>
</g>
<defs>
<clipPath id="clip0_354_96">
<rect width="390" height="334" fill="white"/>
</clipPath>
</defs>
</svg>
