<svg width="448" height="454" viewBox="0 0 448 454" fill="none" xmlns="http://www.w3.org/2000/svg">
<g filter="url(#filter0_d_334_7)">
<path d="M324.062 328.698H437.159C437.159 328.698 431.532 321.527 425.338 320.628C425.338 320.628 413.32 285.458 393.087 285.212C374.328 284.976 366.801 306.832 366.801 306.832C366.801 306.832 358.061 297.028 349.801 301.48C341.542 305.933 336.789 318.798 336.789 318.798C336.789 318.798 327.448 323.764 324.062 328.698Z" fill="#EBEBEB"/>
<path d="M153.86 192.024H10.8384C10.8384 192.024 10.8384 183.076 30.5037 181.321C30.5037 181.321 48.4865 142.191 75.9523 147.457C93.0611 150.668 101.801 173.733 101.801 173.733C101.801 173.733 114.726 155.623 125.061 159.134C135.396 162.644 141.536 181.91 141.536 181.91C141.536 181.91 152.243 186.972 153.86 192.024Z" fill="#EBEBEB"/>
<path d="M430.965 161.778H333.731C333.731 161.778 342.908 153.409 346.983 153.409C351.058 153.409 362.967 125.314 378.175 126.512C393.382 127.711 401.456 148.625 401.456 148.625C401.456 148.625 419.941 142.952 430.965 161.778Z" fill="#EBEBEB"/>
<path d="M202.727 307.928H119.565C119.565 307.928 123.706 302.651 128.305 301.998C128.305 301.998 137.165 276.14 152.013 275.947C165.811 275.776 171.35 291.852 171.35 291.852C171.35 291.852 177.741 284.649 183.849 287.945C189.956 291.242 193.408 300.671 193.408 300.671C193.408 300.671 200.236 304.299 202.727 307.928Z" fill="#EBEBEB"/>
<path d="M91.6191 64.381H204.716C204.716 64.381 199.09 57.211 192.895 56.311C192.895 56.311 180.878 21.142 160.655 20.895C141.886 20.66 134.413 42.526 134.413 42.526C134.413 42.526 125.673 32.722 117.413 37.175C109.154 41.627 104.402 54.492 104.402 54.492C104.402 54.492 95.0059 59.447 91.6191 64.381Z" fill="#EBEBEB"/>
<path d="M223.999 445.472C306.861 445.472 374.034 435.074 374.034 422.247C374.034 409.42 306.861 399.021 223.999 399.021C141.137 399.021 73.9639 409.42 73.9639 422.247C73.9639 435.074 141.137 445.472 223.999 445.472Z" fill="#EBEBEB"/>
<path d="M4 395.864L59.0082 395.607L114.005 395.511L224 395.329L333.995 395.511L388.992 395.607L444 395.864L388.992 396.131L333.995 396.217L224 396.399L114.005 396.217L59.0082 396.121L4 395.864Z" fill="#263238"/>
<path d="M170.138 395.876H82.2891C82.2891 395.876 82.4857 383.032 91.1275 379.671C93.4667 378.67 96.0752 378.441 98.5588 379.02C101.042 379.6 103.266 380.955 104.893 382.882C104.893 382.882 108.411 359.336 124.559 359.336C140.706 359.336 148.354 379.671 148.354 379.671C148.354 379.671 151.893 373.56 160.841 374.63C169.789 375.701 170.138 395.876 170.138 395.876Z" fill="#37474F"/>
<path d="M430.976 395.865C430.976 395.865 428.278 383.557 422.903 381.663C417.528 379.768 414.25 385.291 414.25 385.291C414.25 385.291 413.005 373.55 405.357 370.007C397.709 366.464 392.006 373.689 392.006 373.689C392.006 373.689 386.161 358.769 375.706 358.769C365.251 358.769 359.974 380.603 359.974 380.603C359.974 380.603 353.801 374.096 347.454 377.831C341.106 381.566 341.128 395.919 341.128 395.919L430.976 395.865Z" fill="#37474F"/>
<path d="M98.0325 395.885H17.0225C17.0225 395.885 19.6991 384.7 25.0634 383.908C30.4276 383.116 32.9295 388.296 32.9295 388.296C32.9295 388.296 32.6891 372.691 42.7621 370.037C52.8351 367.383 61.2147 381.168 61.2147 381.168C61.2147 381.168 67.5076 373.301 76.073 373.804C84.6383 374.307 86.8233 387.301 86.8233 387.301C86.8233 387.301 94.5802 382.795 98.0325 395.885Z" fill="#455A64"/>
<path d="M346.962 395.878H297.198C297.198 395.878 297.318 388.622 302.213 386.695C303.54 386.129 305.018 386.002 306.426 386.332C307.833 386.662 309.092 387.432 310.013 388.525C310.013 388.525 312.002 375.19 321.124 375.19C330.247 375.19 334.606 386.695 334.606 386.695C335.379 385.596 336.463 384.742 337.724 384.238C338.986 383.734 340.37 383.603 341.707 383.859C346.755 384.512 346.962 395.878 346.962 395.878Z" fill="#455A64"/>
<path d="M258.698 11.199C271.415 32.605 267.111 62.327 240.693 82.395C216.658 100.654 180.605 97.979 167.211 82.866C153.008 66.812 158.471 44.582 173.154 37.432C187.302 30.539 202.051 34.221 211.327 25.937C215.762 21.966 218.832 12.473 225.125 6.31899C232.15 -0.531013 250.515 -2.53301 258.698 11.199Z" fill="#263238"/>
<path d="M184.254 94.413C194.145 97.488 204.672 98.047 214.844 96.039C225.056 93.99 234.648 89.665 242.878 83.399C251.25 77.27 257.786 69.049 261.801 59.596C265.622 50.114 266.755 39.796 265.078 29.735C266.274 39.758 264.838 49.915 260.905 59.243C258.896 63.85 256.261 68.17 253.071 72.086C249.866 75.98 246.177 79.468 242.092 82.468C238.045 85.52 233.684 88.149 229.08 90.313C219.808 94.616 209.643 96.752 199.385 96.553C194.268 96.483 189.182 95.764 184.254 94.413Z" fill="#263238"/>
<path d="M168.904 38.558C171.421 36.649 174.231 35.143 177.229 34.095C180.2 33.032 183.287 32.313 186.428 31.954C189.597 31.59 192.765 31.152 195.922 30.595C199.124 30.041 202.248 29.121 205.23 27.855C206.735 27.225 208.176 26.458 209.535 25.565C210.869 24.617 212.07 23.501 213.107 22.247C215.074 19.758 216.888 17.156 218.537 14.455C220.181 11.807 222.164 9.376 224.437 7.22C226.74 5.076 229.424 3.363 232.358 2.168C229.293 3.162 226.455 4.72801 224 6.78101C221.599 8.89501 219.484 11.301 217.707 13.941C215.861 16.51 214.255 19.218 212.244 21.562C211.26 22.732 210.121 23.768 208.858 24.644C207.552 25.482 206.17 26.199 204.728 26.785C198.981 29.289 192.568 29.996 186.297 30.98C183.114 31.452 180 32.297 177.022 33.495C174.042 34.718 171.297 36.431 168.904 38.558Z" fill="#263238"/>
<path d="M79.6347 235.906C76.7286 230.298 124.887 169.184 167.036 118.227C167.041 118.219 167.043 118.21 167.043 118.2C167.043 118.191 167.041 118.182 167.036 118.173C186.068 95.183 202.499 71.594 214.932 58.419C222.831 50.038 230.063 48.005 232.183 48.005C239.197 48.005 257.748 52.639 254.743 89.639C252.471 117.617 246.637 147.114 253.334 178.003C260.031 208.892 277.315 237.265 294.904 249.788C312.494 262.31 338.506 263.434 335.775 263.209C334.934 263.134 331.405 267.758 322.578 270.958C311.652 274.875 294.74 275.935 286.918 279.617C270.902 287.109 257.911 304.351 233.734 306.374C208.268 308.515 180.813 291.7 155.816 282.25C125.498 270.744 104.653 284.273 79.6347 235.906Z" fill="#FFA629"/>
<g opacity="0.1">
<path d="M79.6347 235.906C76.7286 230.298 124.887 169.184 167.036 118.227C167.041 118.219 167.043 118.21 167.043 118.2C167.043 118.191 167.041 118.182 167.036 118.173C186.068 95.183 202.499 71.594 214.932 58.419C222.831 50.038 230.063 48.005 232.183 48.005C239.197 48.005 257.748 52.639 254.743 89.639C252.471 117.617 246.637 147.114 253.334 178.003C260.031 208.892 277.315 237.265 294.904 249.788C312.494 262.31 338.506 263.434 335.775 263.209C334.934 263.134 331.405 267.758 322.578 270.958C311.652 274.875 294.74 275.935 286.918 279.617C270.902 287.109 257.911 304.351 233.734 306.374C208.268 308.515 180.813 291.7 155.816 282.25C125.498 270.744 104.653 284.273 79.6347 235.906Z" fill="black"/>
</g>
<path opacity="0.1" d="M166.97 286.755C163.223 285.15 159.519 283.608 155.859 282.228C148.73 279.676 141.348 277.861 133.834 276.812C133.834 276.812 165.517 212.594 185.237 202.501C196.031 196.968 177.163 223.725 166.97 286.755Z" fill="black"/>
<path opacity="0.1" d="M301.744 275.717C295.888 276.788 290.491 277.944 286.962 279.603C282.932 281.597 279.084 283.924 275.458 286.56C255.793 264.768 243.524 248.222 241.295 230.273C239.864 218.756 264.806 265.132 301.744 275.717Z" fill="black"/>
<path opacity="0.1" d="M187.75 295.82C184.352 294.396 180.965 292.908 177.589 291.421C185.084 268.516 187.203 245.676 189.727 247.453C192.48 249.401 189.727 278.417 187.75 295.82Z" fill="black"/>
<path d="M115.634 291.934C115.634 291.934 89.2384 278.715 75.145 241.951C73.7684 238.365 84.2238 204.084 97.1373 185.996C110.051 167.908 126.089 159.238 146.148 141.557C166.206 123.876 204.947 65.106 218.734 54.478C228.206 47.179 232.227 48.056 232.227 48.056C232.227 48.056 220.078 55.687 214.878 62.002C194.338 87.004 170.478 141.686 160.547 152.977C148.409 166.891 133.868 181.393 126.985 195.05C119.272 210.398 113.82 277.848 115.634 291.934Z" fill="#FFA629"/>
<path d="M336.944 422.931C334.191 423.808 253.355 423.091 250.384 421.197C249.291 420.501 255.202 345.43 255.202 345.43L306.637 345.752L301.284 396.034C301.284 396.034 331.274 409.456 334.344 411.874C337.414 414.293 339.708 422.053 336.944 422.931Z" fill="#EB9481"/>
<path d="M336.944 422.938C334.19 423.816 253.355 423.098 250.383 421.204C250.023 420.99 249.826 413.369 250.984 403.448C265.668 405.674 318.065 412.899 322.107 410.501C324.926 408.831 322.38 406.306 320.031 404.614C326.75 407.825 333.021 410.854 334.322 411.892C337.348 414.301 339.697 422.071 336.944 422.938Z" fill="#263238"/>
<path d="M305.294 383.899H248.625C248.625 383.899 259.299 265.707 258.851 263.438C258.283 260.537 254.94 247.383 250.483 230.259C249.084 224.907 247.588 219.138 246.014 213.134C241.797 197.005 237.132 179.377 233.079 164.029C226.994 141.05 222.241 123.197 222.241 123.197H270.257C270.257 123.197 275.862 140.579 282.909 163.194C294.402 199.948 309.763 250.53 311.314 262.828C313.739 282.746 305.294 383.899 305.294 383.899Z" fill="#37474F"/>
<path d="M302.781 374.445C294.128 374.274 296.619 374.199 287.955 374.124C283.727 374.124 255.89 373.845 251.902 374.488C251.879 374.488 251.857 374.497 251.841 374.513C251.824 374.529 251.815 374.551 251.815 374.573C251.815 374.596 251.824 374.618 251.841 374.634C251.857 374.65 251.879 374.659 251.902 374.659C255.857 375.301 283.695 375.066 287.955 375.023C296.619 374.937 294.128 374.873 302.781 374.691C302.808 374.683 302.832 374.667 302.849 374.645C302.865 374.622 302.874 374.596 302.874 374.568C302.874 374.54 302.865 374.513 302.849 374.491C302.832 374.469 302.808 374.453 302.781 374.445Z" fill="#263238"/>
<path d="M269.514 255.525C267.657 247.498 264.882 239.631 262.456 231.754C257.547 215.756 252.609 199.763 247.642 183.772C245.166 175.781 242.671 167.786 240.158 159.787C238.891 155.763 237.634 151.728 236.345 147.703C235.056 143.679 233.647 139.858 232.511 135.93C232.041 134.314 231.79 135.202 232.38 137.257C233.581 141.399 234.761 145.541 235.996 149.673C238.428 157.85 240.883 166.023 243.359 174.193C248.276 190.462 253.232 206.716 258.228 222.956C260.719 231.104 263.218 239.246 265.723 247.38C266.988 251.24 268.013 255.172 268.793 259.153C269.457 263.337 269.626 267.582 269.296 271.804C268.749 280.292 267.744 288.768 266.947 297.245C266.149 305.722 265.341 314.231 264.532 322.718C262.937 339.618 262.085 345.055 260.534 361.966C260.337 364.106 260.14 366.247 259.976 368.388C259.922 369.105 261.069 369.051 261.069 368.388C262.937 351.68 263.625 346.372 265.231 329.632C266.837 312.893 268.411 296.325 270.006 279.671C270.399 275.497 270.858 271.301 270.858 267.106C270.851 263.208 270.4 259.324 269.514 255.525Z" fill="#263238"/>
<path d="M264.806 123.268C261.473 148.538 255.115 195.92 250.483 230.297C239.656 188.652 222.241 123.268 222.241 123.268H264.806Z" fill="#263238"/>
<path d="M276.604 423.855C273.851 424.733 193.016 424.016 190.044 422.122C188.952 421.426 191.311 346.355 191.311 346.355L242.747 346.687L240.934 396.916C240.934 396.916 270.934 410.391 273.982 412.81C277.03 415.229 279.357 422.978 276.604 423.855Z" fill="#EB9481"/>
<path d="M276.605 423.863C273.852 424.74 193.016 424.023 190.045 422.129C189.684 421.915 189.673 414.498 189.826 404.373C204.51 406.599 257.726 413.823 261.768 411.426C264.587 409.756 262.041 407.23 259.693 405.539C266.411 408.75 272.683 411.779 273.983 412.817C277.009 415.215 279.358 422.985 276.605 423.863Z" fill="#263238"/>
<path d="M268.707 123.268C268.707 123.268 267.614 145.744 262.337 163.607C261.922 165.084 261.463 166.529 260.972 167.888C256.152 169.796 251.519 172.128 247.129 174.856C247.129 174.856 246.572 192.976 246.037 213.173C245.425 235.745 244.791 260.94 244.944 266.281C245.425 286.263 242.945 383.66 242.945 383.66L186.287 383.885C186.287 383.885 195.978 273.644 195.912 266.334C195.803 254.561 198.654 202.555 200.861 164.656C202.15 141.313 203.243 123.268 203.243 123.268H268.707Z" fill="#37474F"/>
<path d="M240.957 373.81C232.304 373.671 234.795 373.585 226.131 373.542C221.903 373.542 194.066 373.403 190.078 374.056C189.991 374.056 189.991 374.217 190.078 374.227C194.033 374.859 221.87 374.505 226.131 374.441C234.784 374.324 232.293 374.27 240.946 374.056C240.973 374.049 240.998 374.034 241.016 374.013C241.034 373.991 241.044 373.965 241.045 373.937C241.046 373.909 241.039 373.882 241.023 373.859C241.007 373.836 240.984 373.819 240.957 373.81Z" fill="#263238"/>
<path d="M208.028 131.315C206.99 162.278 205.843 193.242 204.466 224.195C203.09 255.148 201.134 286.272 198.479 317.311C197.005 334.617 196.152 346.476 194.251 363.74C194.251 363.858 194.415 363.901 194.437 363.74C198.556 333.023 200.304 307.539 202.336 276.629C204.368 245.719 205.734 214.766 206.815 183.813C207.427 166.303 207.908 148.793 208.421 131.283C208.432 131.037 208.039 131.069 208.028 131.315Z" fill="#263238"/>
<path d="M263.331 166.584C257.699 168.889 252.282 171.668 247.14 174.89C246.932 175.018 247.085 175.328 247.304 175.221C252.766 172.621 258.349 170.116 263.691 167.226C263.778 167.179 263.843 167.101 263.87 167.007C263.898 166.914 263.887 166.814 263.839 166.729C263.791 166.643 263.711 166.58 263.615 166.553C263.52 166.526 263.418 166.537 263.331 166.584Z" fill="#263238"/>
<path d="M263.636 147.49C263.265 149.459 262.773 151.407 262.347 153.376C261.921 155.346 261.637 157.09 261.134 158.91C260.732 160.669 259.822 162.278 258.512 163.544C257.769 164.218 256.961 164.807 256.174 165.428C255.748 165.76 255.289 166.081 254.852 166.413C254.907 166.156 254.951 165.888 255.005 165.621L255.399 163.373C255.683 161.714 255.956 160.044 256.207 158.385C256.721 155.11 257.19 151.803 257.89 148.56C257.891 148.535 257.884 148.511 257.869 148.49C257.855 148.47 257.833 148.455 257.808 148.449C257.784 148.443 257.758 148.445 257.735 148.456C257.712 148.466 257.693 148.484 257.682 148.507C256.852 151.717 255.934 154.928 255.202 158.139C254.852 159.723 253.585 167.568 253.52 168.125C253.454 168.682 253.421 169.27 253.399 169.848C253.317 170.431 253.317 171.021 253.399 171.604C253.399 171.743 253.607 171.721 253.673 171.604C253.919 171.061 254.092 170.489 254.186 169.902C254.328 169.334 254.459 168.767 254.568 168.2C254.568 167.997 254.634 167.783 254.656 167.579C255.442 167.108 256.185 166.509 256.917 165.963C257.649 165.417 258.523 164.893 259.277 164.229C260.663 163.078 261.664 161.545 262.15 159.83C262.632 157.981 262.947 156.093 263.09 154.19C263.341 151.964 263.527 149.727 263.855 147.5C263.866 147.404 263.669 147.351 263.636 147.49Z" fill="#263238"/>
<path d="M241.863 66.558C257.737 91.463 297.45 127.982 308.124 121.143C321.234 112.794 317.345 72.819 317.203 65.969C317.115 61.174 281.15 67.146 283.007 71.952C284.1 74.863 285.017 78.663 284.285 78.31C281.991 77.239 277.14 71.106 255.345 56.583C243.207 48.523 231.353 50.064 241.863 66.558Z" fill="#EB9481"/>
<path d="M306.246 24.563C305.189 24.447 304.122 24.652 303.187 25.149C302.253 25.647 301.498 26.414 301.023 27.346C299.647 26.207 297.908 25.575 296.107 25.558C292.917 25.676 291.737 30.621 291.737 30.621C290.067 29.735 288.164 29.362 286.274 29.551C283.237 29.957 281.304 34.774 281.304 34.774C279.292 34.792 277.353 35.518 275.841 36.818C271.952 40.446 273.601 48.313 274.595 53.322C275.59 58.331 283.204 71.635 284.428 74.321L317.324 68.338C317.324 68.338 319.389 44.62 317.324 38.884C315.554 34.046 310.31 25.141 306.246 24.563Z" fill="#EB9481"/>
<path d="M301.568 27.47C304.638 32.179 306.124 37.52 307.905 42.765C307.913 42.789 307.912 42.815 307.901 42.838C307.889 42.861 307.869 42.879 307.845 42.888C307.82 42.896 307.793 42.895 307.769 42.884C307.746 42.873 307.728 42.853 307.719 42.829C306.004 37.584 303.25 32.747 301.328 27.588C301.312 27.557 301.309 27.52 301.32 27.487C301.332 27.454 301.356 27.427 301.388 27.411C301.42 27.396 301.457 27.393 301.49 27.404C301.524 27.415 301.552 27.439 301.568 27.47Z" fill="#263238"/>
<path d="M292.151 30.645C292.753 31.794 293.191 33.018 293.451 34.284C293.822 35.59 294.187 36.895 294.543 38.201C295.199 40.82 295.785 43.46 296.302 46.121C296.302 46.239 296.149 46.303 296.117 46.121C295.461 43.51 294.762 40.909 293.997 38.319C293.615 37.024 293.211 35.74 292.806 34.444C292.347 33.255 292.021 32.021 291.834 30.763C291.84 30.73 291.854 30.699 291.876 30.673C291.898 30.647 291.926 30.627 291.958 30.615C291.99 30.603 292.025 30.6 292.058 30.605C292.092 30.61 292.124 30.624 292.151 30.645Z" fill="#263238"/>
<path d="M281.259 34.874C281.778 35.906 282.114 37.017 282.253 38.16C282.526 39.358 282.799 40.568 283.083 41.767C283.662 44.164 284.23 46.562 284.897 48.938C284.897 48.963 284.887 48.988 284.868 49.006C284.85 49.024 284.825 49.034 284.799 49.034C284.772 49.034 284.747 49.024 284.729 49.006C284.711 48.988 284.7 48.963 284.7 48.938C284.023 46.529 283.313 44.121 282.657 41.713C282.329 40.525 282.013 39.337 281.707 38.138C281.315 37.082 281.119 35.966 281.128 34.842C281.137 34.832 281.149 34.824 281.162 34.82C281.175 34.816 281.19 34.816 281.203 34.819C281.217 34.822 281.229 34.829 281.239 34.839C281.249 34.849 281.255 34.861 281.259 34.874Z" fill="#263238"/>
<path d="M282.778 74.235L319.181 67.739C319.181 67.739 322.633 123.287 305.197 123.287C291.202 123.287 254.81 88.62 242.628 69.291C230.447 49.961 241.35 47.328 255.301 55.569C266.675 62.291 279.457 73.893 283.303 76.975L282.778 74.235Z" fill="#EBEBEB"/>
<path d="M283.171 76.979L321.911 73.597L320.775 66.041L281.958 73.201L283.171 76.979Z" fill="#EBEBEB"/>
<path d="M308.757 122.398C307.667 122.987 306.441 123.293 305.196 123.287C291.201 123.287 254.809 88.62 242.627 69.29C234.15 55.848 236.848 50.485 243.971 51.235L308.757 122.398Z" fill="#DBDBDB"/>
<path d="M283.302 76.973L284.187 80.388L285.039 83.791L286.743 90.598C287.322 92.857 287.912 95.115 288.535 97.362C288.852 98.486 289.169 99.61 289.54 100.723C289.911 101.836 290.261 102.939 290.633 104.073C289.497 102.013 288.536 99.865 287.759 97.651C286.94 95.436 286.306 93.167 285.705 90.898C285.104 88.629 284.613 86.317 284.241 84.005C283.806 81.678 283.492 79.331 283.302 76.973Z" fill="#263238"/>
<path d="M318.47 73.571C312.833 73.925 307.206 74.642 301.591 75.273C298.805 75.594 296.008 75.926 293.222 76.279C290.436 76.632 287.563 77.093 284.711 77.349C284.613 77.349 284.613 77.531 284.711 77.521C287.585 77.221 290.48 77.082 293.364 76.825C296.248 76.568 298.947 76.301 301.744 75.99C307.327 75.369 312.953 74.749 318.481 73.71C318.59 73.721 318.558 73.561 318.47 73.571Z" fill="#263238"/>
<path d="M280.09 149.779L275.239 134.452L271.83 111.826C271.83 111.826 279.03 99.143 274.638 90.163C272.453 85.615 253.148 57.38 245.14 51.815C237.602 46.592 226.829 52.414 222.842 56.62C207.546 72.846 204.182 112.757 199.145 156.158L253.061 151.877L258.348 140.521L263.287 151.074L280.09 149.779Z" fill="#EBEBEB"/>
<path d="M275.972 92.764C275.351 90.865 274.457 89.063 273.317 87.412C272.934 86.802 272.082 85.529 271.066 84.03C270.771 83.313 270.444 82.596 270.083 81.89C269.484 80.881 268.941 79.841 268.455 78.775C268.446 78.754 268.429 78.737 268.408 78.728C268.386 78.719 268.362 78.718 268.34 78.727C268.319 78.736 268.301 78.752 268.292 78.773C268.283 78.794 268.283 78.818 268.291 78.839C268.807 79.861 269.271 80.908 269.679 81.975C267.964 79.492 266.15 76.934 265.374 75.885C265.309 75.8 265.167 75.885 265.232 75.971C266.882 78.026 272.29 87.059 273.601 89.35C274.874 91.616 275.546 94.159 275.557 96.745C275.561 99.421 275.238 102.087 274.595 104.687C274.53 104.912 274.759 105.019 274.846 104.805C275.605 102.908 276.083 100.915 276.267 98.886C276.541 96.844 276.441 94.771 275.972 92.764Z" fill="#263238"/>
<path d="M228.698 63.958C223.825 71.332 199.866 100.819 199.025 103.559C198.184 106.298 205.482 112.474 205.438 113.609C205.274 118.2 196.884 149.217 192.677 146.338C187.127 142.549 160.82 115.3 163.3 102.456C165.78 89.613 216.713 56.433 224.907 53.394C233.101 50.354 233.505 56.69 228.698 63.958Z" fill="#EB9481"/>
<path d="M180.856 136.204L203.635 111.202C203.635 111.202 199.407 105.198 199.429 104.31C199.451 103.421 220.417 79.083 228.49 65.779C236.564 52.475 233.264 48.365 217.838 55.943C202.412 63.521 165.015 91.926 163.136 101.216C160.273 115.387 180.856 136.204 180.856 136.204Z" fill="#EBEBEB"/>
<path d="M177.164 135.526L183.271 141.52L204.99 112.226L202.489 108.844L177.164 135.526Z" fill="#EBEBEB"/>
<path d="M201.231 109.675C199.224 111.486 197.32 113.405 195.528 115.422C193.649 117.359 191.825 119.35 189.989 121.319C186.307 125.29 182.724 129.293 179.261 133.446C179.245 133.463 179.236 133.485 179.237 133.508C179.238 133.532 179.249 133.553 179.266 133.569C179.284 133.585 179.307 133.593 179.33 133.592C179.354 133.591 179.376 133.581 179.392 133.564C183.292 129.753 187.039 125.825 190.71 121.79C192.546 119.81 194.37 117.83 196.173 115.807C198.018 113.883 199.754 111.86 201.373 109.749C201.417 109.685 201.297 109.621 201.231 109.675Z" fill="#263238"/>
<path d="M219.183 81.035C218.276 81.827 217.369 82.609 216.451 83.358L216.123 83.636C217.719 81.496 219.285 79.355 220.821 77.214C220.821 77.214 220.767 77.107 220.734 77.15C216.014 82.502 211.607 88.112 207.536 93.954C207.531 93.971 207.532 93.988 207.537 94.005C207.543 94.022 207.553 94.036 207.568 94.047C207.582 94.057 207.599 94.063 207.617 94.064C207.635 94.064 207.652 94.06 207.667 94.05C210.235 91.203 212.649 88.217 214.976 85.167C215.555 84.674 216.069 84.161 216.659 83.636C217.522 82.791 218.407 81.967 219.303 81.153C219.39 81.078 219.259 80.971 219.183 81.035Z" fill="#263238"/>
<path d="M213.074 156.18C216.155 153.151 210.736 151.331 210.736 151.331C210.736 151.331 219.17 152.102 221.104 147.778C223.038 143.454 216.341 141.634 215.871 141.484C216.319 141.484 224.087 142.03 225.573 137.482C227.113 132.751 220.11 131.895 219.673 131.841C220.11 131.745 225.802 130.396 226.13 126.693C226.687 120.271 210.048 122.818 205.733 119.811C205.733 119.811 205.733 111.548 205.82 111.302C205.82 111.302 204.629 114.759 201.909 116.108C198.533 117.788 195.43 118.987 194.327 120.945C193.797 121.809 193.565 122.816 193.665 123.819C193.766 124.821 194.193 125.765 194.884 126.511C194.884 126.511 190.273 126.864 188.984 130.407C188.329 132.237 190.721 134.881 190.721 134.881C190.721 134.881 187.04 135.32 186.1 138.541C185.335 141.11 187.848 143.368 187.848 143.368C187.848 143.368 184.516 145.391 184.57 148.27C184.745 154.06 206.443 162.719 213.074 156.18Z" fill="#EB9481"/>
<path d="M188.154 143.778C188.078 143.778 188.023 143.831 188.089 143.874C194.771 148.628 202.775 151.272 211.032 151.452C211.294 151.452 211.414 151.034 211.119 150.981C203.148 149.683 195.412 147.257 188.154 143.778Z" fill="#263238"/>
<path d="M190.558 134.881C190.471 134.881 190.406 134.978 190.482 135.031C197.135 139.676 206.793 142.855 215.981 141.774C216.298 141.774 216.549 141.399 216.178 141.41C210.016 141.667 197.299 138.231 190.558 134.881Z" fill="#263238"/>
<path d="M220.242 131.533C211.392 132.239 203.199 130.088 195.114 126.695C195.016 126.695 194.961 126.802 195.037 126.866C198.534 129.585 203.92 131.212 208.224 132.143C212.19 133.061 216.331 132.954 220.242 131.832C220.428 131.79 220.438 131.522 220.242 131.533Z" fill="#263238"/>
<path d="M187.576 143.375C185.98 142.048 184.669 140.228 185.183 138.088C185.406 137.116 185.98 136.257 186.8 135.669C187.798 135.095 188.922 134.765 190.077 134.705C188.592 133.089 187.718 130.788 188.777 128.722C189.292 127.831 190.13 127.162 191.126 126.849C192.279 126.512 193.474 126.329 194.677 126.304C194.081 125.84 193.604 125.246 193.284 124.57C192.963 123.893 192.808 123.153 192.831 122.408C192.89 121.589 193.148 120.795 193.583 120.093C194.018 119.392 194.618 118.802 195.332 118.373C197.009 117.385 198.799 116.595 200.664 116.018C201.615 115.684 202.521 115.239 203.362 114.691C204.256 114.054 204.937 113.171 205.318 112.154C205.394 111.972 205.416 112.154 205.318 112.304C205.061 112.993 204.692 113.636 204.225 114.209C203.734 114.81 203.169 115.349 202.543 115.815C200.937 116.782 199.261 117.633 197.528 118.362C196.027 119.08 194.806 120.261 194.054 121.723C193.735 122.485 193.639 123.319 193.776 124.132C193.913 124.944 194.278 125.704 194.83 126.325C194.83 126.325 194.83 126.496 194.732 126.507C193.671 126.7 192.639 127.024 191.662 127.47C190.85 127.855 190.176 128.47 189.728 129.236C189.352 130.163 189.231 131.17 189.379 132.156C189.527 133.143 189.937 134.074 190.569 134.855C189.443 135.161 188.381 135.661 187.434 136.332C186.841 136.868 186.416 137.559 186.21 138.323C185.973 139.203 185.991 140.131 186.261 141.002C186.531 141.874 187.043 142.654 187.739 143.257C187.747 143.278 187.747 143.3 187.739 143.321C187.747 143.342 187.747 143.365 187.739 143.385C187.739 143.385 186.647 144.07 186.647 144.092C186.647 144.113 186.647 144.092 186.647 144.028C186.942 143.791 187.252 143.573 187.576 143.375Z" fill="#263238"/>
<path d="M228.927 51.707C229.244 52.96 238.672 60.794 244.517 60.462C246.418 60.345 243.02 50.38 243.02 50.38L243.184 49.631L245.467 39.057L232.74 31.243L230.893 30.173C230.893 30.173 230.467 33.106 229.965 36.766C229.965 36.937 229.91 37.109 229.888 37.291C229.866 37.473 229.823 37.687 229.801 37.879C229.724 38.425 229.637 38.95 229.571 39.538C229.506 40.127 229.462 40.373 229.418 40.823C229.375 41.272 229.32 41.711 229.276 42.15C228.93 45.324 228.813 48.517 228.927 51.707Z" fill="#EB9481"/>
<path d="M229.966 36.798C231.087 39.75 232.85 42.428 235.132 44.646C237.415 46.863 240.163 48.568 243.185 49.642L245.469 39.067L232.741 31.243L230.894 30.173C230.894 30.173 230.468 33.138 229.966 36.798Z" fill="#263238"/>
<path d="M260.654 23.483C263.308 42.277 252.121 45.959 247.98 46.505C244.233 47.018 231.374 48.26 226.753 29.84C222.131 11.42 230.216 4.27098 238.77 2.67598C247.325 1.08098 257.999 4.68799 260.654 23.483Z" fill="#EB9481"/>
<path d="M254.175 20.527C253.731 20.493 253.289 20.432 252.853 20.345C252.379 20.342 251.919 20.188 251.542 19.906C251.447 19.789 251.396 19.644 251.396 19.494C251.396 19.344 251.447 19.199 251.542 19.082C251.747 18.863 252.008 18.701 252.298 18.615C252.588 18.528 252.897 18.519 253.192 18.59C253.813 18.631 254.395 18.902 254.819 19.35C254.915 19.459 254.975 19.595 254.99 19.738C255.006 19.882 254.977 20.027 254.908 20.154C254.838 20.281 254.731 20.385 254.6 20.451C254.469 20.518 254.321 20.544 254.175 20.527Z" fill="#263238"/>
<path d="M241.349 23.114C241.797 23.189 242.234 23.178 242.682 23.21C243.146 23.308 243.629 23.255 244.059 23.06C244.183 22.973 244.274 22.848 244.317 22.705C244.361 22.561 244.354 22.408 244.299 22.268C244.147 22.01 243.927 21.795 243.662 21.646C243.397 21.498 243.097 21.421 242.792 21.423C242.175 21.335 241.548 21.476 241.033 21.819C240.918 21.904 240.831 22.021 240.783 22.154C240.735 22.287 240.727 22.43 240.76 22.568C240.794 22.705 240.867 22.83 240.972 22.927C241.077 23.024 241.208 23.089 241.349 23.114Z" fill="#263238"/>
<path d="M244.157 26.442C244.157 26.442 244.059 26.506 244.059 26.56C244.222 27.844 244.19 29.342 243.042 29.878C243.042 29.878 243.042 29.953 243.042 29.942C244.485 29.621 244.517 27.63 244.157 26.442Z" fill="#263238"/>
<path d="M242.856 25.194C240.726 25.194 240.944 29.389 242.922 29.357C244.899 29.325 244.637 25.172 242.856 25.194Z" fill="#263238"/>
<path d="M242.038 25.459C241.677 25.705 241.328 26.144 240.891 26.208C240.454 26.272 239.962 25.876 239.601 25.47H239.525C239.525 26.262 239.918 27.064 240.792 27.139C241.666 27.214 242.125 26.476 242.289 25.662C242.322 25.566 242.18 25.352 242.038 25.459Z" fill="#263238"/>
<path d="M251.957 25.427C251.957 25.427 252.056 25.427 252.066 25.534C252.066 26.829 252.318 28.306 253.53 28.681V28.756C252.056 28.617 251.761 26.658 251.957 25.427Z" fill="#263238"/>
<path d="M253.072 24.013C255.18 23.767 255.541 27.92 253.574 28.155C251.608 28.391 251.313 24.227 253.072 24.013Z" fill="#263238"/>
<path d="M253.979 24.235C254.328 24.427 254.7 24.802 255.071 24.791C255.443 24.781 255.836 24.31 256.098 23.85H256.164C256.262 24.642 256.066 25.487 255.29 25.712C254.514 25.937 254.012 25.262 253.76 24.492C253.739 24.395 253.837 24.16 253.979 24.235Z" fill="#263238"/>
<path d="M250.526 31.301C250.526 31.301 250.92 33.206 250.985 34.116C250.985 34.201 250.767 34.255 250.45 34.298C249.666 34.491 248.842 34.467 248.07 34.229C247.299 33.991 246.61 33.548 246.08 32.949C246.071 32.931 246.068 32.911 246.072 32.891C246.075 32.872 246.085 32.854 246.099 32.839C246.113 32.825 246.132 32.816 246.152 32.813C246.172 32.809 246.193 32.812 246.211 32.821C247.445 33.537 248.881 33.845 250.308 33.698C250.363 33.441 249.521 30.487 249.663 30.487C250.404 30.497 251.14 30.609 251.848 30.819C251.138 26.816 249.784 22.963 249.139 18.971C249.139 18.832 249.325 18.778 249.368 18.896C250.952 22.986 252.115 27.22 252.843 31.536C252.854 31.997 250.909 31.429 250.526 31.301Z" fill="#263238"/>
<path d="M250.33 33.579C249.905 34.388 249.272 35.074 248.494 35.57C248.065 35.826 247.565 35.946 247.063 35.912C245.97 35.827 245.763 34.842 245.807 34.05C245.833 33.6 245.914 33.155 246.047 32.723C247.343 33.452 248.845 33.753 250.33 33.579Z" fill="#263238"/>
<path d="M248.494 35.571C248.065 35.827 247.565 35.947 247.063 35.913C245.97 35.828 245.763 34.843 245.807 34.051C246.364 33.969 246.933 34.075 247.422 34.351C247.91 34.627 248.288 35.057 248.494 35.571Z" fill="#E587B4"/>
<path d="M226.982 28.496C231.592 28.304 231.177 21.186 231.177 21.186C231.177 21.186 236.388 20.458 236.334 12.174C237.438 13.782 238.907 15.117 240.626 16.076C242.346 17.034 244.268 17.589 246.243 17.697C247.761 17.836 242.528 14.283 242.528 14.283C242.528 14.283 248.832 19.324 259.91 16.734C260.697 16.541 258.403 5.07802 249.422 1.57802C240.442 -1.92198 232.663 0.711012 227.572 6.40501C227.572 6.40501 221.301 9.61603 220.886 15.631C220.47 21.646 225.19 28.56 226.982 28.496Z" fill="#263238"/>
<path d="M230.03 29.572C230.03 29.572 225.496 23.867 222.841 25.473C220.187 27.078 223.792 35.501 227.069 36.507C227.48 36.665 227.92 36.74 228.361 36.728C228.802 36.715 229.236 36.615 229.637 36.435C230.038 36.254 230.398 35.995 230.694 35.675C230.991 35.354 231.218 34.979 231.363 34.57L230.03 29.572Z" fill="#EB9481"/>
<path d="M223.934 27.853C223.934 27.853 223.879 27.928 223.934 27.939C226.239 28.72 227.528 30.711 228.468 32.798C228.326 32.583 228.139 32.401 227.918 32.265C227.698 32.128 227.45 32.04 227.191 32.006C226.932 31.973 226.669 31.994 226.42 32.07C226.171 32.146 225.941 32.274 225.748 32.445C225.693 32.445 225.748 32.573 225.813 32.563C226.203 32.417 226.629 32.394 227.033 32.498C227.437 32.601 227.797 32.826 228.064 33.14C228.488 33.669 228.854 34.239 229.156 34.842C229.276 35.035 229.637 34.906 229.549 34.682C229.462 31.813 227.037 27.982 223.934 27.853Z" fill="#263238"/>
<path d="M242.333 61.042C243.884 67.625 245.326 74.239 246.703 80.843C248.079 87.447 249.445 94.093 250.821 100.708C252.198 107.322 253.454 113.979 254.7 120.626L256.546 130.59C257.125 133.929 257.737 137.247 258.283 140.587C257.497 137.301 256.776 133.994 256.022 130.697L253.837 120.786C252.427 114.172 251.095 107.536 249.718 100.922C248.341 94.307 247.085 87.65 245.839 81.003C244.594 74.357 243.447 67.689 242.333 61.042Z" fill="#263238"/>
<path d="M251.433 80.384C251.49 80.631 251.471 80.888 251.379 81.124C251.286 81.359 251.124 81.563 250.913 81.708C250.702 81.853 250.452 81.934 250.195 81.94C249.937 81.945 249.683 81.876 249.466 81.74C249.249 81.604 249.077 81.408 248.974 81.177C248.871 80.945 248.84 80.689 248.886 80.44C248.932 80.192 249.052 79.962 249.231 79.781C249.41 79.599 249.641 79.474 249.893 79.421C250.227 79.351 250.576 79.413 250.865 79.593C251.153 79.773 251.357 80.058 251.433 80.384Z" fill="#263238"/>
<path d="M253.738 93.236C253.793 93.48 253.773 93.735 253.68 93.968C253.587 94.201 253.425 94.401 253.216 94.544C253.006 94.687 252.758 94.766 252.503 94.77C252.248 94.775 251.997 94.705 251.782 94.57C251.567 94.435 251.398 94.24 251.297 94.011C251.195 93.782 251.165 93.528 251.211 93.282C251.256 93.036 251.376 92.808 251.553 92.629C251.731 92.449 251.959 92.325 252.209 92.273C252.542 92.203 252.89 92.265 253.176 92.445C253.463 92.626 253.665 92.91 253.738 93.236Z" fill="#263238"/>
<path d="M256.055 106.099C256.107 106.343 256.084 106.597 255.99 106.828C255.895 107.059 255.733 107.258 255.523 107.399C255.314 107.54 255.066 107.618 254.812 107.621C254.557 107.625 254.308 107.555 254.094 107.42C253.88 107.284 253.712 107.09 253.611 106.862C253.509 106.633 253.479 106.381 253.524 106.135C253.569 105.89 253.687 105.663 253.863 105.484C254.04 105.304 254.266 105.179 254.514 105.125C254.681 105.089 254.853 105.086 255.021 105.115C255.189 105.145 255.349 105.207 255.492 105.297C255.635 105.388 255.759 105.505 255.856 105.643C255.952 105.781 256.02 105.936 256.055 106.099Z" fill="#263238"/>
<path d="M258.371 118.951C258.425 119.198 258.405 119.454 258.31 119.689C258.216 119.924 258.053 120.126 257.841 120.27C257.63 120.413 257.379 120.492 257.122 120.496C256.865 120.501 256.612 120.43 256.395 120.293C256.179 120.156 256.009 119.96 255.907 119.728C255.805 119.497 255.775 119.241 255.822 118.993C255.868 118.745 255.989 118.516 256.168 118.335C256.348 118.154 256.578 118.03 256.83 117.977C257.166 117.907 257.517 117.97 257.805 118.153C258.094 118.335 258.297 118.622 258.371 118.951Z" fill="#263238"/>
<path d="M260.686 131.803C260.741 132.049 260.72 132.306 260.626 132.541C260.532 132.775 260.369 132.977 260.157 133.121C259.946 133.265 259.695 133.344 259.438 133.348C259.18 133.352 258.928 133.282 258.711 133.145C258.495 133.008 258.325 132.811 258.223 132.58C258.121 132.348 258.091 132.092 258.138 131.844C258.184 131.596 258.305 131.367 258.484 131.187C258.664 131.006 258.894 130.881 259.146 130.829C259.482 130.759 259.833 130.822 260.121 131.004C260.41 131.187 260.613 131.474 260.686 131.803Z" fill="#263238"/>
<path d="M243.13 50.664L241.338 59.526L228.883 51.028L226.556 54.924C226.556 54.924 239.972 69.598 239.896 68.838L241.993 61.099L247.948 65.113L245.162 52.783L243.13 50.664Z" fill="#EBEBEB"/>
<path d="M246.943 58.901C246.418 56.889 245.938 54.834 245.315 52.843C245.315 52.768 245.173 52.758 245.162 52.843C245.162 54.898 247.205 62.615 247.555 64.499C247.303 64.328 242.092 61.01 242.092 61.085C241.557 62.348 240.005 67.988 239.907 68.491C237.777 66.158 229.747 57.788 227.354 55.648C227.341 55.632 227.322 55.622 227.302 55.62C227.281 55.618 227.261 55.624 227.245 55.637C227.229 55.65 227.219 55.668 227.217 55.688C227.215 55.708 227.221 55.728 227.234 55.744C229.2 58.259 239.885 69.658 240.005 69.561C240.88 66.875 241.609 64.146 242.19 61.384C243.119 62.144 248.483 65.987 248.44 65.666C248.068 63.386 247.568 61.127 246.943 58.901Z" fill="#263238"/>
<path d="M228.861 48.405C227.496 46.854 225.988 50.835 228.501 52.59C232.226 55.191 239.371 57.942 240.584 57.792C241.797 57.642 244.025 53.115 244.266 52.216C244.506 51.317 243.457 49.636 243.173 49.872C242.889 50.107 240.715 54.752 240.289 55.02C239.863 55.287 231.811 51.723 228.861 48.405Z" fill="#FFA629"/>
<path d="M241.054 350.481L247.15 351.936L241.032 353.007L239.655 359.332L238.29 353.007L232.172 351.936L238.268 350.481L239.655 344.509L241.054 350.481ZM102.523 308.054L101.124 314.027L95.0826 315.482L101.201 316.552L102.577 322.867L103.943 316.552L110.061 315.482L103.965 314.027L102.523 308.054ZM362.094 245.817L360.706 239.855L359.308 245.817L353.211 247.272L359.329 248.342L360.706 254.657L362.072 248.342L368.19 247.272L362.094 245.817ZM128.743 123.054L127.345 129.015L121.303 130.481L127.421 131.552L128.787 137.866L130.152 131.552L136.27 130.481L130.174 129.015L128.743 123.054ZM369.85 283.202L369.075 286.541L365.666 287.355L369.086 287.976L369.85 291.518L370.615 287.976L374.035 287.365L370.626 286.541L369.85 283.202ZM181.391 301.74L180.616 305.068L177.207 305.882L180.627 306.513L181.391 310.045L182.156 306.513L185.576 305.892L182.178 305.068L181.391 301.74ZM292.173 325.575L291.386 328.914L287.988 329.728L291.408 330.349L292.173 333.881L292.937 330.349L296.357 329.728L292.948 328.914L292.173 325.575ZM205.787 370.057L205.012 373.396L201.603 374.209L205.023 374.83L205.787 378.362L206.552 374.83L209.972 374.209L206.574 373.396L205.787 370.057ZM83.3271 293.423L82.5514 296.763L79.1428 297.576L82.5624 298.197L83.3271 301.74L84.0919 298.197L87.5115 297.587L84.1028 296.763L83.3271 293.423ZM71.8011 204.589L71.0254 207.928L67.6168 208.742L71.0473 209.362L71.8011 212.905L72.5659 209.362L75.9964 208.752L72.5877 207.928L71.8011 204.589ZM317.147 331.205C316.903 331.23 316.677 331.343 316.513 331.522C316.348 331.701 316.257 331.933 316.257 332.173C316.257 332.414 316.348 332.646 316.513 332.825C316.677 333.004 316.903 333.117 317.147 333.142C317.392 333.117 317.618 333.004 317.782 332.825C317.947 332.646 318.038 332.414 318.038 332.173C318.038 331.933 317.947 331.701 317.782 331.522C317.618 331.343 317.392 331.23 317.147 331.205ZM384.031 218.663C383.768 218.663 383.515 218.766 383.328 218.948C383.142 219.131 383.037 219.379 383.037 219.637C383.037 219.895 383.142 220.143 383.328 220.326C383.515 220.508 383.768 220.611 384.031 220.611C384.295 220.611 384.548 220.508 384.734 220.326C384.921 220.143 385.025 219.895 385.025 219.637C385.025 219.379 384.921 219.131 384.734 218.948C384.548 218.766 384.295 218.663 384.031 218.663ZM112.563 152.786C112.299 152.786 112.046 152.889 111.86 153.072C111.673 153.254 111.569 153.502 111.569 153.76C111.569 154.019 111.673 154.266 111.86 154.449C112.046 154.632 112.299 154.734 112.563 154.734C112.827 154.734 113.079 154.632 113.266 154.449C113.452 154.266 113.557 154.019 113.557 153.76C113.557 153.502 113.452 153.254 113.266 153.072C113.079 152.889 112.827 152.786 112.563 152.786ZM351.562 297.094C351.317 297.12 351.091 297.233 350.927 297.411C350.763 297.59 350.672 297.822 350.672 298.063C350.672 298.304 350.763 298.536 350.927 298.715C351.091 298.894 351.317 299.007 351.562 299.032C351.806 299.007 352.032 298.894 352.196 298.715C352.361 298.536 352.452 298.304 352.452 298.063C352.452 297.822 352.361 297.59 352.196 297.411C352.032 297.233 351.806 297.12 351.562 297.094ZM63.9677 278.022C63.7234 278.047 63.4973 278.16 63.3329 278.339C63.1686 278.518 63.0776 278.75 63.0776 278.99C63.0776 279.231 63.1686 279.463 63.3329 279.642C63.4973 279.821 63.7234 279.934 63.9677 279.959C64.2121 279.934 64.4382 279.821 64.6026 279.642C64.7669 279.463 64.8579 279.231 64.8579 278.99C64.8579 278.75 64.7669 278.518 64.6026 278.339C64.4382 278.16 64.2121 278.047 63.9677 278.022ZM84.0373 190.546C84.2227 190.546 84.4006 190.474 84.5317 190.346C84.6628 190.217 84.7365 190.043 84.7365 189.861C84.7365 189.68 84.6628 189.506 84.5317 189.377C84.4006 189.249 84.2227 189.176 84.0373 189.176C83.8518 189.176 83.674 189.249 83.5429 189.377C83.4117 189.506 83.3381 189.68 83.3381 189.861C83.3381 190.043 83.4117 190.217 83.5429 190.346C83.674 190.474 83.8518 190.546 84.0373 190.546ZM198.62 332.168C198.449 332.189 198.291 332.271 198.176 332.398C198.061 332.525 197.998 332.689 197.998 332.858C197.998 333.028 198.061 333.192 198.176 333.319C198.291 333.446 198.449 333.528 198.62 333.549C198.792 333.528 198.95 333.446 199.065 333.319C199.179 333.192 199.243 333.028 199.243 332.858C199.243 332.689 199.179 332.525 199.065 332.398C198.95 332.271 198.792 332.189 198.62 332.168ZM370.145 193.158C370.331 193.158 370.509 193.086 370.64 192.957C370.771 192.829 370.845 192.655 370.845 192.473C370.845 192.291 370.771 192.117 370.64 191.989C370.509 191.86 370.331 191.788 370.145 191.788C369.96 191.795 369.785 191.874 369.659 192.008C369.533 192.141 369.466 192.318 369.473 192.5C369.481 192.681 369.561 192.853 369.698 192.976C369.834 193.1 370.015 193.165 370.2 193.158H370.145ZM129.42 329.685C129.249 329.706 129.091 329.788 128.976 329.915C128.861 330.042 128.798 330.206 128.798 330.375C128.798 330.545 128.861 330.709 128.976 330.836C129.091 330.963 129.249 331.045 129.42 331.066C129.592 331.045 129.75 330.963 129.865 330.836C129.979 330.709 130.043 330.545 130.043 330.375C130.043 330.206 129.979 330.042 129.865 329.915C129.75 329.788 129.592 329.706 129.42 329.685ZM250.777 324.034C250.273 324.034 249.789 324.23 249.433 324.579C249.076 324.929 248.876 325.402 248.876 325.896C248.876 326.39 249.076 326.864 249.433 327.213C249.789 327.562 250.273 327.758 250.777 327.758C251.226 327.691 251.636 327.468 251.932 327.131C252.228 326.793 252.391 326.363 252.391 325.918C252.391 325.472 252.228 325.042 251.932 324.704C251.636 324.367 251.226 324.144 250.777 324.077V324.034ZM138.401 323.37C137.897 323.37 137.413 323.566 137.057 323.916C136.7 324.265 136.5 324.739 136.5 325.233C136.5 325.726 136.7 326.2 137.057 326.549C137.413 326.899 137.897 327.095 138.401 327.095C138.85 327.028 139.26 326.805 139.556 326.467C139.852 326.13 140.014 325.699 140.014 325.254C140.014 324.809 139.852 324.378 139.556 324.041C139.26 323.703 138.85 323.48 138.401 323.413V323.37ZM102.523 150.731C103.027 150.731 103.51 150.535 103.867 150.186C104.223 149.837 104.424 149.363 104.424 148.869C104.424 148.375 104.223 147.902 103.867 147.552C103.51 147.203 103.027 147.007 102.523 147.007C102.013 147.007 101.524 147.205 101.163 147.559C100.802 147.912 100.6 148.391 100.6 148.891C100.6 149.39 100.802 149.869 101.163 150.223C101.524 150.576 102.013 150.774 102.523 150.774V150.731ZM374.035 250.108C373.531 250.108 373.047 250.305 372.691 250.654C372.334 251.003 372.134 251.477 372.134 251.971C372.134 252.465 372.334 252.938 372.691 253.288C373.047 253.637 373.531 253.833 374.035 253.833C374.484 253.766 374.894 253.543 375.19 253.205C375.486 252.868 375.648 252.437 375.648 251.992C375.648 251.547 375.486 251.117 375.19 250.779C374.894 250.441 374.484 250.219 374.035 250.151V250.108Z" fill="#FFA629"/>
</g>
<defs>
<filter id="filter0_d_334_7" x="0" y="-0.000366211" width="448" height="453.472" filterUnits="userSpaceOnUse" color-interpolation-filters="sRGB">
<feFlood flood-opacity="0" result="BackgroundImageFix"/>
<feColorMatrix in="SourceAlpha" type="matrix" values="0 0 0 0 0 0 0 0 0 0 0 0 0 0 0 0 0 0 127 0" result="hardAlpha"/>
<feOffset dy="4"/>
<feGaussianBlur stdDeviation="2"/>
<feComposite in2="hardAlpha" operator="out"/>
<feColorMatrix type="matrix" values="0 0 0 0 0 0 0 0 0 0 0 0 0 0 0 0 0 0 0.25 0"/>
<feBlend mode="normal" in2="BackgroundImageFix" result="effect1_dropShadow_334_7"/>
<feBlend mode="normal" in="SourceGraphic" in2="effect1_dropShadow_334_7" result="shape"/>
</filter>
</defs>
</svg>
