<svg width="169" height="46" viewBox="0 0 169 46" fill="none" xmlns="http://www.w3.org/2000/svg">
<path id="Arrow 1" d="M167.061 24.0607C167.646 23.4749 167.646 22.5251 167.061 21.9393L157.515 12.3934C156.929 11.8076 155.979 11.8076 155.393 12.3934C154.808 12.9792 154.808 13.9289 155.393 14.5147L163.879 23L155.393 31.4853C154.808 32.0711 154.808 33.0208 155.393 33.6066C155.979 34.1924 156.929 34.1924 157.515 33.6066L167.061 24.0607ZM0 24.5H5.1875V21.5H0V24.5ZM15.5625 24.5H25.9375V21.5H15.5625V24.5ZM36.3125 24.5H46.6875V21.5H36.3125V24.5ZM57.0625 24.5H67.4375V21.5H57.0625V24.5ZM77.8125 24.5H88.1875V21.5H77.8125V24.5ZM98.5625 24.5H108.938V21.5H98.5625V24.5ZM119.312 24.5H129.688V21.5H119.312V24.5ZM140.062 24.5H150.438V21.5H140.062V24.5ZM160.812 24.5H166V21.5H160.812V24.5ZM168.121 25.1213C169.293 23.9497 169.293 22.0503 168.121 20.8787L149.029 1.7868C147.858 0.615223 145.958 0.615223 144.787 1.7868C143.615 2.95837 143.615 4.85786 144.787 6.02944L161.757 23L144.787 39.9706C143.615 41.1421 143.615 43.0416 144.787 44.2132C145.958 45.3848 147.858 45.3848 149.029 44.2132L168.121 25.1213ZM0 26H5.1875V20H0V26ZM15.5625 26H25.9375V20H15.5625V26ZM36.3125 26H46.6875V20H36.3125V26ZM57.0625 26H67.4375V20H57.0625V26ZM77.8125 26H88.1875V20H77.8125V26ZM98.5625 26H108.938V20H98.5625V26ZM119.312 26H129.688V20H119.312V26ZM140.062 26H150.438V20H140.062V26ZM160.812 26H166V20H160.812V26Z" fill="url(#paint0_linear_655_26772)"/>
<defs>
<linearGradient id="paint0_linear_655_26772" x1="166" y1="24" x2="163.446" y2="3.06158" gradientUnits="userSpaceOnUse">
<stop stop-color="#329D71" stop-opacity="0.9"/>
<stop offset="0.214637" stop-color="#2C939E"/>
<stop offset="0.761395" stop-color="#2C939E"/>
<stop offset="1" stop-color="#2E5C9C"/>
<stop offset="1" stop-color="#2E5C9C" stop-opacity="0.8"/>
</linearGradient>
</defs>
</svg>
