<svg width="308" height="46" viewBox="0 0 308 46" fill="none" xmlns="http://www.w3.org/2000/svg">
<path d="M1.93933 21.9393C1.35355 22.5251 1.35355 23.4749 1.93933 24.0607L11.4853 33.6066C12.0711 34.1924 13.0208 34.1924 13.6066 33.6066C14.1924 33.0208 14.1924 32.0711 13.6066 31.4853L5.12131 23L13.6066 14.5147C14.1924 13.9289 14.1924 12.9792 13.6066 12.3934C13.0208 11.8076 12.0711 11.8076 11.4853 12.3934L1.93933 21.9393ZM308 21.5H302.917V24.5H308V21.5ZM292.75 21.5L282.583 21.5V24.5L292.75 24.5V21.5ZM272.417 21.5L262.25 21.5V24.5L272.417 24.5V21.5ZM252.083 21.5H241.917V24.5H252.083V21.5ZM231.75 21.5H221.583V24.5H231.75V21.5ZM211.417 21.5L201.25 21.5V24.5L211.417 24.5V21.5ZM191.083 21.5H180.917V24.5H191.083V21.5ZM170.75 21.5H160.583V24.5H170.75V21.5ZM150.417 21.5L140.25 21.5V24.5L150.417 24.5V21.5ZM130.083 21.5H119.917V24.5H130.083V21.5ZM109.75 21.5H99.5833V24.5H109.75V21.5ZM89.4166 21.5H79.25V24.5H89.4166V21.5ZM69.0833 21.5L58.9166 21.5V24.5L69.0833 24.5V21.5ZM48.75 21.5H38.5833V24.5H48.75V21.5ZM28.4167 21.5H18.25V24.5H28.4167V21.5ZM8.08334 21.5H3V24.5H8.08334V21.5ZM0.878693 20.8787C-0.292908 22.0503 -0.292908 23.9497 0.878693 25.1213L19.9706 44.2132C21.1422 45.3848 23.0416 45.3848 24.2132 44.2132C25.3848 43.0416 25.3848 41.1421 24.2132 39.9706L7.24265 23L24.2132 6.02944C25.3848 4.85786 25.3848 2.95837 24.2132 1.7868C23.0416 0.615223 21.1422 0.615223 19.9706 1.7868L0.878693 20.8787ZM308 20H302.917V26H308V20ZM292.75 20L282.583 20V26L292.75 26V20ZM272.417 20L262.25 20V26L272.417 26V20ZM252.083 20H241.917V26H252.083V20ZM231.75 20H221.583V26H231.75V20ZM211.417 20L201.25 20V26L211.417 26V20ZM191.083 20H180.917V26H191.083V20ZM170.75 20H160.583V26H170.75V20ZM150.417 20L140.25 20V26L150.417 26V20ZM130.083 20H119.917V26H130.083V20ZM109.75 20H99.5833V26H109.75V20ZM89.4166 20H79.25V26H89.4166V20ZM69.0833 20L58.9166 20V26L69.0833 26V20ZM48.75 20H38.5833V26H48.75V20ZM28.4167 20H18.25V26H28.4167V20ZM8.08334 20H3V26H8.08334V20Z" fill="url(#paint0_linear_655_26783)"/>
<defs>
<linearGradient id="paint0_linear_655_26783" x1="3" y1="22" x2="4.40467" y2="43.1567" gradientUnits="userSpaceOnUse">
<stop stop-color="#329D71" stop-opacity="0.9"/>
<stop offset="0.214637" stop-color="#2C939E"/>
<stop offset="0.761395" stop-color="#2C939E"/>
<stop offset="1" stop-color="#2E5C9C"/>
<stop offset="1" stop-color="#2E5C9C" stop-opacity="0.8"/>
</linearGradient>
</defs>
</svg>
