<svg width="539" height="107" viewBox="0 0 539 107" fill="none" xmlns="http://www.w3.org/2000/svg">
<path d="M536 84V85.5H537.5V84H536ZM1.93934 82.9393C1.35355 83.5251 1.35355 84.4749 1.93934 85.0607L11.4853 94.6066C12.0711 95.1924 13.0208 95.1924 13.6066 94.6066C14.1924 94.0208 14.1924 93.0711 13.6066 92.4853L5.12132 84L13.6066 75.5147C14.1924 74.9289 14.1924 73.9792 13.6066 73.3934C13.0208 72.8076 12.0711 72.8076 11.4853 73.3934L1.93934 82.9393ZM3 85.5H7.93518V82.5H3V85.5ZM17.8056 85.5H27.6759V82.5H17.8056V85.5ZM37.5463 85.5H47.4167V82.5H37.5463V85.5ZM57.287 85.5H67.1574V82.5H57.287V85.5ZM77.0278 85.5H86.8981V82.5H77.0278V85.5ZM96.7685 85.5H106.639V82.5H96.7685V85.5ZM116.509 85.5H126.38V82.5H116.509V85.5ZM136.25 85.5H146.12V82.5H136.25V85.5ZM155.991 85.5H165.861V82.5H155.991V85.5ZM175.731 85.5H185.602V82.5H175.731V85.5ZM195.472 85.5H205.343V82.5H195.472V85.5ZM215.213 85.5H225.083V82.5H215.213V85.5ZM234.954 85.5H244.824V82.5H234.954V85.5ZM254.695 85.5H264.565V82.5H254.695V85.5ZM274.435 85.5H284.306V82.5H274.435V85.5ZM294.176 85.5H304.046V82.5H294.176V85.5ZM313.917 85.5H323.787V82.5H313.917V85.5ZM333.657 85.5H343.528V82.5H333.657V85.5ZM353.398 85.5H363.268V82.5H353.398V85.5ZM373.139 85.5H383.009V82.5H373.139V85.5ZM392.88 85.5H402.75V82.5H392.88V85.5ZM412.62 85.5H422.491V82.5H412.62V85.5ZM432.361 85.5H442.231V82.5H432.361V85.5ZM452.102 85.5H461.972V82.5H452.102V85.5ZM471.842 85.5H481.713V82.5H471.842V85.5ZM491.583 85.5H501.454V82.5H491.583V85.5ZM511.324 85.5H521.194V82.5H511.324V85.5ZM531.065 85.5H536V82.5H531.065V85.5ZM537.5 84V78.75H534.5V84H537.5ZM537.5 68.25V57.75H534.5V68.25H537.5ZM537.5 47.25V36.75H534.5V47.25H537.5ZM537.5 26.25V15.75H534.5V26.25H537.5ZM537.5 5.25V0H534.5V5.25H537.5ZM536 84V87H539V84H536ZM0.87868 81.8787C-0.292893 83.0503 -0.292893 84.9497 0.87868 86.1213L19.9706 105.213C21.1421 106.385 23.0416 106.385 24.2132 105.213C25.3848 104.042 25.3848 102.142 24.2132 100.971L7.24264 84L24.2132 67.0294C25.3848 65.8579 25.3848 63.9584 24.2132 62.7868C23.0416 61.6152 21.1421 61.6152 19.9706 62.7868L0.87868 81.8787ZM3 87H7.93518V81H3V87ZM17.8056 87H27.6759V81H17.8056V87ZM37.5463 87H47.4167V81H37.5463V87ZM57.287 87H67.1574V81H57.287V87ZM77.0278 87H86.8981V81H77.0278V87ZM96.7685 87H106.639V81H96.7685V87ZM116.509 87H126.38V81H116.509V87ZM136.25 87H146.12V81H136.25V87ZM155.991 87H165.861V81H155.991V87ZM175.731 87H185.602V81H175.731V87ZM195.472 87H205.343V81H195.472V87ZM215.213 87H225.083V81H215.213V87ZM234.954 87H244.824V81H234.954V87ZM254.695 87H264.565V81H254.695V87ZM274.435 87H284.306V81H274.435V87ZM294.176 87H304.046V81H294.176V87ZM313.917 87H323.787V81H313.917V87ZM333.657 87H343.528V81H333.657V87ZM353.398 87H363.268V81H353.398V87ZM373.139 87H383.009V81H373.139V87ZM392.88 87H402.75V81H392.88V87ZM412.62 87H422.491V81H412.62V87ZM432.361 87H442.231V81H432.361V87ZM452.102 87H461.972V81H452.102V87ZM471.842 87H481.713V81H471.842V87ZM491.583 87H501.454V81H491.583V87ZM511.324 87H521.194V81H511.324V87ZM531.065 87H536V81H531.065V87ZM539 84V78.75H533V84H539ZM539 68.25V57.75H533V68.25H539ZM539 47.25V36.75H533V47.25H539ZM539 26.25V15.75H533V26.25H539ZM539 5.25V0H533V5.25H539Z" fill="url(#paint0_linear_655_26812)"/>
<defs>
<linearGradient id="paint0_linear_655_26812" x1="536" y1="84" x2="26.6861" y2="-75.591" gradientUnits="userSpaceOnUse">
<stop stop-color="#329D71" stop-opacity="0.9"/>
<stop offset="0.214637" stop-color="#2C939E"/>
<stop offset="0.761395" stop-color="#2C939E"/>
<stop offset="1" stop-color="#2E5C9C"/>
<stop offset="1" stop-color="#2E5C9C" stop-opacity="0.8"/>
</linearGradient>
</defs>
</svg>
