<svg width="152" height="96" viewBox="0 0 152 96" fill="none" xmlns="http://www.w3.org/2000/svg">
<path id="Vector 17" d="M127.939 94.0607C128.525 94.6464 129.475 94.6464 130.061 94.0607L139.607 84.5147C140.192 83.9289 140.192 82.9792 139.607 82.3934C139.021 81.8076 138.071 81.8076 137.485 82.3934L129 90.8787L120.515 82.3934C119.929 81.8076 118.979 81.8076 118.393 82.3934C117.808 82.9792 117.808 83.9289 118.393 84.5147L127.939 94.0607ZM0 4.5H4.875V1.5H0V4.5ZM14.625 4.5H24.375V1.5H14.625V4.5ZM34.125 4.5H43.875V1.5H34.125V4.5ZM53.625 4.5H63.375V1.5H53.625V4.5ZM73.125 4.5H82.875V1.5H73.125V4.5ZM92.625 4.5H102.375V1.5H92.625V4.5ZM112.125 4.5H117V1.5H112.125V4.5ZM117 4.5C118.426 4.5 119.783 4.78363 121.019 5.29616L122.168 2.52498C120.574 1.86404 118.828 1.5 117 1.5V4.5ZM126.704 10.9811C127.216 12.2171 127.5 13.5735 127.5 15H130.5C130.5 13.1723 130.136 11.4258 129.475 9.83197L126.704 10.9811ZM127.5 15V19.875H130.5V15H127.5ZM127.5 29.625V39.375H130.5V29.625H127.5ZM127.5 49.125V58.875H130.5V49.125H127.5ZM127.5 68.625V78.375H130.5V68.625H127.5ZM127.5 88.125V93H130.5V88.125H127.5ZM126.879 95.1213C128.05 96.2929 129.95 96.2929 131.121 95.1213L150.213 76.0294C151.385 74.8579 151.385 72.9584 150.213 71.7868C149.042 70.6152 147.142 70.6152 145.971 71.7868L129 88.7574L112.029 71.7868C110.858 70.6152 108.958 70.6152 107.787 71.7868C106.615 72.9584 106.615 74.8579 107.787 76.0294L126.879 95.1213ZM0 6H4.875V0H0V6ZM14.625 6H24.375V0H14.625V6ZM34.125 6H43.875V0H34.125V6ZM53.625 6H63.375V0H53.625V6ZM73.125 6H82.875V0H73.125V6ZM92.625 6H102.375V0H92.625V6ZM112.125 6H117V0H112.125V6ZM117 6C118.226 6 119.387 6.24342 120.444 6.68174L122.743 1.13939C120.97 0.404248 119.028 0 117 0V6ZM125.318 11.5557C125.757 12.6127 126 13.7741 126 15H132C132 12.9717 131.596 11.0302 130.861 9.25739L125.318 11.5557ZM126 15V19.875H132V15H126ZM126 29.625V39.375H132V29.625H126ZM126 49.125V58.875H132V49.125H126ZM126 68.625V78.375H132V68.625H126ZM126 88.125V93H132V88.125H126Z" fill="url(#paint0_linear_655_26778)"/>
<defs>
<linearGradient id="paint0_linear_655_26778" x1="129" y1="93" x2="-5.69553" y2="83.466" gradientUnits="userSpaceOnUse">
<stop stop-color="#329D71" stop-opacity="0.9"/>
<stop offset="0.214637" stop-color="#2C939E"/>
<stop offset="0.761395" stop-color="#2C939E"/>
<stop offset="1" stop-color="#2E5C9C"/>
<stop offset="1" stop-color="#2E5C9C" stop-opacity="0.8"/>
</linearGradient>
</defs>
</svg>
