<svg width="282" height="311" viewBox="0 0 282 311" fill="none" xmlns="http://www.w3.org/2000/svg">
<g clip-path="url(#clip0_320_1407)">
<path d="M145.24 155.258H22.055V7.43439H145.24V155.258ZM24.626 152.276H142.67V10.4168H24.626V152.276Z" fill="#EBEBEB"/>
<path d="M83.93 11.1923H81.36V153.759H83.93V11.1923Z" fill="#EBEBEB"/>
<path d="M147.57 13.4662H19.723V17.6192H147.57V13.4662Z" fill="#EBEBEB"/>
<path d="M147.57 18.1335H19.723V22.2865H147.57V18.1335Z" fill="#EBEBEB"/>
<path d="M147.57 22.8085H19.723V26.9616H147.57V22.8085Z" fill="#EBEBEB"/>
<path d="M147.57 27.476H19.723V31.629H147.57V27.476Z" fill="#EBEBEB"/>
<path d="M147.57 32.1508H19.723V36.3038H147.57V32.1508Z" fill="#EBEBEB"/>
<path d="M147.57 36.8263H19.723V40.9793H147.57V36.8263Z" fill="#EBEBEB"/>
<path d="M147.57 41.4937H19.723V45.6467H147.57V41.4937Z" fill="#EBEBEB"/>
<path d="M147.57 46.1678H19.723V50.3209H147.57V46.1678Z" fill="#EBEBEB"/>
<path d="M147.57 50.8433H19.723V54.9963H147.57V50.8433Z" fill="#EBEBEB"/>
<path d="M139.94 12.6234H139.3V108.352H139.94V12.6234Z" fill="#263238"/>
<path d="M140.76 111.819H138.48L139.05 108.016H140.19L140.76 111.819Z" fill="#263238"/>
<path d="M142.26 12.6234H141.62V151.105H142.26V12.6234Z" fill="#263238"/>
<path d="M143.08 153.901H140.79L141.37 150.099H142.5L143.08 153.901Z" fill="#263238"/>
<path d="M151.57 6.85254H15.738V15.5388H151.57V6.85254Z" fill="#DBDBDB"/>
<path d="M220.04 27.1034C220.04 26.4771 220.11 24.8219 220.11 24.121C220.11 21.0864 219.18 19.7145 216.75 19.6474C215.6 19.5653 214.92 18.775 214.92 17.6491C214.92 16.5233 215.6 15.7404 216.75 15.6584C219.18 15.5316 220.11 14.1672 220.11 11.1251C220.11 10.3795 220.04 8.75406 220.04 8.14266C220.04 4.10894 221.51 1.52914 227.06 0.119951C227.44 0.00600472 227.85 0.0645133 228.19 0.283598C228.54 0.502683 228.8 0.865922 228.92 1.29958C229.04 1.73324 229.02 2.20481 228.85 2.61856C228.69 3.03231 228.39 3.35723 228.03 3.52737C224.56 4.77253 224.05 6.06242 224.05 8.88827C224.05 9.72335 224.12 11.1251 224.12 11.9676C224.12 15.2035 222.76 16.7842 220.4 17.6566C222.8 18.5737 224.12 20.1096 224.12 23.353C224.12 24.2254 224.05 25.5898 224.05 26.4249C224.05 29.2508 224.56 30.5406 228.03 31.7858C228.41 31.9398 228.73 32.2628 228.91 32.6851C229.09 33.1075 229.12 33.5954 228.99 34.0435C228.87 34.4917 228.59 34.8642 228.23 35.0806C227.87 35.2971 227.45 35.3402 227.06 35.2007C221.51 33.7542 220.04 31.1744 220.04 27.1034Z" fill="#EBEBEB"/>
<path d="M241.03 8.11255C241.03 8.7314 240.96 10.3941 240.96 11.095C240.96 14.1743 241.93 15.5015 244.36 15.6283C244.6 15.6116 244.83 15.6508 245.05 15.7435C245.27 15.8362 245.48 15.9805 245.65 16.1673C245.82 16.3541 245.95 16.5796 246.05 16.83C246.14 17.0803 246.19 17.3501 246.19 17.6227C246.19 17.8954 246.14 18.1652 246.05 18.4155C245.95 18.6658 245.82 18.8914 245.65 19.0782C245.48 19.265 245.27 19.4092 245.05 19.5019C244.83 19.5947 244.6 19.6339 244.36 19.6172C241.93 19.6993 240.96 21.0712 240.96 24.0909C240.96 24.8365 241.03 26.4544 241.03 27.0733C241.03 31.1443 239.56 33.7241 234.01 35.1407C233.62 35.2841 233.2 35.2417 232.83 35.0229C232.47 34.8041 232.2 34.4267 232.07 33.9739C231.95 33.521 231.98 33.0298 232.17 32.6082C232.36 32.1866 232.69 31.8692 233.08 31.7259C236.52 30.4807 237.02 29.1908 237.02 26.365C237.02 25.5373 236.95 24.1282 236.95 23.2931C236.95 20.0497 238.31 18.469 240.67 17.5966C238.27 16.687 236.95 15.1436 236.95 11.9077C236.95 11.0353 237.02 9.67087 237.02 8.82833C237.02 6.00249 236.52 4.71259 233.08 3.46743C232.71 3.30759 232.4 2.98795 232.23 2.57479C232.05 2.16162 232.02 1.68666 232.14 1.2484C232.26 0.810138 232.52 0.44222 232.87 0.220955C233.22 -0.00031051 233.63 -0.0579424 234.01 0.0600122C239.56 1.51394 241.03 4.07882 241.03 8.11255Z" fill="#EBEBEB"/>
<path d="M240.32 153.223C240.52 153.468 240.66 153.778 240.72 154.114C240.77 154.45 240.74 154.797 240.63 155.113C240.52 155.43 240.33 155.702 240.09 155.895C239.85 156.089 239.56 156.197 239.27 156.205C238.85 156.209 238.46 156.031 238.15 155.705L231.39 147.742C231.32 147.742 231.3 147.66 231.27 147.578C231.25 147.554 231.23 147.534 231.2 147.519C231.17 147.449 231.14 147.373 231.13 147.295C231.11 147.285 231.09 147.269 231.08 147.25C231.07 147.23 231.06 147.207 231.06 147.183C231.06 147.131 231.06 147.049 231.01 147.019C230.96 146.989 230.96 146.907 230.96 146.878V146.684C230.96 146.631 230.96 146.602 230.96 146.52C230.96 146.438 230.96 146.408 230.96 146.378V146.184C230.96 146.124 231.01 146.095 231.01 146.072C231.01 146.05 231.01 145.931 231.06 145.849C231.11 145.767 231.06 145.849 231.06 145.789C231.09 145.704 231.13 145.621 231.17 145.543C231.17 145.527 231.18 145.512 231.19 145.501C231.2 145.49 231.21 145.483 231.23 145.483C231.26 145.405 231.31 145.338 231.37 145.289L238.13 137.334C238.42 137.011 238.81 136.83 239.21 136.83C239.61 136.83 240 137.011 240.29 137.334C240.44 137.498 240.55 137.694 240.63 137.909C240.71 138.125 240.75 138.356 240.75 138.59C240.75 138.824 240.71 139.055 240.63 139.271C240.55 139.486 240.44 139.682 240.29 139.846L234.59 146.557L240.32 153.223Z" fill="#EBEBEB"/>
<path d="M246.46 154.11L252.36 137.833C252.42 137.647 252.53 137.477 252.65 137.336C252.78 137.194 252.93 137.082 253.09 137.008C253.25 136.933 253.43 136.896 253.6 136.9C253.78 136.903 253.95 136.947 254.11 137.028C254.27 137.105 254.41 137.218 254.53 137.36C254.65 137.502 254.74 137.67 254.81 137.855C254.87 138.04 254.9 138.237 254.9 138.436C254.89 138.635 254.85 138.83 254.78 139.012L248.89 155.31C248.78 155.588 248.61 155.823 248.39 155.987C248.17 156.152 247.92 156.238 247.66 156.235C247.49 156.238 247.33 156.199 247.18 156.123C247.02 156.052 246.87 155.943 246.74 155.801C246.61 155.659 246.51 155.489 246.44 155.3C246.37 155.111 246.34 154.908 246.34 154.703C246.34 154.499 246.38 154.297 246.46 154.11Z" fill="#EBEBEB"/>
<path d="M266.43 147.548C266.38 147.622 266.33 147.687 266.26 147.742L259.5 155.705C259.21 156.027 258.82 156.206 258.42 156.206C258.02 156.206 257.63 156.027 257.34 155.705C257.19 155.541 257.08 155.345 257 155.13C256.92 154.914 256.88 154.683 256.88 154.449C256.88 154.215 256.92 153.984 257 153.768C257.08 153.553 257.19 153.357 257.34 153.193L263.04 146.482L257.34 139.772C257.19 139.607 257.08 139.412 257 139.196C256.92 138.98 256.88 138.749 256.88 138.515C256.88 138.282 256.92 138.05 257 137.835C257.08 137.619 257.19 137.423 257.34 137.259C257.63 136.936 258.02 136.755 258.42 136.755C258.82 136.755 259.21 136.936 259.5 137.259L266.26 145.215C266.32 145.271 266.38 145.337 266.43 145.408V145.468C266.48 145.546 266.52 145.629 266.55 145.714C266.55 145.714 266.55 145.714 266.55 145.774C266.56 145.859 266.59 145.942 266.62 146.02C266.62 146.02 266.62 146.02 266.62 146.109V146.303C266.62 146.303 266.62 146.415 266.62 146.445C266.62 146.475 266.62 146.557 266.62 146.579V146.803C266.62 146.803 266.62 146.803 266.62 146.862C266.59 146.941 266.57 147.024 266.55 147.108C266.55 147.108 266.55 147.108 266.55 147.198C266.55 147.287 266.48 147.436 266.43 147.548Z" fill="#EBEBEB"/>
<path d="M282 80.7942C282 82.2777 281.52 83.7065 280.65 84.7935C279.78 85.8806 278.58 86.5454 277.31 86.6546H248.63C247.1 86.6547 245.63 85.9706 244.53 84.7446C243.42 83.5187 242.76 81.8449 242.69 80.0713C242.62 78.2976 243.14 76.5603 244.14 75.2203C245.15 73.8803 246.56 73.0407 248.08 72.8758C248.16 70.1794 249.04 67.5976 250.58 65.5725C252.11 63.5474 254.21 62.205 256.5 61.775C258.8 61.3451 261.15 61.8543 263.16 63.2157C265.17 64.577 266.7 66.7057 267.51 69.2373C268.33 68.7494 269.24 68.494 270.17 68.4917C271.68 68.492 273.14 69.1623 274.25 70.366C275.35 71.5697 276.02 73.2164 276.11 74.971C276.39 74.9194 276.66 74.8944 276.94 74.8964C277.6 74.8954 278.26 75.0475 278.88 75.3438C279.5 75.6401 280.05 76.0748 280.53 76.623C281 77.1711 281.37 77.8219 281.62 78.5377C281.87 79.2536 282 80.0204 282 80.7942Z" fill="#DBDBDB"/>
<path d="M22.936 274.972L52.381 274.786L81.83 274.726L140.71 274.599L199.6 274.726L229.04 274.786L258.49 274.972L229.04 275.15L199.6 275.217L140.71 275.344L81.83 275.217L52.381 275.15L22.936 274.972Z" fill="#263238"/>
<path d="M35.37 310.21C51.086 310.21 63.83 307.372 63.83 303.872C63.83 300.372 51.086 297.534 35.37 297.534C19.655 297.534 6.91498 300.372 6.91498 303.872C6.91498 307.372 19.655 310.21 35.37 310.21Z" fill="#EBEBEB"/>
<path d="M149.69 307.391C211.59 307.391 261.78 301.078 261.78 293.291C261.78 285.505 211.59 279.192 149.69 279.192C87.7799 279.192 37.601 285.505 37.601 293.291C37.601 301.078 87.7799 307.391 149.69 307.391Z" fill="#EBEBEB"/>
<path d="M211.14 7.1734H160.3V44.8041H211.14V7.1734Z" fill="white"/>
<path d="M211.46 45.1768H159.99V6.80054H211.47L211.46 45.1768ZM160.62 44.4312H210.82V7.54614H160.63L160.62 44.4312Z" fill="#EBEBEB"/>
<path d="M211.14 7.1734H160.3V14.2865H211.14V7.1734Z" fill="#FFA629"/>
<path d="M211.46 14.6667H159.99V6.80054H211.47L211.46 14.6667ZM160.62 13.9211H210.82V7.54614H160.63L160.62 13.9211Z" fill="#EBEBEB"/>
<path d="M166.05 10.7824C166.05 11.1344 165.95 11.4772 165.78 11.7681C165.61 12.0589 165.37 12.2848 165.09 12.4174C164.81 12.5501 164.5 12.5836 164.2 12.5139C163.9 12.4441 163.63 12.2741 163.42 12.0252C163.2 11.7763 163.06 11.4596 163 11.1145C162.94 10.7695 162.96 10.4116 163.08 10.0855C163.19 9.75948 163.39 9.4798 163.64 9.28148C163.89 9.08317 164.18 8.97503 164.49 8.9706C164.69 8.9676 164.9 9.01241 165.09 9.1024C165.28 9.19239 165.45 9.32573 165.6 9.49458C165.74 9.66342 165.86 9.86435 165.94 10.0855C166.01 10.3067 166.05 10.5437 166.05 10.7824Z" fill="#A6A6A6"/>
<path d="M172.35 10.7819C172.35 11.1359 172.26 11.4818 172.09 11.7761C171.92 12.0704 171.68 12.2997 171.4 12.4352C171.12 12.5706 170.81 12.6061 170.51 12.537C170.21 12.468 169.94 12.2975 169.72 12.0473C169.51 11.797 169.36 11.4782 169.3 11.1311C169.24 10.7839 169.27 10.4241 169.39 10.0972C169.5 9.77017 169.7 9.4907 169.95 9.29407C170.21 9.09744 170.51 8.99249 170.81 8.99249C171.22 8.99249 171.61 9.18102 171.9 9.51661C172.19 9.8522 172.35 10.3074 172.35 10.7819Z" fill="#EBEBEB"/>
<path d="M178.66 10.7819C178.66 11.1359 178.57 11.4818 178.4 11.7761C178.23 12.0704 177.99 12.2997 177.71 12.4352C177.42 12.5706 177.11 12.6061 176.81 12.537C176.52 12.468 176.24 12.2975 176.02 12.0473C175.81 11.797 175.66 11.4782 175.6 11.1311C175.54 10.7839 175.57 10.4241 175.69 10.0972C175.81 9.77017 176.01 9.4907 176.26 9.29407C176.51 9.09744 176.81 8.99249 177.12 8.99249C177.52 8.99249 177.92 9.18102 178.21 9.51661C178.5 9.8522 178.66 10.3074 178.66 10.7819Z" fill="white"/>
<path d="M169.07 28.3558C169.1 26.4512 169.77 24.6364 170.95 23.302C172.12 21.9675 173.69 21.2201 175.34 21.2204C176.76 21.218 178.14 21.7634 179.27 22.7713C179.46 22.963 179.59 23.233 179.62 23.5274C179.65 23.8218 179.59 24.1189 179.44 24.3594C179.28 24.5917 179.05 24.7438 178.79 24.784C178.54 24.8243 178.28 24.7497 178.07 24.5756C177.29 23.8483 176.32 23.463 175.32 23.487C174.17 23.4919 173.08 24.001 172.24 24.9111C171.46 25.8255 171.02 27.0643 171.02 28.3558C171.02 28.9975 171.13 29.6328 171.34 30.2244C171.55 30.816 171.87 31.3519 172.26 31.8005C173.09 32.7134 174.19 33.2253 175.34 33.2321C176.34 33.2497 177.31 32.8621 178.09 32.1361C178.3 31.9731 178.56 31.9058 178.81 31.9471C179.06 31.9883 179.29 32.1352 179.46 32.3597C179.6 32.6023 179.67 32.9016 179.63 33.1966C179.6 33.4917 179.47 33.7603 179.27 33.9479C178.14 34.9635 176.75 35.5096 175.32 35.4987C173.68 35.497 172.1 34.7472 170.93 33.411C169.76 32.0747 169.1 30.2592 169.07 28.3558Z" fill="#EBEBEB"/>
<path d="M182.39 32.0843C182.54 31.8768 182.76 31.7465 182.99 31.7214C183.23 31.6963 183.46 31.7784 183.64 31.9501C184.56 32.8412 185.71 33.3641 186.9 33.4413C187.66 33.4529 188.41 33.1926 189.04 32.6957C189.25 32.5443 189.43 32.3348 189.56 32.0853C189.68 31.8358 189.76 31.554 189.77 31.2642C189.78 31.0407 189.72 30.8203 189.62 30.6304C189.49 30.3913 189.32 30.1899 189.11 30.0414C188.39 29.5628 187.59 29.2442 186.77 29.1019H186.73C185.97 28.9609 185.23 28.7104 184.53 28.3563C183.88 28.0279 183.33 27.4924 182.94 26.8129C182.68 26.325 182.54 25.7614 182.55 25.1875C182.56 24.6142 182.69 24.0534 182.93 23.5506C183.17 23.0478 183.51 22.6175 183.92 22.2945C184.78 21.5924 185.82 21.2245 186.87 21.2432C188.22 21.3235 189.52 21.8744 190.59 22.8239C190.78 22.9753 190.92 23.2081 190.96 23.4719C191.01 23.7357 190.96 24.0092 190.83 24.2331C190.77 24.347 190.69 24.4455 190.6 24.5226C190.5 24.5997 190.39 24.6538 190.28 24.6817C190.17 24.7095 190.05 24.7106 189.94 24.6848C189.83 24.6589 189.72 24.6067 189.62 24.5314C188.84 23.7957 187.88 23.3537 186.87 23.2638C186.18 23.2468 185.51 23.4816 184.94 23.9349C184.76 24.069 184.6 24.2527 184.49 24.4706C184.38 24.6885 184.31 24.9343 184.3 25.1875C184.29 25.3818 184.33 25.5752 184.42 25.7392C184.54 25.9448 184.7 26.1199 184.88 26.2537C185.54 26.7055 186.26 27.002 187.02 27.1261H187.05C187.86 27.2922 188.66 27.5726 189.41 27.9611C190.1 28.3099 190.69 28.8818 191.11 29.6089C191.38 30.1126 191.53 30.6938 191.52 31.2865C191.5 31.8899 191.36 32.4793 191.11 33.0067C190.86 33.534 190.5 33.9844 190.07 34.3212C189.14 35.0719 188.03 35.4658 186.9 35.447C185.3 35.3564 183.76 34.66 182.53 33.4637C182.37 33.2912 182.26 33.0567 182.24 32.8033C182.21 32.5498 182.27 32.2946 182.39 32.0843Z" fill="#EBEBEB"/>
<path d="M193.62 32.0843C193.77 31.8768 193.99 31.7465 194.22 31.7214C194.45 31.6963 194.68 31.7784 194.87 31.9501C195.79 32.8411 196.93 33.3641 198.12 33.4413C198.89 33.453 199.63 33.1928 200.26 32.6957C200.48 32.5429 200.65 32.333 200.78 32.0838C200.91 31.8347 200.98 31.5535 201 31.2642C201 31.0399 200.95 30.8195 200.84 30.6304C200.71 30.3913 200.54 30.1899 200.33 30.0414C199.61 29.5628 198.81 29.2442 197.99 29.1019H197.96C197.2 28.9609 196.46 28.7104 195.75 28.3563C195.11 28.0301 194.56 27.4941 194.17 26.8129C193.9 26.3256 193.77 25.7621 193.77 25.1875C193.78 24.6146 193.92 24.0544 194.15 23.5519C194.39 23.0494 194.73 22.6187 195.14 22.2945C196 21.5924 197.04 21.2245 198.09 21.2432C199.44 21.3235 200.74 21.8744 201.81 22.8239C202.01 22.9741 202.14 23.2064 202.19 23.4702C202.23 23.7341 202.18 24.0083 202.06 24.2331C202 24.3473 201.92 24.4459 201.82 24.5231C201.73 24.6002 201.62 24.6544 201.5 24.6822C201.39 24.7101 201.27 24.7111 201.16 24.6851C201.05 24.6592 200.94 24.6069 200.84 24.5314C200.06 23.7957 199.1 23.3537 198.09 23.2638C197.4 23.2468 196.73 23.4816 196.16 23.9349C195.98 24.069 195.82 24.2527 195.71 24.4706C195.6 24.6885 195.53 24.9343 195.52 25.1875C195.51 25.3815 195.56 25.5738 195.64 25.7392C195.77 25.9466 195.92 26.1219 196.11 26.2537C196.76 26.7046 197.49 27.001 198.24 27.1261H198.27C199.09 27.2901 199.88 27.5706 200.63 27.9611C201.32 28.3098 201.92 28.8815 202.34 29.6089C202.61 30.1126 202.75 30.6938 202.75 31.2865C202.73 31.8905 202.59 32.4801 202.33 33.0074C202.08 33.5347 201.72 33.9848 201.29 34.3212C200.36 35.0733 199.25 35.4673 198.12 35.447C196.52 35.358 194.99 34.6614 193.75 33.4637C193.59 33.293 193.49 33.0581 193.46 32.8038C193.44 32.5495 193.49 32.2935 193.62 32.0843Z" fill="#EBEBEB"/>
<path d="M246.22 41.6427H176.79V98.689H246.22V41.6427Z" fill="white"/>
<path d="M246.55 99.062H176.47V41.2701H246.55V99.062ZM177.11 98.3164H245.91V42.0157H177.11V98.3164Z" fill="#EBEBEB"/>
<path d="M246.22 41.6427H176.79V48.7558H246.22V41.6427Z" fill="#FFA629"/>
<path d="M246.55 49.1363H176.47V41.2701H246.55V49.1363ZM177.11 48.3907H245.91V42.0157H177.11V48.3907Z" fill="#EBEBEB"/>
<path d="M182.55 45.2514C182.55 45.6053 182.46 45.9513 182.29 46.2456C182.12 46.5399 181.88 46.7692 181.59 46.9047C181.31 47.0401 181 47.0755 180.7 47.0065C180.4 46.9374 180.13 46.767 179.91 46.5168C179.7 46.2665 179.55 45.9477 179.49 45.6005C179.43 45.2534 179.46 44.8936 179.58 44.5666C179.7 44.2397 179.89 43.9602 180.15 43.7636C180.4 43.5669 180.7 43.462 181 43.462C181.21 43.462 181.41 43.5083 181.59 43.5982C181.78 43.6881 181.95 43.8199 182.09 43.9861C182.24 44.1523 182.35 44.3495 182.43 44.5666C182.51 44.7837 182.55 45.0164 182.55 45.2514Z" fill="#A6A6A6"/>
<path d="M188.85 45.2514C188.85 45.6075 188.76 45.9559 188.59 46.2525C188.42 46.5492 188.18 46.7807 187.9 46.9176C187.61 47.0545 187.3 47.0907 187 47.0216C186.7 46.9525 186.42 46.7812 186.21 46.5295C185.99 46.2777 185.84 45.9569 185.78 45.6076C185.72 45.2584 185.75 44.8964 185.87 44.5678C185.99 44.2392 186.19 43.9586 186.45 43.7617C186.7 43.5648 187 43.4605 187.31 43.462C187.51 43.462 187.71 43.5083 187.9 43.5982C188.09 43.6881 188.26 43.8199 188.4 43.9861C188.54 44.1523 188.66 44.3495 188.73 44.5666C188.81 44.7838 188.85 45.0165 188.85 45.2514Z" fill="#EBEBEB"/>
<path d="M195.16 45.2514C195.16 45.6072 195.07 45.9553 194.9 46.2518C194.73 46.5483 194.49 46.7797 194.2 46.9169C193.92 47.054 193.61 47.0907 193.31 47.0222C193.01 46.9537 192.73 46.7831 192.51 46.5321C192.3 46.2811 192.15 45.961 192.09 45.6122C192.03 45.2634 192.06 44.9018 192.18 44.573C192.29 44.2442 192.49 43.9631 192.75 43.7653C193 43.5676 193.3 43.462 193.61 43.462C193.81 43.461 194.01 43.5066 194.2 43.5961C194.39 43.6855 194.56 43.8172 194.7 43.9835C194.85 44.1497 194.96 44.3473 195.04 44.5649C195.12 44.7825 195.16 45.0158 195.16 45.2514Z" fill="white"/>
<path d="M186.65 62.9152H183.37V64.302H186.65V62.9152Z" fill="#EBEBEB"/>
<path d="M211.3 62.9152H189.04V64.302H211.3V62.9152Z" fill="#EBEBEB"/>
<path d="M219.54 62.9152H213.32V64.302H219.54V62.9152Z" fill="#FFA629"/>
<path d="M233.79 81.5104H227.56V82.8972H233.79V81.5104Z" fill="#EBEBEB"/>
<path d="M231.66 62.9152H220.9V64.302H231.66V62.9152Z" fill="#A6A6A6"/>
<path d="M189.92 66.6349H186.65V68.0217H189.92V66.6349Z" fill="#EBEBEB"/>
<path d="M206.69 66.6349H192.24V68.0217H206.69V66.6349Z" fill="#A6A6A6"/>
<path d="M226.08 81.5104H211.63V82.8972H226.08V81.5104Z" fill="#A6A6A6"/>
<path d="M202.38 77.7897H189.04V79.1766H202.38V77.7897Z" fill="#A6A6A6"/>
<path d="M198.55 70.3561H192.24V71.7429H198.55V70.3561Z" fill="#FFA629"/>
<path d="M223.8 74.0767H217.49V75.4635H223.8V74.0767Z" fill="#A6A6A6"/>
<path d="M221.68 70.3561H200.38V71.7429H221.68V70.3561Z" fill="#A6A6A6"/>
<path d="M210.33 81.5104H189.04V82.8972H210.33V81.5104Z" fill="#FFA629"/>
<path d="M237.29 66.6349H220.21V68.0217H237.29V66.6349Z" fill="#FFA629"/>
<path d="M218.86 66.6349H208.24V68.0217H218.86V66.6349Z" fill="#EBEBEB"/>
<path d="M233.53 70.3561H222.92V71.7429H233.53V70.3561Z" fill="#EBEBEB"/>
<path d="M189.92 70.3561H186.65V71.7429H189.92V70.3561Z" fill="#EBEBEB"/>
<path d="M186.65 74.0767H183.37V75.4635H186.65V74.0767Z" fill="#A6A6A6"/>
<path d="M198.18 74.0767H189.04V75.4635H198.18V74.0767Z" fill="#EBEBEB"/>
<path d="M201.38 85.2307H192.24V86.6175H201.38V85.2307Z" fill="#EBEBEB"/>
<path d="M227.76 88.9513H213.02V90.3381H227.76V88.9513Z" fill="#FFA629"/>
<path d="M217.27 85.2307H202.96V86.6175H217.27V85.2307Z" fill="#FFA629"/>
<path d="M211.32 88.9513H199.52V90.3381H211.32V88.9513Z" fill="#EBEBEB"/>
<path d="M237.29 85.2307H218.95V86.6175H237.29V85.2307Z" fill="#A6A6A6"/>
<path d="M197.85 88.9513H192.24V90.3381H197.85V88.9513Z" fill="#A6A6A6"/>
<path d="M219.54 77.7897H203.71V79.1766H219.54V77.7897Z" fill="#EBEBEB"/>
<path d="M234.23 77.7897H220.9V79.1766H234.23V77.7897Z" fill="#FFA629"/>
<path d="M215.96 74.0767H200.15V75.4635H215.96V74.0767Z" fill="#FFA629"/>
<path d="M186.65 77.7897H183.37V79.1766H186.65V77.7897Z" fill="#EBEBEB"/>
<path d="M186.65 81.5104H183.37V82.8972H186.65V81.5104Z" fill="#EBEBEB"/>
<path d="M189.92 85.2307H186.65V86.6175H189.92V85.2307Z" fill="#A6A6A6"/>
<path d="M189.92 88.9513H186.65V90.3381H189.92V88.9513Z" fill="#EBEBEB"/>
<path d="M185.39 59.2537C185.42 59.2837 185.44 59.3201 185.46 59.3605C185.47 59.4009 185.48 59.4445 185.48 59.4886C185.48 59.5327 185.47 59.5763 185.46 59.6167C185.44 59.6571 185.42 59.6934 185.39 59.7234C185.37 59.7546 185.34 59.7794 185.3 59.796C185.27 59.8127 185.23 59.821 185.19 59.8204C185.16 59.8211 185.12 59.8129 185.08 59.7963C185.05 59.7796 185.01 59.7549 184.99 59.7234L183.7 58.2322C183.7 58.2322 183.7 58.2322 183.7 58.1949C183.7 58.1949 183.7 58.195 183.7 58.1502C183.71 58.1382 183.71 58.1249 183.7 58.1129V58.0756C183.71 58.0609 183.71 58.0456 183.7 58.0309C183.7 58.0309 183.7 57.9936 183.7 57.9787L184.99 56.4875C185.04 56.4294 185.12 56.3972 185.19 56.3972C185.27 56.3972 185.34 56.4294 185.39 56.4875C185.42 56.5175 185.44 56.5539 185.46 56.5943C185.47 56.6347 185.48 56.6783 185.48 56.7224C185.48 56.7665 185.47 56.8101 185.46 56.8505C185.44 56.8909 185.42 56.9272 185.39 56.9572L184.33 58.2099L185.39 59.2537Z" fill="#FFA629"/>
<path d="M186.54 59.4256L187.64 56.3761C187.67 56.3075 187.72 56.2539 187.78 56.2262C187.84 56.1985 187.91 56.1988 187.97 56.227C188.03 56.258 188.08 56.3141 188.1 56.3835C188.12 56.4529 188.12 56.5304 188.1 56.5998L186.98 59.6717C186.96 59.7221 186.93 59.765 186.89 59.7954C186.85 59.8258 186.8 59.8423 186.76 59.8431C186.73 59.8509 186.7 59.8509 186.67 59.8431C186.63 59.8298 186.6 59.8072 186.57 59.7771C186.55 59.747 186.53 59.7102 186.52 59.6697C186.5 59.6292 186.5 59.5861 186.5 59.5437C186.51 59.5014 186.52 59.4609 186.54 59.4256Z" fill="#FFA629"/>
<path d="M190.28 58.1806L190.24 58.2178L188.96 59.7091C188.93 59.7403 188.9 59.765 188.87 59.7817C188.83 59.7983 188.8 59.8066 188.76 59.806C188.72 59.8067 188.68 59.7986 188.65 59.7819C188.61 59.7652 188.58 59.7405 188.55 59.7091C188.5 59.6463 188.47 59.562 188.47 59.4742C188.47 59.3864 188.5 59.302 188.55 59.2393L189.62 57.9942L188.55 56.7415C188.5 56.6788 188.47 56.5945 188.47 56.5067C188.47 56.4189 188.5 56.3345 188.55 56.2718C188.61 56.2137 188.68 56.1815 188.76 56.1815C188.83 56.1815 188.9 56.2137 188.96 56.2718L190.24 57.763H190.28V57.8152V57.86V57.9942C190.28 58.0115 190.28 58.029 190.28 58.0464C190.27 58.0661 190.26 58.0895 190.26 58.1135C190.26 58.1374 190.27 58.1608 190.28 58.1806Z" fill="#FFA629"/>
<path d="M278.31 93.7009H227.47V131.332H278.31V93.7009Z" fill="white"/>
<path d="M278.63 131.697H227.15V93.3282H278.63V131.697ZM227.79 130.951H277.99V94.0738H227.79V130.951Z" fill="#EBEBEB"/>
<path d="M278.31 93.7009H227.47V100.814H278.31V93.7009Z" fill="#FFA629"/>
<path d="M278.63 101.187H227.15V93.3282H278.63V101.187ZM227.79 100.441H277.99V94.0738H227.79V100.441Z" fill="#EBEBEB"/>
<path d="M233.25 97.3094C233.25 97.6651 233.16 98.0133 232.99 98.3098C232.82 98.6062 232.58 98.8377 232.3 98.9749C232.02 99.112 231.7 99.1487 231.4 99.0802C231.1 99.0117 230.83 98.8411 230.61 98.5901C230.39 98.3391 230.24 98.019 230.18 97.6702C230.12 97.3214 230.15 96.9597 230.27 96.631C230.39 96.3022 230.59 96.0211 230.84 95.8233C231.09 95.6256 231.39 95.52 231.7 95.52C231.9 95.519 232.11 95.5646 232.29 95.654C232.48 95.7435 232.65 95.8752 232.8 96.0415C232.94 96.2077 233.05 96.4053 233.13 96.6229C233.21 96.8405 233.25 97.0738 233.25 97.3094Z" fill="#A6A6A6"/>
<path d="M239.53 97.3094C239.53 97.6633 239.44 98.0093 239.27 98.3036C239.1 98.5979 238.86 98.8272 238.58 98.9627C238.3 99.0981 237.98 99.1335 237.69 99.0645C237.39 98.9954 237.11 98.825 236.9 98.5748C236.68 98.3245 236.53 98.0056 236.47 97.6585C236.41 97.3114 236.45 96.9516 236.56 96.6246C236.68 96.2976 236.88 96.0182 237.13 95.8215C237.38 95.6249 237.68 95.52 237.99 95.52C238.19 95.519 238.39 95.5646 238.58 95.6542C238.77 95.7438 238.94 95.8755 239.08 96.0419C239.22 96.2083 239.34 96.4059 239.41 96.6235C239.49 96.841 239.53 97.0742 239.53 97.3094Z" fill="#EBEBEB"/>
<path d="M245.83 97.3094C245.83 97.6633 245.74 98.0093 245.57 98.3036C245.4 98.5979 245.16 98.8272 244.88 98.9627C244.6 99.0981 244.29 99.1335 243.99 99.0645C243.69 98.9954 243.42 98.825 243.2 98.5748C242.98 98.3245 242.84 98.0056 242.78 97.6585C242.72 97.3114 242.75 96.9516 242.87 96.6246C242.98 96.2976 243.18 96.0182 243.43 95.8215C243.69 95.6249 243.99 95.52 244.29 95.52C244.49 95.519 244.69 95.5646 244.88 95.6542C245.07 95.7438 245.24 95.8755 245.38 96.0419C245.53 96.2083 245.64 96.4059 245.72 96.6235C245.79 96.841 245.83 97.0742 245.83 97.3094Z" fill="white"/>
<path d="M236.96 114.884C237 112.98 237.67 111.166 238.84 109.832C240.01 108.498 241.59 107.75 243.23 107.748C244.66 107.736 246.05 108.282 247.18 109.299C247.36 109.491 247.48 109.757 247.5 110.044C247.52 110.331 247.45 110.618 247.3 110.847C247.15 111.076 246.93 111.229 246.68 111.277C246.44 111.324 246.19 111.263 245.98 111.103C245.2 110.374 244.23 109.986 243.23 110.007C242.09 110.014 240.99 110.526 240.16 111.439C239.77 111.89 239.45 112.426 239.24 113.017C239.03 113.608 238.91 114.243 238.91 114.884C238.91 115.527 239.02 116.163 239.23 116.756C239.45 117.349 239.76 117.886 240.16 118.336C240.99 119.246 242.09 119.755 243.23 119.76C244.23 119.782 245.2 119.396 245.98 118.671C246.19 118.507 246.45 118.438 246.7 118.478C246.95 118.518 247.18 118.664 247.35 118.888C247.5 119.128 247.57 119.426 247.53 119.721C247.5 120.016 247.37 120.286 247.18 120.476C246.05 121.487 244.66 122.03 243.23 122.019C241.59 122.025 240.01 121.28 238.83 119.944C237.66 118.608 236.99 116.79 236.96 114.884Z" fill="#EBEBEB"/>
<path d="M253.35 116.136H250.92C250.67 116.136 250.43 116.021 250.25 115.817C250.08 115.613 249.98 115.336 249.98 115.047C249.98 114.759 250.08 114.482 250.25 114.277C250.43 114.072 250.67 113.955 250.92 113.951H253.35V111.2C253.34 111.051 253.37 110.904 253.42 110.766C253.46 110.628 253.54 110.502 253.63 110.397C253.72 110.291 253.82 110.208 253.94 110.151C254.06 110.094 254.19 110.066 254.32 110.067C254.57 110.067 254.82 110.186 255.01 110.399C255.19 110.611 255.29 110.899 255.29 111.2V113.951H257.72C257.96 113.955 258.2 114.072 258.38 114.277C258.55 114.482 258.65 114.759 258.65 115.047C258.65 115.336 258.55 115.613 258.38 115.817C258.2 116.021 257.96 116.136 257.72 116.136H255.29V118.887C255.29 119.188 255.19 119.476 255.01 119.689C254.82 119.901 254.57 120.021 254.32 120.021C254.19 120.022 254.06 119.993 253.94 119.936C253.82 119.88 253.72 119.796 253.63 119.69C253.54 119.585 253.46 119.459 253.42 119.322C253.37 119.184 253.34 119.036 253.35 118.887V116.136Z" fill="#EBEBEB"/>
<path d="M263.94 116.136H261.53C261.28 116.136 261.04 116.021 260.86 115.817C260.69 115.613 260.59 115.336 260.59 115.047C260.59 114.759 260.69 114.482 260.86 114.277C261.04 114.072 261.28 113.955 261.53 113.951H263.95V111.2C263.95 111.051 263.98 110.904 264.03 110.766C264.07 110.628 264.14 110.502 264.23 110.397C264.33 110.291 264.43 110.208 264.55 110.151C264.67 110.094 264.8 110.066 264.93 110.067C265.18 110.069 265.43 110.189 265.61 110.401C265.8 110.613 265.9 110.9 265.9 111.2V113.951H268.32C268.57 113.955 268.81 114.072 268.99 114.277C269.16 114.482 269.26 114.759 269.26 115.047C269.26 115.336 269.16 115.613 268.99 115.817C268.81 116.021 268.57 116.136 268.32 116.136H265.9V118.887C265.9 119.187 265.8 119.474 265.61 119.686C265.43 119.899 265.18 120.019 264.93 120.021C264.8 120.022 264.67 119.993 264.55 119.936C264.43 119.88 264.33 119.796 264.23 119.69C264.14 119.585 264.07 119.459 264.03 119.322C263.98 119.184 263.95 119.036 263.95 118.887L263.94 116.136Z" fill="#EBEBEB"/>
<path d="M270.2 31.1819H235.57V46.0567H270.2V31.1819Z" fill="#455A64"/>
<path d="M240.57 41.7099V35.1113C240.57 35.0297 240.58 34.9488 240.61 34.8733C240.63 34.7977 240.67 34.7291 240.72 34.6714C240.77 34.6138 240.83 34.5682 240.9 34.5375C240.96 34.5067 241.03 34.4914 241.1 34.4924C241.17 34.4914 241.24 34.5067 241.31 34.5374C241.37 34.568 241.43 34.6134 241.48 34.671C241.53 34.7286 241.57 34.7971 241.6 34.8727C241.63 34.9483 241.64 35.0294 241.64 35.1113V37.7954H244.14V35.1113C244.14 35.0297 244.15 34.9488 244.17 34.8733C244.2 34.7977 244.24 34.7291 244.29 34.6714C244.34 34.6138 244.4 34.5682 244.46 34.5375C244.53 34.5067 244.6 34.4914 244.67 34.4924C244.74 34.4914 244.81 34.5067 244.88 34.5374C244.94 34.568 245 34.6134 245.05 34.671C245.1 34.7286 245.14 34.7971 245.17 34.8727C245.2 34.9483 245.21 35.0294 245.21 35.1113V41.7099C245.21 41.7911 245.19 41.8714 245.17 41.9461C245.14 42.0208 245.1 42.0885 245.05 42.1453C245 42.2021 244.94 42.2468 244.87 42.277C244.81 42.3072 244.74 42.3223 244.67 42.3213C244.6 42.3233 244.53 42.3089 244.46 42.279C244.4 42.2491 244.34 42.2042 244.29 42.1471C244.24 42.0901 244.2 42.0219 244.17 41.9468C244.15 41.8717 244.14 41.7911 244.14 41.7099V39.0257H241.64V41.7099C241.64 41.7911 241.63 41.8714 241.6 41.9461C241.57 42.0208 241.53 42.0885 241.48 42.1453C241.43 42.2021 241.37 42.2468 241.31 42.277C241.24 42.3072 241.17 42.3223 241.1 42.3213C241.03 42.3233 240.96 42.3089 240.9 42.279C240.83 42.2491 240.77 42.2042 240.72 42.1471C240.67 42.0901 240.63 42.0219 240.61 41.9468C240.58 41.8717 240.57 41.7911 240.57 41.7099Z" fill="white"/>
<path d="M251.53 35.7376H250V41.7024C250 41.783 249.98 41.8629 249.96 41.9376C249.93 42.0122 249.89 42.08 249.84 42.137C249.8 42.1939 249.74 42.2389 249.67 42.2693C249.61 42.2997 249.54 42.3148 249.47 42.3138C249.33 42.3138 249.2 42.2497 249.1 42.1352C249 42.0208 248.94 41.8653 248.94 41.7024V35.7376H247.39C247.32 35.7366 247.25 35.7196 247.18 35.6876C247.12 35.6556 247.06 35.6092 247.01 35.5511C246.96 35.4929 246.93 35.4241 246.9 35.3487C246.87 35.2732 246.86 35.1925 246.86 35.1113C246.86 35.0301 246.87 34.9493 246.9 34.8738C246.92 34.7983 246.96 34.7296 247.01 34.6719C247.06 34.6141 247.12 34.5684 247.18 34.5376C247.25 34.5067 247.32 34.4914 247.39 34.4924H251.51C251.58 34.4924 251.65 34.5085 251.71 34.5397C251.77 34.5708 251.83 34.6166 251.88 34.6741C251.93 34.7317 251.97 34.8 252 34.875C252.02 34.95 252.04 35.0304 252.03 35.1113C252.03 35.2699 251.98 35.4228 251.89 35.539C251.8 35.6553 251.67 35.7262 251.53 35.7376Z" fill="white"/>
<path d="M259.46 35.1113V41.7099C259.45 41.8734 259.39 42.0289 259.29 42.1431C259.19 42.2574 259.06 42.3213 258.92 42.3213C258.85 42.3222 258.78 42.3072 258.71 42.2769C258.65 42.2466 258.59 42.2017 258.54 42.1448C258.49 42.088 258.45 42.0202 258.42 41.9456C258.4 41.8709 258.38 41.7908 258.38 41.7099V36.9976L257 39.2344C256.95 39.3158 256.88 39.3821 256.81 39.4277C256.73 39.4732 256.65 39.4965 256.56 39.4954C256.48 39.497 256.39 39.474 256.32 39.4285C256.24 39.3831 256.17 39.3165 256.12 39.2344L254.74 36.9976V41.7099C254.74 41.874 254.68 42.0314 254.58 42.1475C254.48 42.2635 254.35 42.3287 254.21 42.3287C254.06 42.3287 253.93 42.2635 253.83 42.1475C253.73 42.0314 253.67 41.874 253.67 41.7099V35.1113C253.67 34.9484 253.73 34.7921 253.83 34.6763C253.93 34.5604 254.06 34.4944 254.2 34.4924H254.23C254.32 34.4926 254.4 34.5164 254.47 34.5619C254.55 34.6074 254.61 34.6731 254.66 34.7534L256.58 37.8402L258.51 34.7534C258.56 34.6721 258.62 34.6057 258.7 34.5602C258.77 34.5146 258.86 34.4914 258.94 34.4924C259.08 34.5034 259.21 34.5728 259.3 34.6871C259.4 34.8014 259.45 34.9526 259.46 35.1113Z" fill="white"/>
<path d="M261.79 41.7098V35.1112C261.79 34.9484 261.85 34.7921 261.94 34.6762C262.04 34.5604 262.18 34.4943 262.32 34.4924C262.46 34.4924 262.6 34.5573 262.7 34.6732C262.8 34.789 262.86 34.9464 262.86 35.1112V41.0761H265.47C265.61 41.0761 265.75 41.1413 265.85 41.2573C265.95 41.3734 266.01 41.5308 266.01 41.6949C266.01 41.859 265.95 42.0165 265.85 42.1325C265.75 42.2486 265.61 42.3138 265.47 42.3138H262.32C262.18 42.3138 262.05 42.2504 261.95 42.1373C261.85 42.0243 261.79 41.8707 261.79 41.7098Z" fill="white"/>
<path d="M182.54 79.378H154V94.2528H182.54V79.378Z" fill="#455A64"/>
<path d="M162.49 87.4824H161.31V89.9056C161.29 90.059 161.23 90.2008 161.13 90.3037C161.03 90.4067 160.9 90.4637 160.77 90.4637C160.64 90.4637 160.51 90.4067 160.41 90.3037C160.31 90.2008 160.25 90.059 160.23 89.9056V83.307C160.24 83.1442 160.29 82.9887 160.39 82.8742C160.49 82.7598 160.63 82.6956 160.77 82.6956H162.49C162.76 82.6956 163.03 82.7575 163.28 82.8778C163.53 82.9981 163.76 83.1744 163.95 83.3966C164.14 83.6189 164.29 83.8827 164.4 84.1731C164.5 84.4635 164.55 84.7747 164.55 85.089C164.55 85.4033 164.5 85.7145 164.4 86.0049C164.29 86.2953 164.14 86.5591 163.95 86.7814C163.76 87.0036 163.53 87.1799 163.28 87.3002C163.03 87.4205 162.76 87.4824 162.49 87.4824ZM161.31 86.2372H162.49C162.63 86.2501 162.77 86.2298 162.9 86.1777C163.03 86.1256 163.14 86.0429 163.25 85.9346C163.35 85.8264 163.43 85.6951 163.48 85.5489C163.54 85.4027 163.57 85.2449 163.57 85.0853C163.57 84.9257 163.54 84.7678 163.48 84.6217C163.43 84.4755 163.35 84.3441 163.25 84.2359C163.14 84.1277 163.03 84.0449 162.9 83.9929C162.77 83.9408 162.63 83.9205 162.49 83.9333H161.31V86.2372Z" fill="white"/>
<path d="M165.86 89.9059V83.3073C165.86 83.1432 165.91 82.9858 166.01 82.8697C166.11 82.7537 166.25 82.6885 166.39 82.6885C166.53 82.6885 166.67 82.7537 166.77 82.8697C166.87 82.9858 166.92 83.1432 166.92 83.3073V85.9915H169.42V83.3073C169.42 83.2261 169.44 83.1455 169.46 83.0704C169.49 82.9953 169.53 82.9271 169.58 82.8701C169.63 82.813 169.69 82.7681 169.75 82.7382C169.82 82.7083 169.89 82.6939 169.96 82.6959C170.03 82.695 170.1 82.71 170.16 82.7402C170.23 82.7704 170.29 82.8151 170.34 82.8719C170.39 82.9287 170.43 82.9964 170.45 83.0711C170.48 83.1458 170.5 83.2261 170.5 83.3073V89.9059C170.5 89.9878 170.48 90.0689 170.46 90.1445C170.43 90.2201 170.39 90.2886 170.34 90.3462C170.29 90.4038 170.23 90.4492 170.16 90.4798C170.1 90.5105 170.03 90.5258 169.96 90.5248C169.89 90.5258 169.82 90.5105 169.75 90.4797C169.69 90.449 169.63 90.4034 169.58 90.3458C169.53 90.2881 169.49 90.2195 169.46 90.1439C169.44 90.0684 169.42 89.9875 169.42 89.9059V87.259H166.92V89.9432C166.92 90.1074 166.87 90.2648 166.77 90.3808C166.67 90.4969 166.53 90.5621 166.39 90.5621C166.25 90.5621 166.11 90.4969 166.01 90.3808C165.91 90.2648 165.86 90.1074 165.86 89.9432V89.9059Z" fill="white"/>
<path d="M174.95 87.4824H173.76V89.9056C173.76 90.0704 173.7 90.2278 173.6 90.3437C173.5 90.4595 173.36 90.5245 173.22 90.5245C173.08 90.5225 172.95 90.4564 172.85 90.3406C172.75 90.2248 172.69 90.0685 172.69 89.9056V83.307C172.69 83.1449 172.75 82.9894 172.85 82.8747C172.95 82.76 173.08 82.6956 173.22 82.6956H174.95C175.22 82.6956 175.49 82.7575 175.74 82.8778C175.99 82.9981 176.22 83.1744 176.41 83.3966C176.6 83.6189 176.75 83.8827 176.86 84.1731C176.96 84.4635 177.01 84.7747 177.01 85.089C177.01 85.4033 176.96 85.7145 176.86 86.0049C176.75 86.2953 176.6 86.5591 176.41 86.7814C176.22 87.0036 175.99 87.1799 175.74 87.3002C175.49 87.4205 175.22 87.4824 174.95 87.4824ZM173.76 86.2372H174.95C175.09 86.2501 175.23 86.2298 175.36 86.1777C175.49 86.1256 175.6 86.0429 175.71 85.9346C175.81 85.8264 175.89 85.6951 175.94 85.5489C176 85.4027 176.03 85.2449 176.03 85.0853C176.03 84.9257 176 84.7678 175.94 84.6217C175.89 84.4755 175.81 84.3441 175.71 84.2359C175.6 84.1277 175.49 84.0449 175.36 83.9929C175.23 83.9408 175.09 83.9205 174.95 83.9333H173.76V86.2372Z" fill="white"/>
<path d="M145.53 203.148L147.19 214.713L158.45 285.254H160.27L152.08 214.713L150.86 203.148H145.53Z" fill="#A6A6A6"/>
<path d="M150.86 203.148H145.53L147.19 214.713H152.08L150.86 203.148Z" fill="#263238"/>
<path d="M110.17 285.254H111.99L123.24 214.713L124.91 203.148H119.57L118.36 214.713L110.17 285.254Z" fill="#A6A6A6"/>
<path d="M119.57 203.148L118.36 214.713H123.25L124.91 203.148H119.57Z" fill="#263238"/>
<path d="M76.41 285.254H78.22L89.48 214.713L91.14 203.148H85.8L84.6 214.713L76.41 285.254Z" fill="#A6A6A6"/>
<path d="M84.6 214.713H89.48L91.14 203.148H85.8L84.6 214.713Z" fill="#263238"/>
<path d="M79.28 208.583H161.78V198.495H130.9L120.52 113.519H82.43L79.28 208.583Z" fill="#A6A6A6"/>
<path d="M79.28 208.583H83.78L86.71 113.519H82.43L79.28 208.583Z" fill="#DBDBDB"/>
<path d="M133.39 120.223L131.8 120.029C131.84 117.65 130.87 113.885 131.04 115.742C131.12 117.138 131.07 118.542 130.88 119.924L106.55 117.031C106.55 113.438 108.43 107.756 108.43 107.756C106.61 110.515 105.64 114.608 105.22 116.875L102.65 116.569C102.58 114.414 103.54 110.865 103.54 110.865C102.72 112.215 102.06 114.839 101.72 116.465L98.8199 116.114C99.2399 111.66 100.81 107.455 103.32 104.058C105.58 100.889 106.54 98.1378 106.92 90.7787C107.36 81.9432 112.67 79.4902 113.49 78.5134C120.76 69.857 132.73 78.5955 131.53 89.5708C130.63 97.8321 129.8 98.7268 132.42 106.548C134.4 112.424 133.39 120.223 133.39 120.223Z" fill="#263238"/>
<path d="M117.45 116.554C121.14 132.122 124.21 144.186 128.05 147.123C131.15 149.487 135.51 151.15 139.99 152.343C144.78 153.508 149.63 154.312 154.51 154.751C156.02 154.893 157.27 154.982 158.16 155.057C160.36 155.221 163.94 138.385 162.4 136.335C162.04 135.865 160.59 135.5 158.54 135.201C151.71 134.21 138.24 133.971 137.43 133.084C136.63 132.196 132.29 125.493 126.38 116.733C122.32 110.678 118.99 108.896 117.63 110.574C116.88 111.491 116.75 113.549 117.45 116.554Z" fill="#EB9481"/>
<path d="M153.75 153.319C155.87 154.417 158.06 155.351 160.29 156.116C162.07 156.63 167.21 157.957 167.89 155.743C168.36 154.252 165.41 153.036 163.34 152.141C162.26 151.672 160.89 150.419 161.19 149.606C161.69 148.182 164.5 149.472 166.36 150.62C169.94 152.857 174.76 156.898 176.85 154.744C177.63 153.923 176.64 152.544 175.22 151.202C177.51 152.738 179.94 153.968 180.84 153.103C181.07 152.881 181.22 152.563 181.26 152.215C181.3 151.867 181.22 151.515 181.04 151.232C181.33 151.374 181.65 151.413 181.95 151.344C182.26 151.275 182.54 151.101 182.76 150.844C183.46 149.934 183.06 148.645 182.23 147.34C182.36 147.317 182.49 147.257 182.6 147.165C182.71 147.073 182.8 146.952 182.87 146.81C184.32 144.022 176.36 136.528 173.68 135.917C165.77 134.09 157.45 135.231 157.45 135.231C154.46 138.221 153.74 153.312 153.75 153.319Z" fill="#EB9481"/>
<path d="M165.01 144.342C166.9 144.585 168.71 145.308 170.32 146.46C172.19 147.839 173.71 149.77 175.46 151.344C175.51 151.388 175.46 151.47 175.4 151.426C174.58 150.606 173.68 149.882 172.83 149.099C171.98 148.317 171.18 147.541 170.31 146.863C168.73 145.585 166.92 144.741 165.01 144.395C165.01 144.395 164.99 144.342 165.01 144.342Z" fill="#263238"/>
<path d="M166.35 140.421C168.46 140.907 170.53 141.639 172.52 142.606C174.65 143.754 176.37 145.707 178.02 147.579C179.03 148.702 180.01 149.853 180.97 151.031C181.01 151.076 180.97 151.158 180.91 151.113C179.19 149.174 177.45 147.298 175.66 145.484C174.01 143.789 172.08 142.491 169.99 141.666C168.79 141.189 167.57 140.831 166.35 140.466C166.32 140.458 166.33 140.421 166.35 140.421Z" fill="#263238"/>
<path d="M168.45 136.954C170.46 137.341 172.23 137.699 174.04 138.848C176.07 140.299 177.95 142.037 179.62 144.022C180.53 145.073 181.41 146.162 182.28 147.258C182.31 147.303 182.24 147.377 182.21 147.333C180.23 144.924 178.11 142.667 175.88 140.577C174.83 139.56 173.65 138.74 172.38 138.147C171.1 137.623 169.78 137.229 168.44 136.969C168.44 136.969 168.43 136.954 168.45 136.954Z" fill="#263238"/>
<path d="M117.45 116.554C121.14 132.122 124.21 144.186 128.05 147.124C131.15 149.487 135.51 151.15 139.99 152.343L117.65 110.589C116.88 111.491 116.75 113.549 117.45 116.554Z" fill="#263238"/>
<path d="M116.29 113.93C116.68 118.672 119.36 126.828 119.36 126.828L133.54 125.434C133.54 125.434 128.06 116.114 122.35 110.813C121.82 110.31 121.23 109.891 120.6 109.568C118.11 108.33 115.93 109.486 116.29 113.93Z" fill="#FFA629"/>
<path d="M116.29 113.929C116.29 114.175 116.34 114.436 116.37 114.675C116.41 114.913 116.44 115.085 116.48 115.301C117.17 119.218 118.14 123.065 119.36 126.806L119.92 126.754L120.47 126.701L124.93 126.261L125.58 126.194L130.02 125.754L130.59 125.702L132.22 125.538L120.6 109.567C118.11 108.33 115.9 109.493 116.29 113.929Z" fill="#263238"/>
<path d="M219.26 285.217C217.73 285.806 172.83 285.374 171.17 284.128C170.97 283.994 170.92 279.282 170.94 272.833V272.706C170.89 268.152 170.63 263.605 170.17 259.084L170.09 258.338C168.91 246.311 166.88 234.62 166.88 234.62L194.98 234.501L198.84 258.36L198.91 259.106L199.7 267.994C199.7 267.994 205.75 270.976 211.02 273.906C214.27 275.711 217.09 277.358 217.74 277.962C219.46 279.536 220.79 284.643 219.26 285.217Z" fill="#EB9481"/>
<path d="M219.26 285.217C217.73 285.806 172.83 285.374 171.17 284.128C170.97 283.994 170.92 279.282 170.94 272.832V272.706C170.89 268.152 170.63 263.605 170.17 259.083L170.09 258.338H198.86L198.93 259.083L199.72 267.971C199.72 267.971 205.77 270.954 211.04 273.884C214.29 275.688 217.11 277.336 217.76 277.94C219.46 279.535 220.79 284.643 219.26 285.217Z" fill="#EBEBEB"/>
<path d="M219.45 285.418C217.87 286.008 172.91 285.418 171.21 284.166C170.57 283.689 169.96 275.636 170.66 266.749L199.64 267.151C199.64 267.151 216.21 276.3 217.96 277.933C219.7 279.565 221.04 284.844 219.45 285.418Z" fill="#FFA629"/>
<path d="M218.82 283.353C211.28 283.04 180.88 282.608 173.41 282.98C173.34 282.98 173.34 283.033 173.41 283.033C180.87 283.531 211.28 283.665 218.82 283.494C218.98 283.457 218.98 283.353 218.82 283.353Z" fill="#263238"/>
<path d="M215.08 276.016C214.24 275.984 213.41 276.153 212.64 276.511C211.87 276.869 211.16 277.409 210.58 278.096C209.5 279.33 208.89 280.997 208.85 282.749C208.85 282.801 208.93 282.801 208.94 282.749C209.21 281.02 209.96 279.44 211.07 278.246C212.18 277.053 213.6 276.309 215.1 276.128C215.11 276.121 215.12 276.111 215.12 276.099C215.13 276.087 215.13 276.073 215.13 276.06C215.12 276.047 215.12 276.036 215.11 276.028C215.1 276.02 215.09 276.016 215.08 276.016Z" fill="#263238"/>
<path d="M202 268.053C198.98 267.971 195.48 269.164 193.57 271.997C193.5 272.109 193.64 272.228 193.73 272.176C196.38 270.603 199.17 269.366 202.05 268.486C202.09 268.468 202.13 268.434 202.15 268.391C202.17 268.347 202.18 268.296 202.17 268.245C202.17 268.195 202.15 268.149 202.12 268.114C202.08 268.079 202.04 268.057 202 268.053Z" fill="#263238"/>
<path d="M204.33 269.142C201.32 269.052 197.81 270.245 195.91 273.086C195.83 273.19 195.97 273.31 196.06 273.257C198.71 271.689 201.5 270.451 204.38 269.567C204.42 269.553 204.46 269.522 204.48 269.479C204.51 269.435 204.52 269.383 204.51 269.331C204.51 269.28 204.49 269.232 204.45 269.197C204.42 269.162 204.38 269.143 204.33 269.142Z" fill="#263238"/>
<path d="M206.64 270.223C203.62 270.133 200.11 271.326 198.21 274.167C198.14 274.271 198.27 274.398 198.36 274.346C201.02 272.77 203.82 271.532 206.72 270.655C206.76 270.636 206.79 270.6 206.82 270.554C206.84 270.507 206.84 270.453 206.84 270.401C206.83 270.349 206.8 270.302 206.77 270.27C206.73 270.237 206.68 270.22 206.64 270.223Z" fill="#263238"/>
<path d="M208.96 271.304C205.94 271.215 202.43 272.408 200.53 275.248C200.46 275.36 200.59 275.479 200.68 275.427C203.33 273.853 206.12 272.616 209 271.737C209.04 271.719 209.08 271.686 209.1 271.643C209.12 271.6 209.13 271.55 209.13 271.5C209.12 271.449 209.1 271.403 209.07 271.367C209.04 271.332 209 271.31 208.96 271.304Z" fill="#263238"/>
<path d="M175.41 274.667C172.03 274.667 171.98 280.744 175.37 280.774C178.77 280.803 178.79 274.704 175.41 274.667Z" fill="#263238"/>
<path d="M205.35 258.749C203.83 257.257 201.9 258.674 200.94 260.188C199.33 262.829 198.36 265.916 198.12 269.135C198.12 269.149 198.12 269.162 198.12 269.175C198.13 269.188 198.13 269.2 198.14 269.209C198.15 269.219 198.16 269.225 198.17 269.229C198.18 269.233 198.2 269.234 198.21 269.232C198.22 269.298 198.24 269.36 198.28 269.414C198.31 269.467 198.36 269.509 198.41 269.538C198.47 269.566 198.52 269.58 198.58 269.577C198.64 269.574 198.7 269.556 198.75 269.523C200.91 267.83 203.41 266.324 205.06 263.908C206.02 262.477 206.78 260.165 205.35 258.749ZM201.57 266.145C200.53 267.01 199.45 267.808 198.43 268.717C198.99 266.98 199.47 265.22 200.18 263.55C200.51 262.739 200.89 261.954 201.31 261.202C201.95 260.053 204.96 257.168 205.23 260.978C205.37 263.088 202.82 265.123 201.57 266.152V266.145Z" fill="#263238"/>
<path d="M190.61 270.312C193.23 270.812 195.95 269.984 198.53 269.567C198.59 269.551 198.64 269.519 198.69 269.475C198.73 269.431 198.77 269.376 198.79 269.314C198.81 269.251 198.82 269.184 198.82 269.116C198.81 269.049 198.8 268.984 198.77 268.925C198.78 268.917 198.78 268.906 198.79 268.894C198.79 268.882 198.8 268.868 198.8 268.855C198.8 268.841 198.79 268.827 198.79 268.815C198.78 268.803 198.78 268.792 198.77 268.784C196.72 266.605 194.21 265.088 191.5 264.385C189.92 264.012 187.65 264.474 187.41 266.763C187.18 268.903 189.08 270.022 190.61 270.312ZM188.8 268.299C186.79 265.272 190.68 265.078 191.84 265.406C192.58 265.638 193.32 265.927 194.03 266.271C195.52 266.957 196.9 267.874 198.32 268.724C197.03 268.851 195.78 269.097 194.5 269.276C192.98 269.485 189.92 269.969 188.8 268.299Z" fill="#263238"/>
<path d="M201.19 255.766L168.6 255.602C168.6 255.602 157.31 205.184 154.66 201.657C149.76 195.126 110.78 198.287 100.2 184.74C89.92 171.617 100.2 147.862 100.2 147.862H129.06C129.4 152.144 129.95 156.4 130.7 160.612C130.7 160.612 167.02 167.322 177.8 180.288C186.04 190.153 201.19 255.766 201.19 255.766Z" fill="#37474F"/>
<path d="M198.95 249.8C196.93 249.614 194.94 249.375 192.92 249.279C190.91 249.182 188.89 249.137 186.87 249.1C182.86 249.025 178.85 249.025 174.85 249.1C172.59 249.152 170.35 249.264 168.05 249.279C168 249.279 168.01 249.398 168.05 249.398C172.12 249.398 176.2 249.584 180.26 249.703C184.33 249.822 188.23 249.971 192.21 250.045C194.45 250.083 196.71 250.008 198.93 249.986C199.04 250.016 199.04 249.8 198.95 249.8Z" fill="#263238"/>
<path d="M164.08 217.881C162.79 213.03 161.39 208.218 159.88 203.446C159.24 201.411 158.71 199.085 157.45 197.422C156.19 195.759 154.36 195.26 152.62 194.82C144.26 192.68 135.73 191.837 127.32 190.145C123.15 189.352 119.04 188.218 115.01 186.752C113.03 186.055 111.12 185.131 109.3 183.994C107.66 182.914 106.19 181.511 104.96 179.848C102.66 176.603 101.18 172.688 100.67 168.53C100.12 163.609 100.5 158.609 101.79 153.879C102.09 152.723 102.44 151.575 102.8 150.449C102.8 150.382 102.73 150.352 102.71 150.449C99.89 158.941 98.73 168.746 102.71 177.022C103.56 178.81 104.64 180.434 105.92 181.839C107.33 183.35 108.94 184.584 110.69 185.492C114.45 187.528 118.59 188.736 122.63 189.75C130.98 191.837 139.56 192.665 147.99 194.402C150.05 194.779 152.09 195.277 154.1 195.893C155.05 196.157 155.94 196.667 156.7 197.385C157.41 198.176 157.95 199.142 158.3 200.21C159.12 202.485 159.78 204.856 160.48 207.189C161.18 209.523 161.92 212.021 162.6 214.444C165.32 224.162 167.72 233.989 169.8 243.925L170.55 247.556C170.55 247.676 170.72 247.623 170.7 247.504C168.93 237.505 166.72 227.618 164.08 217.881Z" fill="#263238"/>
<path d="M170.21 294.015C168.63 294.395 124.09 287.789 122.57 286.328C122.39 286.164 122.86 281.489 123.49 275.077C123.86 271.349 124.59 266.674 125.42 261.917C127.72 249.279 130.97 235.821 130.97 235.821L160.16 241.472L154.26 265.54L152.23 273.742C152.23 273.742 158.24 277.955 163.16 281.601C166.2 283.838 168.84 285.866 169.42 286.552C170.99 288.401 171.79 293.65 170.21 294.015Z" fill="#EB9481"/>
<path d="M170.21 294.015C168.63 294.395 124.09 287.789 122.57 286.328C122.39 286.164 122.86 281.489 123.49 275.077C123.86 271.349 124.59 266.674 125.42 261.917L154.26 265.533L152.23 273.735C152.23 273.735 158.24 277.947 163.16 281.593C166.2 283.83 168.84 285.858 169.42 286.544C170.99 288.401 171.79 293.65 170.21 294.015Z" fill="#EBEBEB"/>
<path d="M170.39 294.194C168.77 294.574 124.16 288.035 122.59 286.537C122 285.97 122.67 277.955 124.23 269.224L152.35 273.421C152.35 273.421 168.08 284.71 169.63 286.559C171.18 288.408 172.01 293.791 170.39 294.194Z" fill="#FFA629"/>
<path d="M169.98 292.032C162.52 290.719 132.35 286.261 124.9 285.619C124.84 285.619 124.83 285.664 124.9 285.679C132.25 287.17 162.46 291.338 169.96 292.173C170.12 292.188 170.14 292.061 169.98 292.032Z" fill="#263238"/>
<path d="M166.98 284.278C166.15 284.133 165.3 284.191 164.49 284.448C163.68 284.704 162.93 285.154 162.28 285.769C161.09 286.853 160.31 288.422 160.1 290.153C160.1 290.205 160.18 290.22 160.2 290.153C160.63 288.472 161.53 287.002 162.75 285.964C163.98 284.926 165.45 284.376 166.97 284.397C166.98 284.399 167 284.395 167.01 284.385C167.02 284.375 167.02 284.361 167.03 284.345C167.03 284.329 167.02 284.313 167.02 284.301C167.01 284.288 166.99 284.28 166.98 284.278Z" fill="#263238"/>
<path d="M154.78 274.629C151.79 274.144 148.18 274.86 146.02 277.425C145.93 277.53 146.06 277.664 146.15 277.626C148.94 276.419 151.83 275.559 154.78 275.062C154.83 275.062 154.87 275.039 154.91 274.998C154.94 274.958 154.96 274.903 154.96 274.845C154.96 274.788 154.94 274.733 154.91 274.692C154.87 274.652 154.83 274.629 154.78 274.629Z" fill="#263238"/>
<path d="M156.97 276.016C153.99 275.524 150.38 276.247 148.21 278.812C148.13 278.909 148.25 279.051 148.34 279.006C151.13 277.798 154.03 276.94 156.98 276.449C157.02 276.448 157.07 276.424 157.11 276.383C157.14 276.341 157.16 276.286 157.16 276.229C157.16 276.171 157.14 276.117 157.1 276.077C157.07 276.037 157.02 276.015 156.97 276.016Z" fill="#263238"/>
<path d="M159.17 277.388C156.18 276.903 152.58 277.619 150.41 280.184C150.32 280.288 150.45 280.423 150.54 280.385C153.33 279.176 156.23 278.319 159.17 277.828C159.22 277.818 159.26 277.79 159.29 277.749C159.31 277.708 159.33 277.657 159.33 277.605C159.33 277.553 159.31 277.502 159.28 277.463C159.25 277.423 159.21 277.397 159.17 277.388Z" fill="#263238"/>
<path d="M161.37 278.782C158.38 278.29 154.78 279.013 152.61 281.578C152.52 281.675 152.64 281.817 152.74 281.772C155.53 280.563 158.42 279.706 161.37 279.215C161.42 279.214 161.47 279.19 161.5 279.149C161.54 279.107 161.56 279.052 161.56 278.995C161.55 278.937 161.53 278.883 161.5 278.843C161.46 278.803 161.41 278.781 161.37 278.782Z" fill="#263238"/>
<path d="M127.7 277.664C124.34 277.179 123.69 283.234 127.05 283.718C130.42 284.203 131.07 278.134 127.7 277.664Z" fill="#263238"/>
<path d="M159.02 265.839C157.66 264.161 155.6 265.302 154.52 266.681C152.67 269.079 151.39 272 150.81 275.151C150.81 275.165 150.81 275.18 150.81 275.194C150.82 275.209 150.82 275.222 150.83 275.233C150.84 275.244 150.85 275.252 150.86 275.258C150.87 275.263 150.88 275.265 150.9 275.263C150.9 275.33 150.92 275.395 150.95 275.452C150.98 275.51 151.02 275.558 151.07 275.593C151.12 275.629 151.18 275.651 151.23 275.657C151.29 275.663 151.35 275.653 151.4 275.628C153.72 274.227 156.35 273.064 158.23 270.886C159.35 269.619 160.31 267.427 159.02 265.839ZM154.52 272.683C153.39 273.429 152.25 274.048 151.14 274.816C151.87 273.168 152.52 271.49 153.39 269.917C153.79 269.155 154.25 268.427 154.74 267.74C155.51 266.689 158.76 264.213 158.65 268.038C158.62 270.141 155.88 271.818 154.55 272.683H154.52Z" fill="#263238"/>
<path d="M143.24 275.36C145.81 276.202 148.58 275.74 151.19 275.651C151.24 275.644 151.3 275.621 151.35 275.584C151.39 275.548 151.44 275.498 151.46 275.44C151.49 275.382 151.51 275.316 151.51 275.249C151.52 275.182 151.5 275.115 151.48 275.054C151.49 275.045 151.5 275.034 151.5 275.021C151.51 275.008 151.51 274.994 151.51 274.98C151.51 274.965 151.51 274.951 151.5 274.938C151.5 274.926 151.49 274.914 151.48 274.905C149.66 272.47 147.33 270.631 144.71 269.574C143.17 268.992 140.89 269.156 140.41 271.386C139.93 273.615 141.74 274.86 143.24 275.36ZM141.65 273.123C139.95 269.85 143.83 270.141 144.95 270.655C145.66 270.983 146.36 271.367 147.03 271.803C148.42 272.718 149.76 273.713 151.05 274.786C149.76 274.734 148.48 274.786 147.19 274.786C145.67 274.853 142.59 274.92 141.65 273.116V273.123Z" fill="#263238"/>
<path d="M161.53 264.102L125.99 259.084C125.99 259.084 138.38 202.328 137.82 201.478C135.86 198.541 105.87 199.726 95.65 187.931C84.82 175.442 95.2099 147.832 95.2099 147.832L122.2 147.951C122.2 147.951 122.38 160.328 123.6 161.491C124.4 162.237 161.69 169.566 167.75 178.752C177 192.784 161.53 264.102 161.53 264.102Z" fill="#37474F"/>
<path d="M170.27 183.815C169.77 182.247 169.04 180.786 168.13 179.491C167.1 178.104 165.89 176.912 164.55 175.956C161.71 173.964 158.71 172.288 155.6 170.953C152.43 169.493 149.19 168.231 145.9 167.173C142.56 166.085 139.18 165.168 135.79 164.325C132.41 163.482 129.02 162.834 125.63 162.088L124.03 161.745C125.78 160.94 127.51 160.09 129.26 159.255C129.28 159.243 129.29 159.225 129.3 159.203C129.3 159.181 129.3 159.157 129.3 159.135C129.29 159.112 129.28 159.093 129.26 159.079C129.25 159.066 129.23 159.06 129.21 159.061C125.68 159.842 122.31 161.401 119.28 163.654C119.23 163.654 119.28 163.781 119.32 163.758C120.83 163.184 122.33 162.528 123.82 161.85C126.89 162.595 129.95 163.393 133.02 164.183C136.33 165.041 139.64 165.95 142.9 167.024C149.38 169.157 155.82 171.662 161.81 175.271C164.52 176.903 167.08 178.946 168.61 182.108C170.02 185.038 170.45 188.468 170.54 191.801C170.54 195.538 170.36 199.272 169.99 202.985C169.66 207.19 169.28 211.388 168.85 215.578C168.4 219.768 165.86 241.734 165.57 242.673C165.54 242.8 165.72 242.889 165.77 242.763C166.15 241.868 170.54 210.135 170.86 205.87C171.17 201.941 171.51 197.989 171.54 194.045C171.69 190.572 171.25 187.1 170.27 183.815Z" fill="#263238"/>
<path d="M141.79 196.915C140.85 196.623 139.88 196.423 138.91 196.319L135.7 195.73L129.3 194.552C125.21 193.806 121.1 193.105 117.02 192.27C110.06 190.838 102.5 188.236 98.5 180.892C97.57 179.2 96.94 177.316 96.63 175.345C96.31 172.927 96.1699 170.483 96.1999 168.038C96.1299 163.112 96.4 158.188 97.01 153.312C97.16 152.112 97.35 150.926 97.54 149.741C97.54 149.666 97.4599 149.636 97.4499 149.741C96.6399 154.496 96.1399 159.313 95.9399 164.153C95.8499 166.569 95.8499 168.985 95.9399 171.401C95.9399 173.623 96.23 175.833 96.8 177.954C99.09 185.612 105.8 189.75 112.16 191.644C116.09 192.814 120.13 193.411 124.14 194.134L136.75 196.431L139.9 197.005C140.75 197.161 142.28 197.124 142.47 198.391C142.51 198.908 142.47 199.429 142.34 199.927C142.22 200.569 142.1 201.202 141.98 201.844L141.29 205.572C140.38 210.418 139.49 215.267 138.61 220.118C136.82 229.886 135.13 239.683 133.39 249.465L132.75 253.104C132.75 253.164 132.82 253.193 132.83 253.104C134.68 243.359 136.56 233.614 138.38 223.861C139.31 218.95 140.21 214.034 141.1 209.113C141.54 206.683 141.98 204.259 142.38 201.829C142.65 200.787 142.81 199.714 142.88 198.63C142.88 198.246 142.77 197.872 142.58 197.563C142.38 197.254 142.11 197.026 141.79 196.915Z" fill="#263238"/>
<path d="M160.77 259.032C158.7 258.525 156.63 257.966 154.53 257.541C152.44 257.116 150.33 256.743 148.22 256.385C144.04 255.664 139.84 255.025 135.63 254.469C133.26 254.148 130.88 253.895 128.51 253.552C128.44 253.552 128.44 253.656 128.51 253.663C132.77 254.29 137.01 255.155 141.25 255.938C145.49 256.72 149.55 257.488 153.72 258.174C156.06 258.577 158.4 258.86 160.75 259.203C160.85 259.256 160.87 259.062 160.77 259.032Z" fill="#263238"/>
<path d="M130.81 154.714C128.94 155.144 127.05 155.455 125.15 155.646C122.16 155.989 117.99 156.302 112.6 156.295H112.16H110.08C105.1 156.198 99.2 155.847 92.38 155.049C92.38 155.049 100.28 121.311 108.33 110.313C108.51 110.06 108.7 109.821 108.89 109.567L109 109.433C109.62 108.661 110.35 108.009 111.15 107.502C111.29 107.413 111.43 107.331 111.58 107.256C114.68 105.601 117.96 106.973 120.33 109.321C121.08 110.067 129.57 122.891 130.33 127.783C130.97 132.1 128.46 136.73 128.46 136.73L130.81 154.714Z" fill="#FFA629"/>
<path d="M112.6 156.294H112.16H110.08C105.1 156.197 99.2 155.847 92.38 155.049C92.38 155.049 100.28 121.311 108.33 110.313C108.51 110.059 108.7 109.821 108.89 109.567L109 109.433C109.62 108.661 110.35 108.009 111.15 107.502C111.29 107.412 111.43 107.33 111.58 107.256L112.6 156.294Z" fill="#263238"/>
<path d="M106.06 113.422C98.9401 126.03 90.55 147.653 95.73 151.381C104.2 157.487 127.02 158.263 132.22 158.196C134.47 158.196 137 140.711 135.27 138.765C133.54 136.819 109.76 138.907 109.4 137.274C109.2 136.334 111.08 127.663 112.23 117.143C113.53 104.937 108.08 109.858 106.06 113.422Z" fill="#EB9481"/>
<path d="M131.23 137.96C131.23 137.96 137.99 136.864 142.45 136.387C144.94 136.126 149.24 136.111 151.14 136.879C153.99 138.042 165.28 144.991 163.86 148.204C162.58 151.105 153.58 143.731 153.58 143.731C153.58 143.731 163.26 150.27 161.18 153.424C159.11 156.578 149.87 146.661 149.87 146.661C149.87 146.661 159.69 153.632 157.1 156.511C155.18 158.68 146.34 150.233 146.34 150.233C146.34 150.233 154.74 156.294 152.82 158.628C150.69 161.215 142.14 154.005 142.14 154.005C136.35 158.986 131.86 158.628 128.71 157.935C127.93 157.741 131.23 137.96 131.23 137.96Z" fill="#EB9481"/>
<path d="M150.35 141.189C151.51 141.935 152.69 142.628 153.79 143.426C154.9 144.224 155.97 145.148 157.01 146.095C158.38 147.309 159.62 148.703 160.71 150.248C158.6 147.676 154.69 144.604 153.59 143.769C152.48 142.934 151.43 142.031 150.32 141.196C150.29 141.211 150.35 141.174 150.35 141.189Z" fill="#263238"/>
<path d="M147.67 145.751C149.12 146.743 150.59 147.668 152 148.734C153.42 149.8 155.33 151.366 156.67 152.536C156.77 152.626 156.7 152.835 156.6 152.753C155.22 151.642 153.19 150.15 151.8 149.062C150.41 147.973 149.06 146.825 147.65 145.789C147.63 145.774 147.65 145.736 147.67 145.751Z" fill="#263238"/>
<path d="M144.77 149.189C147.02 150.652 149.14 152.378 151.09 154.341C151.19 154.431 151.09 154.468 150.98 154.341C148.9 152.582 147.29 151.18 144.73 149.241C144.69 149.249 144.72 149.144 144.77 149.189Z" fill="#263238"/>
<path d="M131.18 137.855C134.27 137.356 142.41 135.939 145.52 135.738C148.13 135.461 150.75 136.005 153.11 137.311C156.79 139.362 160.16 142.12 163.06 145.468C163.62 146.214 164.46 147.354 163.93 148.339C163.29 149.539 160.3 148.92 156.94 146.229C156.82 146.132 156.88 146.05 157 146.132C161.67 149.457 163.31 148.741 163.67 147.996C163.9 147.511 163.54 146.795 163.22 146.251C162.71 145.474 162.12 144.774 161.46 144.171C159.25 142.058 156.86 140.209 154.33 138.653C151.6 136.882 148.49 136.047 145.37 136.245C142.16 136.424 134.37 137.863 131.18 137.99C131.12 137.997 131.11 137.863 131.18 137.855Z" fill="#263238"/>
<path d="M161.51 151.746C161.13 150.809 160.59 149.966 159.94 149.264C159.24 148.335 158.46 147.491 157.61 146.743C157.57 146.743 157.52 146.743 157.56 146.811C158.3 147.577 158.99 148.393 159.64 149.256C159.99 149.73 160.31 150.228 160.61 150.747C160.95 151.229 161.15 151.828 161.18 152.455C161.09 153.655 159.81 153.819 159.02 153.625C158.51 153.483 158.01 153.289 157.52 153.044C156.85 152.686 156.21 152.27 155.59 151.799C155.54 151.754 155.43 151.799 155.48 151.836C156.76 152.91 159.17 155.169 160.81 153.953C161.13 153.738 161.37 153.4 161.5 152.997C161.63 152.594 161.63 152.151 161.51 151.746Z" fill="#263238"/>
<path d="M96.3 127.186L111.32 127L112.85 114.049C113.54 108.084 113.15 104.319 107.11 110.888C102.93 115.443 96.3 127.186 96.3 127.186Z" fill="#FFA629"/>
<path d="M114.04 106.541C111.09 107.517 111.39 111.357 112.49 114.056C113.59 116.755 115.74 119.879 117.32 119.79C118.89 119.701 119.19 115.108 119.19 115.108C119.19 115.108 121.43 117.956 122.61 116.964C123.78 115.973 121.43 110.731 119.75 109.105C117.32 106.742 115.59 106.019 114.04 106.541Z" fill="white"/>
<path d="M112.44 108.71C112.56 109.53 115.71 114.973 118.91 114.965C119.95 114.965 120.19 108.344 120.19 108.344L120.3 107.86L121.88 101.09L115.16 95.5797L114.18 94.8341C114.18 94.8341 113.86 96.7205 113.47 99.0766L113.41 99.4121C113.41 99.5463 113.37 99.6656 113.35 99.7924C113.28 100.143 113.23 100.538 113.17 100.859C113.11 101.179 113.08 101.395 113.05 101.686C113.01 101.977 112.97 102.253 112.92 102.544C112.64 104.584 112.48 106.644 112.44 108.71Z" fill="#EB9481"/>
<path d="M113.45 99.0841C113.97 101.035 114.85 102.83 116.03 104.346C117.21 105.862 118.66 107.061 120.28 107.86L121.86 101.09L115.14 95.5797L114.16 94.8341C114.16 94.8341 113.84 96.7279 113.45 99.0841Z" fill="#263238"/>
<path d="M130.31 90.5769C130.8 102.872 124.53 104.609 122.22 104.743C120.15 104.848 113.07 104.915 111.48 92.7391C109.9 80.5634 114.7 76.4104 119.41 75.8735C124.12 75.3367 129.82 78.3116 130.31 90.5769Z" fill="#EB9481"/>
<path d="M128.73 88.5337C128.49 88.4966 128.25 88.4443 128.01 88.3771C127.75 88.3632 127.5 88.2507 127.3 88.0565C127.25 87.9791 127.22 87.8849 127.22 87.7881C127.22 87.6913 127.25 87.5971 127.3 87.5197C127.42 87.3843 127.56 87.2875 127.72 87.239C127.88 87.1906 128.05 87.1922 128.21 87.2438C128.55 87.2924 128.86 87.4833 129.09 87.7806C129.14 87.8532 129.17 87.9404 129.17 88.0316C129.18 88.1227 129.16 88.2139 129.12 88.2938C129.09 88.3738 129.03 88.439 128.96 88.4817C128.89 88.5243 128.81 88.5423 128.73 88.5337Z" fill="#263238"/>
<path d="M121.94 88.7501C122.18 88.7005 122.42 88.6358 122.65 88.5563C122.91 88.5256 123.16 88.3973 123.35 88.1909C123.4 88.1157 123.43 88.0224 123.43 87.9262C123.43 87.8301 123.4 87.7368 123.35 87.6616C123.22 87.5313 123.07 87.4413 122.91 87.4007C122.75 87.36 122.58 87.3703 122.42 87.4304C122.09 87.5009 121.78 87.7101 121.57 88.0195C121.52 88.0932 121.5 88.1795 121.5 88.2684C121.5 88.3573 121.52 88.4451 121.55 88.5216C121.59 88.5982 121.65 88.6603 121.72 88.7007C121.79 88.7412 121.86 88.7583 121.94 88.7501Z" fill="#263238"/>
<path d="M123.27 91.6879C123.27 91.6506 123.21 91.7252 123.22 91.7624C123.28 92.5975 123.22 93.5668 122.58 93.88C122.58 93.88 122.58 93.9322 122.58 93.9247C123.36 93.7532 123.44 92.4782 123.27 91.6879Z" fill="#263238"/>
<path d="M122.59 90.8456C121.43 90.8083 121.44 93.5149 122.52 93.5521C123.6 93.5894 123.57 90.8754 122.59 90.8456Z" fill="#263238"/>
<path d="M122.13 90.9869C121.93 91.1433 121.73 91.4114 121.49 91.4411C121.25 91.4709 120.99 91.1954 120.8 90.9274H120.76C120.76 91.4486 120.94 91.9773 121.41 92.0517C121.87 92.1262 122.15 91.6571 122.26 91.1359C122.29 91.0763 122.21 90.9348 122.13 90.9869Z" fill="#263238"/>
<path d="M127.22 91.4715C127.22 91.4343 127.27 91.4715 127.27 91.5461C127.27 92.3812 127.34 93.343 128 93.6263V93.6711C127.22 93.5443 127.08 92.2619 127.22 91.4715Z" fill="#263238"/>
<path d="M127.86 90.5914C129.02 90.487 129.11 93.1935 128.04 93.2905C126.97 93.3874 126.89 90.6809 127.86 90.5914Z" fill="#263238"/>
<path d="M128.35 90.7484C128.54 90.8826 128.73 91.1361 128.95 91.1435C129.17 91.151 129.39 90.8453 129.54 90.562C129.57 91.0839 129.45 91.6282 129.02 91.7475C128.6 91.8668 128.33 91.4269 128.21 90.9124C128.22 90.8453 128.28 90.6962 128.35 90.7484Z" fill="#263238"/>
<path d="M126.14 95.4603C126.14 95.4603 126.3 96.7055 126.32 97.2945C126.32 97.3542 124.47 97.8388 123.64 96.4072C123.63 96.3958 123.63 96.3824 123.63 96.3691C123.63 96.3558 123.64 96.3434 123.64 96.3339C123.65 96.3245 123.66 96.3184 123.67 96.3169C123.69 96.3153 123.7 96.3182 123.71 96.3252C124.37 96.8234 125.15 97.0614 125.93 97.0037C125.96 96.8397 125.58 94.8788 125.65 94.8713C126.05 94.8998 126.44 94.9927 126.82 95.1472C126.53 92.5376 125.88 89.995 125.62 87.3929C125.62 87.3756 125.63 87.359 125.64 87.3453C125.65 87.3317 125.66 87.3216 125.67 87.3167C125.69 87.3117 125.7 87.3121 125.72 87.3178C125.73 87.3234 125.74 87.334 125.75 87.3481C126.52 90.0422 127.06 92.8201 127.35 95.6393C127.4 95.9823 126.34 95.5647 126.14 95.4603Z" fill="#263238"/>
<path d="M126.69 91.9862C126.65 90.0551 127.5 88.4595 128.62 88.4222C129.74 88.385 130.66 89.9135 130.7 91.852C130.75 93.7906 129.89 95.3787 128.78 95.416C127.66 95.4533 126.75 93.9099 126.69 91.9862ZM127.1 91.9862C127.14 93.6564 127.89 94.9687 128.76 94.9687C129.64 94.9687 130.33 93.5595 130.28 91.8893C130.24 90.2192 129.5 88.9069 128.62 88.9069C127.74 88.9069 127.06 90.3012 127.1 91.9713V91.9862Z" fill="#37474F"/>
<path d="M119.12 92.2323C119.14 91.5955 119.32 90.9803 119.64 90.4621C119.96 89.944 120.41 89.5454 120.92 89.3154C121.43 89.0854 121.99 89.0339 122.53 89.1673C123.06 89.3007 123.56 89.6132 123.94 90.0663C124.33 90.5195 124.59 91.0936 124.7 91.7183C124.81 92.3429 124.76 92.991 124.56 93.5828C124.35 94.1746 124 94.6845 123.55 95.0499C123.1 95.4153 122.57 95.6203 122.02 95.6398C121.25 95.6338 120.51 95.2718 119.96 94.633C119.42 93.9941 119.11 93.1308 119.12 92.2323ZM119.52 92.2323C119.57 92.7736 119.76 93.2857 120.06 93.7063C120.36 94.1268 120.75 94.4376 121.2 94.6006C121.65 94.7636 122.13 94.7718 122.58 94.6242C123.03 94.4765 123.44 94.1795 123.75 93.7693C124.05 93.3591 124.25 92.8535 124.32 92.3143C124.38 91.775 124.31 91.2255 124.11 90.7328C123.91 90.24 123.59 89.8254 123.19 89.5396C122.79 89.2537 122.33 89.109 121.86 89.1232C121.53 89.1469 121.21 89.246 120.91 89.4147C120.61 89.5835 120.35 89.8187 120.13 90.1067C119.91 90.3948 119.74 90.7302 119.63 91.0936C119.53 91.4571 119.48 91.8415 119.5 92.2249L119.52 92.2323Z" fill="#37474F"/>
<path d="M124.61 91.7315C126.1 91.0688 126.8 91.6123 126.8 91.6198L127.04 91.2475C127.04 91.2475 126.19 90.5029 124.47 91.2921L124.61 91.7315Z" fill="#37474F"/>
<path d="M119.32 91.9263L119.38 91.4566C119.11 91.4119 112.95 90.3009 112.26 90.2785C111.57 90.2562 109.93 91.3746 109.75 91.5088L109.96 91.9039C110.65 91.3822 111.42 90.9921 112.22 90.7483H112.25C112.76 90.7632 117.09 91.5237 119.32 91.9263Z" fill="#37474F"/>
<path d="M112.29 93.1342C114.86 93.1342 115.92 83.8812 116.03 82.7405C115.99 83.4861 115.79 87.2812 116.03 87.4452C116.31 87.4477 116.59 87.3974 116.86 87.2961C116.87 86.8379 116.92 86.3818 116.99 85.9317C116.99 85.7229 117.05 86.3939 117.13 87.2216L117.61 87.0874C117.61 86.1101 117.72 85.1373 117.94 84.1944C118.03 83.8365 118.06 85.4619 118.32 86.8935C120.56 86.2232 122.86 85.8456 125.18 85.7676C125.75 85.7592 126.31 85.7841 126.88 85.8422C126.92 84.7089 126.84 83.5084 126.88 83.7694C127.06 84.4581 127.17 85.1647 127.23 85.8795L127.96 85.9689C128.08 84.3808 127.5 81.8159 127.7 82.2409C128.32 83.4648 128.73 84.8132 128.92 86.215C129.85 86.461 130.1 86.6847 130.13 86.4014C129.94 83.2536 128.79 80.2873 126.89 78.0357C123.74 74.3524 117.28 73.2116 113.46 78.5427C113.46 78.5427 110.38 80.705 109.81 84.3584C109.23 88.0119 110.78 93.1417 112.29 93.1342Z" fill="#263238"/>
<path d="M113.21 92.6569C113.21 92.6569 111.03 88.7127 109.49 89.5999C107.96 90.4872 109.49 96.1314 111.24 96.974C111.46 97.1003 111.69 97.1745 111.93 97.192C112.18 97.2096 112.42 97.1701 112.65 97.0761C112.87 96.982 113.08 96.8353 113.26 96.6447C113.44 96.4542 113.58 96.2238 113.68 95.9674L113.21 92.6569Z" fill="#EB9481"/>
<path d="M109.97 91.2032C109.97 91.2032 109.94 91.2479 109.97 91.2554C111.19 91.8966 111.79 93.2611 112.2 94.6553C112.14 94.5091 112.04 94.3816 111.93 94.2814C111.81 94.1811 111.68 94.1106 111.54 94.0745C111.4 94.0384 111.26 94.0377 111.12 94.0723C110.98 94.1069 110.85 94.1761 110.73 94.2751C110.7 94.2751 110.73 94.3571 110.73 94.3496C110.95 94.282 111.18 94.2944 111.4 94.3851C111.61 94.4758 111.8 94.6404 111.93 94.8567C112.14 95.2211 112.32 95.611 112.47 96.0198C112.52 96.154 112.72 96.0944 112.69 95.9452V95.908C112.79 94.0812 111.66 91.4641 109.97 91.2032Z" fill="#263238"/>
<path d="M134.17 153.438H96.74V155.384H134.17V153.438Z" fill="#455A64"/>
<path d="M134.17 153.438H115.33V155.384H134.17V153.438Z" fill="#263238"/>
<path d="M115.77 155.385H79.29L74.14 126.649H110.62L115.77 155.385Z" fill="#37474F"/>
<path d="M97.7801 141.688C97.8201 142.045 97.8 142.407 97.71 142.751C97.62 143.095 97.46 143.412 97.25 143.679C97.05 143.947 96.79 144.16 96.51 144.303C96.22 144.445 95.91 144.515 95.6 144.506C94.94 144.489 94.3001 144.195 93.8101 143.677C93.3201 143.16 93.0001 142.454 92.9201 141.688C92.8801 141.331 92.9 140.969 93 140.625C93.09 140.281 93.24 139.964 93.45 139.697C93.66 139.429 93.91 139.216 94.19 139.073C94.48 138.931 94.79 138.861 95.1 138.87C95.76 138.886 96.4001 139.179 96.8901 139.697C97.3901 140.215 97.7001 140.922 97.7801 141.688Z" fill="white"/>
<path d="M186.88 155.392H156.48V152.649L186.88 151.508V155.392Z" fill="#37474F"/>
<path d="M218.04 143.38H164.8L173.27 97.3914H226.51L218.04 143.38Z" fill="#455A64"/>
<path d="M220.01 143.38H166.77L175.24 97.3914H228.48L220.01 143.38Z" fill="#37474F"/>
<path d="M191.29 126.887H190.05L191.94 116.568H193.19L191.29 126.887Z" fill="#263238"/>
<path d="M193.76 126.887H192.51L194.41 116.568H195.66L193.76 126.887Z" fill="#263238"/>
<path d="M196.22 126.887H194.98L196.87 116.568H198.12L196.22 126.887Z" fill="#263238"/>
<path d="M198.69 126.887H197.44L199.33 116.568H200.59L198.69 126.887Z" fill="#263238"/>
<path d="M201.15 126.887H199.9L201.8 116.568H203.05L201.15 126.887Z" fill="#263238"/>
<path d="M203.61 126.887H202.37L204.26 116.568H205.51L203.61 126.887Z" fill="#263238"/>
<path d="M206.08 126.887H204.83L206.73 116.568H207.98L206.08 126.887Z" fill="#263238"/>
<path d="M204.95 155.392H178.77V153.029L204.95 152.045V155.392Z" fill="#455A64"/>
<path d="M212.08 155.385H198.01L189.54 129.617H203.61L212.08 155.385Z" fill="#455A64"/>
<path d="M214.39 155.385H200.33L191.86 129.617H205.92L214.39 155.385Z" fill="#263238"/>
<path d="M59.013 143.38H75.45L66.98 97.3914H50.543L59.013 143.38Z" fill="#455A64"/>
<path d="M57.04 143.38H73.47L65.01 97.3911H48.577L57.04 143.38Z" fill="#37474F"/>
<path d="M59.283 126.887H59.514L57.619 116.568H57.387L59.283 126.887Z" fill="#263238"/>
<path d="M59.778 126.887H60.01L58.113 116.568H57.882L59.778 126.887Z" fill="#263238"/>
<path d="M60.27 126.887H60.51L58.615 116.568H58.384L60.27 126.887Z" fill="#263238"/>
<path d="M60.77 126.887H61.01L59.109 116.568H58.878L60.77 126.887Z" fill="#263238"/>
<path d="M61.27 126.887H61.51L59.611 116.568H59.373L61.27 126.887Z" fill="#263238"/>
<path d="M61.77 126.887H62L60.1 116.568H59.874L61.77 126.887Z" fill="#263238"/>
<path d="M62.26 126.887H62.5L60.6 116.568H60.37L62.26 126.887Z" fill="#263238"/>
<path d="M62.76 126.887H63L61.1 116.568H60.86L62.76 126.887Z" fill="#263238"/>
<path d="M56.725 155.392H76.38V153.029L56.725 152.045V155.392Z" fill="#455A64"/>
<path d="M49.604 155.385H57.136L65.61 129.617H58.074L49.604 155.385Z" fill="#455A64"/>
<path d="M49.604 155.385H54.823L63.29 129.617H58.074L49.604 155.385Z" fill="#263238"/>
<path d="M153.56 155.414H133.51C131.8 155.414 134.28 149.755 140.52 147.593C146.77 145.431 155.49 153.289 153.56 155.414Z" fill="#37474F"/>
<path d="M145.67 155.415C145.62 154.759 145.67 154.097 145.81 153.461C145.95 152.822 146.17 152.21 146.46 151.642C146.75 151.075 147.13 150.571 147.57 150.151C148.01 149.726 148.53 149.418 149.08 149.248C148.67 149.66 148.28 150.101 147.92 150.568C147.58 151.033 147.27 151.532 147.01 152.059C146.48 153.129 146.03 154.252 145.67 155.415Z" fill="#263238"/>
<path d="M148.04 150.031C148.66 150.178 149.27 150.406 149.84 150.71C150.42 151.014 150.97 151.378 151.49 151.798C152.02 152.223 152.49 152.741 152.88 153.334C153.31 153.914 153.54 154.653 153.53 155.414C153.3 154.766 152.94 154.185 152.5 153.714C152.06 153.237 151.6 152.801 151.1 152.409C150.13 151.589 149.07 150.866 148.04 150.031Z" fill="#263238"/>
<path d="M59.238 247.341H42.214V250.815H59.238V247.341Z" fill="#455A64"/>
<path d="M68.47 298.154H66.63L51.635 216.95L50.78 212.32L48.088 197.743L47.085 192.308L43.313 171.908L41.996 164.765H48.544L49.611 171.908L50.311 176.598L50.78 179.722L53.467 197.743L54.334 203.544L68.47 298.154Z" fill="#455A64"/>
<path d="M48.544 164.765L49.611 171.908H43.313L41.996 164.765H48.544Z" fill="#263238"/>
<path d="M54.334 203.544L51.635 216.95L50.781 212.319L48.088 197.743L47.085 192.307L50.311 176.597L50.781 179.722L53.467 197.743L54.334 203.544Z" fill="#263238"/>
<path d="M59.559 164.765L58.242 171.908L53.467 197.743L50.781 212.32L34.927 298.154H33.096L48.088 197.743L50.781 179.722L51.944 171.908L53.011 164.765H59.559Z" fill="#455A64"/>
<path d="M59.56 164.765L58.242 171.908H51.944L53.011 164.765H59.56Z" fill="#263238"/>
<path d="M239.43 164.765L214.79 298.154H212.96L232.88 164.765H239.43Z" fill="#455A64"/>
<path d="M221.86 164.765L246.49 298.154H248.33L228.41 164.765H221.86Z" fill="#455A64"/>
<path d="M239.1 247.341H222.08V250.815H239.1V247.341Z" fill="#455A64"/>
<path d="M249.49 155.392H31.932V164.765H249.49V155.392Z" fill="#455A64"/>
<path d="M30.345 238.356C25.641 227.171 17.415 221.378 8.13601 224.562C-1.14399 227.746 -2.59597 242.755 4.35103 246.542C11.297 250.33 18.199 239.265 21.856 236.991C25.512 234.717 30.345 238.356 30.345 238.356Z" fill="#FFA629"/>
<path d="M34.901 268.217C34.901 266.86 34.831 265.51 34.786 264.161C34.708 261.462 34.627 258.763 34.541 256.064C34.381 251.12 33.899 246.274 32.164 241.726C30.606 237.599 28.004 234.12 24.703 231.749C23.477 230.89 22.156 230.228 20.776 229.781C19.526 228.316 17.937 227.303 16.201 226.866C14.052 226.363 11.844 226.302 9.67797 226.687C9.60097 226.687 9.60097 226.836 9.67797 226.828C11.745 226.522 13.844 226.695 15.854 227.335C16.714 227.61 17.547 227.987 18.341 228.461C18.843 228.771 19.324 229.125 19.78 229.52C17.909 229.07 15.976 229.091 14.112 229.58C13.441 229.767 12.783 230.017 12.146 230.325C11.637 230.195 11.116 230.145 10.597 230.176C9.91998 230.2 9.24797 230.31 8.59197 230.504C7.24797 230.942 5.96402 231.595 4.77502 232.443C4.70402 232.488 4.77498 232.607 4.83898 232.562C6.00798 231.822 7.25999 231.275 8.55999 230.937C9.19399 230.767 9.83797 230.658 10.488 230.609C10.843 230.586 11.199 230.586 11.554 230.609C8.91301 232.026 6.78901 234.483 5.55901 237.543C5.52601 237.625 5.629 237.699 5.661 237.61C6.393 235.834 7.46097 234.274 8.78497 233.043C10.109 231.813 11.656 230.945 13.309 230.504C13.508 230.445 13.72 230.415 13.951 230.363C13.881 230.713 13.894 231.108 13.855 231.451C13.791 231.995 13.714 232.54 13.617 233.077C13.413 234.195 13.149 235.299 12.827 236.38C12.512 237.468 12.137 238.532 11.702 239.563C11.282 240.653 10.756 241.684 10.134 242.635C10.076 242.71 10.186 242.807 10.231 242.717C10.79 241.703 11.439 240.771 11.946 239.735C12.431 238.729 12.85 237.682 13.199 236.603C13.556 235.511 13.833 234.386 14.028 233.241C14.131 232.637 14.215 232.025 14.273 231.414C14.337 231.049 14.356 230.675 14.331 230.303C15.422 230.108 16.53 230.08 17.627 230.221C17.216 232.898 16.773 235.686 15.481 238.012C15.436 238.087 15.552 238.162 15.59 238.08C16.192 236.846 16.724 235.568 17.184 234.255C17.607 232.967 17.871 231.617 17.968 230.243C19.883 230.544 21.732 231.262 23.417 232.361C26.592 234.508 29.124 237.732 30.673 241.599C32.318 245.735 33.242 250.207 33.391 254.759C33.699 260.492 33.764 266.256 34.259 271.975C34.259 272.348 34.798 272.474 34.863 272.049C34.978 270.776 34.991 269.493 34.901 268.217Z" fill="#263238"/>
<path d="M24.028 230.847C23.72 230.41 23.361 230.026 22.961 229.706C22.575 229.333 22.183 228.96 21.766 228.647C20.95 227.999 20.046 227.512 19.092 227.208C19.015 227.208 18.989 227.328 19.092 227.35C20.051 227.628 20.948 228.136 21.727 228.841C22.119 229.177 22.498 229.535 22.864 229.907C23.192 230.302 23.5539 230.657 23.9439 230.966C23.9889 231.026 24.079 230.929 24.028 230.847Z" fill="#263238"/>
<path d="M9.01703 234.888C8.23903 235.94 7.52001 237.048 6.86401 238.206C6.21901 239.368 5.68102 240.605 5.25702 241.897C5.25702 241.934 5.296 241.957 5.315 241.897C6.39 239.456 7.65999 237.137 9.10699 234.97C9.15799 234.94 9.06803 234.843 9.01703 234.888Z" fill="#263238"/>
<path d="M19.137 233.807C19.036 234.507 18.856 235.189 18.604 235.835C18.348 236.461 18.049 237.062 17.711 237.632C17.705 237.64 17.703 237.65 17.704 237.66C17.706 237.67 17.71 237.678 17.717 237.684C17.724 237.69 17.732 237.693 17.741 237.691C17.749 237.69 17.757 237.685 17.762 237.677C18.574 236.595 19.093 235.259 19.253 233.837C19.253 233.747 19.15 233.71 19.137 233.807Z" fill="#263238"/>
<path d="M34.246 238.616C34.246 238.616 40.904 228.923 53.756 232.346C65.97 235.619 71.61 261.611 59.264 264.72C46.919 267.829 49.097 243.776 44.599 239.697C41.296 236.715 36.553 237.364 34.246 238.616Z" fill="#FFA629"/>
<path d="M63.69 246.557C62.85 245.705 61.96 244.918 61.04 244.201C60.16 243.51 59.212 242.961 58.21 242.568C57.706 241.697 57.143 240.874 56.526 240.108C55.403 238.693 54.103 237.482 52.67 236.514H53.056C53.737 236.473 54.419 236.473 55.1 236.514C56.47 236.611 57.814 236.998 59.065 237.655C59.079 237.663 59.096 237.663 59.111 237.657C59.126 237.651 59.138 237.638 59.145 237.621C59.152 237.604 59.153 237.585 59.147 237.568C59.142 237.55 59.13 237.536 59.116 237.528C57.846 236.892 56.518 236.427 55.157 236.141C54.494 236.004 53.82 235.936 53.146 235.94C52.786 235.94 52.426 235.977 52.066 236.014H51.861C50.684 235.321 49.442 234.79 48.159 234.434L48.513 234.322C49.149 234.158 49.792 234.036 50.44 233.956C51.723 233.783 53.019 233.806 54.296 234.024C54.373 234.024 54.399 233.897 54.296 233.882C53.017 233.705 51.728 233.645 50.44 233.703C49.358 233.74 48.282 233.902 47.227 234.188C46.452 234.023 45.669 233.919 44.882 233.874C40.383 233.658 35.512 235.604 32.755 239.877C29.998 244.149 29.381 249.845 28.893 255.02C28.141 262.211 27.975 269.468 28.398 276.695C28.398 277.127 28.944 277.045 28.957 276.642C29.124 270.514 29.311 264.385 29.818 258.278C30.05 255.445 30.307 252.612 30.712 249.808C31.006 247.394 31.604 245.043 32.485 242.829C33.44 240.57 34.949 238.69 36.823 237.424C38.707 236.17 40.808 235.419 42.973 235.224C44.918 235.039 46.875 235.251 48.757 235.85C48.699 236.288 48.699 236.733 48.757 237.17C48.796 237.725 48.891 238.273 49.039 238.803C49.179 239.303 49.357 239.787 49.573 240.249C49.811 240.764 50.113 241.219 50.376 241.741C50.421 241.815 50.524 241.741 50.479 241.659C49.948 240.784 49.606 239.774 49.483 238.713C49.4 238.221 49.349 237.723 49.329 237.222C49.329 236.835 49.329 236.477 49.329 236.067C51.368 236.794 53.271 237.96 54.939 239.504C55.254 239.795 55.582 240.1 55.851 240.413C55.426 240.87 55.058 241.395 54.759 241.972C54.319 242.717 53.937 243.505 53.615 244.328C53.022 245.999 52.622 247.754 52.426 249.547C52.426 249.637 52.542 249.666 52.548 249.547C52.767 247.81 53.243 246.13 53.956 244.581C54.296 243.827 54.676 243.097 55.093 242.397C55.312 242.039 55.537 241.651 55.736 241.338C55.864 241.159 55.999 240.965 56.121 240.771C57.634 242.49 58.869 244.51 59.765 246.736C59.155 247.479 58.648 248.327 58.261 249.249C57.8 250.209 57.399 251.205 57.06 252.231C56.436 254.219 55.923 256.251 55.524 258.315C55.524 258.405 55.626 258.435 55.646 258.315C56.037 256.248 56.648 254.244 57.464 252.351C57.85 251.419 58.255 250.501 58.685 249.592C59.13 248.749 59.533 247.877 59.894 246.982C60.75 249.157 61.25 251.499 61.36 253.887C61.36 253.983 61.49 253.969 61.48 253.887C61.24 250.14 60.26 246.509 58.595 243.284C59.379 243.672 60.17 244.03 60.93 244.522C61.89 245.108 62.79 245.829 63.6 246.669C63.67 246.729 63.74 246.617 63.69 246.557Z" fill="#263238"/>
<path d="M54.257 247.109C53.872 248.6 53.383 250.009 53.036 251.5C52.682 252.926 52.492 254.401 52.471 255.885C52.471 255.885 52.529 255.929 52.529 255.885C52.878 252.907 53.496 249.981 54.373 247.154C54.379 247.144 54.383 247.133 54.385 247.121C54.387 247.11 54.386 247.098 54.383 247.087C54.38 247.075 54.374 247.065 54.367 247.057C54.36 247.048 54.351 247.042 54.342 247.038C54.332 247.034 54.322 247.033 54.312 247.035C54.302 247.037 54.292 247.041 54.284 247.048C54.276 247.055 54.269 247.064 54.264 247.075C54.26 247.085 54.257 247.097 54.257 247.109Z" fill="#263238"/>
<path d="M62.4 243.455C61.89 242.892 61.32 242.417 60.7 242.046C60.06 241.71 59.401 241.441 58.724 241.241C58.653 241.241 58.627 241.36 58.724 241.375C59.398 241.578 60.05 241.884 60.65 242.285C61.26 242.651 61.84 243.067 62.4 243.53C62.39 243.567 62.44 243.5 62.4 243.455Z" fill="#263238"/>
<path d="M40.569 225.665C40.569 225.665 41.803 208.218 52.979 202.551C62.32 197.824 67.66 210.007 61.06 217.463C55.723 223.488 47.163 220.766 40.569 225.665Z" fill="#FFA629"/>
<path d="M58.994 205.944C57.292 206.74 55.631 207.651 54.02 208.673C52.682 209.572 51.394 210.568 50.164 211.656C50.344 211.216 50.511 210.753 50.698 210.321C50.987 209.643 51.302 208.986 51.642 208.345C52.333 207.026 53.162 205.811 54.11 204.729C54.168 204.669 54.072 204.565 54.02 204.632C53.084 205.719 52.224 206.89 51.45 208.136C51.067 208.771 50.713 209.428 50.389 210.105C50.06 210.733 49.807 211.41 49.637 212.118L49.515 212.222C47.562 214.026 45.772 216.058 44.175 218.284C44.207 218.113 44.239 217.941 44.278 217.785C44.483 216.927 44.715 216.085 44.92 215.249C45.402 213.457 46.082 211.745 46.945 210.157C46.983 210.082 46.874 210.008 46.836 210.09C45.955 211.678 45.173 213.338 44.496 215.056C44.185 215.89 43.927 216.75 43.725 217.628C43.563 218.2 43.44 218.786 43.359 219.38C42.87 220.126 42.395 220.819 41.939 221.565C37.145 229.491 34.735 239.079 34.156 248.675C33.991 251.531 33.95 254.396 34.034 257.257C34.049 260.145 34.264 263.028 34.677 265.876C34.677 266.055 34.953 266.003 34.947 265.831C34.895 263.311 34.67 260.799 34.625 258.278C34.581 255.758 34.664 253.216 34.838 250.703C35.187 245.667 36.004 240.69 37.273 235.858C38.574 230.909 40.49 226.207 42.96 221.9C43.43 221.788 43.899 221.647 44.361 221.505C44.824 221.363 45.48 221.17 46.032 220.991C47.107 220.672 48.152 220.228 49.149 219.663C49.22 219.663 49.149 219.499 49.085 219.544C48.1 220.17 47.031 220.598 45.923 220.812C45.049 221.013 44.143 221.147 43.262 221.378C44.071 220.006 44.94 218.682 45.865 217.412C47.995 217.639 50.143 217.453 52.221 216.86C53.328 216.552 54.416 216.161 55.479 215.689C56.597 215.19 57.657 214.541 58.763 214.004C58.777 213.996 58.788 213.982 58.794 213.965C58.799 213.947 58.799 213.928 58.792 213.911C58.785 213.894 58.773 213.881 58.758 213.875C58.742 213.869 58.726 213.87 58.711 213.878C56.715 215.14 54.537 215.971 52.285 216.331C50.291 216.697 48.276 216.889 46.257 216.905C47.048 215.846 47.87 214.817 48.744 213.848C51.681 210.604 55.17 207.622 59.026 206.071C59.097 206.049 59.097 205.907 58.994 205.944Z" fill="#263238"/>
<path d="M49.894 205.996C49.392 206.735 48.935 207.512 48.525 208.323C48.1 209.175 47.765 210.084 47.529 211.029C47.529 211.029 47.529 211.074 47.574 211.029C47.947 210.179 48.261 209.292 48.634 208.434C49.007 207.597 49.455 206.807 49.971 206.078C50.035 206.026 49.945 205.922 49.894 205.996Z" fill="#263238"/>
<path d="M60.29 211.775C59.563 212.238 58.794 212.61 57.997 212.886C57.233 213.187 56.454 213.436 55.665 213.631C55.626 213.631 55.665 213.713 55.665 213.706C56.487 213.607 57.298 213.402 58.081 213.094C58.868 212.761 59.637 212.37 60.38 211.924C60.43 211.887 60.38 211.775 60.29 211.775Z" fill="#263238"/>
<path d="M31.881 222.526C31.81 223.272 30.191 216.188 20.738 209.895C12.184 204.184 1.90199 189.324 10.327 179.93C17.12 172.354 35.017 188.877 31.881 222.526Z" fill="#FFA629"/>
<path d="M38.39 263.162C38.25 255.783 37.748 248.419 36.887 241.107C36.141 234.387 34.804 227.774 32.896 221.371C32.189 219.067 31.386 216.792 30.518 214.563C30.566 213.693 30.554 212.821 30.479 211.954C30.428 210.835 30.345 209.717 30.255 208.606C30.165 207.495 30.068 206.369 29.953 205.273C29.837 204.177 29.638 203.036 29.599 201.948C29.602 201.936 29.603 201.924 29.602 201.913C29.6 201.901 29.596 201.89 29.59 201.88C29.584 201.871 29.576 201.863 29.567 201.858C29.558 201.852 29.548 201.85 29.538 201.85C29.528 201.85 29.518 201.852 29.509 201.858C29.5 201.863 29.492 201.871 29.486 201.88C29.48 201.89 29.476 201.901 29.475 201.913C29.473 201.924 29.474 201.936 29.477 201.948C29.668 203.111 29.782 204.29 29.818 205.474C29.888 206.548 29.94 207.629 29.972 208.703C30.004 209.776 29.972 210.865 29.972 211.946C29.972 212.334 29.972 212.744 29.972 213.161C29.085 210.984 28.127 208.837 27.099 206.749C27.742 202.201 26.906 197.452 26.11 193C26.11 192.911 25.975 192.956 25.987 193.045C26.388 195.366 26.603 197.724 26.63 200.091C26.669 201.955 26.592 203.819 26.585 205.69C26.36 205.243 26.135 204.796 25.904 204.356C24.662 202.044 23.344 199.795 21.952 197.608C22.061 196.53 22.029 195.439 21.855 194.372C21.707 193.162 21.481 191.965 21.181 190.793C20.881 189.63 20.532 188.487 20.133 187.363C19.722 186.215 19.176 185.127 18.784 183.964C18.78 183.955 18.775 183.948 18.77 183.942C18.764 183.935 18.757 183.931 18.749 183.927C18.742 183.924 18.734 183.923 18.726 183.923C18.718 183.924 18.71 183.926 18.703 183.93C18.696 183.934 18.69 183.939 18.684 183.946C18.679 183.953 18.675 183.961 18.672 183.97C18.669 183.978 18.668 183.987 18.669 183.997C18.669 184.006 18.671 184.015 18.674 184.023C19.175 185.115 19.572 186.268 19.857 187.46C20.168 188.581 20.425 189.721 20.628 190.875C20.827 192.031 20.994 193.187 21.129 194.35C21.226 195.095 21.283 195.923 21.399 196.706C19.375 193.548 17.163 190.559 14.78 187.759C14.722 187.692 14.645 187.796 14.696 187.863C18.297 192.562 21.514 197.639 24.304 203.029L24.606 203.64C24.085 203.26 23.488 202.962 22.999 202.648C22.087 202.062 21.168 201.475 20.242 200.889C19.317 200.302 18.426 199.736 17.569 199.189C17.106 198.898 16.656 198.585 16.187 198.309C15.63 198.019 15.094 197.675 14.587 197.28C14.516 197.22 14.439 197.347 14.516 197.392C15.423 197.973 16.232 198.838 17.087 199.487C17.942 200.136 18.867 200.769 19.786 201.366C21.47 202.455 23.295 203.237 24.927 204.348C26.077 206.675 27.131 209.068 28.14 211.499C27.138 210.753 26.11 210.007 25.069 209.366C24.426 208.934 23.732 208.509 23.051 208.091C22.368 207.73 21.721 207.282 21.123 206.757C21.11 206.746 21.095 206.741 21.08 206.742C21.064 206.743 21.05 206.751 21.039 206.764C21.028 206.776 21.021 206.793 21.02 206.811C21.019 206.829 21.024 206.847 21.033 206.861C22.136 208.006 23.355 208.99 24.664 209.791C25.878 210.611 27.106 211.409 28.372 212.125C29.378 214.695 30.289 217.312 31.103 219.976C35.087 233.047 36.546 246.922 37.246 260.701C37.452 264.809 37.561 268.903 37.606 273.026C37.651 277.149 37.458 281.228 37.471 285.351C37.471 285.47 37.638 285.5 37.658 285.351C38.082 281.705 38.153 277.999 38.3 274.331C38.448 270.662 38.461 266.89 38.39 263.162Z" fill="#263238"/>
<path d="M21.213 203.991C19.488 203.106 17.812 202.098 16.194 200.971C14.55 199.903 12.958 198.731 11.426 197.459C11.426 197.459 11.368 197.459 11.426 197.511C12.875 198.875 14.404 200.121 16.002 201.239C17.676 202.318 19.4061 203.277 21.1811 204.11C21.2261 204.147 21.291 204.02 21.213 203.991Z" fill="#263238"/>
<path d="M23.957 189.212C23.816 188.579 23.642 187.952 23.456 187.326C23.462 187.315 23.466 187.302 23.466 187.289C23.466 187.275 23.462 187.262 23.456 187.251L23.109 186.2C23.099 186.156 23.084 186.113 23.064 186.073C23.064 186.006 23.019 185.939 22.993 185.872C22.993 185.872 23.051 186.118 23.083 186.237C23.087 186.3 23.096 186.363 23.109 186.424C23.73 188.867 24.198 191.359 24.51 193.88C24.51 193.954 24.626 193.962 24.619 193.88C24.524 192.304 24.302 190.741 23.957 189.212Z" fill="#263238"/>
<path d="M48.377 265.808L47.702 275.084L45.639 303.372H23.52L21.457 275.084L20.782 265.808H48.377Z" fill="#37474F"/>
<path d="M48.377 265.808L47.702 275.084H21.457L20.782 265.808H48.377Z" fill="#263238"/>
<path d="M50.543 262.088H18.61V270.983H50.543V262.088Z" fill="#37474F"/>
</g>
<defs>
<clipPath id="clip0_320_1407">
<rect width="282" height="311" fill="white"/>
</clipPath>
</defs>
</svg>
